<svg xmlns="http://www.w3.org/2000/svg" xmlns:xlink="http://www.w3.org/1999/xlink" width="105" height="105" viewBox="0 0 105 105">
  <defs>
    <clipPath id="clip-path">
      <path id="path4146" d="M0-682.665H105v105H0Z" transform="translate(0 682.665)"/>
    </clipPath>
  </defs>
  <g id="g4140" transform="translate(0 682.665)">
    <g id="g4142" transform="translate(0 -682.665)">
      <g id="g4144" clip-path="url(#clip-path)">
        <g id="g4150" transform="translate(1.538 61.63)">
          <path id="path4152" d="M-152.49-3.989l-27.4,27.487a1.1,1.1,0,0,0,.776,1.87h71.362A2.465,2.465,0,0,0-106,24.642l27.4-27.487a1.1,1.1,0,0,0-.776-1.87h-71.361a2.466,2.466,0,0,0-1.747.725" transform="translate(180.207 4.715)" fill="#ffa78f"/>
        </g>
        <g id="g4154" transform="translate(22.076 84.904)">
          <path id="path4156" d="M-27.79,0c-2.79,0-5.051,1.933-5.051,4.317a3.886,3.886,0,0,0,.927,2.491h8.249a3.886,3.886,0,0,0,.927-2.491C-22.739,1.933-25,0-27.79,0" transform="translate(32.841 0)" fill="#f89580"/>
        </g>
        <g id="g4158" transform="translate(67.23 61.63)">
          <path id="path4160" d="M-193.29,0h-6.768a1.1,1.1,0,0,1,.776,1.87l-27.4,27.487a2.466,2.466,0,0,1-1.747.725h6.768a2.467,2.467,0,0,0,1.747-.725l27.4-27.487A1.1,1.1,0,0,0-193.29,0" transform="translate(228.423)" fill="#f89580"/>
        </g>
        <g id="g4162" transform="translate(45.557 73.163)">
          <path id="path4164" d="M-75.453-26.218c0,2.632-3.07,4.766-6.857,4.766s-6.857-2.134-6.857-4.766,3.07-4.766,6.857-4.766,6.857,2.134,6.857,4.766" transform="translate(89.168 30.984)" fill="#f89580"/>
        </g>
        <g id="g4166" transform="translate(1.538 45.19)">
          <path id="path4168" d="M-152.49-3.989l-27.4,27.487a1.1,1.1,0,0,0,.776,1.87h71.362A2.465,2.465,0,0,0-106,24.642l27.4-27.487a1.1,1.1,0,0,0-.776-1.87h-71.361a2.466,2.466,0,0,0-1.747.725" transform="translate(180.207 4.715)" fill="#e8ad8c"/>
        </g>
        <g id="g4170" transform="translate(67.23 45.19)">
          <path id="path4172" d="M-193.29,0h-6.768a1.1,1.1,0,0,1,.776,1.87l-27.4,27.487a2.467,2.467,0,0,1-1.747.725h6.768a2.467,2.467,0,0,0,1.747-.725l27.4-27.487A1.1,1.1,0,0,0-193.29,0" transform="translate(228.423)" fill="#e19a74"/>
        </g>
        <g id="g4174" transform="translate(1.538 27.743)">
          <path id="path4176" d="M-152.49-3.989l-27.4,27.487a1.1,1.1,0,0,0,.776,1.87h71.361A2.466,2.466,0,0,0-106,24.642l27.4-27.487a1.1,1.1,0,0,0-.776-1.87h-71.361a2.466,2.466,0,0,0-1.747.725" transform="translate(180.207 4.715)" fill="#68ca44"/>
        </g>
        <g id="g4178" transform="translate(67.23 27.743)">
          <path id="path4180" d="M-193.29,0h-6.768a1.1,1.1,0,0,1,.776,1.87l-27.4,27.487a2.467,2.467,0,0,1-1.747.725h6.768a2.467,2.467,0,0,0,1.747-.725l27.4-27.487A1.1,1.1,0,0,0-193.29,0" transform="translate(228.423)" fill="#4fc123"/>
        </g>
        <g id="g4182" transform="translate(20.598 22.596)">
          <path id="path4184" d="M-55.848-74.465a3.384,3.384,0,0,1-3.384-3.384,3.384,3.384,0,0,1,3.384-3.384,3.384,3.384,0,0,1,3.384,3.384,3.384,3.384,0,0,1-3.384,3.384m0-13.535A10.163,10.163,0,0,0-66-77.848c0,8.24,10.151,14.458,10.151,14.458S-45.7-69.889-45.7-77.848A10.163,10.163,0,0,0-55.848-88" transform="translate(66 88)" fill="#fd8087"/>
        </g>
        <g id="g4186" transform="translate(70.553 13.288)">
          <path id="path4188" d="M0-4.966a.9.9,0,0,1,1.007-.9,8.178,8.178,0,0,1,7.17,8.116V3.843H6.4A6.4,6.4,0,0,1,0-2.56Z" transform="translate(0 5.868)" fill="#68ca44"/>
        </g>
        <g id="g4190" transform="translate(78.73 13.288)">
          <path id="path4192" d="M-44.986-4.966a.9.9,0,0,0-1.007-.9,8.178,8.178,0,0,0-7.17,8.116V3.843h1.774a6.4,6.4,0,0,0,6.4-6.4Z" transform="translate(53.163 5.868)" fill="#4fc123"/>
        </g>
        <g id="g4194" transform="translate(22.076 84.904)">
          <path id="path4196" d="M-50.481-37.455a3.886,3.886,0,0,0,.927-2.491c0-2.384-2.262-4.317-5.051-4.317s-5.051,1.933-5.051,4.317a3.887,3.887,0,0,0,.927,2.491" transform="translate(59.657 44.263)" fill="none" stroke="#000" stroke-linecap="round" stroke-linejoin="round" stroke-miterlimit="10" stroke-width="1.4"/>
        </g>
        <g id="g4198" transform="translate(45.556 75.272)">
          <path id="path4200" d="M-69.06,0A3.817,3.817,0,0,1-67.9,2.656c0,2.633-3.07,4.766-6.858,4.766s-6.858-2.133-6.858-4.766A3.817,3.817,0,0,1-80.45,0" transform="translate(81.613 0)" fill="none" stroke="#000" stroke-linecap="round" stroke-linejoin="round" stroke-miterlimit="10" stroke-width="1.4"/>
        </g>
        <g id="g4202" transform="translate(1.538 75.272)">
          <path id="path4204" d="M-81.663,0-96.185,14.571a1.1,1.1,0,0,0,.775,1.868H-45" transform="translate(96.507)" fill="none" stroke="#000" stroke-linecap="round" stroke-linejoin="round" stroke-miterlimit="10" stroke-width="1.4"/>
        </g>
        <g id="g4206" transform="translate(60.219 61.63)">
          <path id="path4208" d="M-156.24,0h13.746a1.1,1.1,0,0,1,.775,1.87l-27.4,27.487a2.465,2.465,0,0,1-1.745.724H-184.64" transform="translate(184.64)" fill="none" stroke="#000" stroke-linecap="round" stroke-linejoin="round" stroke-miterlimit="10" stroke-width="1.4"/>
        </g>
        <g id="g4210" transform="translate(10.968 64.263)">
          <path id="path4212" d="M-60.567-60.567-71.576-71.576" transform="translate(71.576 71.576)" fill="none" stroke="#000" stroke-linecap="round" stroke-linejoin="round" stroke-miterlimit="10" stroke-width="1.4"/>
        </g>
        <g id="g4214" transform="translate(17.479 57.826)">
          <path id="path4216" d="M-95.969-95.98l-17.444-17.446" transform="translate(113.413 113.426)" fill="none" stroke="#000" stroke-linecap="round" stroke-linejoin="round" stroke-miterlimit="10" stroke-width="1.4"/>
        </g>
        <g id="g4218" transform="translate(30.425 57.826)">
          <path id="path4220" d="M-95.98-95.98l-17.446-17.446" transform="translate(113.426 113.426)" fill="none" stroke="#000" stroke-linecap="round" stroke-linejoin="round" stroke-miterlimit="10" stroke-width="1.4"/>
        </g>
        <g id="g4222" transform="translate(43.374 57.826)">
          <path id="path4224" d="M-95.98-95.98l-17.446-17.446" transform="translate(113.426 113.426)" fill="none" stroke="#000" stroke-linecap="round" stroke-linejoin="round" stroke-miterlimit="10" stroke-width="1.4"/>
        </g>
        <g id="g4226" transform="translate(56.319 57.826)">
          <path id="path4228" d="M-95.992-95.98l-17.448-17.446" transform="translate(113.44 113.426)" fill="none" stroke="#000" stroke-linecap="round" stroke-linejoin="round" stroke-miterlimit="10" stroke-width="1.4"/>
        </g>
        <g id="g4230" transform="translate(69.267 57.826)">
          <path id="path4232" d="M-63.78-63.78-75.373-75.373" transform="translate(75.373 75.373)" fill="none" stroke="#000" stroke-linecap="round" stroke-linejoin="round" stroke-miterlimit="10" stroke-width="1.4"/>
        </g>
        <g id="g4234" transform="translate(78.613 54.221)">
          <path id="path4236" d="M-47.917-47.917l-8.71-8.71" transform="translate(56.627 56.627)" fill="none" stroke="#000" stroke-linecap="round" stroke-linejoin="round" stroke-miterlimit="10" stroke-width="1.4"/>
        </g>
        <g id="g4238" transform="translate(85.075 47.738)">
          <path id="path4240" d="M-47.917-47.917l-8.71-8.71" transform="translate(56.627 56.627)" fill="none" stroke="#000" stroke-linecap="round" stroke-linejoin="round" stroke-miterlimit="10" stroke-width="1.4"/>
        </g>
        <g id="g4242" transform="translate(1.538 45.189)">
          <path id="path4244" d="M-473.56,0h14.749a1.1,1.1,0,0,1,.775,1.87l-27.4,27.489a2.465,2.465,0,0,1-1.745.724h-71.363a1.1,1.1,0,0,1-.775-1.87l15.524-15.576" transform="translate(559.638)" fill="none" stroke="#000" stroke-linecap="round" stroke-linejoin="round" stroke-miterlimit="10" stroke-width="1.4"/>
        </g>
        <g id="g4246" transform="translate(1.538 27.743)">
          <path id="path4248" d="M-292.579,0h47.646a1.1,1.1,0,0,1,.775,1.87l-27.4,27.487a2.466,2.466,0,0,1-1.745.726h-71.363a1.1,1.1,0,0,1-.775-1.87l19.415-19.48" transform="translate(345.76)" fill="none" stroke="#000" stroke-linecap="round" stroke-linejoin="round" stroke-miterlimit="10" stroke-width="1.4"/>
        </g>
        <g id="g4250" transform="translate(39.578 27.743)">
          <path id="path4252" d="M-43.81,0h-7.963" transform="translate(51.773)" fill="none" stroke="#000" stroke-linecap="round" stroke-linejoin="round" stroke-miterlimit="10" stroke-width="1.4"/>
        </g>
        <g id="g4254" transform="translate(37.825 27.742)">
          <path id="path4256" d="M-165.244,0-195.28,30.083" transform="translate(195.28)" fill="none" stroke="#000" stroke-linecap="round" stroke-linejoin="round" stroke-miterlimit="10" stroke-width="1.4"/>
        </g>
        <g id="g4258" transform="translate(35.995 42.783)">
          <path id="path4260" d="M-297.182,0H-351.2" transform="translate(351.199)" fill="none" stroke="#000" stroke-linecap="round" stroke-linejoin="round" stroke-miterlimit="10" stroke-width="1.4"/>
        </g>
        <g id="g4262" transform="translate(14.987 42.783)">
          <path id="path4264" d="M-57.293,0H-67.706" transform="translate(67.706)" fill="none" stroke="#000" stroke-linecap="round" stroke-linejoin="round" stroke-miterlimit="10" stroke-width="1.4"/>
        </g>
        <g id="g4266" transform="translate(20.598 22.596)">
          <path id="path4268" d="M-55.848-74.465a3.384,3.384,0,0,1-3.384-3.384,3.384,3.384,0,0,1,3.384-3.384,3.384,3.384,0,0,1,3.384,3.384A3.384,3.384,0,0,1-55.848-74.465Zm0-13.535A10.163,10.163,0,0,0-66-77.848c0,8.24,10.151,14.458,10.151,14.458S-45.7-69.889-45.7-77.848A10.163,10.163,0,0,0-55.848-88Z" transform="translate(66 88)" fill="none" stroke="#000" stroke-linecap="round" stroke-linejoin="round" stroke-miterlimit="10" stroke-width="1.4"/>
        </g>
        <g id="g4270" transform="translate(78.73 22.371)">
          <path id="path4272" d="M0,0V13.453" fill="none" stroke="#000" stroke-linecap="round" stroke-linejoin="round" stroke-miterlimit="10" stroke-width="1.4"/>
        </g>
        <g id="g4274" transform="translate(70.553 13.288)">
          <path id="path4276" d="M0-4.966a.9.9,0,0,1,1.007-.9,8.178,8.178,0,0,1,7.17,8.116V3.843H6.4A6.4,6.4,0,0,1,0-2.56Z" transform="translate(0 5.868)" fill="none" stroke="#000" stroke-linecap="round" stroke-linejoin="round" stroke-miterlimit="10" stroke-width="1.4"/>
        </g>
        <g id="g4278" transform="translate(78.73 13.288)">
          <path id="path4280" d="M-44.986-4.966a.9.9,0,0,0-1.007-.9,8.178,8.178,0,0,0-7.17,8.116V3.843h1.774a6.4,6.4,0,0,0,6.4-6.4Z" transform="translate(53.163 5.868)" fill="none" stroke="#000" stroke-linecap="round" stroke-linejoin="round" stroke-miterlimit="10" stroke-width="1.4"/>
        </g>
      </g>
    </g>
  </g>
</svg>
