<svg xmlns="http://www.w3.org/2000/svg" width="85" height="72.943" viewBox="0 0 85 72.943">
  <g id="Grupo_1201232" data-name="Grupo 1201232" transform="translate(-495.051 -1888)">
    <g id="Layer_x0020_1" transform="translate(495.051 1888)">
      <path id="Trazado_1241337" data-name="Trazado 1241337" d="M0,0H85V72.943H0Z" fill="none" fill-rule="evenodd"/>
    </g>
    <g id="mountain-range_6312364" transform="translate(504.269 1891.216)">
      <path id="Trazado_1243992" data-name="Trazado 1243992" d="M173.872,114.533l5.825-5.825-2.507-2.507-2.433.966-4.061,4.061-.635,2.1,1.757,1.757Z" transform="translate(-148.196 -92.529)" fill="#f6e869"/>
      <path id="Trazado_1243993" data-name="Trazado 1243993" d="M169.417,95.36l-1.6-1.6-5.825,5.825-.851,1.757,1.148,1.148Z" transform="translate(-140.423 -81.69)" fill="#efdf2c"/>
      <path id="Trazado_1243994" data-name="Trazado 1243994" d="M343.7,183.971l2.177-2.174V171.389a3.919,3.919,0,0,0-3.919-3.919,3.719,3.719,0,0,1-3-1.53l-4.784-6.579a3.715,3.715,0,0,0-5.6-.475,3.67,3.67,0,0,0-.687.913l-4.835,9.067-.574,3.859Z" transform="translate(-280.994 -137.515)" fill="#6dc647"/>
      <path id="Trazado_1243995" data-name="Trazado 1243995" d="M300.686,246.422l-2.07,3.4L323.15,264.48l1.937-2.451v-5.556a6.632,6.632,0,0,0-.949-.53l-7.383-3.355a.741.741,0,0,1-.338-.309l-2.208-3.863a6.7,6.7,0,0,0-5.8-3.37h-4.669a.748.748,0,0,1-.6-.307l-.871-1.2-1.306,2.449A3.628,3.628,0,0,1,300.686,246.422Z" transform="translate(-260.203 -212.19)" fill="#4fb02a"/>
      <path id="Trazado_1243996" data-name="Trazado 1243996" d="M116.774,223.7l-7.384-3.355a3.7,3.7,0,0,1-.616-.358,22.745,22.745,0,0,0-1.757-2.379l-1.524-2.666a3.712,3.712,0,0,0-3.224-1.872H97.6a3.715,3.715,0,0,1-3-1.53L89.836,205a3.717,3.717,0,0,0-6.307.4l-6.141,11.516a3.716,3.716,0,0,1-3.277,1.967H71.353c-11.22,3.927-12.834,19.24-2.024,23.3h45.907a3.715,3.715,0,0,0,3.715-3.714V227.085a3.714,3.714,0,0,0-2.177-3.382Z" transform="translate(-54.067 -177.246)" fill="#8bd270"/>
      <path id="Trazado_1243997" data-name="Trazado 1243997" d="M24.036,323.443H19a3.7,3.7,0,0,0-1.463.3L13.2,325.606a3.712,3.712,0,0,0-2.156,2.58L7.812,342.2a3.713,3.713,0,0,0,3.619,4.548h10.58A22.663,22.663,0,0,1,24.036,323.443Z" transform="translate(-6.749 -281.807)" fill="#6dc647"/>
      <circle id="Elipse_12341" data-name="Elipse 12341" cx="2.905" cy="2.905" r="2.905" transform="translate(30.988 36.794)" fill="#fa5c6f"/>
      <path id="Trazado_1243998" data-name="Trazado 1243998" d="M214.439,407.021h-5.093a3.325,3.325,0,0,1-2.688-1.369l-5.1-7.005a3.329,3.329,0,0,0-.349-.4c-4.235-.494-9.593,10.747-7.754,13.66h25.7l-1.831-3.206A3.329,3.329,0,0,0,214.439,407.021Z" transform="translate(-168.259 -346.964)" fill="#c0e8f9"/>
      <path id="Trazado_1243999" data-name="Trazado 1243999" d="M169.986,392.809a3.326,3.326,0,0,1,.815-1,3.324,3.324,0,0,0-3.827-.615l-.407.2a3.33,3.33,0,0,0-1.446,1.41L158.81,404.64a3.283,3.283,0,0,1-.629.832h4.866a3.282,3.282,0,0,0,.629-.832Z" transform="translate(-137.846 -340.533)" fill="#a6dff4"/>
      <path id="Trazado_1244000" data-name="Trazado 1244000" d="M157.139,154.786l2.054-2.054-2.507-2.507-1.266-.181-1.448,1.448a2.814,2.814,0,0,0,.133,3.974A2.9,2.9,0,0,0,157.139,154.786Z" transform="translate(-133.518 -130.728)" fill="#5f7080"/>
      <path id="Trazado_1244001" data-name="Trazado 1244001" d="M147.7,142.6l1.99-1.99-1.6-1.6-2.054,2.055a2.9,2.9,0,0,0,1.076,4.787,2.9,2.9,0,0,1,.591-3.25Z" transform="translate(-126.519 -121.116)" fill="#546370"/>
      <path id="Trazado_1244002" data-name="Trazado 1244002" d="M225.606,16.814a8.714,8.714,0,0,0-8.063-9.148c-10.136,2.46-9.742,14.337-.581,17.4A8.714,8.714,0,0,0,225.606,16.814Z" transform="translate(-183.008 -6.679)" fill="#78cbed"/>
      <path id="Trazado_1244003" data-name="Trazado 1244003" d="M201.2,19.945A10.533,10.533,0,0,1,205.155,7.5a8.714,8.714,0,1,0-.581,17.4A11.322,11.322,0,0,1,201.2,19.945Z" transform="translate(-170.62 -6.518)" fill="#34b6e2"/>
      <path id="Trazado_1244004" data-name="Trazado 1244004" d="M65.1,37.162a.965.965,0,0,0,.965-.965V33.875a4.882,4.882,0,0,0-4.884-4.884,2.761,2.761,0,0,1-2.224-1.133l-4.784-6.579a4.68,4.68,0,0,0-7.915.551L40.59,32.449l-3.855-5.3a4.655,4.655,0,0,0-1.665-1.42V19.311a9.682,9.682,0,1,0-9.978-6.1l-6.051,6.051a3.871,3.871,0,0,0,5.474,5.474l6.051-6.051a9.756,9.756,0,0,0,2.573.62v5.916A4.687,4.687,0,0,0,28.821,27.7L22.68,39.215a2.745,2.745,0,0,1-2.425,1.456H12.467a4.639,4.639,0,0,0-1.843.379L6.279,42.912a4.692,4.692,0,0,0-2.718,3.251l-1,4.345a.966.966,0,1,0,1.882.434l1-4.345a2.756,2.756,0,0,1,1.6-1.909l4.346-1.863a2.721,2.721,0,0,1,1.081-.222h7.788a4.673,4.673,0,0,0,4.129-2.478l6.142-11.516a2.745,2.745,0,0,1,2.614-1.445v8.788a3.871,3.871,0,1,0,1.931,0v-7.8c.138.168-.241-.337,4.838,6.64l.05.07a4.7,4.7,0,0,0,3.786,1.928h4.669A2.753,2.753,0,0,1,50.8,38.177l2.209,3.865a4.652,4.652,0,0,0,2.127,1.939l7.383,3.355a2.755,2.755,0,0,1,1.611,2.5V61.225a2.752,2.752,0,0,1-2.75,2.748H51.671l-1.554-2.72a4.3,4.3,0,0,0-3.726-2.162H41.3a2.364,2.364,0,0,1-1.908-.971l-5.1-7A4.276,4.276,0,0,0,28.908,49.8L28.5,50a4.268,4.268,0,0,0-1.866,1.819L20.323,63.655a2.309,2.309,0,0,1-.2.319H4.893a2.748,2.748,0,0,1-2.679-3.366l1.212-5.263a.965.965,0,0,0-1.882-.433L.333,60.174A4.678,4.678,0,0,0,4.893,65.9H61.381a4.685,4.685,0,0,0,4.68-4.679V40.716a.965.965,0,0,0-1.931,0v5.338a4.654,4.654,0,0,0-.812-.476l-7.383-3.355a2.732,2.732,0,0,1-1.249-1.14l-2.209-3.864a4.688,4.688,0,0,0-4.063-2.359H43.744a2.761,2.761,0,0,1-1.863-.728l6.077-11.394a2.749,2.749,0,0,1,4.649-.323l4.785,6.58a4.7,4.7,0,0,0,3.785,1.927,2.952,2.952,0,0,1,2.954,2.954V36.2a.965.965,0,0,0,.965.966ZM25.887,20.638l-2.743-2.743,2.882-2.882a9.692,9.692,0,0,0,2.743,2.743ZM23.15,23.375a1.94,1.94,0,0,1-2.743-2.743l1.372-1.372L24.522,22ZM27.11,13.02h0a7.754,7.754,0,1,1,7.961,4.348V9.677a.965.965,0,1,0-1.931,0v7.688A7.745,7.745,0,0,1,27.11,13.02ZM36.045,39.7a1.94,1.94,0,1,1-1.94-1.94A1.942,1.942,0,0,1,36.045,39.7ZM28.338,52.731a2.348,2.348,0,0,1,1.025-1l.408-.2a2.352,2.352,0,0,1,2.963.723l5.1,7A4.3,4.3,0,0,0,41.3,61.022h5.093a2.368,2.368,0,0,1,2.05,1.189l1.006,1.762H22.341Z" transform="translate(-0.211 0)"/>
    </g>
  </g>
</svg>
