<svg xmlns="http://www.w3.org/2000/svg" width="129.063" height="91.186" viewBox="0 0 129.063 91.186">
  <g id="Grupo_1201413" data-name="Grupo 1201413" transform="translate(-788.103 -1976.525)">
    <g id="Rectángulo_410589" data-name="Rectángulo 410589" transform="translate(788.103 2007.607)" fill="#ffc94a" stroke="#b18c32" stroke-width="1">
      <rect width="129.063" height="43.021" rx="8" stroke="none"/>
      <rect x="0.5" y="0.5" width="128.063" height="42.021" rx="7.5" fill="none"/>
    </g>
    <g id="manure_10144684" transform="translate(773.859 1970.025)">
      <g id="Grupo_1202017" data-name="Grupo 1202017" transform="translate(40.045 7.5)">
        <path id="Trazado_1275158" data-name="Trazado 1275158" d="M57.627,129.181V122.93a5.4,5.4,0,0,1,5.4-5.4h60.317a5.4,5.4,0,0,1,5.4,5.4v6.251Z" transform="translate(-54.46 -97.706)" fill="#fde31d"/>
        <path id="Trazado_1275159" data-name="Trazado 1275159" d="M111.632,182.228c7.709,33.667,1.366,48.7,1.366,48.7h0a4.5,4.5,0,0,1,4.5,4.5h0a4.5,4.5,0,0,1-4.5,4.5H44.548a4.5,4.5,0,0,1-4.5-4.5h0a4.5,4.5,0,0,1,4.5-4.5s-6.343-15.036,1.366-48.7Z" transform="translate(-40.045 -150.753)" fill="#fde31d"/>
        <path id="Trazado_1275160" data-name="Trazado 1275160" d="M162.007,27.321a6.762,6.762,0,0,0-5.7-6.418,6.762,6.762,0,0,0-6.64-5.487,6.885,6.885,0,0,0-.93.065,6.759,6.759,0,0,0-11.352-3.551,9.906,9.906,0,0,0-18,3.707,6.761,6.761,0,0,0-5.986,6.036,6.759,6.759,0,0,0-3.8,5.647Z" transform="translate(-97.066 -7.5)" fill="#e6cc9f"/>
        <path id="Trazado_1275161" data-name="Trazado 1275161" d="M225.74,292.829c-5.1,5.1-13.367,5.106-13.367,5.106s0-8.266,5.106-13.367,13.367-5.106,13.367-5.106S230.841,287.728,225.74,292.829Z" transform="translate(-181.33 -230.471)" fill="#8ae897"/>
        <path id="Trazado_1275162" data-name="Trazado 1275162" d="M117.9,21.673a6.761,6.761,0,0,1,5.986-6.036,9.92,9.92,0,0,1,7.5-7.879,9.913,9.913,0,0,0-12,7.879,6.761,6.761,0,0,0-5.986,6.036,6.759,6.759,0,0,0-3.8,5.647h4.5A6.759,6.759,0,0,1,117.9,21.673Z" transform="translate(-97.066 -7.5)" fill="#dfba7f"/>
        <path id="Trazado_1275163" data-name="Trazado 1275163" d="M67.535,117.526h-4.5a5.4,5.4,0,0,0-5.4,5.4v6.251h4.5V122.93A5.4,5.4,0,0,1,67.535,117.526Z" transform="translate(-54.46 -97.706)" fill="#e9ca1c"/>
        <path id="Trazado_1275164" data-name="Trazado 1275164" d="M44.548,235.434a4.5,4.5,0,0,1,4.5-4.5s-6.343-15.036,1.366-48.7h-4.5c-7.709,33.667-1.366,48.7-1.366,48.7a4.5,4.5,0,0,0,0,9.007h4.5A4.5,4.5,0,0,1,44.548,235.434Z" transform="translate(-40.045 -150.753)" fill="#e9ca1c"/>
      </g>
      <g id="Grupo_1202021" data-name="Grupo 1202021" transform="translate(40.045 7.5)">
        <path id="Trazado_1275165" data-name="Trazado 1275165" d="M76.165,117.53H63.029a5.4,5.4,0,0,0-5.4,5.4v6.251h71.126v-6.251a5.4,5.4,0,0,0-5.4-5.4H78.867" transform="translate(-54.458 -97.709)" fill="none" stroke="#000" stroke-miterlimit="10" stroke-width="2"/>
        <line id="Línea_567" data-name="Línea 567" x2="8.719" transform="translate(4.503 80.178)" fill="none" stroke="#000" stroke-miterlimit="10" stroke-width="2"/>
        <line id="Línea_568" data-name="Línea 568" x2="8.719" transform="translate(64.237 80.178)" fill="none" stroke="#000" stroke-miterlimit="10" stroke-width="2"/>
        <path id="Trazado_1275166" data-name="Trazado 1275166" d="M45.914,182.23c-7.708,33.666-1.365,48.7-1.365,48.7a4.5,4.5,0,0,0,0,9.007h53.08" transform="translate(-40.045 -150.754)" fill="none" stroke="#000" stroke-miterlimit="10" stroke-width="2"/>
        <path id="Trazado_1275167" data-name="Trazado 1275167" d="M386.007,182.23c7.708,33.666,1.366,48.7,1.366,48.7a4.5,4.5,0,1,1,0,9.007H374.7" transform="translate(-314.419 -150.754)" fill="none" stroke="#000" stroke-miterlimit="10" stroke-width="2"/>
        <path id="Trazado_1275168" data-name="Trazado 1275168" d="M162.007,27.321a6.762,6.762,0,0,0-5.7-6.418,6.762,6.762,0,0,0-6.64-5.487,6.885,6.885,0,0,0-.93.065,6.759,6.759,0,0,0-11.352-3.551,9.906,9.906,0,0,0-18,3.707,6.761,6.761,0,0,0-5.986,6.036,6.759,6.759,0,0,0-3.8,5.647" transform="translate(-97.066 -7.5)" fill="none" stroke="#000" stroke-miterlimit="10" stroke-width="2"/>
        <g id="Grupo_1202018" data-name="Grupo 1202018" transform="translate(23.058 2.511)">
          <path id="Trazado_1275169" data-name="Trazado 1275169" d="M168.045,52.441a6.761,6.761,0,0,1,6.761,6.761" transform="translate(-168.045 -46.857)" fill="none" stroke="#000" stroke-miterlimit="10" stroke-width="2"/>
          <path id="Trazado_1275170" data-name="Trazado 1275170" d="M252.513,28.2a6.761,6.761,0,0,1,6.761-6.761" transform="translate(-237.297 -21.441)" fill="none" stroke="#000" stroke-miterlimit="10" stroke-width="2"/>
          <path id="Trazado_1275171" data-name="Trazado 1275171" d="M294.513,58.2a6.761,6.761,0,0,1,6.761-6.761" transform="translate(-271.731 -46.037)" fill="none" stroke="#000" stroke-miterlimit="10" stroke-width="2"/>
        </g>
        <g id="Grupo_1202019" data-name="Grupo 1202019" transform="translate(11.682 38.944)">
          <path id="Trazado_1275172" data-name="Trazado 1275172" d="M136.325,245.076a21.389,21.389,0,0,1,40.24-10.1" transform="translate(-130.663 -223.69)" fill="none" stroke="#000" stroke-miterlimit="10" stroke-width="2"/>
          <path id="Trazado_1275173" data-name="Trazado 1275173" d="M182.828,316.2a21.39,21.39,0,0,1-41.313,10.99" transform="translate(-134.918 -299.535)" fill="none" stroke="#000" stroke-miterlimit="10" stroke-width="2"/>
          <path id="Trazado_1275174" data-name="Trazado 1275174" d="M104.9,315.8l5.661,4.793,5.715-4.793" transform="translate(-104.896 -299.21)" fill="none" stroke="#000" stroke-miterlimit="10" stroke-width="2"/>
          <path id="Trazado_1275175" data-name="Trazado 1275175" d="M339.9,320.6l5.661-4.793,5.715,4.793" transform="translate(-297.563 -299.21)" fill="none" stroke="#000" stroke-miterlimit="10" stroke-width="2"/>
        </g>
        <g id="Grupo_1202020" data-name="Grupo 1202020" transform="translate(26.477 48.991)">
          <path id="Trazado_1275176" data-name="Trazado 1275176" d="M225.74,292.829c-5.1,5.1-13.367,5.106-13.367,5.106s0-8.266,5.106-13.367,13.367-5.106,13.367-5.106S230.841,287.728,225.74,292.829Z" transform="translate(-207.806 -279.462)" fill="none" stroke="#000" stroke-miterlimit="10" stroke-width="2"/>
          <line id="Línea_569" data-name="Línea 569" x1="13.803" y2="13.803" transform="translate(0 9.236)" fill="none" stroke="#000" stroke-miterlimit="10" stroke-width="2"/>
        </g>
      </g>
      <g id="Grupo_1202022" data-name="Grupo 1202022" transform="translate(74.722 33.148)">
        <line id="Línea_570" data-name="Línea 570" x2="2.702" fill="none" stroke="#fff" stroke-miterlimit="10" stroke-width="2"/>
        <line id="Línea_571" data-name="Línea 571" x2="2.702" transform="translate(5.404)" fill="none" stroke="#fff" stroke-miterlimit="10" stroke-width="2"/>
      </g>
    </g>
  </g>
</svg>
