<svg xmlns="http://www.w3.org/2000/svg" width="129.063" height="89.757" viewBox="0 0 129.063 89.757">
  <g id="Grupo_1201414" data-name="Grupo 1201414" transform="translate(-788.103 -1984.447)">
    <g id="Rectángulo_410589" data-name="Rectángulo 410589" transform="translate(788.103 2007.607)" fill="#ffc94a" stroke="#dfab32" stroke-width="1">
      <rect width="129.063" height="43.021" rx="8" stroke="none"/>
      <rect x="0.5" y="0.5" width="128.063" height="42.021" rx="7.5" fill="none"/>
    </g>
    <g id="Icon_Ecosystem" data-name="Icon Ecosystem" transform="translate(308.546 1473.627)">
      <path id="Trazado_1275177" data-name="Trazado 1275177" d="M674.648,2068.49h-9.032a3.27,3.27,0,0,0-3.27,3.27h-4.6a2.4,2.4,0,1,0,0,4.8,2.261,2.261,0,0,0,.247-.025h8.7a2.263,2.263,0,0,0,.247.025,2.393,2.393,0,0,0,2.228-1.525h5.477a3.27,3.27,0,0,0,0-6.54Z" transform="translate(-149.871 -1501.766)" fill="#61cfff" stroke="#424242" stroke-linecap="round" stroke-linejoin="round" stroke-width="2" stroke-dasharray="3884.4 116.53 9711 0"/>
      <circle id="Elipse_12358" data-name="Elipse 12358" cx="5.48" cy="5.48" r="5.48" transform="translate(561.504 528.702)" fill="#ffcc4d" stroke="#424242" stroke-linecap="round" stroke-linejoin="round" stroke-width="2"/>
      <path id="Trazado_1275178" data-name="Trazado 1275178" d="M2648.149,1145.84h-3.678" transform="translate(-2068.834 -611.658)" fill="none" stroke="#424242" stroke-linecap="round" stroke-linejoin="round" stroke-width="2"/>
      <path id="Trazado_1275179" data-name="Trazado 1275179" d="M2399.17,1394.818v-3.678" transform="translate(-1832.186 -848.306)" fill="none" stroke="#424242" stroke-linecap="round" stroke-linejoin="round" stroke-width="2"/>
      <path id="Trazado_1275180" data-name="Trazado 1275180" d="M2399.17,799.912V796.24" transform="translate(-1832.186 -274.389)" fill="none" stroke="#424242" stroke-linecap="round" stroke-linejoin="round" stroke-width="2"/>
      <path id="Trazado_1275181" data-name="Trazado 1275181" d="M2154.533,1319.27l-2.6,2.6" transform="translate(-1593.666 -778.971)" fill="none" stroke="#424242" stroke-linecap="round" stroke-linejoin="round" stroke-width="2"/>
      <path id="Trazado_1275182" data-name="Trazado 1275182" d="M2575.213,898.59l-2.6,2.6" transform="translate(-1999.508 -373.129)" fill="none" stroke="#424242" stroke-linecap="round" stroke-linejoin="round" stroke-width="2"/>
      <path id="Trazado_1275183" data-name="Trazado 1275183" d="M2575.213,1321.866l-2.6-2.6" transform="translate(-1999.508 -778.971)" fill="none" stroke="#424242" stroke-linecap="round" stroke-linejoin="round" stroke-width="2"/>
      <path id="Trazado_1275184" data-name="Trazado 1275184" d="M1283.581,521.067a3.652,3.652,0,0,1-.144,1.027h-19.708a4.455,4.455,0,0,1,3.754-6.85,4.239,4.239,0,0,1,.938.1,6.16,6.16,0,0,1,11.693,1.967A3.76,3.76,0,0,1,1283.581,521.067Z" transform="translate(-736.118 0)" fill="#61cfff" stroke="#424242" stroke-linecap="round" stroke-linejoin="round" stroke-width="2" stroke-dasharray="3884.4 116.53 9711 0"/>
      <path id="Trazado_1275185" data-name="Trazado 1275185" d="M1416,612.1a4.282,4.282,0,0,1,2.792,1.913" transform="translate(-883.692 -96.743)" fill="none" stroke="#424242" stroke-linecap="round" stroke-linejoin="round" stroke-width="2" stroke-dasharray="3884.4 116.53 9711 0"/>
      <path id="Trazado_1275186" data-name="Trazado 1275186" d="M1063.129,1403.6c1.417.863,3.89,1.055,5.643-1.821s.2-7.767.2-7.767-5.058.862-6.81,3.739S1061.713,1402.735,1063.129,1403.6Z" transform="translate(-541.52 -851.075)" fill="#b4ff87" stroke="#424242" stroke-linecap="round" stroke-linejoin="round" stroke-width="2" stroke-dasharray="2816.19 116.53 9711 0"/>
      <path id="Trazado_1275187" data-name="Trazado 1275187" d="M1114.822,1566.62l-2.132,3.5" transform="translate(-591.08 -1017.597)" fill="none" stroke="#424242" stroke-linecap="round" stroke-linejoin="round" stroke-width="2"/>
      <path id="Trazado_1275188" data-name="Trazado 1275188" d="M953.21,1673.065a50.949,50.949,0,0,0,5.625-7.2" transform="translate(-437.225 -1113.347)" fill="none" stroke="#424242" stroke-linecap="round" stroke-linejoin="round" stroke-width="2"/>
      <path id="Trazado_1275189" data-name="Trazado 1275189" d="M846.983,1026.509c1.658.092,3.927-.907,4.113-4.27s-3.492-6.939-3.492-6.939-4.051,3.149-4.239,6.512S845.326,1026.418,846.983,1026.509Z" transform="translate(-331.244 -485.722)" fill="#b4ff87" stroke="#424242" stroke-linecap="round" stroke-linejoin="round" stroke-width="2" stroke-dasharray="2816.19 116.53 9711 0"/>
      <path id="Trazado_1275190" data-name="Trazado 1275190" d="M946.454,1223.52l-.214,3.865" transform="translate(-430.501 -686.598)" fill="none" stroke="#424242" stroke-linecap="round" stroke-linejoin="round" stroke-width="2"/>
      <path id="Trazado_1275191" data-name="Trazado 1275191" d="M941.406,1352.042a169.706,169.706,0,0,1-.247-18.932" transform="translate(-425.421 -792.323)" fill="none" stroke="#424242" stroke-linecap="round" stroke-linejoin="round" stroke-width="2"/>
      <path id="Trazado_1275192" data-name="Trazado 1275192" d="M575.81,1337.243c-1.239,1.1-3.638,1.735-5.877-.781s-1.587-7.605-1.587-7.605,5.131-.058,7.372,2.458S577.05,1336.139,575.81,1337.243Z" transform="translate(-65.85 -788.22)" fill="#b4ff87" stroke="#424242" stroke-linecap="round" stroke-linejoin="round" stroke-width="2" stroke-dasharray="2816.19 116.53 9711 0"/>
      <g id="Grupo_1202023" data-name="Grupo 1202023" transform="translate(500 526.833)">
        <path id="Trazado_1275193" data-name="Trazado 1275193" d="M693.4,1466.63l3.139,3.527" transform="translate(-686.579 -1447.966)" fill="none" stroke="#424242" stroke-linecap="round" stroke-linejoin="round" stroke-width="2"/>
        <path id="Trazado_1275194" data-name="Trazado 1275194" d="M788.425,1577.316a28.878,28.878,0,0,0-6.025-10.7" transform="translate(-772.44 -1544.43)" fill="none" stroke="#424242" stroke-linecap="round" stroke-linejoin="round" stroke-width="2"/>
        <path id="Trazado_1275195" data-name="Trazado 1275195" d="M500,1869.87h26.031" transform="translate(-500 -1836.984)" fill="none" stroke="#424242" stroke-linecap="round" stroke-linejoin="round" stroke-width="2" stroke-dasharray="194.22 116.53 5574.11 19.42"/>
        <path id="Trazado_1275196" data-name="Trazado 1275196" d="M1204.66,937.47l-5.47,8.225" transform="translate(-1174.529 -937.47)" fill="none" stroke="#424242" stroke-linecap="round" stroke-linejoin="round" stroke-width="2" stroke-dasharray="0 116.53 0 0"/>
        <path id="Trazado_1275197" data-name="Trazado 1275197" d="M1254.017,937.47l-8.647,12.978" transform="translate(-1219.081 -937.47)" fill="none" stroke="#424242" stroke-linecap="round" stroke-linejoin="round" stroke-width="2" stroke-dasharray="0 116.53 0 0"/>
        <path id="Trazado_1275198" data-name="Trazado 1275198" d="M1400.222,937.47l-8.272,12.415" transform="translate(-1360.491 -937.47)" fill="none" stroke="#424242" stroke-linecap="round" stroke-linejoin="round" stroke-width="2" stroke-dasharray="0 116.53 0 0"/>
        <path id="Trazado_1275199" data-name="Trazado 1275199" d="M1462.64,937.47l-10.96,16.451" transform="translate(-1418.114 -937.47)" fill="none" stroke="#424242" stroke-linecap="round" stroke-linejoin="round" stroke-width="2" stroke-dasharray="0 116.53 0 0"/>
      </g>
      <path id="Trazado_1275200" data-name="Trazado 1275200" d="M1803.9,2325.1c-7.813,2.142-12.463.773-14.4-2.212a12.714,12.714,0,0,1-2.559-8.365c0-4.11,2.59-6.364,5.59-6.364a5.453,5.453,0,0,1,5.439,5.439l-.007.282c-.007.144-.014.282-.007.418a14.359,14.359,0,0,1,9.761.363,19.672,19.672,0,0,0-7.919,7.117A8.219,8.219,0,0,0,1803.9,2325.1Z" transform="translate(-1241.549 -1732.983)" fill="#96725c" stroke="#424242" stroke-linecap="round" stroke-linejoin="round" stroke-width="2" stroke-dasharray="369.02 116.53 9711 9711"/>
      <path id="Trazado_1275201" data-name="Trazado 1275201" d="M1912.08,2410.61h.988" transform="translate(-1362.276 -1831.819)" fill="none" stroke="#424242" stroke-linecap="round" stroke-linejoin="round" stroke-width="2" stroke-dasharray="0 77.69"/>
      <path id="Trazado_1275202" data-name="Trazado 1275202" d="M2034.34,2816.71v3.985" transform="translate(-1480.223 -2223.596)" fill="none" stroke="#424242" stroke-linecap="round" stroke-linejoin="round" stroke-width="2" stroke-dasharray="912.83 116.53 9711 9711"/>
      <path id="Trazado_1275203" data-name="Trazado 1275203" d="M1936.66,2929.68h4.13" transform="translate(-1385.989 -2332.582)" fill="none" stroke="#424242" stroke-linecap="round" stroke-linejoin="round" stroke-width="2" stroke-dasharray="912.83 116.53 9711 9711"/>
      <path id="Trazado_1275204" data-name="Trazado 1275204" d="M1723.59,2356.74l2.74-2.055-2.74-2.055" transform="translate(-1180.434 -1775.884)" fill="none" stroke="#424242" stroke-linecap="round" stroke-linejoin="round" stroke-width="2" stroke-dasharray="912.83 116.53 9711 9711"/>
      <path id="Trazado_1275205" data-name="Trazado 1275205" d="M2000.58,2483.766a14.373,14.373,0,0,1,3.48-1.6" transform="translate(-1447.654 -1900.855)" fill="none" stroke="#424242" stroke-linecap="round" stroke-linejoin="round" stroke-width="2" stroke-dasharray="912.83 116.53 9711 9711"/>
      <path id="Trazado_1275206" data-name="Trazado 1275206" d="M1976.5,2931.773l2.04-2.063" transform="translate(-1424.423 -2332.61)" fill="none" stroke="#424242" stroke-linecap="round" stroke-linejoin="round" stroke-width="2" stroke-dasharray="912.83 116.53 9711 9711"/>
      <path id="Trazado_1275207" data-name="Trazado 1275207" d="M2027.45,797.537a5.148,5.148,0,1,0,10.288,0c0-2.95-5.144-9.387-5.144-9.387S2027.45,794.588,2027.45,797.537Z" transform="translate(-1473.576 -266.584)" fill="#61cfff" stroke="#424242" stroke-linecap="round" stroke-linejoin="round" stroke-width="2" stroke-dasharray="2408.33 116.53 9711 0"/>
      <path id="Trazado_1275208" data-name="Trazado 1275208" d="M2161.54,1045.725a2.085,2.085,0,0,0,2.085-2.085" transform="translate(-1602.937 -513.063)" fill="#61cfff" stroke="#424242" stroke-linecap="round" stroke-linejoin="round" stroke-width="2" stroke-dasharray="2544.28 116.53 9711 0"/>
      <path id="Trazado_1275209" data-name="Trazado 1275209" d="M992.26,2158.92h6.256" transform="translate(-474.898 -1589.006)" fill="none" stroke="#424242" stroke-linecap="round" stroke-linejoin="round" stroke-width="2" stroke-dasharray="58.27 116.53 5574.11 19.42"/>
      <path id="Trazado_1275210" data-name="Trazado 1275210" d="M1098.614,2426.7c-4.386,0-5.438-3.562-6.02-5.531a5.477,5.477,0,0,0-1.052-2.36c-1.823-1.569-5.016,1.843-5.048,1.878a2.338,2.338,0,0,1-3.463-3.142c2.14-2.389,7.309-5.944,11.547-2.295a8.983,8.983,0,0,1,2.488,4.585c.676,2.286.8,2.273,1.982,2.155a2.343,2.343,0,1,1,.464,4.664Q1099.042,2426.7,1098.614,2426.7Z" transform="translate(-561.882 -1834.787)" fill="#ff5757" stroke="#424242" stroke-linecap="round" stroke-linejoin="round" stroke-width="2"/>
      <path id="Trazado_1275211" data-name="Trazado 1275211" d="M1171.574,2467.065l-2.744-3.795" transform="translate(-645.24 -1882.622)" fill="none" stroke="#424242" stroke-linecap="round" stroke-linejoin="round" stroke-width="2"/>
      <path id="Trazado_1275212" data-name="Trazado 1275212" d="M1318.845,2414.69l-.425,4.708" transform="translate(-789.554 -1835.755)" fill="none" stroke="#424242" stroke-linecap="round" stroke-linejoin="round" stroke-width="2"/>
      <path id="Trazado_1275213" data-name="Trazado 1275213" d="M1369.018,2536.9l-4.078,2.46" transform="translate(-834.433 -1953.655)" fill="none" stroke="#424242" stroke-linecap="round" stroke-linejoin="round" stroke-width="2"/>
      <path id="Trazado_1275214" data-name="Trazado 1275214" d="M1437.313,2640.77l-2.933,3.688" transform="translate(-901.424 -2053.861)" fill="none" stroke="#424242" stroke-linecap="round" stroke-linejoin="round" stroke-width="2"/>
      <path id="Trazado_1275215" data-name="Trazado 1275215" d="M2264.444,1651.2a8.977,8.977,0,0,0-3.507,2.847c-.656.927-1.469,2.039-2.645,3.655h0a0,0,0,0,0,0,0c-2.318-3.139-2.043-10.694-2.043-10.694C2260.238,1647.059,2263.487,1650.177,2264.444,1651.2Z" transform="translate(-1694.291 -1095.152)" fill="#ffcc4d" stroke="#424242" stroke-linecap="round" stroke-linejoin="round" stroke-width="2"/>
      <path id="Trazado_1275216" data-name="Trazado 1275216" d="M2716.681,1657.3c-1.048-1.438-1.8-2.459-2.412-3.329a8.878,8.878,0,0,0-3.507-2.843,3.433,3.433,0,0,0-.342-.123c1.089-1.129,4.24-4.021,8.083-4.069C2718.5,1646.94,2718.756,1654,2716.681,1657.3Z" transform="translate(-2132.458 -1095.084)" fill="#ffcc4d" stroke="#424242" stroke-linecap="round" stroke-linejoin="round" stroke-width="2"/>
      <path id="Trazado_1275217" data-name="Trazado 1275217" d="M2237.034,1756.95c-1.869,1.129-5.377,2.042-8.172,2.719s-5.775,3.844-5.775,3.844-2.973-3.158-5.768-3.844-6.309-1.589-8.179-2.719c0,0,1.869-2.542,3.713-5.062h.007c1.171-1.617,1.986-2.726,2.645-3.658a8.927,8.927,0,0,1,3.507-2.843,11.492,11.492,0,0,1,7.809-.123,3.417,3.417,0,0,1,.343.123,8.888,8.888,0,0,1,3.507,2.843c.61.87,1.363,1.891,2.411,3.329.076.11.158.219.24.329C2235.165,1754.408,2237.034,1756.95,2237.034,1756.95Z" transform="translate(-1648.858 -1189.338)" fill="#ffcc4d" stroke="#424242" stroke-linecap="round" stroke-linejoin="round" stroke-width="2"/>
      <path id="Trazado_1275218" data-name="Trazado 1275218" d="M2488.28,2081.98h1.641" transform="translate(-1918.153 -1514.78)" fill="none" stroke="#424242" stroke-linecap="round" stroke-linejoin="round" stroke-width="2" stroke-dasharray="0 116.53 0"/>
      <path id="Trazado_1275219" data-name="Trazado 1275219" d="M2676.771,2081.98h-1.641" transform="translate(-2098.412 -1514.78)" fill="none" stroke="#424242" stroke-linecap="round" stroke-linejoin="round" stroke-width="2" stroke-dasharray="0 116.53 0"/>
      <path id="Trazado_1275220" data-name="Trazado 1275220" d="M2237.034,2093.65s-3.459,10.152-13.947,7.385c-10.063,2.767-13.947-7.385-13.947-7.385,1.869,1.129,5.377,2.042,8.179,2.719s5.768,3.844,5.768,3.844,2.973-3.158,5.775-3.844S2235.165,2094.78,2237.034,2093.65Z" transform="translate(-1648.858 -1526.038)" fill="#fff" stroke="#424242" stroke-linecap="round" stroke-linejoin="round" stroke-width="2"/>
      <path id="Trazado_1275221" data-name="Trazado 1275221" d="M2529.637,2200.07c-1.612,0-2.361-1.787-2.687-2.688-.4-1.108,1.613-1.075,2.688-1.075s3.09-.033,2.688,1.075C2532,2198.281,2531.25,2200.07,2529.637,2200.07Z" transform="translate(-1955.408 -1625.075)" fill="#96725c" stroke="#424242" stroke-linecap="round" stroke-linejoin="round" stroke-width="2"/>
      <path id="Trazado_1275222" data-name="Trazado 1275222" d="M1419.521,1416.956a13.017,13.017,0,1,1-2.572-7.757A12.959,12.959,0,0,1,1419.521,1416.956Z" transform="translate(-861.982 -860.664)" fill="#61cfff" stroke="#424242" stroke-linecap="round" stroke-linejoin="round" stroke-width="2" stroke-dasharray="3884.4 116.53 9711 0"/>
      <ellipse id="Elipse_12359" data-name="Elipse 12359" cx="6.684" cy="13.011" rx="6.684" ry="13.011" transform="translate(537.842 543.282)" fill="none" stroke="#424242" stroke-linecap="round" stroke-linejoin="round" stroke-width="2" stroke-dasharray="3884.4 116.53 9711 0"/>
      <path id="Trazado_1275223" data-name="Trazado 1275223" d="M1762.38,1403.82v26.022" transform="translate(-1217.855 -860.539)" fill="none" stroke="#424242" stroke-linecap="round" stroke-linejoin="round" stroke-width="2" stroke-dasharray="3884.4 116.53 9711 0"/>
      <path id="Trazado_1275224" data-name="Trazado 1275224" d="M1393.49,1772.71h26.025" transform="translate(-861.976 -1216.418)" fill="none" stroke="#424242" stroke-linecap="round" stroke-linejoin="round" stroke-width="2" stroke-dasharray="3884.4 116.53 9711 0"/>
      <path id="Trazado_1275225" data-name="Trazado 1275225" d="M1487.329,1409.169a31.058,31.058,0,0,1-4.719,1.044,40.453,40.453,0,0,1-11.442,0,31.061,31.061,0,0,1-4.719-1.044,13.005,13.005,0,0,1,20.879,0Z" transform="translate(-932.363 -860.636)" fill="none" stroke="#424242" stroke-linecap="round" stroke-linejoin="round" stroke-width="2" stroke-dasharray="3884.4 116.53 9711 0"/>
      <path id="Trazado_1275226" data-name="Trazado 1275226" d="M1487.143,1953a13.011,13.011,0,0,1-20.893,0,31.049,31.049,0,0,1,4.718-1.044,40.561,40.561,0,0,1,11.456,0A31.039,31.039,0,0,1,1487.143,1953Z" transform="translate(-932.17 -1388.949)" fill="none" stroke="#424242" stroke-linecap="round" stroke-linejoin="round" stroke-width="2" stroke-dasharray="3884.4 116.53 9711 0"/>
    </g>
  </g>
</svg>
