<svg xmlns="http://www.w3.org/2000/svg" xmlns:xlink="http://www.w3.org/1999/xlink" width="129.063" height="84.691" viewBox="0 0 129.063 84.691">
  <defs>
    <clipPath id="clip-path">
      <rect id="Rectángulo_412518" data-name="Rectángulo 412518" width="88.199" height="58.206" fill="none"/>
    </clipPath>
  </defs>
  <g id="Grupo_1202002" data-name="Grupo 1202002" transform="translate(-783.912 -2548.442)">
    <rect id="Rectángulo_410589" data-name="Rectángulo 410589" width="84.691" height="84.691" transform="translate(807.861 2548.442)" fill="none"/>
    <g id="Rectángulo_410589-2" data-name="Rectángulo 410589" transform="translate(783.912 2567.065)" fill="#a1c6f1" stroke="#6f89a8" stroke-width="1">
      <rect width="129.063" height="43.021" rx="8" stroke="none"/>
      <rect x="0.5" y="0.5" width="128.063" height="42.021" rx="7.5" fill="none"/>
    </g>
    <g id="Grupo_1202003" data-name="Grupo 1202003" transform="translate(796.634 2553.387)">
      <g id="Grupo_1201998" data-name="Grupo 1201998" transform="translate(8.028 5.298)" clip-path="url(#clip-path)">
        <path id="Trazado_1274556" data-name="Trazado 1274556" d="M431.858,167.6v2.664a.075.075,0,0,0,.058.073l7.242,1.719v-4.531h-7.224a.075.075,0,0,0-.075.075" transform="translate(-352.718 -136.828)" fill="#ffdc7a"/>
        <path id="Trazado_1274557" data-name="Trazado 1274557" d="M291.778,51.34,285.162,37H277.8V51.34Z" transform="translate(-226.889 -30.219)" fill="#fff"/>
        <path id="Trazado_1274558" data-name="Trazado 1274558" d="M42.721,30.657H9.6V54.072h4.116a11.092,11.092,0,0,1,22.114,0h29.8a11.092,11.092,0,0,1,22.114,0h6.534V44.88l-7.648-1.815a1.828,1.828,0,0,1-1.411-1.785V38.616a1.836,1.836,0,0,1,1.834-1.834h7.224V35.372a2.63,2.63,0,0,0-2.183-2.6L79.847,30.644a.88.88,0,0,1-.638-.478l-9-18.264c-.731-1.485-1.134-2.3-6.125-2.3H45.951a.985.985,0,0,0-.984.984v19.2a.879.879,0,0,1-.879.88H42.721m-6.4,12.706a.88.88,0,0,1-1.242.068,15.46,15.46,0,0,0-20.621,0,.88.88,0,0,1-1.174-1.311,17.22,17.22,0,0,1,22.968,0,.88.88,0,0,1,.068,1.242M58.393,37.05h-4.63a.88.88,0,0,1,0-1.759h4.63a.88.88,0,1,1,0,1.759m-8.735-7.843c0-.01,0-.018,0-.028s0-.036,0-.055V14.457a1.6,1.6,0,0,1,1.6-1.6H66.217a1.6,1.6,0,0,1,1.449.927l6.767,14.668a1.591,1.591,0,0,1,.144.719c0,.011,0,.021,0,.033V40.324a.88.88,0,0,1-1.759,0v-9.6h-21.4V49.649a.88.88,0,1,1-1.759,0Z" transform="translate(-7.84 -7.84)" fill="#fe927c"/>
        <path id="Trazado_1274559" data-name="Trazado 1274559" d="M40.232,17.394c-1.842,0-4.876,2.18-7.73,5.554a35.922,35.922,0,0,0-6.771,12.317h29a35.925,35.925,0,0,0-6.771-12.317c-2.854-3.374-5.889-5.554-7.73-5.554M34.179,31.053a.88.88,0,0,1-1.759,0V30a.88.88,0,0,1,1.759,0Zm5.895-8a.88.88,0,0,1-1.759,0V22a.88.88,0,0,1,1.759,0Zm2.871,9.606a.88.88,0,1,1-1.759,0V31.6a.88.88,0,1,1,1.759,0Zm3.635-5.543a.88.88,0,0,1-1.759,0V26.059a.88.88,0,0,1,1.759,0Z" transform="translate(-21.016 -14.206)" fill="#ffdc7a"/>
        <rect id="Rectángulo_412516" data-name="Rectángulo 412516" width="5.571" height="14.341" transform="translate(43.578 6.78)" fill="#fff"/>
        <path id="Trazado_1274560" data-name="Trazado 1274560" d="M334.085,206.133a9.336,9.336,0,1,0,9.336,9.336,9.347,9.347,0,0,0-9.336-9.336m0,15.518a6.182,6.182,0,1,1,6.182-6.182,6.189,6.189,0,0,1-6.182,6.182" transform="translate(-265.237 -168.358)" fill="#ffdc7a"/>
        <path id="Trazado_1274561" data-name="Trazado 1274561" d="M72.685,232.947a4.422,4.422,0,1,0,4.423,4.422,4.427,4.427,0,0,0-4.423-4.422" transform="translate(-55.753 -190.258)" fill="#fe927c"/>
        <path id="Trazado_1274562" data-name="Trazado 1274562" d="M355.984,232.947a4.422,4.422,0,1,0,4.422,4.422,4.427,4.427,0,0,0-4.422-4.422" transform="translate(-287.136 -190.258)" fill="#fe927c"/>
        <path id="Trazado_1274563" data-name="Trazado 1274563" d="M50.789,206.133a9.346,9.346,0,0,0-9.335,9.306c0,.01,0,.02,0,.03s0,.02,0,.03a9.336,9.336,0,1,0,9.335-9.366m0,15.518a6.182,6.182,0,1,1,6.182-6.182,6.189,6.189,0,0,1-6.182,6.182" transform="translate(-33.857 -168.358)" fill="#ffdc7a"/>
        <path id="Trazado_1274564" data-name="Trazado 1274564" d="M52.45,257.079a9.336,9.336,0,0,1-18.671.03.878.878,0,0,1-.877.85h-.845a11.092,11.092,0,0,0,22.114,0H53.33a.879.879,0,0,1-.88-.88" transform="translate(-26.182 -209.968)" fill="#444"/>
        <path id="Trazado_1274565" data-name="Trazado 1274565" d="M43.115,196.534A11.108,11.108,0,0,0,32.058,206.75H32.9a.878.878,0,0,1,.877.85,9.336,9.336,0,0,1,18.671.03.88.88,0,0,1,.88-.879h.842a11.108,11.108,0,0,0-11.057-10.216" transform="translate(-26.183 -160.518)" fill="#444"/>
        <path id="Trazado_1274566" data-name="Trazado 1274566" d="M39.907,163.117a17.189,17.189,0,0,0-11.484,4.389.88.88,0,0,0,1.174,1.311,15.461,15.461,0,0,1,20.621,0,.88.88,0,0,0,1.174-1.311,17.189,17.189,0,0,0-11.484-4.389" transform="translate(-22.975 -133.225)" fill="#444"/>
        <path id="Trazado_1274567" data-name="Trazado 1274567" d="M335.75,257.079a9.336,9.336,0,0,1-18.672,0,.879.879,0,0,1-.879.88h-.842a11.092,11.092,0,0,0,22.114,0h-.842a.88.88,0,0,1-.88-.88" transform="translate(-257.566 -209.968)" fill="#444"/>
        <path id="Trazado_1274568" data-name="Trazado 1274568" d="M326.414,196.534a11.108,11.108,0,0,0-11.057,10.216h.842a.88.88,0,0,1,.88.879,9.336,9.336,0,1,1,18.672,0,.88.88,0,0,1,.88-.879h.841a11.108,11.108,0,0,0-11.057-10.216" transform="translate(-257.566 -160.518)" fill="#444"/>
        <path id="Trazado_1274569" data-name="Trazado 1274569" d="M348.144,223.347a6.182,6.182,0,1,0,6.182,6.182,6.189,6.189,0,0,0-6.182-6.182m0,10.6a4.422,4.422,0,1,1,4.423-4.422,4.427,4.427,0,0,1-4.423,4.422" transform="translate(-279.296 -182.417)" fill="#444"/>
        <path id="Trazado_1274570" data-name="Trazado 1274570" d="M64.845,223.347a6.182,6.182,0,1,0,6.182,6.182,6.189,6.189,0,0,0-6.182-6.182m0,10.6a4.422,4.422,0,1,1,4.423-4.422,4.427,4.427,0,0,1-4.423,4.422" transform="translate(-47.913 -182.417)" fill="#444"/>
        <path id="Trazado_1274571" data-name="Trazado 1274571" d="M251.308,149.8h-4.63a.88.88,0,0,0,0,1.759h4.63a.88.88,0,0,0,0-1.759" transform="translate(-200.754 -122.347)" fill="#444"/>
        <path id="Trazado_1274572" data-name="Trazado 1274572" d="M182.533,252.279h-29.8c.023.291.038.583.038.88s-.015.589-.038.88h29.8c-.023-.291-.038-.583-.038-.88s.015-.589.038-.88" transform="translate(-124.742 -206.047)" fill="#444"/>
        <path id="Trazado_1274573" data-name="Trazado 1274573" d="M145.061,252.279h-.842a.88.88,0,0,0,0,1.759h.842c.023-.291.038-.583.038-.88s-.015-.589-.038-.88" transform="translate(-117.072 -206.047)" fill="#444"/>
        <path id="Trazado_1274574" data-name="Trazado 1274574" d="M316.908,253.159a.88.88,0,0,0-.88-.88h-.842c-.023.291-.038.583-.038.88s.015.589.038.88h.842a.88.88,0,0,0,.88-.88" transform="translate(-257.396 -206.047)" fill="#444"/>
        <path id="Trazado_1274575" data-name="Trazado 1274575" d="M5.875,140.084H1.759V116.67H34.881a.88.88,0,0,1-.847-.657c-.1-.366-.2-.734-.316-1.1h-29c-.113.369-.22.737-.316,1.1a.88.88,0,1,1-1.7-.446c.057-.218.121-.437.183-.657h-2a.879.879,0,0,0-.879.88v25.173a.879.879,0,0,0,.879.88h5c-.023-.291-.038-.583-.038-.88s.015-.589.038-.88" transform="translate(0 -93.853)" fill="#444"/>
        <path id="Trazado_1274576" data-name="Trazado 1274576" d="M443.445,163.61h-.88v4.531l1.083.257a.88.88,0,1,1-.406,1.712l-.677-.161v9.191h-6.534c.023.291.038.583.038.88s-.015.589-.038.88h7.414a.88.88,0,0,0,.88-.88V162.73a.88.88,0,0,1-.88.88" transform="translate(-356.126 -132.909)" fill="#444"/>
        <path id="Trazado_1274577" data-name="Trazado 1274577" d="M41.45,256.916c0,.01,0,.02,0,.03s0,.02,0,.03c0-.01,0-.02,0-.03s0-.02,0-.03" transform="translate(-33.853 -209.835)" fill="#444"/>
        <path id="Trazado_1274578" data-name="Trazado 1274578" d="M240.052,23.2l-11.809-2.055L219.468,3.336l-.025-.05c-1-2.037-1.912-3.286-7.7-3.286H193.6a2.746,2.746,0,0,0-2.743,2.743v17.7c.132.426.257.851.368,1.274a.88.88,0,0,1-.847,1.1h1.359a.88.88,0,0,0,.88-.88V2.743a.984.984,0,0,1,.983-.983H211.74c4.991,0,5.394.818,6.126,2.3l9,18.263a.88.88,0,0,0,.638.478l12.249,2.132a2.631,2.631,0,0,1,2.183,2.6v1.409h.879a.88.88,0,0,1,.88.88V27.532a4.386,4.386,0,0,0-3.641-4.329" transform="translate(-155.494)" fill="#444"/>
        <path id="Trazado_1274579" data-name="Trazado 1274579" d="M33.609,253.189c0-.01,0-.02,0-.03s0-.02,0-.03a.878.878,0,0,0-.877-.85h-.845c-.023.291-.038.583-.038.879s.015.589.038.88h.845a.878.878,0,0,0,.877-.85" transform="translate(-26.012 -206.048)" fill="#444"/>
        <path id="Trazado_1274580" data-name="Trazado 1274580" d="M428.36,252.279h-.841a.88.88,0,0,0,0,1.759h.841c.023-.291.038-.583.038-.88s-.015-.589-.038-.88" transform="translate(-348.455 -206.047)" fill="#444"/>
        <path id="Trazado_1274581" data-name="Trazado 1274581" d="M422.258,159.764v2.664a1.828,1.828,0,0,0,1.411,1.785l7.648,1.815V164.22l-7.242-1.719a.075.075,0,0,1-.058-.073v-2.664a.075.075,0,0,1,.075-.075h7.224V157.93h-7.224a1.836,1.836,0,0,0-1.835,1.834" transform="translate(-344.877 -128.988)" fill="#444"/>
        <path id="Trazado_1274582" data-name="Trazado 1274582" d="M229.077,42.865a.88.88,0,0,1,.88.88v1.514h21.4V43.745a.878.878,0,0,1,1.756-.033,1.592,1.592,0,0,0-.144-.719l-6.767-14.668a1.6,1.6,0,0,0-1.449-.928h-8.349a.88.88,0,0,1,.88.88v.88h7.365L251.269,43.5H237.287v.751a.88.88,0,1,1-1.759,0V43.5h-5.571V29.157h5.571v-.88a.88.88,0,0,1,.879-.88h-6.613a1.6,1.6,0,0,0-1.6,1.6V43.662c0,.019,0,.037,0,.055a.878.878,0,0,1,.877-.852m15.679-13.708h0Z" transform="translate(-186.379 -22.377)" fill="#444"/>
        <rect id="Rectángulo_412517" data-name="Rectángulo 412517" width="1.759" height="14.341" transform="translate(49.149 6.78)" fill="#444"/>
        <path id="Trazado_1274583" data-name="Trazado 1274583" d="M268.2,116.008a.88.88,0,0,0,1.759,0v-.751H268.2Z" transform="translate(-219.048 -94.135)" fill="#444"/>
        <path id="Trazado_1274584" data-name="Trazado 1274584" d="M268.2,28.279v.88h1.759v-.88a.88.88,0,0,0-1.759,0" transform="translate(-219.048 -22.378)" fill="#444"/>
        <path id="Trazado_1274585" data-name="Trazado 1274585" d="M354.758,117.966H354.6v9.6a.88.88,0,0,0,1.759,0V116.453c0-.011,0-.022,0-.033a1.592,1.592,0,0,1-1.594,1.546" transform="translate(-289.614 -95.085)" fill="#444"/>
        <path id="Trazado_1274586" data-name="Trazado 1274586" d="M355.477,111.8a.88.88,0,0,0-.88.88v1.514h.162a1.592,1.592,0,0,0,1.594-1.546.878.878,0,0,0-.876-.847" transform="translate(-289.615 -91.31)" fill="#444"/>
        <path id="Trazado_1274587" data-name="Trazado 1274587" d="M229.077,137.8a.88.88,0,0,0,.88-.88V117.989h-.163a1.6,1.6,0,0,1-1.593-1.541c0,.009,0,.018,0,.027v20.442a.88.88,0,0,0,.88.88" transform="translate(-186.379 -95.108)" fill="#444"/>
        <path id="Trazado_1274588" data-name="Trazado 1274588" d="M229.805,114.191h.163v-1.514a.878.878,0,0,0-1.757-.028,1.6,1.6,0,0,0,1.593,1.541" transform="translate(-186.391 -91.31)" fill="#444"/>
        <path id="Trazado_1274589" data-name="Trazado 1274589" d="M24.327,15.108c2.854-3.374,5.889-5.554,7.73-5.554s4.876,2.18,7.73,5.554a35.923,35.923,0,0,1,6.771,12.316h1.65v-.618A37.783,37.783,0,0,0,41.13,13.972c-3.272-3.868-6.664-6.177-9.073-6.177s-5.8,2.309-9.073,6.177a37.6,37.6,0,0,0-7.263,13.453h1.834a35.926,35.926,0,0,1,6.771-12.316" transform="translate(-12.84 -6.367)" fill="#444"/>
        <path id="Trazado_1274590" data-name="Trazado 1274590" d="M190.345,124.511h0" transform="translate(-155.461 -101.694)" fill="#444"/>
        <path id="Trazado_1274591" data-name="Trazado 1274591" d="M15.218,116.641a.88.88,0,0,0,1.074-.628c.1-.366.2-.734.316-1.1H14.773c-.063.219-.126.438-.183.657a.88.88,0,0,0,.628,1.074" transform="translate(-11.893 -93.853)" fill="#444"/>
        <path id="Trazado_1274592" data-name="Trazado 1274592" d="M184,112.158c.113.369.22.737.316,1.1a.88.88,0,0,0,.847.657h.007a.88.88,0,0,0,.847-1.1c-.111-.423-.236-.848-.368-1.274v.618Z" transform="translate(-150.278 -91.1)" fill="#444"/>
        <path id="Trazado_1274593" data-name="Trazado 1274593" d="M130.776,59.878a.88.88,0,0,0-.88.88v1.054a.88.88,0,1,0,1.759,0V60.758a.88.88,0,0,0-.88-.88" transform="translate(-106.092 -48.905)" fill="#444"/>
        <path id="Trazado_1274594" data-name="Trazado 1274594" d="M95.276,37.711a.88.88,0,0,0-.88.88v1.054a.88.88,0,1,0,1.759,0V38.591a.88.88,0,0,0-.88-.88" transform="translate(-77.097 -30.8)" fill="#444"/>
        <path id="Trazado_1274595" data-name="Trazado 1274595" d="M63.11,81.378a.88.88,0,0,0-.88.88v1.054a.88.88,0,0,0,1.759,0V82.258a.88.88,0,0,0-.88-.88" transform="translate(-50.826 -66.465)" fill="#444"/>
        <path id="Trazado_1274596" data-name="Trazado 1274596" d="M110.943,90.128a.88.88,0,0,0-.88.88v1.054a.88.88,0,0,0,1.759,0V91.008a.88.88,0,0,0-.88-.88" transform="translate(-89.893 -73.612)" fill="#444"/>
        <path id="Trazado_1274597" data-name="Trazado 1274597" d="M472.568,157.93h-.88v1.759h.88a.88.88,0,0,0,0-1.759" transform="translate(-385.248 -128.988)" fill="#444"/>
        <path id="Trazado_1274598" data-name="Trazado 1274598" d="M472.365,194.226a.88.88,0,0,0,.406-1.712l-1.083-.257v1.808Z" transform="translate(-385.249 -157.025)" fill="#444"/>
      </g>
    </g>
  </g>
</svg>
