<svg xmlns="http://www.w3.org/2000/svg" width="129.063" height="95.318" viewBox="0 0 129.063 95.318">
  <g id="Grupo_1201417" data-name="Grupo 1201417" transform="translate(-788.103 -1976.459)">
    <g id="Rectángulo_410589" data-name="Rectángulo 410589" transform="translate(788.103 2007.607)" fill="#ffc94a" stroke="#dfab32" stroke-width="1">
      <rect width="129.063" height="43.021" rx="8" stroke="none"/>
      <rect x="0.5" y="0.5" width="128.063" height="42.021" rx="7.5" fill="none"/>
    </g>
    <g id="ecosystem_18132659" transform="translate(804.955 1976.449)">
      <g id="Grupo_1202024" data-name="Grupo 1202024" transform="translate(2.242 10.503)">
        <path id="Trazado_1275270" data-name="Trazado 1275270" d="M194.91,237.6a13.977,13.977,0,1,0-13.98-13.98A14.005,14.005,0,0,0,194.91,237.6Z" transform="translate(-149.469 -181.114)" fill="#0593fc" fill-rule="evenodd"/>
        <path id="Trazado_1275271" data-name="Trazado 1275271" d="M193.336,304.32a14.035,14.035,0,0,1-6.326-6.844c.711-1.521,1.72-1.957,2.746-3.279,1.352-1.752,1.839.962,4.989,1.164,6.326.559,5.066,3.3,1.061,4.984C194.965,300.79,193.789,303.387,193.336,304.32Z" transform="translate(-154.417 -249.444)" fill="#70da40" fill-rule="evenodd"/>
        <path id="Trazado_1275272" data-name="Trazado 1275272" d="M266.594,271.169c-.717-2.106-1.521-2.668-1.808-4.989-.655-5.343-.953.175-4.565-2.044-1.845-1.138-3.822-3.314-1.89-4.364a4.707,4.707,0,0,0,1.772-2.428c.942-2.32,9.692,3.77,10.014-2.044a13.993,13.993,0,0,1-3.524,15.869Z" transform="translate(-211.814 -218.265)" fill="#70da40" fill-rule="evenodd"/>
        <path id="Trazado_1275273" data-name="Trazado 1275273" d="M195.715,209.65a14.1,14.1,0,0,1,3.144.354c-2.176,2.822-.056,4.688-3.658,6.244-4.58,1.977-7.6,5.03-9.809,5.373a7.813,7.813,0,0,1-3.472-.272,13.98,13.98,0,0,1,13.8-11.7Z" transform="translate(-150.274 -181.114)" fill="#70da40" fill-rule="evenodd"/>
        <path id="Trazado_1275274" data-name="Trazado 1275274" d="M59.769,261.866c9.727-6.131,5.019-17.206,0-19.086C54.75,244.66,50.047,255.734,59.769,261.866Z" transform="translate(-46.256 -208.076)" fill="#ffd400" fill-rule="evenodd"/>
        <path id="Trazado_1275275" data-name="Trazado 1275275" d="M65.213,275.439a11.324,11.324,0,0,0-.875-7.119h-9.1a11.275,11.275,0,0,0-.875,7.119Z" transform="translate(-46.27 -228.861)" fill="#fea832" fill-rule="evenodd"/>
        <path id="Trazado_1275276" data-name="Trazado 1275276" d="M116.153,275.483c-7.248,1.638-10.158-5.568-8.724-8.724C110.581,265.325,117.793,268.235,116.153,275.483Z" transform="translate(-89.362 -227.301)" fill="#8bd7fa" fill-rule="evenodd"/>
        <path id="Trazado_1275277" data-name="Trazado 1275277" d="M12.179,275.483c7.248,1.638,10.158-5.568,8.724-8.724C17.748,265.325,10.535,268.235,12.179,275.483Z" transform="translate(-11.939 -227.301)" fill="#8bd7fa" fill-rule="evenodd"/>
        <path id="Trazado_1275278" data-name="Trazado 1275278" d="M349.62,226.842a9.345,9.345,0,0,1,9.744,10.7c-2.7.149-6.254.6-7.408-3.033C351.07,231.141,351.618,229.292,349.62,226.842Z" transform="translate(-286.753 -195.094)" fill="#70da40" fill-rule="evenodd"/>
        <path id="Trazado_1275279" data-name="Trazado 1275279" d="M446.431,198.98a11.138,11.138,0,0,1-11.746,12.635c-.441-3.2-1.327-7.376,2.874-9.108C441.473,201.127,443.722,201.6,446.431,198.98Z" transform="translate(-355.662 -172.43)" fill="#70da40" fill-rule="evenodd"/>
        <path id="Trazado_1275280" data-name="Trazado 1275280" d="M209.673,390.12a10.6,10.6,0,1,1-10.6,10.6A10.6,10.6,0,0,1,209.673,390.12Z" transform="translate(-164.231 -327.985)" fill="#edf6ff" fill-rule="evenodd"/>
        <path id="Trazado_1275281" data-name="Trazado 1275281" d="M231.009,464.855a10.593,10.593,0,0,1-14.829,0,6.049,6.049,0,0,1,5.978-5.235h2.874A6.049,6.049,0,0,1,231.009,464.855Z" transform="translate(-178.156 -384.546)" fill="#ff4646" fill-rule="evenodd"/>
        <path id="Trazado_1275282" data-name="Trazado 1275282" d="M226.06,461.275a6.011,6.011,0,0,1,4.139-1.655h2.874a5.988,5.988,0,0,1,4.139,1.655,7.8,7.8,0,0,1-11.152,0Z" transform="translate(-186.197 -384.546)" fill="#e63f3f" fill-rule="evenodd"/>
        <path id="Trazado_1275283" data-name="Trazado 1275283" d="M234.657,412.9a4.881,4.881,0,1,0,4.881,4.881A4.882,4.882,0,0,0,234.657,412.9Z" transform="translate(-189.216 -346.524)" fill="#fbbd80" fill-rule="evenodd"/>
        <path id="Trazado_1275284" data-name="Trazado 1275284" d="M239.511,69.361a6.5,6.5,0,1,0-6.5-6.5A6.511,6.511,0,0,0,239.511,69.361Z" transform="translate(-191.853 -56.37)" fill="#ffd400" fill-rule="evenodd"/>
        <path id="Trazado_1275285" data-name="Trazado 1275285" d="M188.8,89.1a5.688,5.688,0,1,0-1.249-11.239,5.686,5.686,0,0,0-5.077-3.115h-.927a5.7,5.7,0,0,0-5.077,3.115,5.5,5.5,0,0,0-1.245-.138,5.688,5.688,0,1,0,0,11.377Z" transform="translate(-140.191 -71.328)" fill="#edf6ff" fill-rule="evenodd"/>
        <path id="Trazado_1275286" data-name="Trazado 1275286" d="M238.533,59.887a6.5,6.5,0,0,1,5.066-3.472,6.261,6.261,0,0,0-.7-.035A6.5,6.5,0,0,0,237.17,59.8h.348A5.845,5.845,0,0,1,238.533,59.887Z" transform="translate(-195.238 -56.378)" fill="#e6bf00" fill-rule="evenodd"/>
        <path id="Trazado_1275287" data-name="Trazado 1275287" d="M194.91,209.65c.389,0,.778.015,1.158.047a13.976,13.976,0,0,0,0,27.855c-.38.03-.769.052-1.158.052a13.977,13.977,0,1,1,0-27.954Z" transform="translate(-149.469 -181.114)" fill="#0584e3" fill-rule="evenodd"/>
        <path id="Trazado_1275288" data-name="Trazado 1275288" d="M184.189,221.708a8.4,8.4,0,0,1-2.269-.359,13.977,13.977,0,0,1,13.8-11.7c.389,0,.778.015,1.158.047A13.987,13.987,0,0,0,184.189,221.708Z" transform="translate(-150.274 -181.114)" fill="#65c43a" fill-rule="evenodd"/>
        <path id="Trazado_1275289" data-name="Trazado 1275289" d="M187.01,305.32a6.667,6.667,0,0,1,1.623-2.07,13.952,13.952,0,0,0,5.244,7.791c-.225.451-.415.855-.544,1.123A14.048,14.048,0,0,1,187.01,305.32Z" transform="translate(-154.417 -257.288)" fill="#65c43a" fill-rule="evenodd"/>
        <path id="Trazado_1275290" data-name="Trazado 1275290" d="M202.91,406.28a10.6,10.6,0,0,1,7.9-16.1,10.329,10.329,0,0,0-1.126-.061,10.6,10.6,0,1,0,0,21.2,10.318,10.318,0,0,0,1.126-.061A10.589,10.589,0,0,1,202.91,406.28Z" transform="translate(-164.24 -327.985)" fill="#d5dde6" fill-rule="evenodd"/>
        <path id="Trazado_1275291" data-name="Trazado 1275291" d="M216.18,478.959a10.56,10.56,0,0,0,7.417,3.027,10.3,10.3,0,0,0,1.126-.061,10.6,10.6,0,0,1-7.9-4.975,6,6,0,0,0-.644,2.009Z" transform="translate(-178.156 -398.65)" fill="#e63f3f" fill-rule="evenodd"/>
        <path id="Trazado_1275292" data-name="Trazado 1275292" d="M384.646,334.905a4.863,4.863,0,0,1,4.867,4.861,4.387,4.387,0,0,1-.035.568H370.37a4.3,4.3,0,0,1,4.3-4.3,4.621,4.621,0,0,1,.84.082,4.863,4.863,0,0,1,7.955-1.065,4.99,4.99,0,0,1,1.184-.143Z" transform="translate(-303.64 -281.857)" fill="#664545" fill-rule="evenodd"/>
        <path id="Trazado_1275293" data-name="Trazado 1275293" d="M353.046,234.517c-.881-3.366-.333-5.209-2.331-7.657-.359-.02-.722-.02-1.085-.006,2,2.448,1.45,4.3,2.336,7.663.922,2.9,3.386,3.2,5.717,3.12C355.709,237.561,353.828,236.976,353.046,234.517Z" transform="translate(-286.761 -195.106)" fill="#5bb034" fill-rule="evenodd"/>
        <path id="Trazado_1275294" data-name="Trazado 1275294" d="M437.567,202.5c-3.586,1.48-3.463,4.744-3.079,7.657a1.454,1.454,0,0,1,1.024.236c.035.026.073.05.1.076-.415-2.992-.681-6.44,3.038-7.97,3.422-1.208,5.574-1,7.873-2.685-.015-.281-.047-.564-.087-.845C443.729,201.589,441.48,201.118,437.567,202.5Z" transform="translate(-355.67 -172.422)" fill="#5bb034" fill-rule="evenodd"/>
      </g>
      <g id="Grupo_1202025" data-name="Grupo 1202025" transform="translate(0.023 0.01)">
        <path id="Trazado_1275295" data-name="Trazado 1275295" d="M18.714,31.548A35.78,35.78,0,0,1,26.863,23.4,1.488,1.488,0,0,1,28.6,25.813a32.825,32.825,0,0,0-7.473,7.471,1.488,1.488,0,1,1-2.417-1.737Zm48.034-5.734a32.825,32.825,0,0,1,7.473,7.471,1.488,1.488,0,1,0,2.417-1.737A35.78,35.78,0,0,0,68.489,23.4a1.488,1.488,0,1,0-1.741,2.415ZM28.6,78.9a32.863,32.863,0,0,1-7.473-7.471,1.489,1.489,0,1,0-2.417,1.739,35.78,35.78,0,0,0,8.149,8.149A1.489,1.489,0,0,0,28.6,78.9Zm47.7-7.812a1.489,1.489,0,0,0-2.078.339A32.788,32.788,0,0,1,66.749,78.9a1.488,1.488,0,1,0,1.741,2.415,35.78,35.78,0,0,0,8.149-8.149,1.489,1.489,0,0,0-.339-2.076ZM62.163,46.337A15.668,15.668,0,0,1,58.281,63.91a1.451,1.451,0,0,1-.259.229,15.637,15.637,0,0,1-17.575,2.137l-.035-.015c-.045-.022-.088-.045-.13-.071a15.8,15.8,0,0,1-6.961-7.514,1.347,1.347,0,0,1-.1-.218,15.63,15.63,0,0,1-1.236-6.106A15.834,15.834,0,0,1,32.2,49.8c0-.02.007-.041.011-.06A15.672,15.672,0,0,1,51.1,37.043a1.742,1.742,0,0,1,.212.048,15.747,15.747,0,0,1,10.733,8.973,1.461,1.461,0,0,1,.117.272ZM35.448,48.89a6.076,6.076,0,0,0,1.517-.037,12.557,12.557,0,0,0,3.573-1.938,39.142,39.142,0,0,1,6.032-3.42c1.378-.6,1.432-.938,1.609-2.072a9.843,9.843,0,0,1,.4-1.744c-.3-.02-.6-.035-.9-.035A12.728,12.728,0,0,0,35.448,48.89ZM40.431,62.8c.868-1.7,1.6-2.791,2.443-3.232.037-.02.074-.037.114-.054a6.16,6.16,0,0,0,2.379-1.517,7.382,7.382,0,0,0-3-.693,6.923,6.923,0,0,1-3.822-1.5l-.1-.073A13.324,13.324,0,0,1,37.246,57a6.925,6.925,0,0,0-.944,1.033A12.8,12.8,0,0,0,40.431,62.8Zm7.244,2.277a12.642,12.642,0,0,0,7.713-2.618c-.13-.29-.261-.557-.389-.815a9.938,9.938,0,0,1-1.149-3.615c-.022-.179-.043-.339-.063-.482a4.121,4.121,0,0,1-3.872-.5c-.586-.361-3.5-2.279-3.435-4.611a2.767,2.767,0,0,1,1.582-2.4,3.737,3.737,0,0,0,1.13-1.717,2.563,2.563,0,0,1,2.854-1.484,16.042,16.042,0,0,1,2.752.54c1.378.348,3.457.873,4.116.389a1.11,1.11,0,0,0,.309-.706,12.772,12.772,0,0,0-7.678-6.8,5.663,5.663,0,0,0-.43,1.636c-.216,1.38-.486,3.1-3.37,4.343a36.085,36.085,0,0,0-5.58,3.176c-1.839,1.206-3.292,2.161-4.749,2.39a9.036,9.036,0,0,1-1.378.106,9.375,9.375,0,0,1-1.069-.063c-.007.173-.013.344-.013.519a12.739,12.739,0,0,0,.244,2.472,9.589,9.589,0,0,0,1.026-1.1c1.618-2.089,3.321-.869,4.049-.348a4.07,4.07,0,0,0,2.3.951l.039,0c1.331.117,5.382.477,5.8,3.167.272,1.735-1.234,3.44-4.133,4.693A8.433,8.433,0,0,0,43.054,64.2a12.674,12.674,0,0,0,4.621.873ZM60.389,52.354a12.9,12.9,0,0,0-.145-1.927c-1.754.94-4.09.352-6.172-.175a15.361,15.361,0,0,0-2.273-.464,5.817,5.817,0,0,1-2.3,2.843A5.523,5.523,0,0,0,51.477,54.5c.9.553,1.167.359,1.7-.028a2.075,2.075,0,0,1,2.109-.43c1.082.471,1.283,1.681,1.519,3.617a6.977,6.977,0,0,0,.827,2.588,12.648,12.648,0,0,0,2.757-7.894ZM30.177,58.446a1.49,1.49,0,0,1-1.123,1.123,10.677,10.677,0,0,1-2.37.274,8.466,8.466,0,0,1-4.922-1.5,13.385,13.385,0,0,1-5.73,6.739,1.486,1.486,0,0,1-1.588,0,13.414,13.414,0,0,1-5.73-6.738,8.479,8.479,0,0,1-4.922,1.5,10.693,10.693,0,0,1-2.372-.274A1.49,1.49,0,0,1,.3,58.446a8.67,8.67,0,0,1,2.811-8.985,8.907,8.907,0,0,1,6.751-1.968,11.978,11.978,0,0,1,2.249-2.813A3.038,3.038,0,0,0,11,42.066a1.488,1.488,0,0,1,1.83-2.348,5.622,5.622,0,0,1,2.055,3.26,1.475,1.475,0,0,1,.7,0,5.628,5.628,0,0,1,2.057-3.26,1.488,1.488,0,0,1,1.83,2.348,3.049,3.049,0,0,0-1.108,2.616A12.079,12.079,0,0,1,20.623,47.5a8.9,8.9,0,0,1,6.749,1.966,8.672,8.672,0,0,1,2.806,8.983ZM11.524,55h7.426a8.805,8.805,0,0,1-.923-4.254H12.45A8.829,8.829,0,0,1,11.524,55Zm3.117-8.558a1.457,1.457,0,0,1-.322.251,7.911,7.911,0,0,0-1.048,1.078H17.2a7.856,7.856,0,0,0-1.044-1.074,1.524,1.524,0,0,1-.33-.257,5.193,5.193,0,0,0-.592-.38,5.161,5.161,0,0,0-.6.382ZM8.1,54.884A5.908,5.908,0,0,0,9.43,50.44a5.912,5.912,0,0,0-4.446,1.331A5.407,5.407,0,0,0,3.035,56.83,5.411,5.411,0,0,0,8.1,54.884Zm10.591,3.09h-6.9a10.542,10.542,0,0,0,3.452,4.049A10.529,10.529,0,0,0,18.688,57.975Zm6.8-6.205a5.9,5.9,0,0,0-4.442-1.329,5.9,5.9,0,0,0,1.329,4.442,5.4,5.4,0,0,0,5.06,1.947,5.4,5.4,0,0,0-1.947-5.06ZM91.908,46.4a12.742,12.742,0,0,1-9.3,4.086A17.3,17.3,0,0,0,80.365,59.9c0,.115.009.235.013.352A6.457,6.457,0,0,1,83.1,61.614a6.606,6.606,0,0,1,.717-.041A6.447,6.447,0,0,1,90.2,68.747a1.488,1.488,0,0,1-1.478,1.32H69.312a1.487,1.487,0,0,1-1.488-1.488,5.859,5.859,0,0,1,5.818-5.855l.039,0,.028,0h.043A6.384,6.384,0,0,1,77.4,60.276c0-.078-.006-.158-.006-.238-.112-2.821-.29-4.407-2.539-6.227-.529.032-1.126.067-1.756.067-2.534,0-5.594-.566-6.76-4.217l-.022-.074a26.18,26.18,0,0,1-.592-3.13,6.993,6.993,0,0,0-1.491-4.092A1.488,1.488,0,0,1,65.3,39.937,10.971,10.971,0,0,1,76.848,51.6a11.1,11.1,0,0,1,1.434,1.409A17.686,17.686,0,0,1,80.25,48.64a.466.466,0,0,0-.007-.05c-.465-3.243-1.171-8.145,3.91-10.238l.071-.028a31.3,31.3,0,0,1,3.625-1c1.99-.456,3.306-.758,4.857-2.253a1.488,1.488,0,0,1,2.508.869,12.758,12.758,0,0,1-3.3,10.463ZM73.9,50.876a8,8,0,0,0-5.827-7.681,15.165,15.165,0,0,1,.6,2.837,23.442,23.442,0,0,0,.514,2.755C69.832,50.757,71.412,50.982,73.9,50.876ZM85.114,64.805a1.488,1.488,0,0,1-2.891.626A3.526,3.526,0,0,0,81.51,64.2a3.472,3.472,0,0,0-2.567-1.143,3.436,3.436,0,0,0-2.016.648c.069.047.14.089.209.14a1.488,1.488,0,1,1-1.756,2.4,2.872,2.872,0,0,0-1.158-.5c-.084-.015-.168-.028-.248-.037l-.02,0c-.093-.009-.182-.015-.27-.015a2.885,2.885,0,0,0-2.467,1.393H87.149a3.468,3.468,0,0,0-2.035-2.281Zm7.155-25.79a15.712,15.712,0,0,1-3.751,1.2,28.65,28.65,0,0,0-3.262.9c-2.538,1.061-2.59,3.139-2.156,6.38a9.838,9.838,0,0,0,9.169-8.48ZM59.935,83.069a12.22,12.22,0,0,1-3.61,8.679,1.367,1.367,0,0,1-.192.182,12.226,12.226,0,0,1-16.916,0,1.482,1.482,0,0,1-.192-.182,12.257,12.257,0,1,1,20.909-8.679ZM47.675,92.351a9.234,9.234,0,0,0,5.9-2.119,4.69,4.69,0,0,0-2.807-3,6.437,6.437,0,0,1-6.177,0,4.69,4.69,0,0,0-2.807,3,9.238,9.238,0,0,0,5.9,2.119Zm3.474-10.787a3.472,3.472,0,1,0-3.472,3.478A3.477,3.477,0,0,0,51.149,81.565Zm5.809,1.5a9.283,9.283,0,1,0-17.3,4.662,7.732,7.732,0,0,1,2.61-2.662,6.449,6.449,0,1,1,10.824,0,7.7,7.7,0,0,1,2.61,2.662,9.22,9.22,0,0,0,1.26-4.662ZM37.1,28.712a7.269,7.269,0,1,1,0-14.538c.169,0,.337.006.5.017a7.232,7.232,0,0,1,5.68-3.038A8.088,8.088,0,0,1,57.5,18.609a7.221,7.221,0,0,1,.575,2.834,7.3,7.3,0,0,1-7.16,7.272H37.1ZM49.93,10.648a5.109,5.109,0,0,0-3.292,1.2,7.307,7.307,0,0,1,2.871,2.437,7.323,7.323,0,0,1,1.3-.115,7.232,7.232,0,0,1,4.232,1.363,5.117,5.117,0,0,0-5.107-4.887ZM37.1,25.735H50.883a4.293,4.293,0,0,0-.076-8.586c-.032,0-.061,0-.093,0a8.374,8.374,0,0,1,.084,1.262,1.488,1.488,0,1,1-2.975,0,3.208,3.208,0,0,0-.354-1.718c-.006-.009-.007-.019-.013-.028a.149.149,0,0,1-.015-.03,4.316,4.316,0,0,0-3.461-2.493l-.045-.006c-.134-.013-.268-.022-.4-.022A4.284,4.284,0,0,0,39.7,16.471c-.007.015-.017.028-.024.043s-.009.019-.015.028a3.062,3.062,0,0,0-.423,1.873,1.488,1.488,0,0,1-2.975,0,9.3,9.3,0,0,1,.067-1.2,4.293,4.293,0,0,0,.774,8.516ZM49.93,6.673a1.487,1.487,0,0,0,1.488-1.488V1.5a1.488,1.488,0,0,0-2.975,0V5.186A1.485,1.485,0,0,0,49.93,6.673Zm4.522,1.29a1.474,1.474,0,0,0,.743.2,1.49,1.49,0,0,0,1.29-.745l1.841-3.193a1.488,1.488,0,0,0-2.578-1.488L53.906,5.93a1.491,1.491,0,0,0,.545,2.033Zm3.265,3.375a1.488,1.488,0,0,0,2.033.545l3.193-1.841a1.488,1.488,0,0,0-1.488-2.578L58.263,9.306a1.487,1.487,0,0,0-.545,2.033ZM58.859,15.9a1.487,1.487,0,0,0,1.488,1.488h3.688a1.488,1.488,0,1,0,0-2.975H60.346A1.488,1.488,0,0,0,58.859,15.9ZM43.336,7.269a1.488,1.488,0,1,0,2.578-1.488L44.073,2.589a1.488,1.488,0,1,0-2.578,1.488Z" transform="translate(-0.023 -0.01)"/>
      </g>
    </g>
  </g>
</svg>
