<svg xmlns="http://www.w3.org/2000/svg" width="129.063" height="83.686" viewBox="0 0 129.063 83.686">
  <g id="Grupo_1201418" data-name="Grupo 1201418" transform="translate(-788.103 -1978.679)">
    <g id="Rectángulo_410589" data-name="Rectángulo 410589" transform="translate(788.103 2007.607)" fill="#ffc94a" stroke="#dfab32" stroke-width="1">
      <rect width="129.063" height="43.021" rx="8" stroke="none"/>
      <rect x="0.5" y="0.5" width="128.063" height="42.021" rx="7.5" fill="none"/>
    </g>
    <g id="idea_1281565" transform="translate(815.939 1978.679)">
      <path id="Trazado_1275296" data-name="Trazado 1275296" d="M31.538,163.489V151.341H16.691V133.794H7.242l9.448-20.247A17.547,17.547,0,0,1,34.238,96h6.749a17.547,17.547,0,0,1,17.547,17.547v17.547l-8.1,16.2v16.2" transform="translate(-6.021 -79.803)" fill="#ceb2aa"/>
      <path id="Trazado_1275297" data-name="Trazado 1275297" d="M54.484,131.094V113.547A17.547,17.547,0,0,0,36.937,96h-2.7a17.547,17.547,0,0,0-17.547,17.547L7.242,133.794h9.448v17.547H31.538v12.148H46.386v-16.2Zm0,0" transform="translate(-6.021 -79.803)" fill="#e5c7bd"/>
      <path id="Trazado_1275298" data-name="Trazado 1275298" d="M280,384h18.9v5.4H280Zm0,0" transform="translate(-232.762 -319.211)" fill="#ed6863"/>
      <path id="Trazado_1275299" data-name="Trazado 1275299" d="M309.5,416l-1.35,12.148h-10.8L296,416" transform="translate(-246.062 -345.812)" fill="#f09490"/>
      <g id="Grupo_1202026" data-name="Grupo 1202026" transform="translate(16.198 45.892)">
        <path id="Trazado_1275300" data-name="Trazado 1275300" d="M346.8,304h-2.7a8.1,8.1,0,0,0-8.1,8.1h2.7A8.1,8.1,0,0,0,346.8,304Zm0,0" transform="translate(-295.511 -298.601)" fill="#7ec95f"/>
        <path id="Trazado_1275301" data-name="Trazado 1275301" d="M240,288h5.4a10.8,10.8,0,0,1,10.8,10.8h-5.4A10.8,10.8,0,0,1,240,288Zm0,0" transform="translate(-215.708 -285.3)" fill="#7ec95f"/>
        <path id="Trazado_1275302" data-name="Trazado 1275302" d="M96,272h2.7a8.1,8.1,0,0,1,8.1,8.1h-2.7A8.1,8.1,0,0,1,96,272Zm0,0" transform="translate(-96.004 -272)" fill="#7ec95f"/>
        <path id="Trazado_1275303" data-name="Trazado 1275303" d="M168.1,288h-2.7a5.4,5.4,0,0,0-5.4,5.4h2.7A5.4,5.4,0,0,0,168.1,288Zm0,0" transform="translate(-149.206 -285.3)" fill="#7ec95f"/>
      </g>
      <path id="Trazado_1275304" data-name="Trazado 1275304" d="M338.8,309.4h2.228a8.093,8.093,0,0,0,7.627-5.4h-2.228A8.094,8.094,0,0,0,338.8,309.4Zm0,0" transform="translate(-281.635 -252.709)" fill="#afe26c"/>
      <path id="Trazado_1275305" data-name="Trazado 1275305" d="M247.143,288H242.1a10.791,10.791,0,0,0,10.445,8.1h5.045A10.793,10.793,0,0,0,247.143,288Zm0,0" transform="translate(-201.251 -239.408)" fill="#afe26c"/>
      <path id="Trazado_1275306" data-name="Trazado 1275306" d="M101.025,272H98.8a8.094,8.094,0,0,0,7.627,5.4h2.228A8.094,8.094,0,0,0,101.025,272Zm0,0" transform="translate(-82.128 -226.108)" fill="#afe26c"/>
      <path id="Trazado_1275307" data-name="Trazado 1275307" d="M164.445,290.7h1.95a5.372,5.372,0,0,0,4.65-2.7H169.1A5.374,5.374,0,0,0,164.445,290.7Zm0,0" transform="translate(-136.7 -239.408)" fill="#afe26c"/>
      <path id="Trazado_1275308" data-name="Trazado 1275308" d="M309.4,226.7a2.7,2.7,0,1,1-2.7-2.7A2.7,2.7,0,0,1,309.4,226.7Zm0,0" transform="translate(-252.712 -186.206)" fill="#f2a348"/>
      <path id="Trazado_1275309" data-name="Trazado 1275309" d="M344.1,196.049A4.049,4.049,0,1,1,340.053,192,4.049,4.049,0,0,1,344.1,196.049Zm0,0" transform="translate(-279.313 -159.605)" fill="#f2a348"/>
      <path id="Trazado_1275310" data-name="Trazado 1275310" d="M133.4,210.7a2.7,2.7,0,1,1-2.7-2.7A2.7,2.7,0,0,1,133.4,210.7Zm0,0" transform="translate(-106.407 -172.906)" fill="#f2a348"/>
      <path id="Trazado_1275311" data-name="Trazado 1275311" d="M197.4,34.7a2.7,2.7,0,1,1-2.7-2.7A2.7,2.7,0,0,1,197.4,34.7Zm0,0" transform="translate(-159.609 -26.601)" fill="#ed6863"/>
      <path id="Trazado_1275312" data-name="Trazado 1275312" d="M101.4,10.7A2.7,2.7,0,1,1,98.7,8,2.7,2.7,0,0,1,101.4,10.7Zm0,0" transform="translate(-79.806 -6.65)" fill="#ed6863"/>
      <path id="Trazado_1275313" data-name="Trazado 1275313" d="M13.4,82.7A2.7,2.7,0,1,1,10.7,80,2.7,2.7,0,0,1,13.4,82.7Zm0,0" transform="translate(-6.654 -66.502)" fill="#ed6863"/>
      <path id="Trazado_1275314" data-name="Trazado 1275314" d="M168.1,180.049A4.049,4.049,0,1,1,164.053,176,4.049,4.049,0,0,1,168.1,180.049Zm0,0" transform="translate(-133.008 -146.305)" fill="#f2a348"/>
      <path id="Trazado_1275315" data-name="Trazado 1275315" d="M188.053,32.1a4.049,4.049,0,1,1,4.049-4.049A4.054,4.054,0,0,1,188.053,32.1Zm0-5.4a1.35,1.35,0,1,0,1.35,1.35A1.35,1.35,0,0,0,188.053,26.7Zm0,0" transform="translate(-152.959 -19.951)"/>
      <path id="Trazado_1275316" data-name="Trazado 1275316" d="M92.053,8.1A4.049,4.049,0,1,1,96.1,4.049,4.054,4.054,0,0,1,92.053,8.1Zm0-5.4a1.35,1.35,0,1,0,1.35,1.35A1.35,1.35,0,0,0,92.053,2.7Zm0,0" transform="translate(-73.156)"/>
      <path id="Trazado_1275317" data-name="Trazado 1275317" d="M4.053,80.1A4.049,4.049,0,1,1,8.1,76.049,4.054,4.054,0,0,1,4.053,80.1Zm0-5.4a1.35,1.35,0,1,0,1.35,1.35A1.35,1.35,0,0,0,4.053,74.7Zm0,0" transform="translate(-0.004 -59.852)"/>
      <path id="Trazado_1275318" data-name="Trazado 1275318" d="M157.4,178.8a5.4,5.4,0,1,1,5.4-5.4A5.4,5.4,0,0,1,157.4,178.8Zm0-8.1a2.7,2.7,0,1,0,2.7,2.7A2.7,2.7,0,0,0,157.4,170.7Zm0,0" transform="translate(-126.358 -139.655)"/>
      <path id="Trazado_1275319" data-name="Trazado 1275319" d="M323,25.547H300.053a4.049,4.049,0,1,1,1.35-7.867v-.231a4.049,4.049,0,0,1,6.757-3.011,6.749,6.749,0,0,1,13.49.312v.17a5.457,5.457,0,0,1,1.35-.17,5.4,5.4,0,1,1,0,10.8Zm0,0" transform="translate(-246.062 -6.65)" fill="#63afe3"/>
      <path id="Trazado_1275320" data-name="Trazado 1275320" d="M27,156.839H24.3v-10.8H10.8a1.348,1.348,0,0,1-1.35-1.35v-16.2H1.35a1.349,1.349,0,0,1-1.223-1.921l9.325-19.98A18.918,18.918,0,0,1,28.345,88h6.749a18.918,18.918,0,0,1,18.9,18.9h-2.7a16.215,16.215,0,0,0-16.2-16.2H28.345a16.215,16.215,0,0,0-16.2,16.2,1.353,1.353,0,0,1-.127.571L3.469,125.794H10.8a1.349,1.349,0,0,1,1.35,1.35v16.2h13.5a1.349,1.349,0,0,1,1.35,1.35Zm0,0" transform="translate(0 -73.152)"/>
      <path id="Trazado_1275321" data-name="Trazado 1275321" d="M376.2,8.1h-2.7a5.4,5.4,0,1,0-10.8,0H360a8.1,8.1,0,0,1,16.2,0Zm0,0" transform="translate(-299.264)"/>
      <path id="Trazado_1275322" data-name="Trazado 1275322" d="M330.8,37.4h-2.7a2.7,2.7,0,0,0-5.4,0H320a5.4,5.4,0,0,1,10.8,0Zm0,0" transform="translate(-266.013 -26.601)"/>
      <path id="Trazado_1275323" data-name="Trazado 1275323" d="M316.349,53.5H293.4a5.4,5.4,0,1,1,5.4-5.4h-2.7a2.7,2.7,0,1,0-2.7,2.7h22.946a4.049,4.049,0,1,0-4.049-4.049h-2.7a6.749,6.749,0,1,1,6.749,6.749Zm0,0" transform="translate(-239.412 -33.251)"/>
      <path id="Trazado_1275324" data-name="Trazado 1275324" d="M292.251,384.1h-18.9a1.348,1.348,0,0,1-1.35-1.35v-5.4a1.349,1.349,0,0,1,1.35-1.35h18.9a1.349,1.349,0,0,1,1.35,1.35v5.4A1.349,1.349,0,0,1,292.251,384.1ZM274.7,381.4h16.2v-2.7H274.7Zm0,0" transform="translate(-226.111 -312.561)"/>
      <path id="Trazado_1275325" data-name="Trazado 1275325" d="M301.541,428.761h-10.8a1.349,1.349,0,0,1-1.342-1.2l-1.35-12.148,2.684-.3,1.217,10.948h8.381l1.216-10.946,2.684.3-1.35,12.148A1.349,1.349,0,0,1,301.541,428.761Zm0,0" transform="translate(-239.451 -345.075)"/>
      <path id="Trazado_1275326" data-name="Trazado 1275326" d="M332.053,306.8h-2.7a1.348,1.348,0,0,1-1.35-1.35A9.461,9.461,0,0,1,337.452,296h2.7a1.349,1.349,0,0,1,1.35,1.35A9.46,9.46,0,0,1,332.053,306.8Zm-1.213-2.7h1.213a6.759,6.759,0,0,0,6.612-5.4h-1.213A6.759,6.759,0,0,0,330.84,304.1Zm0,0" transform="translate(-272.663 -246.058)"/>
      <path id="Trazado_1275327" data-name="Trazado 1275327" d="M249.551,293.5h-5.4A12.161,12.161,0,0,1,232,281.35a1.349,1.349,0,0,1,1.35-1.35h5.4A12.161,12.161,0,0,1,250.9,292.148,1.349,1.349,0,0,1,249.551,293.5ZM234.8,282.7a9.462,9.462,0,0,0,9.353,8.1H248.1a9.462,9.462,0,0,0-9.352-8.1Zm0,0" transform="translate(-192.86 -232.758)"/>
      <path id="Trazado_1275328" data-name="Trazado 1275328" d="M300.053,224.1a4.049,4.049,0,1,1,4.049-4.049A4.054,4.054,0,0,1,300.053,224.1Zm0-5.4a1.35,1.35,0,1,0,1.35,1.35A1.35,1.35,0,0,0,300.053,218.7Zm0,0" transform="translate(-246.062 -179.556)"/>
      <path id="Trazado_1275329" data-name="Trazado 1275329" d="M333.4,194.8a5.4,5.4,0,1,1,5.4-5.4A5.4,5.4,0,0,1,333.4,194.8Zm0-8.1a2.7,2.7,0,1,0,2.7,2.7A2.7,2.7,0,0,0,333.4,186.7Zm0,0" transform="translate(-272.663 -152.955)"/>
      <path id="Trazado_1275330" data-name="Trazado 1275330" d="M328,240h2.7v24.3H328Zm0,0" transform="translate(-272.663 -199.507)"/>
      <path id="Trazado_1275331" data-name="Trazado 1275331" d="M100.152,274.8h-2.7A9.46,9.46,0,0,1,88,265.35a1.349,1.349,0,0,1,1.35-1.35h2.7a9.461,9.461,0,0,1,9.448,9.448A1.349,1.349,0,0,1,100.152,274.8Zm-9.312-8.1a6.76,6.76,0,0,0,6.612,5.4h1.213a6.76,6.76,0,0,0-6.612-5.4Zm0,0" transform="translate(-73.156 -219.457)"/>
      <path id="Trazado_1275332" data-name="Trazado 1275332" d="M124.053,208.1a4.049,4.049,0,1,1,4.049-4.049A4.054,4.054,0,0,1,124.053,208.1Zm0-5.4a1.35,1.35,0,1,0,1.35,1.35A1.35,1.35,0,0,0,124.053,202.7Zm0,0" transform="translate(-99.757 -166.256)"/>
      <path id="Trazado_1275333" data-name="Trazado 1275333" d="M152,224h2.7v24.3H152Zm0,0" transform="translate(-126.358 -186.206)"/>
      <path id="Trazado_1275334" data-name="Trazado 1275334" d="M156.053,288.1h-2.7a1.348,1.348,0,0,1-1.35-1.35A6.757,6.757,0,0,1,158.753,280h2.7a1.349,1.349,0,0,1,1.35,1.35A6.756,6.756,0,0,1,156.053,288.1Zm-1.119-2.7h1.119a4.058,4.058,0,0,0,3.819-2.7h-1.119A4.058,4.058,0,0,0,154.934,285.4Zm0,0" transform="translate(-126.358 -232.758)"/>
      <path id="Trazado_1275335" data-name="Trazado 1275335" d="M176.156,81.223l4.059-18.895,2.639.567L178.8,81.79Zm0,0" transform="translate(-146.435 -51.812)"/>
      <path id="Trazado_1275336" data-name="Trazado 1275336" d="M125.191,19.037l.948-2.529,10.8,4.049-.948,2.529Zm0,0" transform="translate(-104.069 -13.723)"/>
      <path id="Trazado_1275337" data-name="Trazado 1275337" d="M26.73,35.436l10.8-9.444,1.777,2.032-10.8,9.444Zm0,0" transform="translate(-22.221 -21.607)"/>
      <path id="Trazado_1275338" data-name="Trazado 1275338" d="M104.609,38l2.5-1.027,9.448,22.947-2.5,1.027Zm0,0" transform="translate(-86.96 -30.731)"/>
      <path id="Trazado_1275339" data-name="Trazado 1275339" d="M27.465,99.638l1.53-2.224L50.589,112.26l-1.529,2.224Zm0,0" transform="translate(-22.831 -80.978)"/>
    </g>
  </g>
</svg>
