<svg xmlns="http://www.w3.org/2000/svg" xmlns:xlink="http://www.w3.org/1999/xlink" width="129.063" height="84.691" viewBox="0 0 129.063 84.691">
  <defs>
    <clipPath id="clip-path">
      <rect id="Rectángulo_412521" data-name="Rectángulo 412521" width="66.691" height="66.593" transform="translate(0 0)" fill="none"/>
    </clipPath>
  </defs>
  <g id="Grupo_1202005" data-name="Grupo 1202005" transform="translate(-785.598 -2548.442)">
    <rect id="Rectángulo_410589" data-name="Rectángulo 410589" width="84.691" height="84.691" transform="translate(807.861 2548.442)" fill="none"/>
    <g id="Rectángulo_412552" data-name="Rectángulo 412552" transform="translate(785.598 2569.278)" fill="#a1c6f1" stroke="#6f89a8" stroke-width="1">
      <rect width="129.063" height="43.021" rx="8" stroke="none"/>
      <rect x="0.5" y="0.5" width="128.063" height="42.021" rx="7.5" fill="none"/>
    </g>
    <g id="Grupo_1202011" data-name="Grupo 1202011" transform="translate(816.784 2557.493)">
      <g id="Grupo_1202010" data-name="Grupo 1202010" transform="translate(0 -0.001)" clip-path="url(#clip-path)">
        <path id="Trazado_1274885" data-name="Trazado 1274885" d="M53.5,291.23H13.189A13.189,13.189,0,0,1,0,278.041V261.9H66.691v16.144A13.189,13.189,0,0,1,53.5,291.23" transform="translate(0 -225.66)" fill="#b8d671"/>
        <path id="Trazado_1274886" data-name="Trazado 1274886" d="M222.758,172.675h-8.726v11.808h8.726Z" transform="translate(-184.418 -148.783)" fill="#b08658"/>
        <path id="Trazado_1274887" data-name="Trazado 1274887" d="M286.764,21.841,272.825,9.6H258.3l13.938,12.243h14.522Z" transform="translate(-222.564 -8.271)" fill="#fe927c"/>
        <path id="Trazado_1274888" data-name="Trazado 1274888" d="M339.865,107.68v20.8h15.206v-20.8H339.865Z" transform="translate(-292.84 -92.781)" fill="#ffdc7a"/>
        <path id="Trazado_1274889" data-name="Trazado 1274889" d="M170.592,23.875a.664.664,0,0,1,.664-.664h2.757L160.325,11.188,146.637,23.211h2.711a.664.664,0,0,1,0,1.328h-.743v20.8h6.028V32.868a.664.664,0,0,1,.664-.664h10.054a.664.664,0,0,1,.664.664V45.34h6.028v-20.8h-.789a.664.664,0,0,1-.664-.664m-10.931-6.768a.664.664,0,0,1,1.328,0v2.825a.664.664,0,0,1-1.328,0ZM152.791,29.5a.664.664,0,1,1-1.328,0V27.8a.664.664,0,1,1,1.328,0Zm8.2,0a.664.664,0,0,1-1.328,0V27.8a.664.664,0,0,1,1.328,0Zm5.389-4.957H154.272a.664.664,0,1,1,0-1.328h12.107a.664.664,0,0,1,0,1.328m2.809,4.957a.664.664,0,0,1-1.328,0V27.8a.664.664,0,0,1,1.328,0Z" transform="translate(-126.348 -9.64)" fill="#ffdc7a"/>
        <path id="Trazado_1274890" data-name="Trazado 1274890" d="M26.339,124.418a.656.656,0,0,1,.1-.008.664.664,0,0,1,.448.174,4.934,4.934,0,0,0,8.236-3.138,4.949,4.949,0,0,0-3.417-5.208.664.664,0,0,1-.421-.869,3.811,3.811,0,0,0-3.172-5.144,3.81,3.81,0,0,0-3.919,5.224.664.664,0,0,1-.332.852,4.287,4.287,0,0,0,2.476,8.117M28.6,122.3a.664.664,0,0,1,.895-.285,1.422,1.422,0,0,0,.659.159,1.44,1.44,0,0,0,1.392-1.071.664.664,0,0,1,1.284.339,2.769,2.769,0,0,1-3.945,1.754.664.664,0,0,1-.285-.895" transform="translate(-18.437 -94.956)" fill="#b8d671"/>
        <path id="Trazado_1274891" data-name="Trazado 1274891" d="M61.356,225.805a6.183,6.183,0,0,1-2.3-1.006v4.6h2.3Z" transform="translate(-50.882 -193.695)" fill="#b08658"/>
        <path id="Trazado_1274892" data-name="Trazado 1274892" d="M158.621,129.145v-.664h-6.028v-20.8h-1.328v20.8h.062a24.094,24.094,0,0,1,7.663,1.328h.295a.664.664,0,0,1-.664-.664" transform="translate(-130.335 -92.781)" fill="#444"/>
        <path id="Trazado_1274893" data-name="Trazado 1274893" d="M292.677,129.145a.664.664,0,0,1,.664-.664h.664v-20.8h-1.328v20.8h-6.028v.664a.661.661,0,0,1-.008.08q.982.251,1.977.584h4.723a.664.664,0,0,1-.664-.664" transform="translate(-246.98 -92.781)" fill="#444"/>
        <path id="Trazado_1274894" data-name="Trazado 1274894" d="M132.829,14.434h-1.3L145.213,2.411,158.9,14.434h-1.3a.664.664,0,0,1,.664.664v.664h2.4a.664.664,0,0,1,0-1.328h.25L146.975,2.192h-1.762a.662.662,0,0,1-.4-1.19c-.012.009-.025.016-.036.026L129.324,14.6a.664.664,0,0,0,.438,1.163h2.4V15.1a.664.664,0,0,1,.664-.664" transform="translate(-111.236 -0.863)" fill="#444"/>
        <path id="Trazado_1274895" data-name="Trazado 1274895" d="M158.137,98.744a.664.664,0,0,0-.664-.664h-1.407a.664.664,0,0,1,.664.664v.664h.743a.664.664,0,0,0,.664-.664" transform="translate(-134.472 -84.509)" fill="#444"/>
        <path id="Trazado_1274896" data-name="Trazado 1274896" d="M243.8.2a.656.656,0,0,1,.076-.023A.635.635,0,0,0,243.8.2" transform="translate(-210.063 -0.152)" fill="#444"/>
        <path id="Trazado_1274897" data-name="Trazado 1274897" d="M321.882,98.08h-1.453a.664.664,0,0,0,0,1.328h.789v-.664a.664.664,0,0,1,.664-.664" transform="translate(-275.521 -84.509)" fill="#444"/>
        <path id="Trazado_1274898" data-name="Trazado 1274898" d="M243,.546a.669.669,0,0,1,.062-.034A.644.644,0,0,0,243,.546" transform="translate(-209.377 -0.441)" fill="#444"/>
        <path id="Trazado_1274899" data-name="Trazado 1274899" d="M244.783,0a.66.66,0,0,0-.127.013A.662.662,0,0,1,244.782,0Z" transform="translate(-210.805 0.001)" fill="#444"/>
        <path id="Trazado_1274900" data-name="Trazado 1274900" d="M152.593,98.744a.664.664,0,1,0-1.328,0v.664h1.328Z" transform="translate(-130.335 -84.509)" fill="#444"/>
        <path id="Trazado_1274901" data-name="Trazado 1274901" d="M330.929,98.08a.664.664,0,0,0-.664.664v.664h1.328v-.664a.664.664,0,0,0-.664-.664" transform="translate(-284.569 -84.509)" fill="#444"/>
        <path id="Trazado_1274902" data-name="Trazado 1274902" d="M339.865,258.043a.662.662,0,0,1,.185-.029h-.185Z" transform="translate(-292.84 -222.314)" fill="#444"/>
        <path id="Trazado_1274903" data-name="Trazado 1274903" d="M356.222,129.145a.664.664,0,0,1,.664-.664h.664v-20.8h-1.328v20.8H341.2a23.981,23.981,0,0,1,7.6,1.328h8.088a.664.664,0,0,1-.664-.664" transform="translate(-293.991 -92.781)" fill="#444"/>
        <path id="Trazado_1274904" data-name="Trazado 1274904" d="M335.065,266.635h.849a.651.651,0,0,0-.849,0" transform="translate(-288.704 -229.607)" fill="#444"/>
        <path id="Trazado_1274905" data-name="Trazado 1274905" d="M331.114,258.678a.662.662,0,0,1,.48-.635v-.029h-.664a.664.664,0,1,0,.424,1.171.66.66,0,0,1-.24-.507" transform="translate(-284.569 -222.314)" fill="#444"/>
        <path id="Trazado_1274906" data-name="Trazado 1274906" d="M370.7,98.08H357.482l.188.165a.664.664,0,0,1-.438,1.163h12.8v-.664a.664.664,0,0,1,.664-.664" transform="translate(-307.804 -84.509)" fill="#444"/>
        <path id="Trazado_1274907" data-name="Trazado 1274907" d="M247.334,1.327h14.522L275.794,13.57h-1.3a.664.664,0,0,1,.664.664V14.9h2.4a.664.664,0,0,0,.438-1.163L262.544.164A.664.664,0,0,0,262.106,0H245.572a.662.662,0,0,1,.437.165Z" transform="translate(-211.594 0.001)" fill="#444"/>
        <path id="Trazado_1274908" data-name="Trazado 1274908" d="M242.66.789c.016-.012.031-.024.047-.034-.016.011-.032.022-.047.034" transform="translate(-209.085 -0.65)" fill="#444"/>
        <path id="Trazado_1274909" data-name="Trazado 1274909" d="M243.447.369c.016-.008.032-.016.048-.023-.017.007-.032.015-.048.023" transform="translate(-209.763 -0.298)" fill="#444"/>
        <path id="Trazado_1274910" data-name="Trazado 1274910" d="M244.341.1c.015,0,.029-.009.044-.012-.015,0-.029.008-.044.012" transform="translate(-210.533 -0.078)" fill="#444"/>
        <path id="Trazado_1274911" data-name="Trazado 1274911" d="M353.718,98.978a.664.664,0,0,0-.183-.733l-.188-.165h-.25a.664.664,0,1,0,.622.9" transform="translate(-303.668 -84.509)" fill="#444"/>
        <path id="Trazado_1274912" data-name="Trazado 1274912" d="M240.766.663a.664.664,0,0,0,.664.664h1.762L241.868.164A.662.662,0,0,0,241.431,0h0a.66.66,0,0,0-.126.013c-.015,0-.029.008-.044.012a.663.663,0,0,0-.076.023c-.016.007-.032.015-.048.023a.681.681,0,0,0-.062.034c-.016.01-.032.022-.047.034a.661.661,0,0,0-.262.525" transform="translate(-207.453 0.001)" fill="#444"/>
        <path id="Trazado_1274913" data-name="Trazado 1274913" d="M450.429,98.08a.664.664,0,0,0-.664.664v.664h1.328v-.664a.664.664,0,0,0-.664-.664" transform="translate(-387.534 -84.509)" fill="#444"/>
        <path id="Trazado_1274914" data-name="Trazado 1274914" d="M215.151,163.076H205.1a.664.664,0,0,0-.664.664v12.472h1.328V164.4h8.726v11.808h1.328V163.74a.664.664,0,0,0-.664-.664" transform="translate(-176.146 -140.512)" fill="#444"/>
        <path id="Trazado_1274915" data-name="Trazado 1274915" d="M209.46,258.678a.664.664,0,0,1,.664-.664h-5.691v.664a.664.664,0,0,0,.664.664h5.027a.664.664,0,0,1-.664-.664" transform="translate(-176.147 -222.314)" fill="#444"/>
        <path id="Trazado_1274916" data-name="Trazado 1274916" d="M245.565,258.014a22.957,22.957,0,0,1,5.683.744.662.662,0,0,0,.008-.08v-.664h-5.691Z" transform="translate(-211.588 -222.314)" fill="#444"/>
        <path id="Trazado_1274917" data-name="Trazado 1274917" d="M209.786,98.08H197.679a.664.664,0,0,0,0,1.328h12.107a.664.664,0,0,0,0-1.328" transform="translate(-169.755 -84.509)" fill="#444"/>
        <path id="Trazado_1274918" data-name="Trazado 1274918" d="M241.429,53.317a.664.664,0,0,0,.664-.664V49.828a.664.664,0,1,0-1.328,0v2.825a.664.664,0,0,0,.664.664" transform="translate(-207.452 -42.361)" fill="#444"/>
        <path id="Trazado_1274919" data-name="Trazado 1274919" d="M241.429,126.455a.664.664,0,0,0-.664.664v1.695a.664.664,0,1,0,1.328,0v-1.695a.664.664,0,0,0-.664-.664" transform="translate(-207.452 -108.958)" fill="#444"/>
        <path id="Trazado_1274920" data-name="Trazado 1274920" d="M300.679,126.455a.664.664,0,0,0-.664.664v1.695a.664.664,0,1,0,1.328,0v-1.695a.664.664,0,0,0-.664-.664" transform="translate(-258.504 -108.958)" fill="#444"/>
        <path id="Trazado_1274921" data-name="Trazado 1274921" d="M182.179,126.455a.664.664,0,0,0-.664.664v1.695a.664.664,0,1,0,1.328,0v-1.695a.664.664,0,0,0-.664-.664" transform="translate(-156.4 -108.958)" fill="#444"/>
        <path id="Trazado_1274922" data-name="Trazado 1274922" d="M359.552,275.019a.664.664,0,0,0,.8-1.059,41.068,41.068,0,0,0-11.556-6.345h-7.6c5.607,0,11.953,2.56,18.352,7.4" transform="translate(-293.991 -230.586)" fill="#444"/>
        <path id="Trazado_1274923" data-name="Trazado 1274923" d="M338.372,258.043v.635a.66.66,0,0,1-.24.507.658.658,0,0,0,.424.157h7.6a23.987,23.987,0,0,0-7.6-1.328.662.662,0,0,0-.185.029" transform="translate(-291.347 -222.314)" fill="#444"/>
        <path id="Trazado_1274924" data-name="Trazado 1274924" d="M336.4,258.861a.31.31,0,1,0,.48,0v-.635a.662.662,0,0,0-.48.635" transform="translate(-289.854 -222.497)" fill="#444"/>
        <path id="Trazado_1274925" data-name="Trazado 1274925" d="M245.565,267.614c11.6,0,23.858,10.669,31.457,20.654a.664.664,0,1,0,1.057-.8,70.727,70.727,0,0,0-14.505-14.348,39.687,39.687,0,0,0-10.348-5.5h-7.66Z" transform="translate(-211.588 -230.586)" fill="#444"/>
        <path id="Trazado_1274926" data-name="Trazado 1274926" d="M281.9,263.977h2.633q-1-.335-1.977-.584a.662.662,0,0,1-.656.584" transform="translate(-242.895 -226.949)" fill="#444"/>
        <path id="Trazado_1274927" data-name="Trazado 1274927" d="M247.112,258.759a22.957,22.957,0,0,0-5.683-.744.664.664,0,1,0,0,1.328h5.027a.662.662,0,0,0,.656-.584" transform="translate(-207.452 -222.315)" fill="#444"/>
        <path id="Trazado_1274928" data-name="Trazado 1274928" d="M7.053,258.678v-.664H.908a.663.663,0,0,0-.547,1.04.662.662,0,0,1,.714-.27c.628.163,1.249.352,1.865.558H7.717a.664.664,0,0,1-.664-.664" transform="translate(-0.21 -222.314)" fill="#444"/>
        <path id="Trazado_1274929" data-name="Trazado 1274929" d="M59.053,258.014v0a21.53,21.53,0,0,1,2.3.135v-.137Z" transform="translate(-50.882 -222.314)" fill="#444"/>
        <path id="Trazado_1274930" data-name="Trazado 1274930" d="M54.253,267.186h.578a.656.656,0,0,1-.289-.069.656.656,0,0,1-.289.069" transform="translate(-46.746 -230.158)" fill="#444"/>
        <path id="Trazado_1274931" data-name="Trazado 1274931" d="M94.427,258.678v-.664H85.3v.325a26.413,26.413,0,0,1,3.946,1H94.49c8.568,0,16.767,5.725,22.136,10.527a67.829,67.829,0,0,1,14.776,18.67.664.664,0,0,0,1.188-.594c-4.4-8.8-16.836-24.04-30.436-28.6H95.091a.664.664,0,0,1-.664-.664" transform="translate(-73.498 -222.314)" fill="#444"/>
        <path id="Trazado_1274932" data-name="Trazado 1274932" d="M151.266,258.014v.664a.664.664,0,0,0,.664.664h7.061a24.1,24.1,0,0,0-7.663-1.328Z" transform="translate(-130.336 -222.314)" fill="#444"/>
        <path id="Trazado_1274933" data-name="Trazado 1274933" d="M58.431,267.614c8.568,0,16.766,5.725,22.136,10.527a67.827,67.827,0,0,1,14.776,18.67.664.664,0,0,0,1.188-.594c-4.4-8.8-16.836-24.041-30.436-28.6H58.431Z" transform="translate(-50.346 -230.586)" fill="#444"/>
        <path id="Trazado_1274934" data-name="Trazado 1274934" d="M81.164,260.7a.664.664,0,0,1-.664.664h4.61a26.411,26.411,0,0,0-3.945-1Z" transform="translate(-69.362 -224.34)" fill="#444"/>
        <path id="Trazado_1274935" data-name="Trazado 1274935" d="M59.02,258.688v-.527a21.5,21.5,0,0,0-2.3-.135v.662a.662.662,0,0,1-.375.6.655.655,0,0,0,.289.069h3.054a.664.664,0,0,1-.664-.664" transform="translate(-48.546 -222.325)" fill="#444"/>
        <path id="Trazado_1274936" data-name="Trazado 1274936" d="M.361,265.533a.657.657,0,0,0-.1.206.664.664,0,0,0,.476.81c13.529,3.515,26.782,19.066,31.48,28.47a.664.664,0,0,0,1.188-.594A68.307,68.307,0,0,0,20.7,277.585c-4.2-4.126-10.558-9.348-17.763-11.764H.908a.663.663,0,0,1-.547-.288" transform="translate(-0.21 -228.793)" fill="#444"/>
        <path id="Trazado_1274937" data-name="Trazado 1274937" d="M19.314,334.331a.664.664,0,1,0,1.188-.594c-3.209-6.425-10.389-15.857-19.2-22.446a.664.664,0,0,0-.8,1.064c8.632,6.459,15.664,15.691,18.8,21.976" transform="translate(-0.211 -268.106)" fill="#444"/>
        <path id="Trazado_1274938" data-name="Trazado 1274938" d="M457.632,258.014h-2.4v.664a.664.664,0,0,1-.664.664h3.067a.664.664,0,1,0,0-1.328" transform="translate(-391.67 -222.314)" fill="#444"/>
        <path id="Trazado_1274939" data-name="Trazado 1274939" d="M451.093,258.678v-.664h-.664a.664.664,0,1,0,.664.664" transform="translate(-387.534 -222.314)" fill="#444"/>
        <path id="Trazado_1274940" data-name="Trazado 1274940" d="M17.672,116.194a.664.664,0,0,1,.664.664v.929a6.185,6.185,0,0,0,2.3,1.006v-.531a.664.664,0,1,1,1.328,0v.669a6.263,6.263,0,0,0,6.207-5.622,6.288,6.288,0,0,0-3.722-6.38,5.138,5.138,0,0,0-4.473-6.3,5.138,5.138,0,0,0-5.636,4.586,5.162,5.162,0,0,0,.158,1.89,5.615,5.615,0,0,0,2.338,10.387c.056.006.113.009.169.013v-.648a.664.664,0,0,1,.664-.664m-4.523-4.724a4.257,4.257,0,0,1,2.443-3.443.664.664,0,0,0,.332-.852,3.809,3.809,0,1,1,7.091-.08.664.664,0,0,0,.421.869,4.934,4.934,0,0,1-2,9.612,4.893,4.893,0,0,1-2.824-1.266.666.666,0,0,0-.549-.167,4.289,4.289,0,0,1-4.919-4.675" transform="translate(-10.165 -86.683)" fill="#444"/>
        <path id="Trazado_1274941" data-name="Trazado 1274941" d="M73.266,187.951a2.769,2.769,0,0,0,3.945-1.754.664.664,0,1,0-1.284-.339,1.44,1.44,0,0,1-1.392,1.071,1.423,1.423,0,0,1-.659-.159.664.664,0,1,0-.609,1.18" transform="translate(-62.819 -159.716)" fill="#444"/>
        <path id="Trazado_1274942" data-name="Trazado 1274942" d="M76.367,232.178a6.379,6.379,0,0,1-.666-.1v3.589h1.328v-3.451h-.011a6.371,6.371,0,0,1-.652-.033" transform="translate(-65.227 -199.963)" fill="#444"/>
        <path id="Trazado_1274943" data-name="Trazado 1274943" d="M75.7,258.151q.665.075,1.328.188v-.325H75.7Z" transform="translate(-65.226 -222.314)" fill="#444"/>
        <path id="Trazado_1274944" data-name="Trazado 1274944" d="M75.7,259.529a.664.664,0,1,0,1.328,0v-.339q-.664-.114-1.328-.189Z" transform="translate(-65.226 -223.166)" fill="#444"/>
        <path id="Trazado_1274945" data-name="Trazado 1274945" d="M76.364,223.434a.664.664,0,0,0-.664.664v.531a6.461,6.461,0,0,0,.666.1,6.374,6.374,0,0,0,.652.033h.011V224.1a.664.664,0,0,0-.664-.664" transform="translate(-65.226 -192.519)" fill="#444"/>
        <path id="Trazado_1274946" data-name="Trazado 1274946" d="M50.781,227.585v-4.6q-.194-.138-.379-.291a5.629,5.629,0,0,1-.949.01v4.877h1.328Z" transform="translate(-42.611 -191.886)" fill="#444"/>
        <path id="Trazado_1274947" data-name="Trazado 1274947" d="M58.431,258.014l.086,0v0Z" transform="translate(-50.346 -222.314)" fill="#444"/>
        <path id="Trazado_1274948" data-name="Trazado 1274948" d="M50.031,258.678a.664.664,0,0,1,.664-.664H49.453v.664a.664.664,0,0,0,.664.664.657.657,0,0,0,.289-.069.662.662,0,0,1-.375-.6" transform="translate(-42.611 -222.314)" fill="#444"/>
        <path id="Trazado_1274949" data-name="Trazado 1274949" d="M53.631,258.678a.662.662,0,0,0,.375.6.662.662,0,0,0,.375-.6v-.663l-.086,0a.664.664,0,0,0-.664.664" transform="translate(-46.21 -222.314)" fill="#444"/>
        <path id="Trazado_1274950" data-name="Trazado 1274950" d="M50.4,214.586q.185.153.379.291v-.929a.664.664,0,0,0-1.328,0v.648a5.629,5.629,0,0,0,.949-.01" transform="translate(-42.611 -183.772)" fill="#444"/>
        <path id="Trazado_1274951" data-name="Trazado 1274951" d="M1.093,263.717a.663.663,0,0,0,.547.288H3.672c-.616-.207-1.238-.4-1.865-.558a.662.662,0,0,0-.714.27" transform="translate(-0.942 -226.977)" fill="#444"/>
      </g>
    </g>
  </g>
</svg>
