<svg xmlns="http://www.w3.org/2000/svg" xmlns:xlink="http://www.w3.org/1999/xlink" width="129.063" height="84.691" viewBox="0 0 129.063 84.691">
  <defs>
    <clipPath id="clip-path">
      <rect id="Rectángulo_412522" data-name="Rectángulo 412522" width="89.325" height="63.185" fill="none"/>
    </clipPath>
  </defs>
  <g id="Grupo_1202006" data-name="Grupo 1202006" transform="translate(-785.861 -2548.442)">
    <rect id="Rectángulo_410589" data-name="Rectángulo 410589" width="84.691" height="84.691" transform="translate(807.861 2548.442)" fill="none"/>
    <g id="Rectángulo_412553" data-name="Rectángulo 412553" transform="translate(785.861 2577.277)" fill="#a1c6f1" stroke="#6f89a8" stroke-width="1">
      <rect width="129.063" height="43.021" rx="8" stroke="none"/>
      <rect x="0.5" y="0.5" width="128.063" height="42.021" rx="7.5" fill="none"/>
    </g>
    <g id="Grupo_1202013" data-name="Grupo 1202013" transform="translate(805.861 2562.484)">
      <g id="Grupo_1202012" data-name="Grupo 1202012" clip-path="url(#clip-path)">
        <path id="Trazado_1274952" data-name="Trazado 1274952" d="M80.131,197.075H9.194c-5.078,0-9.194-4.838-9.194-10.8v-5.537c0-5.967,4.116-10.8,9.194-10.8H80.131c5.077,0,9.194,4.838,9.194,10.8v5.537c0,5.967-4.116,10.8-9.194,10.8" transform="translate(0 -133.889)" fill="#b08658"/>
        <path id="Trazado_1274953" data-name="Trazado 1274953" d="M29.27,46.966a29.494,29.494,0,0,1,4.709,9.913,7.939,7.939,0,0,1,.983-.485c.034-1.1.136-2.6.287-4.29a13.583,13.583,0,0,0-5.979-5.137" transform="translate(-23.988 -37.005)" fill="#b8d671"/>
        <path id="Trazado_1274954" data-name="Trazado 1274954" d="M70.524,36.578a10.77,10.77,0,0,1,1.605-.176h.053a10.768,10.768,0,0,1,1.605.176,124.87,124.87,0,0,0-1.632-14.11,124.869,124.869,0,0,0-1.631,14.11" transform="translate(-57.798 -17.703)" fill="#b8d671"/>
        <path id="Trazado_1274955" data-name="Trazado 1274955" d="M54.238,100.311a6.9,6.9,0,0,0-10.705,0c-1.127,1.55-1.577,3.758-1.342,6.566h2.473a1.031,1.031,0,0,1,0,2.036H42.432l.386,3.064H54.953l.586-4.651c.324-3.022-.114-5.382-1.3-7.015m-1.353,4.768H49.649a1.031,1.031,0,0,1,0-2.036h3.235a1.031,1.031,0,0,1,0,2.036" transform="translate(-34.527 -77.033)" fill="#fe927c"/>
        <path id="Trazado_1274956" data-name="Trazado 1274956" d="M96.729,52.1c.151,1.689.252,3.19.287,4.29a7.95,7.95,0,0,1,.983.485,29.5,29.5,0,0,1,4.709-9.913A13.582,13.582,0,0,0,96.729,52.1" transform="translate(-79.274 -37.005)" fill="#b8d671"/>
        <path id="Trazado_1274957" data-name="Trazado 1274957" d="M389.561,100.311a6.9,6.9,0,0,0-10.705,0c-1.128,1.55-1.578,3.758-1.342,6.566h2.473a1.031,1.031,0,0,1,0,2.036h-2.231l.386,3.064h12.135l.586-4.651c.324-3.022-.114-5.382-1.3-7.015m-1.353,4.768h-3.235a1.031,1.031,0,0,1,0-2.036h3.235a1.031,1.031,0,0,1,0,2.036" transform="translate(-309.34 -77.033)" fill="#fe927c"/>
        <path id="Trazado_1274958" data-name="Trazado 1274958" d="M432.054,52.1c.151,1.689.253,3.19.287,4.289a7.924,7.924,0,0,1,.983.485,29.5,29.5,0,0,1,4.709-9.913,13.581,13.581,0,0,0-5.979,5.138" transform="translate(-354.088 -37.005)" fill="#b8d671"/>
        <path id="Trazado_1274959" data-name="Trazado 1274959" d="M364.594,46.966a29.5,29.5,0,0,1,4.709,9.913,7.925,7.925,0,0,1,.983-.485c.034-1.1.136-2.6.287-4.289a13.583,13.583,0,0,0-5.979-5.138" transform="translate(-298.801 -37.005)" fill="#b8d671"/>
        <path id="Trazado_1274960" data-name="Trazado 1274960" d="M196.932,46.966a29.494,29.494,0,0,1,4.709,9.913,7.955,7.955,0,0,1,.983-.485c.034-1.1.136-2.6.287-4.29a13.582,13.582,0,0,0-5.979-5.137" transform="translate(-161.395 -37.005)" fill="#b8d671"/>
        <path id="Trazado_1274961" data-name="Trazado 1274961" d="M238.186,36.578a10.77,10.77,0,0,1,1.605-.176h.053a10.768,10.768,0,0,1,1.605.176,124.921,124.921,0,0,0-1.631-14.11,124.834,124.834,0,0,0-1.632,14.11" transform="translate(-195.204 -17.703)" fill="#b8d671"/>
        <path id="Trazado_1274962" data-name="Trazado 1274962" d="M221.9,100.311a6.9,6.9,0,0,0-10.705,0c-1.127,1.55-1.577,3.758-1.342,6.566h2.473a1.031,1.031,0,0,1,0,2.036h-2.231l.386,3.064h12.135l.586-4.651c.324-3.022-.114-5.382-1.3-7.015m-1.353,4.768h-3.235a1.031,1.031,0,0,1,0-2.036h3.235a1.031,1.031,0,0,1,0,2.036" transform="translate(-171.934 -77.033)" fill="#fe927c"/>
        <path id="Trazado_1274963" data-name="Trazado 1274963" d="M264.392,52.1c.151,1.689.252,3.19.287,4.289a7.92,7.92,0,0,1,.983.485,29.484,29.484,0,0,1,4.709-9.913,13.582,13.582,0,0,0-5.979,5.138" transform="translate(-216.681 -37.005)" fill="#b8d671"/>
        <path id="Trazado_1274964" data-name="Trazado 1274964" d="M405.849,36.577a10.769,10.769,0,0,1,1.605-.176h.053a10.767,10.767,0,0,1,1.605.176,124.924,124.924,0,0,0-1.631-14.109,124.876,124.876,0,0,0-1.631,14.109" transform="translate(-332.612 -17.703)" fill="#b8d671"/>
        <path id="Trazado_1274965" data-name="Trazado 1274965" d="M314.405,165.633l.109-.869H302.38l.11.869a1.006,1.006,0,0,1-.73,1.156.9.9,0,0,1-.984-.858l-.147-1.167H286.011l-.147,1.167a.924.924,0,0,1-.854.869h30.251a.752.752,0,0,1-.126-.011,1.006,1.006,0,0,1-.73-1.156" transform="translate(-233.579 -129.82)" fill="#444"/>
        <path id="Trazado_1274966" data-name="Trazado 1274966" d="M146.743,165.633l.11-.869H134.718l.11.869a1.006,1.006,0,0,1-.73,1.156.9.9,0,0,1-.984-.858l-.147-1.167H118.349l-.147,1.167a.924.924,0,0,1-.854.869H147.6a.751.751,0,0,1-.126-.011,1.006,1.006,0,0,1-.73-1.156" transform="translate(-96.172 -129.82)" fill="#444"/>
        <path id="Trazado_1274967" data-name="Trazado 1274967" d="M458.158,164.764h-4.485l-.147,1.167a.925.925,0,0,1-.854.869h5.486a1.031,1.031,0,0,0,0-2.036" transform="translate(-370.985 -129.82)" fill="#444"/>
        <path id="Trazado_1274968" data-name="Trazado 1274968" d="M25.711,165.633l.109-.869H13.685l.11.869a1.006,1.006,0,0,1-.73,1.156.9.9,0,0,1-.984-.858l-.147-1.167H7.449a1.031,1.031,0,0,0,0,2.036H26.567a.751.751,0,0,1-.126-.011,1.006,1.006,0,0,1-.73-1.156" transform="translate(-5.395 -129.82)" fill="#444"/>
        <path id="Trazado_1274969" data-name="Trazado 1274969" d="M46.3,218.792h3.621a1.031,1.031,0,0,0,0-2.036H46.3a1.031,1.031,0,0,0,0,2.036" transform="translate(-37.234 -170.786)" fill="#444"/>
        <path id="Trazado_1274970" data-name="Trazado 1274970" d="M92.915,281.792a1.031,1.031,0,0,0,0-2.036H89.294a1.031,1.031,0,0,0,0,2.036Z" transform="translate(-72.471 -220.425)" fill="#444"/>
        <path id="Trazado_1274971" data-name="Trazado 1274971" d="M126.355,218.792a1.031,1.031,0,0,0,0-2.036h-3.621a1.031,1.031,0,0,0,0,2.036Z" transform="translate(-99.876 -170.786)" fill="#444"/>
        <path id="Trazado_1274972" data-name="Trazado 1274972" d="M347.92,213.792a1.031,1.031,0,0,0,0-2.036H344.3a1.031,1.031,0,0,0,0,2.036Z" transform="translate(-281.459 -166.846)" fill="#444"/>
        <path id="Trazado_1274973" data-name="Trazado 1274973" d="M390.915,276.792a1.031,1.031,0,0,0,0-2.036h-3.621a1.031,1.031,0,0,0,0,2.036Z" transform="translate(-316.695 -216.485)" fill="#444"/>
        <path id="Trazado_1274974" data-name="Trazado 1274974" d="M424.355,213.792a1.031,1.031,0,0,0,0-2.036h-3.621a1.031,1.031,0,0,0,0,2.036Z" transform="translate(-344.101 -166.846)" fill="#444"/>
        <path id="Trazado_1274975" data-name="Trazado 1274975" d="M288.859,264.292a1.031,1.031,0,0,0,0-2.036h-3.621a1.031,1.031,0,0,0,0,2.036Z" transform="translate(-233.056 -206.636)" fill="#444"/>
        <path id="Trazado_1274976" data-name="Trazado 1274976" d="M245.864,201.292a1.031,1.031,0,0,0,0-2.036h-3.621a1.031,1.031,0,0,0,0,2.036Z" transform="translate(-197.819 -156.997)" fill="#444"/>
        <path id="Trazado_1274977" data-name="Trazado 1274977" d="M212.423,264.292a1.031,1.031,0,0,0,0-2.036H208.8a1.031,1.031,0,0,0,0,2.036Z" transform="translate(-170.413 -206.636)" fill="#444"/>
        <path id="Trazado_1274978" data-name="Trazado 1274978" d="M202.218,101.347h-1a1.031,1.031,0,0,1,0-2.036h.762c-.235-2.807.215-5.016,1.342-6.566a6.9,6.9,0,0,1,10.705,0c1.187,1.632,1.625,3.992,1.3,7.015l-.586,4.651h1.751l.549-4.363,0-.021c.39-3.62-.183-6.515-1.7-8.6a7.609,7.609,0,0,0-.8-.929c-.064.238-.122.46-.172.661a.9.9,0,0,1-.831.73.745.745,0,0,1-.245-.042,1.055,1.055,0,0,1-.586-1.264c.09-.358.2-.776.332-1.238a7.952,7.952,0,0,0-.983-.485c.009.277.013.531.013.754a.877.877,0,1,1-1.732,0c0-.353-.012-.78-.034-1.267a10.771,10.771,0,0,0-1.605-.176h-.053a10.771,10.771,0,0,0-1.605.176c-.022.487-.034.914-.034,1.267a.877.877,0,1,1-1.732,0c0-.223,0-.476.014-.754a7.91,7.91,0,0,0-.983.485c.132.462.243.88.332,1.238a1.055,1.055,0,0,1-.586,1.264.745.745,0,0,1-.245.042.9.9,0,0,1-.83-.73c-.05-.2-.108-.423-.173-.661a7.624,7.624,0,0,0-.8.929c-1.519,2.089-2.091,4.983-1.7,8.6,0,.007,0,.014,0,.021l.55,4.363H202.6Z" transform="translate(-164.058 -69.467)" fill="#444"/>
        <path id="Trazado_1274979" data-name="Trazado 1274979" d="M284.988,174.364h0" transform="translate(-233.559 -137.384)" fill="#444"/>
        <path id="Trazado_1274980" data-name="Trazado 1274980" d="M281.915,165.931l.147-1.167h-1.751l-.109.869a1.006,1.006,0,0,0,.73,1.156.751.751,0,0,0,.126.011h0a.925.925,0,0,0,.854-.869" transform="translate(-229.63 -129.82)" fill="#444"/>
        <path id="Trazado_1274981" data-name="Trazado 1274981" d="M205.03,166.789a1.006,1.006,0,0,0,.73-1.156l-.11-.869H203.9l.147,1.167a.9.9,0,0,0,.984.858" transform="translate(-167.105 -129.82)" fill="#444"/>
        <path id="Trazado_1274982" data-name="Trazado 1274982" d="M213.466,141.736a.951.951,0,0,0-.866-1.018h-2.473c.012.148.025.3.042.449l.2,1.587H212.6a.951.951,0,0,0,.866-1.018" transform="translate(-172.209 -110.874)" fill="#444"/>
        <path id="Trazado_1274983" data-name="Trazado 1274983" d="M202.731,140.719h-.762a1.031,1.031,0,0,0,0,2.036h1l-.2-1.587c-.016-.152-.029-.3-.042-.449" transform="translate(-164.813 -110.875)" fill="#444"/>
        <path id="Trazado_1274984" data-name="Trazado 1274984" d="M250.762,122.642h-3.235a1.031,1.031,0,0,0,0,2.036h3.235a1.031,1.031,0,0,0,0-2.036" transform="translate(-202.149 -96.632)" fill="#444"/>
        <path id="Trazado_1274985" data-name="Trazado 1274985" d="M178.339,36.829a13.582,13.582,0,0,1,5.979,5.137c.079-.88.171-1.808.276-2.76-2.039-2.463-5.468-5.055-9.473-5.106h-.01a.9.9,0,0,0-.838.761,1.094,1.094,0,0,0,.423,1.151c3.88,2.492,5.993,8.71,6.85,11.883a7.486,7.486,0,0,1,1.5-1.153,29.494,29.494,0,0,0-4.709-9.913" transform="translate(-142.801 -26.868)" fill="#444"/>
        <path id="Trazado_1274986" data-name="Trazado 1274986" d="M215.708,96.249a.75.75,0,0,0,.245-.042,1.056,1.056,0,0,0,.586-1.264c-.09-.358-.2-.776-.333-1.238a7.486,7.486,0,0,0-1.5,1.153c.064.238.122.46.173.661a.9.9,0,0,0,.83.73" transform="translate(-175.961 -73.832)" fill="#444"/>
        <path id="Trazado_1274987" data-name="Trazado 1274987" d="M269.118,36.829a29.488,29.488,0,0,0-4.709,9.913,7.472,7.472,0,0,1,1.5,1.153c.857-3.173,2.97-9.39,6.85-11.883a1.093,1.093,0,0,0,.423-1.151.9.9,0,0,0-.838-.761h-.01c-4.005.051-7.433,2.643-9.473,5.106.1.952.2,1.881.276,2.76a13.578,13.578,0,0,1,5.979-5.138" transform="translate(-215.428 -26.868)" fill="#444"/>
        <path id="Trazado_1274988" data-name="Trazado 1274988" d="M269.424,94.942a1.056,1.056,0,0,0,.586,1.264.744.744,0,0,0,.245.042.9.9,0,0,0,.831-.73c.05-.2.108-.423.172-.661a7.479,7.479,0,0,0-1.5-1.153c-.132.462-.243.88-.332,1.238" transform="translate(-220.776 -73.831)" fill="#444"/>
        <path id="Trazado_1274989" data-name="Trazado 1274989" d="M230.126,15.676a.792.792,0,0,1-1.2-.294c-.051-.092-.108-.188-.167-.284-.151,1.689-.252,3.19-.287,4.29a8.945,8.945,0,0,1,1.753-.513,124.825,124.825,0,0,1,1.632-14.109,124.869,124.869,0,0,1,1.631,14.109,8.941,8.941,0,0,1,1.753.513c-.034-1.1-.135-2.6-.287-4.289-.059.1-.116.191-.167.284a.792.792,0,0,1-1.2.294,1.131,1.131,0,0,1-.25-1.409,13.033,13.033,0,0,1,1.341-1.929A69.985,69.985,0,0,0,232.66.636a.825.825,0,0,0-1.606,0,69.991,69.991,0,0,0-2.019,11.7,13.033,13.033,0,0,1,1.341,1.929,1.131,1.131,0,0,1-.25,1.409" transform="translate(-187.244)" fill="#444"/>
        <path id="Trazado_1274990" data-name="Trazado 1274990" d="M256.3,90.264a.877.877,0,1,0,1.732,0c0-.223,0-.477-.014-.754A8.958,8.958,0,0,0,256.268,89c.022.487.034.914.034,1.267" transform="translate(-210.023 -70.122)" fill="#444"/>
        <path id="Trazado_1274991" data-name="Trazado 1274991" d="M228.4,90.264a.878.878,0,1,0,1.733,0c0-.353.012-.78.034-1.267a8.937,8.937,0,0,0-1.753.513c-.009.277-.014.531-.014.754" transform="translate(-187.183 -70.122)" fill="#444"/>
        <path id="Trazado_1274992" data-name="Trazado 1274992" d="M230.23,61.22a.792.792,0,0,0,1.2.294,1.131,1.131,0,0,0,.25-1.409,13.044,13.044,0,0,0-1.341-1.929c-.1.952-.2,1.881-.276,2.76.059.1.116.192.167.284" transform="translate(-188.547 -45.838)" fill="#444"/>
        <path id="Trazado_1274993" data-name="Trazado 1274993" d="M255.041,61.514a.792.792,0,0,0,1.2-.294c.051-.092.108-.187.167-.284-.079-.879-.171-1.809-.276-2.76a13.033,13.033,0,0,0-1.341,1.929,1.131,1.131,0,0,0,.25,1.409" transform="translate(-208.697 -45.838)" fill="#444"/>
        <path id="Trazado_1274994" data-name="Trazado 1274994" d="M34.556,101.347h-1a1.031,1.031,0,0,1,0-2.036h.763c-.235-2.807.215-5.016,1.342-6.566a6.9,6.9,0,0,1,10.705,0c1.187,1.632,1.625,3.992,1.3,7.015l-.586,4.651h1.751l.549-4.363c0-.007,0-.014,0-.021.39-3.62-.183-6.515-1.7-8.6a7.623,7.623,0,0,0-.8-.929c-.064.238-.122.46-.173.661a.9.9,0,0,1-.831.73.745.745,0,0,1-.245-.042,1.055,1.055,0,0,1-.586-1.264c.09-.358.2-.776.332-1.238a7.952,7.952,0,0,0-.983-.485c.009.277.013.531.013.754a.877.877,0,1,1-1.732,0c0-.353-.012-.78-.034-1.267a10.771,10.771,0,0,0-1.605-.176h-.053a10.771,10.771,0,0,0-1.605.176c-.022.487-.034.914-.034,1.267a.877.877,0,1,1-1.732,0c0-.223,0-.476.014-.754a7.9,7.9,0,0,0-.983.485c.132.462.243.88.332,1.238a1.055,1.055,0,0,1-.586,1.264.745.745,0,0,1-.245.042.9.9,0,0,1-.83-.73c-.05-.2-.108-.423-.173-.661a7.624,7.624,0,0,0-.8.929c-1.519,2.089-2.091,4.983-1.7,8.6,0,.007,0,.014,0,.021l.55,4.363h1.751Z" transform="translate(-26.652 -69.467)" fill="#444"/>
        <path id="Trazado_1274995" data-name="Trazado 1274995" d="M117.326,174.364h0" transform="translate(-96.152 -137.384)" fill="#444"/>
        <path id="Trazado_1274996" data-name="Trazado 1274996" d="M37.368,166.789a1.006,1.006,0,0,0,.73-1.156l-.109-.869H36.237l.147,1.167a.9.9,0,0,0,.984.858" transform="translate(-29.698 -129.82)" fill="#444"/>
        <path id="Trazado_1274997" data-name="Trazado 1274997" d="M114.254,165.931l.147-1.167h-1.751l-.109.869a1.006,1.006,0,0,0,.73,1.156.751.751,0,0,0,.126.011h0a.925.925,0,0,0,.854-.869" transform="translate(-92.224 -129.82)" fill="#444"/>
        <path id="Trazado_1274998" data-name="Trazado 1274998" d="M45.8,141.736a.951.951,0,0,0-.866-1.018H42.465c.012.148.025.3.042.449l.2,1.587h2.231a.951.951,0,0,0,.866-1.018" transform="translate(-34.802 -110.874)" fill="#444"/>
        <path id="Trazado_1274999" data-name="Trazado 1274999" d="M35.069,140.719h-.763a1.031,1.031,0,0,0,0,2.036h1l-.2-1.587c-.016-.152-.029-.3-.042-.449" transform="translate(-27.406 -110.875)" fill="#444"/>
        <path id="Trazado_1275000" data-name="Trazado 1275000" d="M83.1,122.642H79.864a1.031,1.031,0,0,0,0,2.036H83.1a1.031,1.031,0,0,0,0-2.036" transform="translate(-64.742 -96.632)" fill="#444"/>
        <path id="Trazado_1275001" data-name="Trazado 1275001" d="M10.677,36.829a13.583,13.583,0,0,1,5.979,5.137c.079-.88.171-1.808.276-2.76-2.039-2.463-5.468-5.055-9.473-5.106h-.01a.9.9,0,0,0-.838.761,1.094,1.094,0,0,0,.423,1.151c3.88,2.492,5.993,8.71,6.85,11.883a7.475,7.475,0,0,1,1.5-1.153,29.494,29.494,0,0,0-4.709-9.913" transform="translate(-5.395 -26.868)" fill="#444"/>
        <path id="Trazado_1275002" data-name="Trazado 1275002" d="M48.046,96.249a.75.75,0,0,0,.245-.042,1.056,1.056,0,0,0,.586-1.264c-.09-.358-.2-.776-.332-1.238a7.485,7.485,0,0,0-1.5,1.153c.064.238.122.46.173.661a.9.9,0,0,0,.83.73" transform="translate(-38.554 -73.832)" fill="#444"/>
        <path id="Trazado_1275003" data-name="Trazado 1275003" d="M101.455,36.829a29.494,29.494,0,0,0-4.709,9.913,7.464,7.464,0,0,1,1.5,1.153c.857-3.173,2.97-9.39,6.85-11.883a1.094,1.094,0,0,0,.423-1.151.9.9,0,0,0-.838-.761h-.01c-4.005.051-7.433,2.643-9.473,5.106.1.952.2,1.881.276,2.76a13.582,13.582,0,0,1,5.979-5.137" transform="translate(-78.022 -26.868)" fill="#444"/>
        <path id="Trazado_1275004" data-name="Trazado 1275004" d="M101.762,94.942a1.056,1.056,0,0,0,.586,1.264.745.745,0,0,0,.245.042.9.9,0,0,0,.831-.73c.05-.2.108-.423.173-.661a7.485,7.485,0,0,0-1.5-1.153c-.132.462-.243.88-.333,1.238" transform="translate(-83.369 -73.831)" fill="#444"/>
        <path id="Trazado_1275005" data-name="Trazado 1275005" d="M62.464,15.676a.792.792,0,0,1-1.2-.294c-.051-.092-.108-.188-.167-.284-.151,1.689-.252,3.19-.287,4.29a8.945,8.945,0,0,1,1.753-.513A124.828,124.828,0,0,1,64.2,4.765a124.864,124.864,0,0,1,1.631,14.11,8.941,8.941,0,0,1,1.753.513c-.034-1.1-.135-2.6-.287-4.29-.059.1-.116.192-.167.284a.792.792,0,0,1-1.2.294,1.131,1.131,0,0,1-.25-1.409,13.033,13.033,0,0,1,1.341-1.929A69.991,69.991,0,0,0,65,.636a.825.825,0,0,0-1.606,0,69.994,69.994,0,0,0-2.019,11.7,13.021,13.021,0,0,1,1.341,1.929,1.131,1.131,0,0,1-.25,1.409" transform="translate(-49.837)" fill="#444"/>
        <path id="Trazado_1275006" data-name="Trazado 1275006" d="M60.736,90.264a.878.878,0,1,0,1.732,0c0-.353.012-.78.034-1.267a8.938,8.938,0,0,0-1.753.513c-.009.277-.014.531-.014.754" transform="translate(-49.776 -70.122)" fill="#444"/>
        <path id="Trazado_1275007" data-name="Trazado 1275007" d="M88.64,90.264a.877.877,0,1,0,1.732,0c0-.223,0-.477-.014-.754A8.959,8.959,0,0,0,88.606,89c.022.487.034.914.034,1.267" transform="translate(-72.617 -70.122)" fill="#444"/>
        <path id="Trazado_1275008" data-name="Trazado 1275008" d="M62.568,61.22a.792.792,0,0,0,1.2.294,1.131,1.131,0,0,0,.25-1.409,13.034,13.034,0,0,0-1.341-1.929c-.1.951-.2,1.881-.276,2.76.059.1.116.192.167.284" transform="translate(-51.14 -45.838)" fill="#444"/>
        <path id="Trazado_1275009" data-name="Trazado 1275009" d="M87.378,61.514a.792.792,0,0,0,1.2-.294c.051-.092.108-.188.167-.284-.079-.88-.171-1.808-.276-2.76A13.021,13.021,0,0,0,87.128,60.1a1.131,1.131,0,0,0,.25,1.409" transform="translate(-71.289 -45.838)" fill="#444"/>
        <path id="Trazado_1275010" data-name="Trazado 1275010" d="M369.881,101.347h-1a1.031,1.031,0,0,1,0-2.036h.762c-.235-2.807.215-5.016,1.342-6.566a6.9,6.9,0,0,1,10.705,0c1.187,1.632,1.625,3.992,1.3,7.015l-.586,4.651h1.751l.55-4.363c0-.007,0-.014,0-.021.39-3.62-.182-6.515-1.7-8.6a7.635,7.635,0,0,0-.8-.929c-.064.238-.122.46-.173.661a.9.9,0,0,1-.831.73.745.745,0,0,1-.245-.042,1.055,1.055,0,0,1-.586-1.264c.09-.358.2-.776.333-1.238a7.912,7.912,0,0,0-.983-.485c.009.277.013.531.013.754a.877.877,0,1,1-1.732,0c0-.353-.012-.78-.034-1.267a10.77,10.77,0,0,0-1.605-.176h-.052a10.771,10.771,0,0,0-1.605.176c-.022.487-.034.914-.034,1.267a.877.877,0,1,1-1.732,0c0-.223,0-.476.013-.754a7.931,7.931,0,0,0-.983.485c.132.462.243.88.333,1.238a1.055,1.055,0,0,1-.586,1.264.745.745,0,0,1-.245.042.9.9,0,0,1-.83-.73c-.051-.2-.108-.423-.173-.661a7.638,7.638,0,0,0-.8.93c-1.519,2.089-2.091,4.983-1.7,8.6,0,.007,0,.014,0,.021l.549,4.363h1.751Z" transform="translate(-301.466 -69.467)" fill="#444"/>
        <path id="Trazado_1275011" data-name="Trazado 1275011" d="M452.65,174.364h0" transform="translate(-370.966 -137.384)" fill="#444"/>
        <path id="Trazado_1275012" data-name="Trazado 1275012" d="M372.692,166.789a1.006,1.006,0,0,0,.73-1.156l-.109-.869h-1.751l.147,1.167a.9.9,0,0,0,.984.858" transform="translate(-304.511 -129.82)" fill="#444"/>
        <path id="Trazado_1275013" data-name="Trazado 1275013" d="M449.578,165.931l.147-1.167h-1.751l-.109.869a1.006,1.006,0,0,0,.73,1.156.752.752,0,0,0,.126.011h0a.925.925,0,0,0,.854-.869" transform="translate(-367.037 -129.82)" fill="#444"/>
        <path id="Trazado_1275014" data-name="Trazado 1275014" d="M381.128,141.736a.951.951,0,0,0-.866-1.018h-2.473c.012.148.025.3.042.449l.2,1.587h2.231a.951.951,0,0,0,.866-1.018" transform="translate(-309.615 -110.874)" fill="#444"/>
        <path id="Trazado_1275015" data-name="Trazado 1275015" d="M370.393,140.719h-.762a1.031,1.031,0,0,0,0,2.036h1l-.2-1.587c-.016-.152-.029-.3-.041-.449" transform="translate(-302.22 -110.875)" fill="#444"/>
        <path id="Trazado_1275016" data-name="Trazado 1275016" d="M418.424,122.642h-3.235a1.031,1.031,0,0,0,0,2.036h3.235a1.031,1.031,0,0,0,0-2.036" transform="translate(-339.556 -96.632)" fill="#444"/>
        <path id="Trazado_1275017" data-name="Trazado 1275017" d="M346,36.829a13.583,13.583,0,0,1,5.979,5.138c.079-.88.171-1.808.276-2.76-2.039-2.463-5.468-5.055-9.473-5.106h-.01a.9.9,0,0,0-.838.761,1.094,1.094,0,0,0,.423,1.151c3.879,2.492,5.993,8.709,6.85,11.883a7.47,7.47,0,0,1,1.5-1.153A29.5,29.5,0,0,0,346,36.829" transform="translate(-280.209 -26.868)" fill="#444"/>
        <path id="Trazado_1275018" data-name="Trazado 1275018" d="M383.37,96.249a.75.75,0,0,0,.245-.042,1.055,1.055,0,0,0,.586-1.264c-.09-.358-.2-.776-.332-1.238a7.471,7.471,0,0,0-1.5,1.153c.064.238.122.46.173.661a.9.9,0,0,0,.831.73" transform="translate(-313.367 -73.832)" fill="#444"/>
        <path id="Trazado_1275019" data-name="Trazado 1275019" d="M436.78,36.828a29.5,29.5,0,0,0-4.709,9.913,7.478,7.478,0,0,1,1.5,1.153c.857-3.173,2.97-9.391,6.85-11.883a1.094,1.094,0,0,0,.422-1.151.9.9,0,0,0-.838-.761H440c-4.005.051-7.434,2.643-9.473,5.106.1.952.2,1.881.276,2.76a13.582,13.582,0,0,1,5.979-5.138" transform="translate(-352.835 -26.867)" fill="#444"/>
        <path id="Trazado_1275020" data-name="Trazado 1275020" d="M437.086,94.943a1.055,1.055,0,0,0,.586,1.264.744.744,0,0,0,.245.042.9.9,0,0,0,.831-.73c.05-.2.108-.423.172-.661a7.47,7.47,0,0,0-1.5-1.153c-.132.462-.243.88-.333,1.238" transform="translate(-358.183 -73.832)" fill="#444"/>
        <path id="Trazado_1275021" data-name="Trazado 1275021" d="M397.789,15.676a.792.792,0,0,1-1.2-.294c-.051-.092-.108-.187-.167-.284-.151,1.689-.252,3.19-.287,4.289a8.961,8.961,0,0,1,1.753-.513A124.934,124.934,0,0,1,399.52,4.765a124.875,124.875,0,0,1,1.631,14.109,8.942,8.942,0,0,1,1.753.513c-.034-1.1-.135-2.6-.287-4.289-.059.1-.116.191-.167.284a.792.792,0,0,1-1.2.294,1.131,1.131,0,0,1-.25-1.409,13.032,13.032,0,0,1,1.341-1.929,69.989,69.989,0,0,0-2.019-11.7.825.825,0,0,0-1.606,0,69.979,69.979,0,0,0-2.019,11.7,13.023,13.023,0,0,1,1.341,1.928,1.131,1.131,0,0,1-.25,1.409" transform="translate(-324.651)" fill="#444"/>
        <path id="Trazado_1275022" data-name="Trazado 1275022" d="M423.964,90.264a.878.878,0,1,0,1.732,0c0-.223,0-.477-.014-.754A8.96,8.96,0,0,0,423.93,89c.022.487.034.914.034,1.267" transform="translate(-347.43 -70.122)" fill="#444"/>
        <path id="Trazado_1275023" data-name="Trazado 1275023" d="M396.061,90.264a.877.877,0,1,0,1.732,0c0-.353.012-.78.034-1.267a8.946,8.946,0,0,0-1.753.513c-.009.277-.013.531-.013.754" transform="translate(-324.59 -70.122)" fill="#444"/>
        <path id="Trazado_1275024" data-name="Trazado 1275024" d="M397.892,61.221a.792.792,0,0,0,1.2.294,1.131,1.131,0,0,0,.25-1.409A13.047,13.047,0,0,0,398,58.177c-.1.951-.2,1.881-.276,2.76.059.1.116.192.167.284" transform="translate(-325.954 -45.839)" fill="#444"/>
        <path id="Trazado_1275025" data-name="Trazado 1275025" d="M422.7,61.514a.792.792,0,0,0,1.2-.294c.051-.092.108-.187.167-.284-.079-.879-.171-1.809-.276-2.76a13.035,13.035,0,0,0-1.341,1.929,1.131,1.131,0,0,0,.25,1.409" transform="translate(-346.103 -45.838)" fill="#444"/>
      </g>
    </g>
  </g>
</svg>
