<svg xmlns="http://www.w3.org/2000/svg" xmlns:xlink="http://www.w3.org/1999/xlink" width="129.063" height="84.691" viewBox="0 0 129.063 84.691">
  <defs>
    <clipPath id="clip-path">
      <rect id="Rectángulo_412525" data-name="Rectángulo 412525" width="66.716" height="71.296" fill="none"/>
    </clipPath>
  </defs>
  <g id="Grupo_1202007" data-name="Grupo 1202007" transform="translate(-785.861 -2548.442)">
    <rect id="Rectángulo_410589" data-name="Rectángulo 410589" width="84.691" height="84.691" transform="translate(807.861 2548.442)" fill="none"/>
    <g id="Rectángulo_412554" data-name="Rectángulo 412554" transform="translate(785.861 2575.277)" fill="#a1c6f1" stroke="#6f89a8" stroke-width="1">
      <rect width="129.063" height="43.021" rx="8" stroke="none"/>
      <rect x="0.5" y="0.5" width="128.063" height="42.021" rx="7.5" fill="none"/>
    </g>
    <g id="Grupo_1202016" data-name="Grupo 1202016" transform="translate(816.861 2555.14)">
      <rect id="Rectángulo_412523" data-name="Rectángulo 412523" width="26.072" height="10.518" transform="translate(9.658 60.078)" fill="#ffdc7a"/>
      <g id="Grupo_1202015" data-name="Grupo 1202015">
        <g id="Grupo_1202014" data-name="Grupo 1202014" clip-path="url(#clip-path)">
          <path id="Trazado_1275026" data-name="Trazado 1275026" d="M5.594,307.958c.011-6.208.021-12.861.032-19.068,0-2.045.037-4.2,1.087-5.958a7.7,7.7,0,0,1,4.593-3.221,24.218,24.218,0,0,1,5.784-1.152c.388,6.065.689,12.661,1.078,18.726l-4.5.04c-.023,2.44.017,10.564.017,10.564s-6.112.118-8.089.068" transform="translate(-4.765 -237.294)" fill="#b8d671"/>
          <path id="Trazado_1275027" data-name="Trazado 1275027" d="M373.107,281.231h2.507v-5.152h-2.507Z" transform="translate(-317.837 -235.182)" fill="#ccc"/>
          <path id="Trazado_1275028" data-name="Trazado 1275028" d="M326.717,124.368a.711.711,0,0,1-.711.711H322.37v.265a2.364,2.364,0,0,0,2.362,2.361h5.7V114.147a.711.711,0,1,1,1.422,0v13.559h5.7a2.364,2.364,0,0,0,2.361-2.361v-.265h-3.636a.711.711,0,1,1,0-1.422h3.636V113.512a8.228,8.228,0,0,0-3.922-6.984l-4.848-2.956-4.848,2.956a8.228,8.228,0,0,0-3.922,6.984v10.145h3.636a.711.711,0,0,1,.711.711" transform="translate(-274.615 -88.23)" fill="#ccc"/>
          <rect id="Rectángulo_412524" data-name="Rectángulo 412524" width="2.507" height="23.124" transform="translate(55.271 47.472)" fill="#b08658"/>
          <path id="Trazado_1275029" data-name="Trazado 1275029" d="M359.622,379.017a.674.674,0,0,1-.076-.008h-.2a1.236,1.236,0,0,0-1.235,1.235v8.209a1.236,1.236,0,0,0,1.235,1.235h.2a.381.381,0,0,1,.152,0h3.777a.38.38,0,0,1,.152,0h.348a1.236,1.236,0,0,0,1.235-1.235v-8.209a1.236,1.236,0,0,0-1.235-1.235h-.348a.379.379,0,0,1-.152,0H359.7a.674.674,0,0,1-.076.008" transform="translate(-305.062 -322.864)" fill="#ffdbb3"/>
          <path id="Trazado_1275030" data-name="Trazado 1275030" d="M98.445,14.642A5.048,5.048,0,0,0,93.4,9.6H80.726a5.048,5.048,0,0,0-5.042,5.042v5.01H98.445Z" transform="translate(-64.472 -8.178)" fill="#ffdc7a"/>
          <path id="Trazado_1275031" data-name="Trazado 1275031" d="M235.427,304.465V297.67H229.9a4.357,4.357,0,0,0-3.069,1.923.711.711,0,1,1-1.187-.784,5.727,5.727,0,0,1,3.386-2.413l-1.455-8.775c-1.332-4.209-6.442-6.34-10.458-7.207l-1.359,17.766h3.031V295.5a.711.711,0,0,1,1.388-.217l3.088,9.658c.874,2.022,1.433,2.673,3,2.548l10.317-.832a2.655,2.655,0,0,1-1.156-2.19" transform="translate(-183.8 -238.875)" fill="#b8d671"/>
          <path id="Trazado_1275032" data-name="Trazado 1275032" d="M61.933,95.2c.012,0,.023.006.034.008s.023,0,.035,0a18.184,18.184,0,0,0,15.3-4.246.711.711,0,1,1,.934,1.072q-.67.583-1.391,1.1a10.112,10.112,0,0,0,4.478,2.335,9.6,9.6,0,0,0,6.261-.215c.011-.005.023-.007.034-.012a.659.659,0,0,1,.143-.041c.012,0,.024-.007.036-.008l.058,0h0a2.752,2.752,0,0,1,.589,0,18.619,18.619,0,0,0-1.76-6.493H63.081a18.421,18.421,0,0,0-1.715,6.484,2.785,2.785,0,0,1,.567.01" transform="translate(-52.275 -75.563)" fill="#ccc"/>
          <path id="Trazado_1275033" data-name="Trazado 1275033" d="M107.621,277.51c-.862,3.082-2.471,6.193-8.076,6.193-5.635,0-7.231-3.145-8.09-6.244-.466.038-.963.09-1.48.159l1.381,18.045h15.827l1.379-18.028c-.328-.051-.643-.093-.941-.126" transform="translate(-76.646 -236.358)" fill="#b8d671"/>
          <path id="Trazado_1275034" data-name="Trazado 1275034" d="M67.457,134.15a.711.711,0,0,1,.711.711c0,.141.47.549,1.367.549S70.9,135,70.9,134.862a.711.711,0,1,1,1.422,0c0,.024,0,.048-.005.073,1.777.515,4.954,1.665,6.926,3.706A11.573,11.573,0,0,0,81.68,133.3a.7.7,0,0,1-.1.009.711.711,0,0,1-.242-1.38,4.133,4.133,0,0,0,.83-.408c.011-.008.023-.015.034-.022a3.744,3.744,0,0,0,1.655-3.773,1.118,1.118,0,0,0-1.179-1.007,9.1,9.1,0,0,1-3.647.7c-3.357,0-6.985-1.427-8.761-3.36a20.168,20.168,0,0,1-10.429,3.035,16.257,16.257,0,0,1-3.476-.366,1.113,1.113,0,0,0-1.245,1,3.743,3.743,0,0,0,1.637,3.762c.018.011.037.021.053.034a4.138,4.138,0,0,0,.828.407A.709.709,0,0,1,57.3,133.3a13.017,13.017,0,0,0,2.49,5.412c.072.1.148.194.226.29,1.759-2.077,4.785-3.3,6.75-3.914a1.482,1.482,0,0,1-.018-.224.711.711,0,0,1,.711-.711m4.938-5.976h4.3a.711.711,0,1,1,0,1.422H75.556a1.014,1.014,0,1,1-1.936,0H72.395a.711.711,0,1,1,0-1.422M65.4,129.9a1.014,1.014,0,1,1-1.982-.3H62.285a.711.711,0,1,1,0-1.422h4.3a.711.711,0,1,1,0,1.422H65.359a1.011,1.011,0,0,1,.046.3" transform="translate(-46.897 -105.675)" fill="#ffdbb3"/>
          <path id="Trazado_1275035" data-name="Trazado 1275035" d="M117.357,239.21c.185-.786.364-1.54.594-2.251a11.894,11.894,0,0,1-5.693-2.09,4.98,4.98,0,0,1-2.221.6,4.619,4.619,0,0,1-1.975-.488,11.91,11.91,0,0,1-5.53,1.977c.23.711.409,1.465.594,2.251.821,3.492,1.6,6.791,7.116,6.791s6.294-3.3,7.116-6.791" transform="translate(-87.342 -200.077)" fill="#ccc"/>
          <path id="Trazado_1275036" data-name="Trazado 1275036" d="M97.971,208.659a.709.709,0,0,1,1.153.746,2.758,2.758,0,0,0,2-.143.708.708,0,0,1,1.185-.6c.1.1.221.2.35.3l.023.018a10.157,10.157,0,0,0,6.924,2.058c-1.005-2.378-4.46-4.074-7.672-4.941a3.4,3.4,0,0,1-2.053.628,3.491,3.491,0,0,1-1.9-.522c-1.817.53-6.141,2.057-7.3,4.835a10.152,10.152,0,0,0,6.767-1.936c.012-.01.024-.018.036-.027.188-.142.354-.28.5-.41" transform="translate(-77.24 -175.562)" fill="#ccc"/>
          <path id="Trazado_1275037" data-name="Trazado 1275037" d="M77.822,105.929a5.411,5.411,0,0,1-.429-.525.711.711,0,0,1,1.16-.823,4.383,4.383,0,0,0,.469.548q.72-.52,1.391-1.1a.711.711,0,1,0-.934-1.072,18.185,18.185,0,0,1-15.3,4.246c-.012,0-.023,0-.035,0a.71.71,0,0,1-.205,1.4h-.019a16.257,16.257,0,0,0,3.476.366,20.168,20.168,0,0,0,10.429-3.035" transform="translate(-54.449 -87.553)" fill="#444"/>
          <path id="Trazado_1275038" data-name="Trazado 1275038" d="M240.213,132.512h0" transform="translate(-204.629 -112.882)" fill="#444"/>
          <path id="Trazado_1275039" data-name="Trazado 1275039" d="M239.09,132.615a.709.709,0,0,1,.072-.016.722.722,0,0,0-.072.016" transform="translate(-203.672 -112.956)" fill="#444"/>
          <path id="Trazado_1275040" data-name="Trazado 1275040" d="M169.314,121.5a.71.71,0,0,1,.441-.742c-.011,0-.023.007-.035.012a9.6,9.6,0,0,1-6.261.215,10.112,10.112,0,0,1-4.478-2.335q-.585.422-1.2.8c1.776,1.933,5.4,3.36,8.761,3.36a9.1,9.1,0,0,0,3.647-.7c-.028,0-.055,0-.084.006a.712.712,0,0,1-.791-.621" transform="translate(-134.409 -101.069)" fill="#444"/>
          <path id="Trazado_1275041" data-name="Trazado 1275041" d="M155.292,113.226a.711.711,0,1,0-1.16.823,5.411,5.411,0,0,0,.429.525q.614-.379,1.2-.8a4.371,4.371,0,0,1-.469-.547" transform="translate(-131.188 -96.198)" fill="#444"/>
          <path id="Trazado_1275042" data-name="Trazado 1275042" d="M63.607,187.178a13.02,13.02,0,0,1-2.49-5.412.707.707,0,0,1-.142-.034,5.37,5.37,0,0,1-1.439-.784,14.377,14.377,0,0,0,2.928,7.076c.169.229.353.452.546.669a6.333,6.333,0,0,1,.823-1.226c-.078-.1-.154-.192-.226-.29" transform="translate(-50.717 -154.143)" fill="#444"/>
          <path id="Trazado_1275043" data-name="Trazado 1275043" d="M66.62,174.266a.627.627,0,0,0-.053-.034l.053.034" transform="translate(-56.706 -148.422)" fill="#444"/>
          <path id="Trazado_1275044" data-name="Trazado 1275044" d="M220.8,181.761a11.574,11.574,0,0,1-2.435,5.342,6.988,6.988,0,0,1,.9,1.137c.032-.036.066-.073.1-.109a13.731,13.731,0,0,0,3.022-7.188,5.369,5.369,0,0,1-1.44.784.726.726,0,0,1-.143.034" transform="translate(-186.015 -154.139)" fill="#444"/>
          <path id="Trazado_1275045" data-name="Trazado 1275045" d="M238.135,174.306c-.011.008-.024.014-.034.022l.034-.022" transform="translate(-202.83 -148.485)" fill="#444"/>
          <path id="Trazado_1275046" data-name="Trazado 1275046" d="M61.866,132.437c-.012,0-.022-.006-.034-.008a2.786,2.786,0,0,0-.567-.01c-.006.07-.012.141-.018.212a.707.707,0,0,1,.619-.194" transform="translate(-52.174 -112.794)" fill="#444"/>
          <path id="Trazado_1275047" data-name="Trazado 1275047" d="M48.1,142.386a.7.7,0,0,1,.478.107,3.743,3.743,0,0,1-1.638-3.762,1.113,1.113,0,0,1,1.245-1l-.051-.011a.7.7,0,0,1-.415-.273.709.709,0,0,1-.7.578h-.035a.711.711,0,0,1-.676-.745c.005-.1.012-.2.018-.3a2.905,2.905,0,0,0-.775,1.428,5.165,5.165,0,0,0,1.979,5.086c-.015-.1-.03-.2-.044-.3a.711.711,0,0,1,.608-.8" transform="translate(-38.713 -116.683)" fill="#444"/>
          <path id="Trazado_1275048" data-name="Trazado 1275048" d="M68.182,175.78a.711.711,0,0,0-.427-.91,4.129,4.129,0,0,1-.828-.407.711.711,0,0,1,.27.466c.059.426.125.862.216,1.312a.7.7,0,0,0,.769-.461" transform="translate(-57.013 -148.619)" fill="#444"/>
          <path id="Trazado_1275049" data-name="Trazado 1275049" d="M62.05,133.32a.711.711,0,0,0-1.205-.59c-.022.273-.042.548-.056.827a.714.714,0,0,1-.014.1.7.7,0,0,0,.415.273l.051.011h.019a.712.712,0,0,0,.791-.621" transform="translate(-51.772 -112.894)" fill="#444"/>
          <path id="Trazado_1275050" data-name="Trazado 1275050" d="M60.826,175.391c-.091-.45-.158-.885-.216-1.312a.71.71,0,0,0-.27-.466l-.053-.034a.7.7,0,0,0-.478-.107.711.711,0,0,0-.608.8c.014.1.029.2.044.3a5.368,5.368,0,0,0,1.439.784.718.718,0,0,0,.142.034" transform="translate(-50.426 -147.768)" fill="#444"/>
          <path id="Trazado_1275051" data-name="Trazado 1275051" d="M54.6,88.7H53.03a20.785,20.785,0,0,0-1.622,7.151,2.356,2.356,0,0,1,1.475-.666A18.424,18.424,0,0,1,54.6,88.7" transform="translate(-43.793 -75.563)" fill="#444"/>
          <path id="Trazado_1275052" data-name="Trazado 1275052" d="M51.955,134.189h.035a.709.709,0,0,0,.7-.578.7.7,0,0,1,.07-.925c.006-.071.011-.142.018-.212a2.356,2.356,0,0,0-1.475.666c-.006.1-.013.2-.018.3a.711.711,0,0,0,.676.745" transform="translate(-43.682 -112.851)" fill="#444"/>
          <path id="Trazado_1275053" data-name="Trazado 1275053" d="M60.03,133.9a.7.7,0,0,0-.07.925.693.693,0,0,0,.015-.1c.013-.279.033-.554.055-.827" transform="translate(-50.958 -114.069)" fill="#444"/>
          <path id="Trazado_1275054" data-name="Trazado 1275054" d="M234.1,95.2a2.356,2.356,0,0,1,1.483.749,20.984,20.984,0,0,0-1.671-7.242h-1.572A18.616,18.616,0,0,1,234.1,95.2" transform="translate(-197.919 -75.563)" fill="#444"/>
          <path id="Trazado_1275055" data-name="Trazado 1275055" d="M240.028,138.618h-.035a.711.711,0,0,1-.71-.676c0-.03,0-.06-.005-.089a.7.7,0,0,1-.341.342c-.042.02-.087.036-.129.055a1.118,1.118,0,0,1,1.179,1.007,3.744,3.744,0,0,1-1.655,3.773.7.7,0,0,1,.5-.118.711.711,0,0,1,.607.8c-.013.1-.028.2-.043.3a5.165,5.165,0,0,0,1.979-5.086,2.958,2.958,0,0,0-.684-1.336c.006.094.013.187.017.281a.711.711,0,0,1-.676.745" transform="translate(-203.026 -117.21)" fill="#444"/>
          <path id="Trazado_1275056" data-name="Trazado 1275056" d="M238.611,132.733a.709.709,0,0,1,.071-.025.7.7,0,0,0-.071.025" transform="translate(-203.264 -113.049)" fill="#444"/>
          <path id="Trazado_1275057" data-name="Trazado 1275057" d="M240.239,132.432a.71.71,0,0,1,.617.324c-.009-.107-.017-.214-.028-.32a2.75,2.75,0,0,0-.589,0" transform="translate(-204.651 -112.802)" fill="#444"/>
          <path id="Trazado_1275058" data-name="Trazado 1275058" d="M239.611,132.518c-.013,0-.024.006-.036.008a.711.711,0,0,1,.094-.013l-.058,0" transform="translate(-204.085 -112.884)" fill="#444"/>
          <path id="Trazado_1275059" data-name="Trazado 1275059" d="M229.373,175.773a.711.711,0,0,0,.669.47.7.7,0,0,0,.1-.009c.089-.448.159-.887.217-1.312a.71.71,0,0,1,.272-.468,4.138,4.138,0,0,1-.83.408.711.711,0,0,0-.427.91" transform="translate(-195.358 -148.612)" fill="#444"/>
          <path id="Trazado_1275060" data-name="Trazado 1275060" d="M236.285,132.51h0a.717.717,0,0,0-.095.013c-.024,0-.048.01-.072.016a.72.72,0,0,0-.071.025.709.709,0,0,0,.35,1.363c.029,0,.056,0,.084-.006.043-.019.087-.035.129-.055a.706.706,0,0,0,.341-.342q-.018-.348-.047-.69a.71.71,0,0,0-.617-.324" transform="translate(-200.697 -112.88)" fill="#444"/>
          <path id="Trazado_1275061" data-name="Trazado 1275061" d="M235.817,173.472a.7.7,0,0,0-.495.118l-.034.022a.71.71,0,0,0-.272.468c-.058.424-.128.864-.217,1.312a.724.724,0,0,0,.143-.034,5.373,5.373,0,0,0,1.44-.784c.015-.1.029-.2.043-.3a.711.711,0,0,0-.608-.8" transform="translate(-200.017 -147.768)" fill="#444"/>
          <path id="Trazado_1275062" data-name="Trazado 1275062" d="M244.242,132.857a.667.667,0,0,1,.047.69c0,.03,0,.059.005.089a.711.711,0,0,0,.71.676h.035a.711.711,0,0,0,.676-.745c0-.094-.011-.187-.017-.281a2.356,2.356,0,0,0-1.483-.749c.01.106.019.213.027.32" transform="translate(-208.038 -112.903)" fill="#444"/>
          <path id="Trazado_1275063" data-name="Trazado 1275063" d="M244.452,134.785a.7.7,0,0,0-.052-.088q.028.342.047.69a.706.706,0,0,0,.005-.6" transform="translate(-208.195 -114.743)" fill="#444"/>
          <path id="Trazado_1275064" data-name="Trazado 1275064" d="M111.243,161.786a1.014,1.014,0,1,0,1.982-.3h-1.936a1.016,1.016,0,0,0-.046.3" transform="translate(-94.764 -137.561)" fill="#444"/>
          <path id="Trazado_1275065" data-name="Trazado 1275065" d="M104.793,152.6a.711.711,0,0,0-.711-.711h-4.3a.711.711,0,1,0,0,1.422h1.138a1.014,1.014,0,0,1,1.936,0h1.225a.711.711,0,0,0,.711-.711" transform="translate(-84.396 -129.384)" fill="#444"/>
          <path id="Trazado_1275066" data-name="Trazado 1275066" d="M112.522,156.684a1.015,1.015,0,0,0-.968.711h1.936a1.014,1.014,0,0,0-.968-.711" transform="translate(-95.029 -133.473)" fill="#444"/>
          <path id="Trazado_1275067" data-name="Trazado 1275067" d="M180.08,161.786a1.014,1.014,0,1,0,1.982-.3h-1.936a1.016,1.016,0,0,0-.046.3" transform="translate(-153.404 -137.561)" fill="#444"/>
          <path id="Trazado_1275068" data-name="Trazado 1275068" d="M168.031,153.305h1.225a1.014,1.014,0,0,1,1.936,0h1.138a.711.711,0,0,0,0-1.422h-4.3a.711.711,0,0,0,0,1.422" transform="translate(-142.534 -129.384)" fill="#444"/>
          <path id="Trazado_1275069" data-name="Trazado 1275069" d="M181.36,156.684a1.014,1.014,0,0,0-.968.711h1.936a1.014,1.014,0,0,0-.968-.711" transform="translate(-153.669 -133.473)" fill="#444"/>
          <path id="Trazado_1275070" data-name="Trazado 1275070" d="M138.828,194.276q-.183-.049-.365-.1a.711.711,0,0,1,.347-1.379c.2.051.458.119.748.2,0-.024.005-.048.005-.073a.711.711,0,0,0-1.422,0c0,.141-.47.549-1.367.549s-1.367-.408-1.367-.549a.711.711,0,0,0-1.422,0,1.462,1.462,0,0,0,.019.224c.3-.094.58-.175.823-.241a.711.711,0,1,1,.374,1.372c-.1.027-.209.058-.332.094a3.491,3.491,0,0,0,1.9.522,3.4,3.4,0,0,0,2.053-.628" transform="translate(-114.138 -163.746)" fill="#444"/>
          <path id="Trazado_1275071" data-name="Trazado 1275071" d="M210.035,269.932l.049-.645a.711.711,0,0,1,1.418.108l-.061.8c4.016.867,9.126,3,10.458,7.207l1.455,8.775a6.211,6.211,0,0,1,.719-.142.711.711,0,0,1,.189,1.409l-.04.006h5.524v-1.415s0,0,0-.007h-4.977l-1.477-8.908a.685.685,0,0,0-.022-.094c-1.774-5.74-9.393-8.07-13.825-8.609-.108.455-.221.922-.352,1.39.3.033.613.075.941.126" transform="translate(-178.12 -228.654)" fill="#444"/>
          <path id="Trazado_1275072" data-name="Trazado 1275072" d="M85.423,268.928l.051.66c.517-.069,1.014-.121,1.48-.159-.13-.47-.244-.939-.352-1.4-.407.038-1.077.112-1.911.242a.708.708,0,0,1,.732.654" transform="translate(-72.145 -228.327)" fill="#444"/>
          <path id="Trazado_1275073" data-name="Trazado 1275073" d="M12.362,269.862C8.18,270.537.267,272.6.114,278.523,0,282.991,0,300.3,0,300.471a.711.711,0,1,0,1.422,0c0-.174,0-17.462.113-21.911.109-4.221,5.682-6.347,10.383-7.192l-.059-.771a.711.711,0,0,1,.5-.733" transform="translate(0 -229.886)" fill="#444"/>
          <path id="Trazado_1275074" data-name="Trazado 1275074" d="M171.591,225.45l-.023-.018.023.018" transform="translate(-146.152 -192.037)" fill="#444"/>
          <path id="Trazado_1275075" data-name="Trazado 1275075" d="M136.355,226.22l.036-.027c-.012.009-.025.017-.036.027" transform="translate(-116.156 -192.686)" fill="#444"/>
          <path id="Trazado_1275076" data-name="Trazado 1275076" d="M144.056,228.586a8.287,8.287,0,0,1-.811-.648.7.7,0,0,1-.223-.444,2.759,2.759,0,0,1-2,.143.7.7,0,0,1-.191.3,8.567,8.567,0,0,1-.975.762,4.62,4.62,0,0,0,1.975.488,4.98,4.98,0,0,0,2.221-.6" transform="translate(-119.141 -193.793)" fill="#444"/>
          <path id="Trazado_1275077" data-name="Trazado 1275077" d="M239.527,80.525h8.529a.711.711,0,1,0,0-1.422h-9.124v.222q.318.578.595,1.2" transform="translate(-203.537 -67.385)" fill="#444"/>
          <path id="Trazado_1275078" data-name="Trazado 1275078" d="M9.789,79.1H.711a.711.711,0,1,0,0,1.422H9.238q.256-.583.552-1.133Z" transform="translate(0 -67.385)" fill="#444"/>
          <path id="Trazado_1275079" data-name="Trazado 1275079" d="M96.435,87.053H73.069c-.041.081-.082.163-.122.244H96.559c-.041-.082-.081-.164-.123-.244" transform="translate(-62.141 -74.157)" fill="#444"/>
          <path id="Trazado_1275080" data-name="Trazado 1275080" d="M64.05,81.943h-.427a.711.711,0,0,1-.711-.711v-.178q-.3.55-.552,1.133h1.568c.04-.082.08-.164.122-.244" transform="translate(-53.122 -69.047)" fill="#444"/>
          <path id="Trazado_1275081" data-name="Trazado 1275081" d="M232.606,80.845a.711.711,0,0,1-.711.711h-.389c.042.08.082.163.123.244H233.2q-.276-.621-.595-1.2Z" transform="translate(-197.211 -68.66)" fill="#444"/>
          <path id="Trazado_1275082" data-name="Trazado 1275082" d="M67.138,11.562a.7.7,0,0,1,.19.156h23.13a.705.705,0,0,1,1.1,0h.136V6.464A6.471,6.471,0,0,0,85.225,0H72.548a6.471,6.471,0,0,0-6.464,6.464v5.254h.175a.712.712,0,0,1,.88-.156m.368-5.1a5.048,5.048,0,0,1,5.042-5.042H85.225a5.047,5.047,0,0,1,5.042,5.042v5.01H67.506Z" transform="translate(-56.295)" fill="#444"/>
          <path id="Trazado_1275083" data-name="Trazado 1275083" d="M68.141,77.542a.711.711,0,0,0-.879.156h1.069a.7.7,0,0,0-.19-.156" transform="translate(-57.298 -65.98)" fill="#444"/>
          <path id="Trazado_1275084" data-name="Trazado 1275084" d="M230.819,77.444a.706.706,0,0,0-.2.169h1.1a.71.71,0,0,0-.9-.169" transform="translate(-196.457 -65.894)" fill="#444"/>
          <path id="Trazado_1275085" data-name="Trazado 1275085" d="M66.172,79.227a.7.7,0,0,1,.087-.123h-.175v.289c.03-.055.058-.111.088-.166" transform="translate(-56.295 -67.386)" fill="#444"/>
          <path id="Trazado_1275086" data-name="Trazado 1275086" d="M238.083,79.207c.022.039.042.079.064.119V79.1h-.136a.713.713,0,0,1,.072.1" transform="translate(-202.753 -67.386)" fill="#444"/>
          <path id="Trazado_1275087" data-name="Trazado 1275087" d="M96.932,79.9A.71.71,0,0,1,97,79.1H73.875a.709.709,0,0,1,.089.81c-.067.121-.131.244-.195.368H97.135c-.067-.128-.134-.254-.2-.378" transform="translate(-62.841 -67.386)" fill="#444"/>
          <path id="Trazado_1275088" data-name="Trazado 1275088" d="M67.328,79.1H66.259a.706.706,0,0,0-.087.123c-.03.055-.058.111-.088.166v.178a.711.711,0,0,0,.711.711h.427c.064-.124.128-.247.195-.368a.709.709,0,0,0-.089-.81" transform="translate(-56.295 -67.385)" fill="#444"/>
          <path id="Trazado_1275089" data-name="Trazado 1275089" d="M229.609,79.9c.07.124.137.25.2.378h.389a.711.711,0,0,0,.711-.711v-.245c-.022-.039-.042-.08-.064-.119a.714.714,0,0,0-.072-.1h-1.095a.71.71,0,0,0-.073.8" transform="translate(-195.518 -67.386)" fill="#444"/>
          <path id="Trazado_1275090" data-name="Trazado 1275090" d="M321,247.288h-4.443a2.364,2.364,0,0,1-2.362-2.361v-.265h-.711a.711.711,0,0,1-.711-.711v.976a3.788,3.788,0,0,0,3.784,3.784h3.732V248a.711.711,0,0,1,.711-.711" transform="translate(-266.438 -207.813)" fill="#444"/>
          <path id="Trazado_1275091" data-name="Trazado 1275091" d="M328.551,96.436l-5.218-3.182a.711.711,0,0,0-.74,0l-5.218,3.182a9.659,9.659,0,0,0-4.6,8.2V115.49a.711.711,0,0,1,.711-.711h.711V104.634a8.228,8.228,0,0,1,3.922-6.984l4.848-2.956,4.848,2.956a8.228,8.228,0,0,1,3.922,6.984v10.145h.711a.711.711,0,0,1,.711.711V104.634a9.659,9.659,0,0,0-4.6-8.2" transform="translate(-266.438 -79.352)" fill="#444"/>
          <path id="Trazado_1275092" data-name="Trazado 1275092" d="M402.349,244.662h-.711v.265a2.364,2.364,0,0,1-2.361,2.362h-4.444a.711.711,0,0,1,.711.711v.711h3.733a3.788,3.788,0,0,0,3.783-3.784v-.976a.711.711,0,0,1-.711.711" transform="translate(-336.344 -207.813)" fill="#444"/>
          <path id="Trazado_1275093" data-name="Trazado 1275093" d="M377.481,170.151a.711.711,0,0,0-.711.711v13.559h1.422V170.862a.711.711,0,0,0-.711-.711" transform="translate(-320.957 -144.945)" fill="#444"/>
          <path id="Trazado_1275094" data-name="Trazado 1275094" d="M390.033,281.231h.711a.711.711,0,0,1,.711.711v-5.863h-1.422Z" transform="translate(-332.255 -235.182)" fill="#444"/>
          <path id="Trazado_1275095" data-name="Trazado 1275095" d="M364.219,281.231h.711v-5.152h-1.422v5.863a.711.711,0,0,1,.711-.711" transform="translate(-309.659 -235.182)" fill="#444"/>
          <path id="Trazado_1275096" data-name="Trazado 1275096" d="M383.535,266.479h-1.254v.711a.711.711,0,0,1-.711.711h2.676v-.711a.711.711,0,0,0-.711-.711" transform="translate(-325.046 -227.004)" fill="#444"/>
          <path id="Trazado_1275097" data-name="Trazado 1275097" d="M366.184,267.9a.711.711,0,0,1-.711-.711v-.711h-1.254a.711.711,0,0,0-.711.711v.711h2.676Z" transform="translate(-309.659 -227.004)" fill="#444"/>
          <path id="Trazado_1275098" data-name="Trazado 1275098" d="M376.771,267.19a.711.711,0,1,0,1.422,0v-.711h-1.422Z" transform="translate(-320.957 -227.004)" fill="#444"/>
          <path id="Trazado_1275099" data-name="Trazado 1275099" d="M390.033,460.6v2.339a.711.711,0,0,0,1.422,0v-2.355a2.675,2.675,0,0,1-.287.016Z" transform="translate(-332.255 -392.358)" fill="#444"/>
          <path id="Trazado_1275100" data-name="Trazado 1275100" d="M394.319,451.054h.152a.379.379,0,0,0-.152,0" transform="translate(-335.906 -384.23)" fill="#444"/>
          <path id="Trazado_1275101" data-name="Trazado 1275101" d="M364.929,323.621v-7.252h-.711a.711.711,0,0,1-.711-.711v8a2.656,2.656,0,0,1,.435-.039Z" transform="translate(-309.658 -268.897)" fill="#444"/>
          <path id="Trazado_1275102" data-name="Trazado 1275102" d="M394.472,379.01h-.152a.379.379,0,0,0,.152,0" transform="translate(-335.907 -322.865)" fill="#444"/>
          <path id="Trazado_1275103" data-name="Trazado 1275103" d="M367.946,379.01h-.152a.379.379,0,0,0,.152,0" transform="translate(-313.31 -322.865)" fill="#444"/>
          <path id="Trazado_1275104" data-name="Trazado 1275104" d="M390.744,316.369h-.711v7.252h1.135a2.666,2.666,0,0,1,.287.016v-7.979a.711.711,0,0,1-.711.711" transform="translate(-332.255 -268.897)" fill="#444"/>
          <path id="Trazado_1275105" data-name="Trazado 1275105" d="M368.148,310.858h-3.929a.711.711,0,0,0,0,1.422h3.929a.711.711,0,0,0,0-1.422" transform="translate(-309.659 -264.809)" fill="#444"/>
          <path id="Trazado_1275106" data-name="Trazado 1275106" d="M364.928,460.745a.711.711,0,0,1-.652.766l-.768.062v1.465a.711.711,0,0,0,1.422,0V460.7h-.011c0,.016.007.03.008.047" transform="translate(-309.659 -392.452)" fill="#444"/>
          <path id="Trazado_1275107" data-name="Trazado 1275107" d="M367.794,451.054h.152a.379.379,0,0,0-.152,0" transform="translate(-313.31 -384.23)" fill="#444"/>
          <path id="Trazado_1275108" data-name="Trazado 1275108" d="M369.456,370.129a.708.708,0,0,1-.635.7H372.6a.708.708,0,0,1-.635-.7v-.719h-2.507Z" transform="translate(-314.185 -314.687)" fill="#444"/>
          <path id="Trazado_1275109" data-name="Trazado 1275109" d="M395.347,370.925h.348a1.236,1.236,0,0,1,1.235,1.235v8.209a1.236,1.236,0,0,1-1.235,1.235h-.348a.708.708,0,0,1,.635.7v.7a2.66,2.66,0,0,0,2.37-2.641V372.16a2.66,2.66,0,0,0-2.37-2.641v.7a.709.709,0,0,1-.635.7" transform="translate(-336.782 -314.78)" fill="#444"/>
          <path id="Trazado_1275110" data-name="Trazado 1275110" d="M349.933,399.6V392.1a.711.711,0,0,1-.711.711h-.711V399.6a2.655,2.655,0,0,0,1.156,2.19l1.065-.086v-.167a.708.708,0,0,1,.635-.7h-.2a1.236,1.236,0,0,1-1.235-1.235" transform="translate(-296.884 -334.013)" fill="#444"/>
          <path id="Trazado_1275111" data-name="Trazado 1275111" d="M349.936,372.995v-.7a1.236,1.236,0,0,1,1.235-1.235h.2a.708.708,0,0,1-.635-.7v-.68a2.658,2.658,0,0,0-2.221,2.611h.711a.711.711,0,0,1,.711.711" transform="translate(-296.886 -314.911)" fill="#444"/>
          <path id="Trazado_1275112" data-name="Trazado 1275112" d="M372.6,451.1h-3.777a.709.709,0,0,1,.635.7v.719h2.507V451.8a.709.709,0,0,1,.635-.7" transform="translate(-314.185 -384.274)" fill="#444"/>
          <path id="Trazado_1275113" data-name="Trazado 1275113" d="M348.512,388.718h.711a.711.711,0,0,0,0-1.422h-.711s0,0,0,.007Z" transform="translate(-296.885 -329.923)" fill="#444"/>
          <path id="Trazado_1275114" data-name="Trazado 1275114" d="M390.821,451.1h-.152a.708.708,0,0,0-.635.7v.719h1.135a2.662,2.662,0,0,0,.287-.016v-.7a.709.709,0,0,0-.635-.7" transform="translate(-332.256 -384.274)" fill="#444"/>
          <path id="Trazado_1275115" data-name="Trazado 1275115" d="M390.033,369.41v.719a.709.709,0,0,0,.635.7h.152a.709.709,0,0,0,.635-.7v-.7a2.667,2.667,0,0,0-.287-.016Z" transform="translate(-332.255 -314.687)" fill="#444"/>
          <path id="Trazado_1275116" data-name="Trazado 1275116" d="M364.143,370.832h.152a.708.708,0,0,0,.635-.7v-.719h-.987a2.653,2.653,0,0,0-.435.039v.68a.709.709,0,0,0,.635.7" transform="translate(-309.659 -314.687)" fill="#444"/>
          <path id="Trazado_1275117" data-name="Trazado 1275117" d="M364.3,451.1h-.152a.708.708,0,0,0-.635.7v.167l.654-.053a.707.707,0,0,1,.757.6h.011V451.8a.709.709,0,0,0-.635-.7" transform="translate(-309.659 -384.274)" fill="#444"/>
          <path id="Trazado_1275118" data-name="Trazado 1275118" d="M281.817,390.711a.711.711,0,1,0,1.187.783,4.356,4.356,0,0,1,3.069-1.923h-.055a.711.711,0,0,1-.7-.595l-.113-.679a5.726,5.726,0,0,0-3.386,2.413" transform="translate(-239.969 -330.777)" fill="#444"/>
          <path id="Trazado_1275119" data-name="Trazado 1275119" d="M306.169,388.717h.055l.04-.006a.711.711,0,0,0-.189-1.409,6.17,6.17,0,0,0-.719.142l.113.679a.711.711,0,0,0,.7.595" transform="translate(-260.121 -329.922)" fill="#444"/>
          <path id="Trazado_1275120" data-name="Trazado 1275120" d="M59.417,384.724a.711.711,0,0,1,.711-.711h.684l.027-2.12a.711.711,0,0,0-.7-.72h-.009a.711.711,0,0,0-.711.7l-.169,13.408a.711.711,0,0,0,.7.72h.009a.711.711,0,0,0,.711-.7l.124-9.866h-.666a.711.711,0,0,1-.711-.711" transform="translate(-50.472 -324.706)" fill="#444"/>
          <path id="Trazado_1275121" data-name="Trazado 1275121" d="M254.011,389.3l-10.317.832c-1.564.125-2.123-.526-3-2.548l-3.088-9.658a.711.711,0,0,0-1.388.217v2.684h.711a.711.711,0,1,1,0,1.422h-.711V392.1a.711.711,0,0,0,1.422,0v-9.4l1.711,5.35c.007.022.015.044.024.065.863,2,1.8,3.647,4.431,3.434l11.268-.909v-.913a2.642,2.642,0,0,1-1.065-.428" transform="translate(-201.227 -321.519)" fill="#444"/>
          <path id="Trazado_1275122" data-name="Trazado 1275122" d="M364.928,460.52c0-.016-.006-.031-.008-.047h-.976a2.652,2.652,0,0,1-.435-.039v.913l.768-.062a.711.711,0,0,0,.652-.766" transform="translate(-309.659 -392.228)" fill="#444"/>
          <path id="Trazado_1275123" data-name="Trazado 1275123" d="M357.382,457.482v-.513l-1.065.086a2.642,2.642,0,0,0,1.065.428" transform="translate(-303.533 -389.275)" fill="#444"/>
          <path id="Trazado_1275124" data-name="Trazado 1275124" d="M363.943,457.2h.976a.707.707,0,0,0-.757-.6l-.654.053v.513a2.649,2.649,0,0,0,.435.039" transform="translate(-309.659 -388.957)" fill="#444"/>
          <path id="Trazado_1275125" data-name="Trazado 1275125" d="M72.705,401.113l-.059-.765H69.7l-.018,1.422h3.726a.711.711,0,0,1-.708-.657" transform="translate(-59.364 -341.042)" fill="#444"/>
          <path id="Trazado_1275126" data-name="Trazado 1275126" d="M211.352,400.348l-.059.765a.711.711,0,0,1-.708.657h3.8v-1.422Z" transform="translate(-179.39 -341.042)" fill="#444"/>
          <path id="Trazado_1275127" data-name="Trazado 1275127" d="M111.279,401l.05-.657H95.5l.05.657a.711.711,0,0,1-.655.763l-.055,0h17.146l-.055,0a.711.711,0,0,1-.655-.763" transform="translate(-80.793 -341.041)" fill="#444"/>
          <path id="Trazado_1275128" data-name="Trazado 1275128" d="M61.1,400.348a.711.711,0,0,0,0,1.422h.666l.018-1.422Z" transform="translate(-51.442 -341.042)" fill="#444"/>
          <path id="Trazado_1275129" data-name="Trazado 1275129" d="M237.642,401.058a.711.711,0,0,0-.711-.711h-.711v1.422h.711a.711.711,0,0,0,.711-.711" transform="translate(-201.227 -341.041)" fill="#444"/>
          <path id="Trazado_1275130" data-name="Trazado 1275130" d="M81.87,278.534c-.456.061-.928.134-1.41.22l1.364,17.825H83.25Z" transform="translate(-68.541 -237.273)" fill="#444"/>
          <path id="Trazado_1275131" data-name="Trazado 1275131" d="M83.6,269.66a.7.7,0,0,0-.153.03l.184-.029c-.01,0-.02,0-.031,0" transform="translate(-71.086 -229.713)" fill="#444"/>
          <path id="Trazado_1275132" data-name="Trazado 1275132" d="M81.468,270.317a.708.708,0,0,0-.732-.654l-.184.029a.711.711,0,0,0-.5.733l.059.772c.481-.087.953-.16,1.41-.22Z" transform="translate(-68.19 -229.716)" fill="#444"/>
          <path id="Trazado_1275133" data-name="Trazado 1275133" d="M91.143,401l-.05-.657H89.667l.059.765a.711.711,0,0,0,.708.657l.055,0a.711.711,0,0,0,.655-.763" transform="translate(-76.384 -341.041)" fill="#444"/>
          <path id="Trazado_1275134" data-name="Trazado 1275134" d="M207.512,278.65l-1.379,18.028h1.426l1.359-17.766c-.488-.105-.959-.192-1.406-.261" transform="translate(-175.597 -237.372)" fill="#444"/>
          <path id="Trazado_1275135" data-name="Trazado 1275135" d="M216.912,270.627a.711.711,0,0,0-1.418-.108l-.049.645c.447.069.918.156,1.406.261Z" transform="translate(-183.53 -229.886)" fill="#444"/>
          <path id="Trazado_1275136" data-name="Trazado 1275136" d="M207.2,401.113l.059-.765h-1.426l-.05.657a.711.711,0,0,0,.655.763l.055,0a.711.711,0,0,0,.708-.657" transform="translate(-175.296 -341.042)" fill="#444"/>
          <path id="Trazado_1275137" data-name="Trazado 1275137" d="M326.006,240.573a.711.711,0,0,0,0-1.422H322.37v1.422Z" transform="translate(-274.615 -203.724)" fill="#444"/>
          <path id="Trazado_1275138" data-name="Trazado 1275138" d="M313.481,240.573h.711v-1.422h-.711a.711.711,0,0,0,0,1.422" transform="translate(-266.437 -203.724)" fill="#444"/>
          <path id="Trazado_1275139" data-name="Trazado 1275139" d="M411.425,239.862a.711.711,0,0,0,.711.711h3.636v-1.422h-3.636a.711.711,0,0,0-.711.711" transform="translate(-350.478 -203.724)" fill="#444"/>
          <path id="Trazado_1275140" data-name="Trazado 1275140" d="M441.481,239.151h-.711v1.422h.711a.711.711,0,0,0,0-1.422" transform="translate(-375.476 -203.724)" fill="#444"/>
          <path id="Trazado_1275141" data-name="Trazado 1275141" d="M81.77,204.724a.71.71,0,0,1,.934.371c.127.295.238.6.339.913a11.911,11.911,0,0,0,5.529-1.976c-.132-.061-.265-.127-.4-.2a.709.709,0,0,1-.117-1.17,10.151,10.151,0,0,1-6.767,1.936c1.159-2.779,5.484-4.306,7.3-4.835a1.83,1.83,0,0,1-.866-1.225c-1.965.614-4.991,1.837-6.75,3.914.174.214.36.422.557.622a.711.711,0,0,1-1.011,1c-.128-.129-.25-.262-.369-.4a5.263,5.263,0,0,0-.481,1.382.711.711,0,0,0,.577.836,10.7,10.7,0,0,0,1.3.143c-.048-.129-.1-.256-.15-.378a.711.711,0,0,1,.371-.934" transform="translate(-67.855 -169.126)" fill="#444"/>
          <path id="Trazado_1275142" data-name="Trazado 1275142" d="M138.1,222.387a.711.711,0,0,0-1-.043c-.142.13-.308.269-.5.41a.71.71,0,0,1,.757-.053,4.967,4.967,0,0,0,.892.389.708.708,0,0,0-.148-.7" transform="translate(-116.365 -189.247)" fill="#444"/>
          <path id="Trazado_1275143" data-name="Trazado 1275143" d="M83.862,226.79a.711.711,0,0,0,.505-1.211c-.2-.2-.384-.408-.557-.622a6.328,6.328,0,0,0-.823,1.226c.12.135.242.268.369.4a.709.709,0,0,0,.506.211" transform="translate(-70.694 -191.633)" fill="#444"/>
          <path id="Trazado_1275144" data-name="Trazado 1275144" d="M135.807,197.261a.711.711,0,0,0-.873-.5c-.243.066-.521.147-.823.241a1.83,1.83,0,0,0,.866,1.225c.123-.036.234-.067.332-.094a.711.711,0,0,0,.5-.873" transform="translate(-114.243 -167.593)" fill="#444"/>
          <path id="Trazado_1275145" data-name="Trazado 1275145" d="M136.568,225.733a4.968,4.968,0,0,1-.892-.389.709.709,0,0,0-.757.053l-.036.027a.7.7,0,0,0-.17.206.711.711,0,0,0,.287.964c.137.074.271.14.4.2a8.58,8.58,0,0,0,.975-.762.7.7,0,0,0,.191-.3" transform="translate(-114.683 -191.889)" fill="#444"/>
          <path id="Trazado_1275146" data-name="Trazado 1275146" d="M94.269,252.427a.711.711,0,0,1-.653.765l-.059,0c.859,3.1,2.455,6.244,8.09,6.244a.711.711,0,1,1,0-1.422c-5.519,0-6.295-3.3-7.116-6.791-.185-.785-.364-1.54-.594-2.251-.315.028-.636.043-.964.043-.175,0-.352-.006-.53-.015a21.919,21.919,0,0,1,.7,2.548l.058.247.3-.026a.711.711,0,0,1,.765.653" transform="translate(-78.749 -212.094)" fill="#444"/>
          <path id="Trazado_1275147" data-name="Trazado 1275147" d="M98,269.262a.711.711,0,0,0-.112-1.418l-.3.026c.108.457.221.926.352,1.4l.059,0" transform="translate(-83.132 -228.165)" fill="#444"/>
          <path id="Trazado_1275148" data-name="Trazado 1275148" d="M92.738,241.255c-.1-.313-.212-.618-.339-.913a.711.711,0,0,0-1.306.563c.053.123.1.249.15.378.178.009.355.015.53.015.328,0,.649-.015.964-.043" transform="translate(-77.549 -204.372)" fill="#444"/>
          <path id="Trazado_1275149" data-name="Trazado 1275149" d="M174.323,203a.711.711,0,0,1-.505-1.211c.151-.152.295-.309.429-.465.029-.034.055-.069.084-.1-1.972-2.041-5.149-3.191-6.926-3.706a1.718,1.718,0,0,1-.731,1.271c3.212.866,6.667,2.562,7.672,4.941a10.158,10.158,0,0,1-6.924-2.058.708.708,0,0,1-.116,1.171c-.138.075-.273.143-.407.209a11.893,11.893,0,0,0,5.693,2.09c.1-.313.212-.619.339-.913a.711.711,0,0,1,1.306.563c-.053.122-.1.249-.15.378a10.724,10.724,0,0,0,1.3-.143.711.711,0,0,0,.577-.836,5.359,5.359,0,0,0-.737-1.83c-.128.146-.262.29-.4.431a.709.709,0,0,1-.505.211" transform="translate(-141.983 -168.253)" fill="#444"/>
          <path id="Trazado_1275150" data-name="Trazado 1275150" d="M162.716,222.643c-.129-.1-.246-.2-.35-.3a.708.708,0,0,0-1.185.6,7.815,7.815,0,0,0,.765-.368.71.71,0,0,1,.77.062" transform="translate(-137.3 -189.248)" fill="#444"/>
          <path id="Trazado_1275151" data-name="Trazado 1275151" d="M214.148,222.632c-.134.156-.278.313-.429.465a.711.711,0,0,0,1.011,1c.139-.141.273-.286.4-.432a6.981,6.981,0,0,0-.9-1.137c-.029.034-.055.069-.084.1" transform="translate(-181.884 -189.564)" fill="#444"/>
          <path id="Trazado_1275152" data-name="Trazado 1275152" d="M160.605,196.53a.711.711,0,0,0,.516.863c.121.031.243.063.365.1a1.718,1.718,0,0,0,.731-1.271c-.29-.084-.544-.152-.748-.2a.71.71,0,0,0-.863.516" transform="translate(-136.795 -166.959)" fill="#444"/>
          <path id="Trazado_1275153" data-name="Trazado 1275153" d="M161.973,224.523a7.811,7.811,0,0,1-.765.368.7.7,0,0,0,.223.444,8.287,8.287,0,0,0,.811.648c.134-.066.269-.135.407-.209a.711.711,0,0,0,.287-.964.7.7,0,0,0-.171-.207l-.023-.018a.711.711,0,0,0-.77-.062" transform="translate(-137.327 -191.19)" fill="#444"/>
          <path id="Trazado_1275154" data-name="Trazado 1275154" d="M162.286,248.977c-.23.711-.409,1.465-.594,2.251-.821,3.492-1.6,6.791-7.116,6.791a.711.711,0,1,1,0,1.422c5.6,0,7.214-3.111,8.076-6.193-.2-.022-.4-.041-.58-.055a.711.711,0,0,1,.112-1.418c.258.02.533.048.82.083l.072-.3a21.887,21.887,0,0,1,.7-2.548c-.178.009-.355.015-.53.015-.328,0-.649-.015-.964-.043" transform="translate(-131.678 -212.094)" fill="#444"/>
          <path id="Trazado_1275155" data-name="Trazado 1275155" d="M200.759,268.5a.711.711,0,0,0,.653.765q.277.022.58.055c.131-.468.245-.935.352-1.39-.288-.035-.562-.062-.82-.083a.71.71,0,0,0-.765.653" transform="translate(-171.017 -228.165)" fill="#444"/>
          <path id="Trazado_1275156" data-name="Trazado 1275156" d="M151.2,310.719a.711.711,0,1,0-.711.711.711.711,0,0,0,.711-.711" transform="translate(-127.589 -264.084)" fill="#444"/>
          <path id="Trazado_1275157" data-name="Trazado 1275157" d="M207.895,239.971a.711.711,0,0,0-.935.371c-.127.295-.237.6-.339.913.315.028.637.043.964.043.175,0,.352-.006.53-.015.048-.129.1-.256.15-.378a.711.711,0,0,0-.371-.934" transform="translate(-176.013 -204.373)" fill="#444"/>
        </g>
      </g>
    </g>
  </g>
</svg>
