<svg id="Grupo_1202293" data-name="Grupo 1202293" xmlns="http://www.w3.org/2000/svg" width="82.001" height="82.001" viewBox="0 0 82.001 82.001">
  <g id="Grupo_1187152" data-name="Grupo 1187152" transform="translate(0)">
    <g id="Grupo_1185946" data-name="Grupo 1185946" transform="translate(0)">
      <g id="Grupo_1184280" data-name="Grupo 1184280" transform="translate(0)">
        <g id="Grupo_1182168" data-name="Grupo 1182168" transform="translate(0)">
          <g id="Grupo_1178877" data-name="Grupo 1178877" transform="translate(0)">
            <g id="Grupo_1111311" data-name="Grupo 1111311" transform="translate(0)">
              <g id="Grupo_1098742" data-name="Grupo 1098742" transform="translate(0)">
                <g id="Rect치ngulo_400898" data-name="Rect치ngulo 400898" transform="translate(0)" fill="#fff" stroke="#31532b" stroke-width="1" opacity="0.859">
                  <rect width="82.001" height="82.001" rx="41" stroke="none"/>
                  <rect x="0.5" y="0.5" width="81.001" height="81.001" rx="40.5" fill="none"/>
                </g>
                <g id="Rect치ngulo_400907" data-name="Rect치ngulo 400907" transform="translate(0)" fill="none" stroke="#31532b" stroke-width="1">
                  <rect width="82.001" height="82.001" rx="41" stroke="none"/>
                  <rect x="0.5" y="0.5" width="81.001" height="81.001" rx="40.5" fill="none"/>
                </g>
              </g>
            </g>
          </g>
        </g>
      </g>
    </g>
  </g>
  <g id="alqueria" transform="translate(-13.421 -14.471)">
    <g id="Grupo_1202299" data-name="Grupo 1202299" transform="translate(24.374 25.106)">
      <path id="Trazado_1276919" data-name="Trazado 1276919" d="M274.1,63.443V78.513H251.34V63.443h.59l3.948-5.729,6.7-3.784,6.7,3.784,3.951,5.729Z" transform="translate(-224.922 -50.915)" fill="#df4c3a" fill-rule="evenodd"/>
      <path id="Trazado_1276920" data-name="Trazado 1276920" d="M251.34,73.069V63.443h.59l3.948-5.729,6.7-3.784,6.4,3.612a21.748,21.748,0,0,1-.95,3.707C265.083,69.671,257.716,74.821,251.34,73.069Z" transform="translate(-224.922 -50.915)" fill="#e77c70" fill-rule="evenodd"/>
      <path id="Trazado_1276921" data-name="Trazado 1276921" d="M302.62,173.72h10.493v10.249H302.62Z" transform="translate(-270.067 -156.372)" fill="#94d9f1" fill-rule="evenodd"/>
      <path id="Trazado_1276922" data-name="Trazado 1276922" d="M302.62,181.525v-7.8H311.4a9.236,9.236,0,0,1-3.287,5.538A8.28,8.28,0,0,1,302.62,181.525Z" transform="translate(-270.066 -156.372)" fill="#bde6f5" fill-rule="evenodd"/>
      <path id="Trazado_1276923" data-name="Trazado 1276923" d="M320.614,96.73a3.5,3.5,0,1,1-3.514,3.5A3.505,3.505,0,0,1,320.614,96.73Z" transform="translate(-282.814 -88.594)" fill="#dfefee" fill-rule="evenodd"/>
      <path id="Trazado_1276924" data-name="Trazado 1276924" d="M252.608,34.462l3.683,6.112-1.8,2.93-4.524-6.76-7.672-4.463-7.675,4.463-4.521,6.76-1.8-2.93,3.68-6.112,10.321-5.732Z" transform="translate(-204.63 -28.73)" fill="#626e7a" fill-rule="evenodd"/>
      <path id="Trazado_1276925" data-name="Trazado 1276925" d="M264.27,53.648l-1.024,1.662-4.524-6.76-7.672-4.463-7.675,4.463-4.521,6.76-.2-.333-.41-1.177,3.684-6.112,9.286-5.548,9.093,5.223Z" transform="translate(-213.389 -40.536)" fill="#808a93" fill-rule="evenodd"/>
      <path id="Trazado_1276926" data-name="Trazado 1276926" d="M92.092,301.58l-1.9-1.3a22.939,22.939,0,0,1,3.337-5.267l1.808,1.506A32.152,32.152,0,0,0,92.092,301.58Z" transform="translate(-83.053 -263.151)" fill="#81655c" fill-rule="evenodd"/>
      <path id="Trazado_1276927" data-name="Trazado 1276927" d="M95.826,255.559l1.045-1.037a1.233,1.233,0,0,1,1.74,0l6.409,6.439a1.229,1.229,0,0,1,0,1.736l-1.045,1.041a1.232,1.232,0,0,1-1.736,0L95.822,257.3A1.235,1.235,0,0,1,95.826,255.559Z" transform="translate(-87.698 -227.193)" fill="#b38e7c" fill-rule="evenodd"/>
      <path id="Trazado_1276928" data-name="Trazado 1276928" d="M139.726,239.5l-1.516-1.462a25.6,25.6,0,0,1,4.823-4.511l1.139,1.926A32.356,32.356,0,0,0,139.726,239.5Z" transform="translate(-125.328 -209.026)" fill="#81655c" fill-rule="evenodd"/>
      <path id="Trazado_1276929" data-name="Trazado 1276929" d="M165.741,195.66l1.268-.749a1.234,1.234,0,0,1,1.682.434l4.616,7.831a1.229,1.229,0,0,1-.434,1.682l-1.268.747a1.228,1.228,0,0,1-1.682-.434l-4.616-7.827A1.233,1.233,0,0,1,165.741,195.66Z" transform="translate(-149.034 -174.879)" fill="#b38e7c" fill-rule="evenodd"/>
      <path id="Trazado_1276930" data-name="Trazado 1276930" d="M177.655,195.108,178,194.9a1.234,1.234,0,0,1,1.682.434l4.616,7.831a1.213,1.213,0,0,1,.142.889l-.353.2a1.229,1.229,0,0,1-1.682-.434L177.793,196A1.229,1.229,0,0,1,177.655,195.108Z" transform="translate(-160.027 -174.871)" fill="#c3a496" fill-rule="evenodd"/>
      <path id="Trazado_1276931" data-name="Trazado 1276931" d="M60.516,373.679l-2.276-.464A26.032,26.032,0,0,1,60.3,366.93l2.069,1.028A32.3,32.3,0,0,0,60.516,373.679Z" transform="translate(-54.926 -326.466)" fill="#81655c" fill-rule="evenodd"/>
      <path id="Trazado_1276932" data-name="Trazado 1276932" d="M50.967,328.749l.769-1.255a1.232,1.232,0,0,1,1.689-.407l7.749,4.749a1.232,1.232,0,0,1,.407,1.689l-.773,1.259a1.227,1.227,0,0,1-1.686.4l-7.749-4.749A1.232,1.232,0,0,1,50.967,328.749Z" transform="translate(-48.365 -291.232)" fill="#b38e7c" fill-rule="evenodd"/>
      <path id="Trazado_1276933" data-name="Trazado 1276933" d="M58.1,327.616l.074-.122a1.232,1.232,0,0,1,1.689-.407l7.749,4.749a1.231,1.231,0,0,1,.573.889l-.074.122a1.232,1.232,0,0,1-1.689.407l-7.749-4.749A1.231,1.231,0,0,1,58.1,327.616Z" transform="translate(-54.802 -291.232)" fill="#c3a496" fill-rule="evenodd"/>
      <path id="Trazado_1276934" data-name="Trazado 1276934" d="M30.54,417.816l.065-1.472a1.229,1.229,0,0,1,1.279-1.174l9.082.394a1.232,1.232,0,0,1,1.174,1.279l-.065,1.472a1.234,1.234,0,0,1-1.281,1.174l-9.079-.394A1.229,1.229,0,0,1,30.54,417.816Z" transform="translate(-30.539 -368.934)" fill="#b38e7c" fill-rule="evenodd"/>
      <path id="Trazado_1276935" data-name="Trazado 1276935" d="M31.12,416.3a1.227,1.227,0,0,1,1.275-1.129l9.082.394a1,1,0,1,1-.173,1.957l-9.079-.394A1.236,1.236,0,0,1,31.12,416.3Z" transform="translate(-31.05 -368.933)" fill="#c3a496" fill-rule="evenodd"/>
      <path id="Trazado_1276936" data-name="Trazado 1276936" d="M105.592,254.705l.183-.183a1.233,1.233,0,0,1,1.74,0l6.409,6.439a1.216,1.216,0,0,1,.346,1.021l-.183.187a1.237,1.237,0,0,1-1.74,0l-6.409-6.444A1.207,1.207,0,0,1,105.592,254.705Z" transform="translate(-96.603 -227.193)" fill="#c3a496" fill-rule="evenodd"/>
      <path id="Trazado_1276937" data-name="Trazado 1276937" d="M121.4,249.342l21.832.444a4.3,4.3,0,0,1,4.137,4.372V272.37a4.267,4.267,0,0,1-4.137,4.372l-37.2-.074C94.414,276.644,111.2,249.135,121.4,249.342Z" transform="translate(-93.531 -222.945)" fill="#024d27" fill-rule="evenodd"/>
      <path id="Trazado_1276938" data-name="Trazado 1276938" d="M446.364,307.6v16.059c0,.037,0,.074,0,.112s0,.074,0,.112,0,.074-.007.112a4.272,4.272,0,0,1-4.124,4.036h-.485A44.742,44.742,0,0,1,446.364,307.6Z" transform="translate(-392.522 -274.234)" fill="#128241" fill-rule="evenodd"/>
      <path id="Trazado_1276939" data-name="Trazado 1276939" d="M369.606,252.78l1.679.034a4.5,4.5,0,0,1,3.015,1.448c-4.819,7.448-8.232,17.09-8.034,25.5l-5.108-.01C360.828,270.715,364.2,260.479,369.606,252.78Z" transform="translate(-321.581 -225.973)" fill="#128241" fill-rule="evenodd"/>
      <path id="Trazado_1276940" data-name="Trazado 1276940" d="M287.277,251.05l5.61.115c-5.278,7.55-8.851,18.077-8.7,27.054l-5.111-.013A47.07,47.07,0,0,1,287.277,251.05Z" transform="translate(-249.322 -224.45)" fill="#128241" fill-rule="evenodd"/>
      <path id="Trazado_1276941" data-name="Trazado 1276941" d="M205.227,249.35l5.61.115c-5.721,8.008-9.062,17.83-8.265,27.237l-5.124-.01A41.021,41.021,0,0,1,205.227,249.35Z" transform="translate(-177.354 -222.954)" fill="#128241" fill-rule="evenodd"/>
      <path id="Trazado_1276942" data-name="Trazado 1276942" d="M118.734,292.643l-2.682-.007a4.354,4.354,0,0,1-2.492-.651,39.31,39.31,0,0,1,.793-10.881c2.553-5.124,6.932-10.659,11.256-13.624C120.748,275.075,118.008,284.028,118.734,292.643Z" transform="translate(-103.548 -238.914)" fill="#128241" fill-rule="evenodd"/>
      <path id="Trazado_1276943" data-name="Trazado 1276943" d="M382.489,238.735a1.748,1.748,0,0,1,.194,0,1.893,1.893,0,0,1,1.841-1.78,1.949,1.949,0,0,1,1.59.712,1.928,1.928,0,0,1,1.509-.808,1.9,1.9,0,0,1,1.994,1.78v.159a1.863,1.863,0,1,1,.442,3.677c-.386.013-3.971-.166-7.417-.034a1.856,1.856,0,1,1-.153-3.707Z" transform="translate(-338.757 -211.956)" fill="#469443" fill-rule="evenodd"/>
      <path id="Trazado_1276944" data-name="Trazado 1276944" d="M382.489,239.443a1.755,1.755,0,0,1,.194,0,1.893,1.893,0,0,1,1.841-1.78c1.011-.037,2.791.93,2.751,2.327,0,.051,0,.105,0,.159a1.544,1.544,0,0,1,.292-.033,1.9,1.9,0,0,1,1.995,1.78,1.82,1.82,0,0,1-.447,1.268c-1.366-.041-3.958-.109-6.472-.013a1.857,1.857,0,1,1-.153-3.708Z" transform="translate(-338.757 -212.663)" fill="#6aa843" fill-rule="evenodd"/>
      <path id="Trazado_1276945" data-name="Trazado 1276945" d="M195.4,231.855a1.8,1.8,0,0,1,.2,0,1.891,1.891,0,0,1,1.841-1.78,1.941,1.941,0,0,1,1.588.712,1.934,1.934,0,0,1,1.509-.808,1.892,1.892,0,0,1,1.995,1.78,1.174,1.174,0,0,1,0,.159,1.927,1.927,0,0,1,2.286,1.747,1.886,1.886,0,0,1-1.841,1.93c-.386.013-3.975-.166-7.42-.033a1.856,1.856,0,1,1-.153-3.707Z" transform="translate(-174.053 -205.899)" fill="#469443" fill-rule="evenodd"/>
      <path id="Trazado_1276946" data-name="Trazado 1276946" d="M195.393,232.563a1.79,1.79,0,0,1,.2,0,1.891,1.891,0,0,1,1.841-1.78c1.011-.037,2.791.93,2.751,2.327,0,.051,0,.105,0,.159a1.546,1.546,0,0,1,.288-.033,1.893,1.893,0,0,1,1.995,1.78,1.8,1.8,0,0,1-.447,1.268c-1.364-.041-3.954-.109-6.472-.013a1.857,1.857,0,1,1-.152-3.708Z" transform="translate(-174.045 -206.607)" fill="#6aa843" fill-rule="evenodd"/>
    </g>
    <path id="Trazado_1276947" data-name="Trazado 1276947" d="M45.813,52.238h-.065a1.108,1.108,0,0,0-.756.336,1,1,0,0,0-.278.715V53.3c0,.02,0,.044.007.068a.989.989,0,0,0,.333.631,1.043,1.043,0,0,0,.325.2.511.511,0,0,1,.051.017,1.189,1.189,0,0,0,.418.061c2.6-.1,5.284-.024,6.627.013.42.013.7.02.784.017h.011a1.084,1.084,0,0,0,.753-.336.987.987,0,0,0,.281-.715v-.011a.991.991,0,0,0-.339-.7l-.011-.01c-.007-.007-.017-.013-.024-.02a1.111,1.111,0,0,0-.76-.248c-.013,0-.044,0-.081.007l-.072.01a1.009,1.009,0,0,1-.2.013.836.836,0,0,1-.8-.869l0-.044,0-.048a.994.994,0,0,0-.336-.7,1.124,1.124,0,0,0-.777-.278,1.037,1.037,0,0,1-.105.007,1.1,1.1,0,0,0-.4.126,1.072,1.072,0,0,0-.346.288.832.832,0,0,1-1.353.078,1.089,1.089,0,0,0-.4-.305,1.152,1.152,0,0,0-1.2.173c-.013.013-.028.024-.041.037l0,0a.994.994,0,0,0-.305.645v.041a.839.839,0,0,1-.885.787Zm-.591-1.61a2.785,2.785,0,0,1,.278-.577l-2.187-3.71a.379.379,0,0,0-.237-.179.385.385,0,0,0-.3.041l-1.272.749a.388.388,0,0,0-.179.237.4.4,0,0,0,.041.3l2.361,4c.017-.02.037-.041.054-.061a2.81,2.81,0,0,1,1.441-.8Zm1.588-1.645a2.76,2.76,0,0,1,.919-.19,2.822,2.822,0,0,1,1.251.24,2.592,2.592,0,0,1,.333.176,2.034,2.034,0,0,1,.3-.187,2.324,2.324,0,0,1,.342-.156V41.049a.835.835,0,0,1-.58-.135.811.811,0,0,1-.261-.278l-1.791-2.9a.834.834,0,0,1,0-.869l0,0L51,30.75a.822.822,0,0,1,.359-.322L61.625,24.72a.83.83,0,0,1,.824.007l10.306,5.729a.8.8,0,0,1,.309.3l0,0,3.68,6.112a.842.842,0,0,1-.037.926L74.936,40.66a.828.828,0,0,1-.546.379v8.692a2.724,2.724,0,0,1,.78.488,2.678,2.678,0,0,1,.784,1.228,2.765,2.765,0,0,1,1.5.682,2.653,2.653,0,0,1,.895,1.878v.007a5.151,5.151,0,0,1,.485,1.15,5.4,5.4,0,0,1,.217,1.5V74.887h0A5.323,5.323,0,0,1,77.6,78.537a4.836,4.836,0,0,1-3.52,1.547v0h-.011v0l-37.2-.074a5.184,5.184,0,0,1-2.988-.81,4,4,0,0,1-1.614-2.459l-6.762-.292a2.069,2.069,0,0,1-1.971-2.15l.065-1.475a2.065,2.065,0,0,1,2.151-1.971l1.333.057c.15-.645.346-1.313.573-1.98.288-.865.625-1.723.967-2.531l-1.682-1.028a2.074,2.074,0,0,1-.682-2.839l.769-1.255a2.066,2.066,0,0,1,2.834-.686l1.275.78a19.639,19.639,0,0,1,.983-1.734c.414-.647.865-1.292,1.344-1.923L31.9,56.146a2.068,2.068,0,0,1,.006-2.921l1.045-1.037a2.064,2.064,0,0,1,2.917.006l1.183,1.187a22.693,22.693,0,0,1,1.645-1.71c.671-.631,1.4-1.252,2.12-1.815l-.895-1.52a2.068,2.068,0,0,1,.73-2.828l1.268-.747a2.068,2.068,0,0,1,2.825.726Zm4.819-.2a2.8,2.8,0,0,1,1.163.617,2.708,2.708,0,0,1,.784,1.228,2.779,2.779,0,0,1,1.183.438l1.329.028V42.8a.838.838,0,0,1,.838-.838H67.419a.838.838,0,0,1,.838.838v7.614l.024-.02a2.816,2.816,0,0,1,3.083-.532,2.717,2.717,0,0,1,.329.176,2.007,2.007,0,0,1,.3-.187,2.787,2.787,0,0,1,.723-.268V39.466l-.564-.845A.792.792,0,0,1,72,38.455l-3.093-4.49L62.034,29.97l-6.871,3.995-3.1,4.49v0a.792.792,0,0,1-.153.17l-.285.427Zm4.287,3.975a2.48,2.48,0,0,1,.054.431v.024a2.622,2.622,0,0,1-.739,1.917,2.753,2.753,0,0,1-1.9.854h-.013c-.118.007-.427,0-.889-.017-1.323-.037-3.965-.112-6.526-.013a2.793,2.793,0,0,1-.586-.041,32.279,32.279,0,0,0-3.446,3.361c-.017.02-.034.041-.054.061-.828.936-1.625,1.926-2.374,2.947a.4.4,0,0,1-.057.078c-.845,1.163-1.631,2.364-2.33,3.561l-.024.041-.007.01a32.61,32.61,0,0,0-2.035,4.1,14.53,14.53,0,0,0-1.22,5.026,6.241,6.241,0,0,0,.034.715c0,.013,0,.028.007.044a2.647,2.647,0,0,0,1.028,1.967,3.577,3.577,0,0,0,2.039.516l37.2.074v0h.011v0a3.183,3.183,0,0,0,2.3-1.021,3.678,3.678,0,0,0,.991-2.507h0V56.662a3.338,3.338,0,0,0-.031-.468,2.763,2.763,0,0,1-1.634.61h-.01c-.122.007-.431,0-.893-.017-1.323-.037-3.965-.112-6.525-.013a2.794,2.794,0,0,1-1.963-.706,2.658,2.658,0,0,1-.893-1.878l0-.024a2.638,2.638,0,0,1,.251-1.211l-3.449-.072a.254.254,0,0,1-.054,0,.68.68,0,0,1-.089-.007l-5.1-.1H56.93a.7.7,0,0,1-.089,0Zm-12.172,2.3a2.684,2.684,0,0,1-.668-1.374l-.251-.431c-.519.421-1.024.858-1.506,1.3-.553.5-1.082,1.024-1.567,1.54l1.442,1.448a33.473,33.473,0,0,1,2.551-2.483ZM68.2,53.063h-.065a1.1,1.1,0,0,0-.756.336,1.006,1.006,0,0,0-.281.715l0,.01a.994.994,0,0,0,.336.7,1.127,1.127,0,0,0,.793.278c2.6-.1,5.284-.024,6.631.013.418.013.7.02.784.017h.007a1.086,1.086,0,0,0,.756-.336,1,1,0,0,0,.275-.59.215.215,0,0,1,0-.048v-.089a.977.977,0,0,0-.339-.7,1.1,1.1,0,0,0-.79-.278.451.451,0,0,0-.085.007.685.685,0,0,1-.072.007.8.8,0,0,1-.2.017.834.834,0,0,1-.8-.871v-.089a1,1,0,0,0-.339-.7,1.109,1.109,0,0,0-.556-.264c-.034,0-.068-.007-.1-.01a.888.888,0,0,0-.139,0,1.122,1.122,0,0,0-.834.421.772.772,0,0,1-.176.2.832.832,0,0,1-1.174-.122,1.134,1.134,0,0,0-1.644-.091.99.99,0,0,0-.3.645.156.156,0,0,1,0,.041.837.837,0,0,1-.882.787Zm-36.1,22a11.754,11.754,0,0,1,.275-2.252l-2.235-.095a.348.348,0,0,1-.061,0l-4.4-.19a.39.39,0,0,0-.281.1.4.4,0,0,0-.129.275l-.065,1.472a.376.376,0,0,0,.105.278.39.39,0,0,0,.272.133Zm.719-3.9c.176-.56.386-1.133.621-1.716l.031-.072-1.387-.852c-.173.451-.333.9-.482,1.346-.135.407-.261.814-.379,1.224Zm1.333-3.331q.477-1,1.041-2.011l-2.123-1.3a.413.413,0,0,1-.085-.051L31.1,63.307c-.02-.013-.041-.024-.057-.037L29,62.018a.4.4,0,0,0-.3-.048.4.4,0,0,0-.24.173L27.69,63.4a.4.4,0,0,0-.048.3.384.384,0,0,0,.176.24l2.266,1.39a.348.348,0,0,1,.072.044l1.93,1.18c.02.01.037.024.057.034Zm1.882-3.455c.5-.824,1.045-1.649,1.618-2.455l-1.289-1.3c-.325.464-.638.933-.933,1.4-.3.481-.59.97-.858,1.458Zm2.619-3.816q.693-.906,1.427-1.767l-5.389-5.416a.394.394,0,0,0-.556,0l-1.045,1.037a.4.4,0,0,0-.115.278.381.381,0,0,0,.115.278l2.048,2.059c.024.02.044.044.068.068l1.608,1.614a.955.955,0,0,1,.078.078Zm19.111-9.432,3.571.074V43.635H57.765Zm5.246.108,3.571.072V43.635H63.011ZM28.788,70.983l.723.031c.15-.546.322-1.109.508-1.673.194-.586.4-1.159.617-1.712l-.566-.346c-.3.712-.584,1.448-.824,2.174C29.069,69.976,28.913,70.488,28.788,70.983Zm3.788-8.733.57.349c.268-.485.564-.976.875-1.472.366-.586.753-1.159,1.143-1.71l-.5-.5c-.4.536-.773,1.078-1.119,1.625A18.841,18.841,0,0,0,32.576,62.25ZM41.967,51.8l-.288-.488c-.621.5-1.244,1.031-1.828,1.581a21.129,21.129,0,0,0-1.608,1.679l.333.336c.5-.532,1.045-1.065,1.618-1.588S41.37,52.276,41.967,51.8Zm8.679-14.282a.819.819,0,0,1,.17-.187l3.059-4.44a.867.867,0,0,1,.288-.278L61.6,28.284a.843.843,0,0,1,.848-.007l7.455,4.335a.928.928,0,0,1,.288.278l3.059,4.44a.91.91,0,0,1,.17.187l.777,1.163.858-1.387-3.307-5.487-9.716-5.4-9.718,5.4-3.307,5.487.854,1.387.194-.285a.9.9,0,0,1,.074-.115Zm8.988-1.272h1.7V34.555a2.686,2.686,0,0,0-1.058.647A2.63,2.63,0,0,0,59.634,36.244Zm3.378,0h1.706a2.674,2.674,0,0,0-1.7-1.688v1.688Zm1.706,1.675H63.011v1.693a2.686,2.686,0,0,0,1.058-.647,2.639,2.639,0,0,0,.648-1.046Zm-3.381,0h-1.7a2.627,2.627,0,0,0,.645,1.045,2.667,2.667,0,0,0,1.058.647Zm.838-5.172A4.348,4.348,0,1,1,59.1,34.015,4.338,4.338,0,0,1,62.174,32.747Z" transform="translate(0 0)"/>
  </g>
</svg>
