<svg xmlns="http://www.w3.org/2000/svg" width="129.063" height="84.824" viewBox="0 0 129.063 84.824">
  <g id="Grupo_1201553" data-name="Grupo 1201553" transform="translate(-787.781 -2548.535)">
    <g id="Rectángulo_410589" data-name="Rectángulo 410589" transform="translate(787.781 2575.623)" fill="#ffc94a" stroke="#dfab32" stroke-width="1">
      <rect width="129.063" height="43.021" rx="8" stroke="none"/>
      <rect x="0.5" y="0.5" width="128.063" height="42.021" rx="7.5" fill="none"/>
    </g>
    <g id="livestock_3397536" transform="translate(809.129 2547.535)">
      <g id="Grupo_1202051" data-name="Grupo 1202051" transform="translate(2.416 2.368)">
        <g id="Grupo_1202027" data-name="Grupo 1202027" transform="translate(73.879 65.67)">
          <path id="Trazado_1275340" data-name="Trazado 1275340" d="M64.209,50.52v15.9H56V50h8.209Z" transform="translate(-56 -50)" fill="#dfb28b"/>
        </g>
        <g id="Grupo_1202028" data-name="Grupo 1202028" transform="translate(60.197 65.67)">
          <path id="Trazado_1275341" data-name="Trazado 1275341" d="M54.209,50V66.417H46V50h8.209Z" transform="translate(-46 -50)" fill="#dfb28b"/>
        </g>
        <g id="Grupo_1202029" data-name="Grupo 1202029" transform="translate(46.516 65.67)">
          <path id="Trazado_1275342" data-name="Trazado 1275342" d="M36,50h8.209V66.417H36Z" transform="translate(-36 -50)" fill="#dfb28b"/>
        </g>
        <g id="Grupo_1202030" data-name="Grupo 1202030" transform="translate(32.835 65.67)">
          <path id="Trazado_1275343" data-name="Trazado 1275343" d="M26,50h8.209V66.417H26Z" transform="translate(-26 -50)" fill="#dfb28b"/>
        </g>
        <g id="Grupo_1202031" data-name="Grupo 1202031" transform="translate(19.154 65.67)">
          <path id="Trazado_1275344" data-name="Trazado 1275344" d="M16,50h8.209V66.417H16Z" transform="translate(-16 -50)" fill="#dfb28b"/>
        </g>
        <g id="Grupo_1202032" data-name="Grupo 1202032" transform="translate(5.472 65.67)">
          <path id="Trazado_1275345" data-name="Trazado 1275345" d="M8.736,50h5.472V66.417H6V50Z" transform="translate(-6 -50)" fill="#dfb28b"/>
        </g>
        <g id="Grupo_1202033" data-name="Grupo 1202033" transform="translate(68.406 65.67)">
          <path id="Trazado_1275346" data-name="Trazado 1275346" d="M57.472,58.209v8.209H52V50h5.472Z" transform="translate(-52 -50)" fill="#d3a06c"/>
        </g>
        <g id="Grupo_1202034" data-name="Grupo 1202034" transform="translate(54.725 65.67)">
          <path id="Trazado_1275347" data-name="Trazado 1275347" d="M47.472,58.209v8.209H42V50h5.472Z" transform="translate(-42 -50)" fill="#d3a06c"/>
        </g>
        <g id="Grupo_1202035" data-name="Grupo 1202035" transform="translate(41.044 65.67)">
          <path id="Trazado_1275348" data-name="Trazado 1275348" d="M37.472,58.209v8.209H32V50h5.472Z" transform="translate(-32 -50)" fill="#d3a06c"/>
        </g>
        <g id="Grupo_1202036" data-name="Grupo 1202036" transform="translate(27.362 65.67)">
          <path id="Trazado_1275349" data-name="Trazado 1275349" d="M27.472,58.209v8.209H22V50h5.472Z" transform="translate(-22 -50)" fill="#d3a06c"/>
        </g>
        <g id="Grupo_1202037" data-name="Grupo 1202037" transform="translate(13.681 65.67)">
          <path id="Trazado_1275350" data-name="Trazado 1275350" d="M17.472,58.209v8.209H12V50h5.472Z" transform="translate(-12 -50)" fill="#d3a06c"/>
        </g>
        <g id="Grupo_1202038" data-name="Grupo 1202038" transform="translate(0 65.67)">
          <path id="Trazado_1275351" data-name="Trazado 1275351" d="M7.472,58.209v8.209H2V50H7.472Z" transform="translate(-2 -50)" fill="#d3a06c"/>
        </g>
        <g id="Grupo_1202039" data-name="Grupo 1202039" transform="translate(0 0)">
          <path id="Trazado_1275352" data-name="Trazado 1275352" d="M27,57a8.59,8.59,0,0,1-1.738-3.01L24.15,50.678A6.978,6.978,0,0,0,22.727,48.2a4.1,4.1,0,0,0-1.573-7.894H21L19.786,29.362H17.829a2.868,2.868,0,0,0-1.45.41L6.1,36.2,2,29.362,7.281,17.911a13.867,13.867,0,0,1,2.736-3.927,13.508,13.508,0,0,1,1.231-1.094,13.858,13.858,0,0,1,5.8-2.682L19.786,2l1.2,1.2a9.9,9.9,0,0,1,2.9,7,15.872,15.872,0,0,1,7.675,8.441L36.2,30.717a6.753,6.753,0,0,1-2.326,3.119l-2.052,1.546a2.754,2.754,0,0,0-1.094,2.189v2.736a5.472,5.472,0,0,0,9.85,3.283l1.437-1.915a5.5,5.5,0,0,1,2.654-1.915l1.45-.479a8.211,8.211,0,0,1,2.394,5.8v.027a8.183,8.183,0,0,0,1.861,5.213l-1.861.93v1.04a14.023,14.023,0,0,0,4.1,9.905l11.027-1.7a7.92,7.92,0,0,0,3.174-1.218,12.871,12.871,0,0,1,.848,4.611V67.67H48.516a9.907,9.907,0,0,1-5.472-8.852v-.725A6.841,6.841,0,0,0,29.5,56.725h-1.04A4.033,4.033,0,0,0,27,57Z" transform="translate(-2 -2)" fill="#cf9e76"/>
        </g>
        <g id="Grupo_1202040" data-name="Grupo 1202040" transform="translate(17.786 0)">
          <path id="Trazado_1275353" data-name="Trazado 1275353" d="M31.417,30.717,26.78,18.65A15.872,15.872,0,0,0,19.1,10.209a9.9,9.9,0,0,0-2.9-7L15,2A19.525,19.525,0,0,1,25.384,5.037a19.294,19.294,0,0,1,7.155,8.154l3.913,8.387a6.841,6.841,0,0,0-4.419,5.568l-.26,2.066a6.9,6.9,0,0,1-.356,1.5Z" transform="translate(-15 -2)" fill="#b27946"/>
        </g>
        <g id="Grupo_1202041" data-name="Grupo 1202041" transform="translate(4.104 0)">
          <path id="Trazado_1275354" data-name="Trazado 1275354" d="M18.681,2l-2.736,8.209a13.858,13.858,0,0,0-5.8,2.682,13.508,13.508,0,0,0-1.231,1.094L5,7.472,6.532,6.255A19.372,19.372,0,0,1,18.64,2Z" transform="translate(-5 -2)" fill="#b27946"/>
        </g>
        <g id="Grupo_1202042" data-name="Grupo 1202042" transform="translate(28.731 8.209)">
          <path id="Trazado_1275355" data-name="Trazado 1275355" d="M47.175,24.582A10.946,10.946,0,0,0,56.56,29.89H77.725V46.307H72.088A5.455,5.455,0,0,1,66.9,42.559L66.712,42a5.706,5.706,0,0,0-4.228-3.776H62.47a4.021,4.021,0,0,0-1-1.655A4.091,4.091,0,0,0,54.713,38.1H52.264a5.468,5.468,0,0,0-5.4,4.57l-.369,2.271a2.776,2.776,0,0,1-1.478,2l-2.367,1.177A8.183,8.183,0,0,1,40.786,42.9v-.027a8.211,8.211,0,0,0-2.394-5.8l-1.45.479a5.5,5.5,0,0,0-2.654,1.915L32.85,41.382A5.471,5.471,0,0,1,23,38.1V35.362a2.754,2.754,0,0,1,1.094-2.189l2.052-1.546a6.753,6.753,0,0,0,2.326-3.119,6.9,6.9,0,0,0,.356-1.5l.26-2.066a6.844,6.844,0,0,1,6.786-5.992h.807l1.888-2.517a11.1,11.1,0,0,0,2.216-6.649A1.775,1.775,0,0,1,42.564,8a1.794,1.794,0,0,1,1.491.794,13.161,13.161,0,0,1,2.2,7.292v2.859h-1.04a4.944,4.944,0,0,0-4.433,2.736,2.756,2.756,0,0,0,2.736,2.736h.246a4.785,4.785,0,0,0,2.777-.876l.014.014Z" transform="translate(-23 -8)" fill="#ccd1d9"/>
        </g>
        <g id="Grupo_1202043" data-name="Grupo 1202043" transform="translate(46.516 19.154)">
          <path id="Trazado_1275356" data-name="Trazado 1275356" d="M44.209,16l-.424,1.724A4.932,4.932,0,0,1,41.76,20.6a4.785,4.785,0,0,1-2.777.876h-.246A2.756,2.756,0,0,1,36,18.736,4.944,4.944,0,0,1,40.433,16h3.776Z" transform="translate(-36 -16)" fill="#aab2bd"/>
        </g>
        <g id="Grupo_1202044" data-name="Grupo 1202044" transform="translate(27.362 49.252)">
          <path id="Trazado_1275357" data-name="Trazado 1275357" d="M35.681,45.566a9.907,9.907,0,0,0,5.472,8.852H27.472a4.392,4.392,0,0,0-2.449-3.954L22,48.945v-4.1a6.447,6.447,0,0,1,.137-1.368,6.84,6.84,0,0,1,13.544,1.368Z" transform="translate(-22 -38)" fill="#e6e9ed"/>
        </g>
        <g id="Grupo_1202045" data-name="Grupo 1202045" transform="translate(8.209 43.78)">
          <path id="Trazado_1275358" data-name="Trazado 1275358" d="M13.472,55.89H8V41.155a6.912,6.912,0,0,1,.205-1.683A7.155,7.155,0,0,1,10.64,35.6,7.044,7.044,0,0,1,15.155,34a7.116,7.116,0,0,1,4.186,1.354,7.275,7.275,0,0,1,1.177,1.067A6.978,6.978,0,0,1,21.941,38.9l1.108,3.311a8.59,8.59,0,0,0,1.738,3.01,4.185,4.185,0,0,0-2.517,2.832l-.588,2.367h5.472l3.024,1.519a4.392,4.392,0,0,1,2.449,3.954H13.472Z" transform="translate(-8 -34)" fill="#ffeaa7"/>
        </g>
        <g id="Grupo_1202046" data-name="Grupo 1202046" transform="translate(21.89 54.725)">
          <path id="Trazado_1275359" data-name="Trazado 1275359" d="M18.588,45.106a4.185,4.185,0,0,1,2.517-2.832A4.033,4.033,0,0,1,22.57,42h1.04a6.447,6.447,0,0,0-.137,1.368v4.1H18Z" transform="translate(-18 -42)" fill="#ff826e"/>
        </g>
        <g id="Grupo_1202047" data-name="Grupo 1202047" transform="translate(9.577 38.307)">
          <path id="Trazado_1275360" data-name="Trazado 1275360" d="M18.577,30a4.1,4.1,0,0,1,1.573,7.894,7.275,7.275,0,0,0-1.177-1.067,7.116,7.116,0,0,0-4.186-1.354,7.044,7.044,0,0,0-4.515,1.6,4.1,4.1,0,0,1,5.568-6.006A4.052,4.052,0,0,1,18.426,30Z" transform="translate(-9 -30)" fill="#ff826e"/>
        </g>
        <g id="Grupo_1202048" data-name="Grupo 1202048" transform="translate(2.736 49.252)">
          <path id="Trazado_1275361" data-name="Trazado 1275361" d="M9.678,38a6.912,6.912,0,0,0-.205,1.683v3.79H4l.369-1.491A5.267,5.267,0,0,1,9.472,38Z" transform="translate(-4 -38)" fill="#ff826e"/>
        </g>
        <g id="Grupo_1202049" data-name="Grupo 1202049" transform="translate(46.516 38.307)">
          <path id="Trazado_1275362" data-name="Trazado 1275362" d="M42.074,34.57a5.468,5.468,0,0,1,5.4-4.57h2.449a3.792,3.792,0,0,0-.246,1.368v1.9a4.1,4.1,0,0,0,1.833,3.42l2.271,1.519,2.271-1.519a4.1,4.1,0,0,0,1.833-3.42v-1.9a3.714,3.714,0,0,0-.205-1.245H57.7A5.706,5.706,0,0,1,61.926,33.9l.192.561A5.455,5.455,0,0,0,67.3,38.209h5.637V57.362H55.154V53.586a12.871,12.871,0,0,0-.848-4.611,7.92,7.92,0,0,1-3.174,1.218L40.1,51.89A14.023,14.023,0,0,1,36,41.985v-1.04l1.861-.93,2.367-1.177a2.776,2.776,0,0,0,1.478-2Z" transform="translate(-36 -30)" fill="#ecc19c"/>
        </g>
        <g id="Grupo_1202050" data-name="Grupo 1202050" transform="translate(60.197 35.571)">
          <path id="Trazado_1275363" data-name="Trazado 1275363" d="M54.209,32.1v1.9a4.1,4.1,0,0,1-1.833,3.42L50.1,38.945l-2.271-1.519A4.1,4.1,0,0,1,46,34.006V32.1a3.792,3.792,0,0,1,.246-1.368A4.086,4.086,0,0,1,54,30.859,3.714,3.714,0,0,1,54.209,32.1Z" transform="translate(-46 -28)" fill="#dfb28b"/>
        </g>
      </g>
      <g id="Grupo_1202052" data-name="Grupo 1202052" transform="translate(0.871 1)">
        <circle id="Elipse_12361" data-name="Elipse 12361" cx="1.368" cy="1.368" r="1.368" transform="translate(57.638 46.516)"/>
        <circle id="Elipse_12362" data-name="Elipse 12362" cx="1.368" cy="1.368" r="1.368" transform="translate(41.22 27.362)"/>
        <circle id="Elipse_12363" data-name="Elipse 12363" cx="1.368" cy="1.368" r="1.368" transform="translate(13.858 16.417)"/>
        <circle id="Elipse_12364" data-name="Elipse 12364" cx="1.368" cy="1.368" r="1.368" transform="translate(33.011 54.725)"/>
        <circle id="Elipse_12365" data-name="Elipse 12365" cx="1.368" cy="1.368" r="1.368" transform="translate(13.858 49.252)"/>
        <path id="Trazado_1275364" data-name="Trazado 1275364" d="M11,43h2.736v5.472H11Z" transform="translate(2.858 14.461)"/>
        <path id="Trazado_1275365" data-name="Trazado 1275365" d="M51.907,25.626h-.239v2.736h.239a6.287,6.287,0,0,0,2.285-.441A12.374,12.374,0,0,0,64.7,33.835H85.871V31.1H64.7a9.624,9.624,0,0,1-8.211-4.649l-.025-.041a6.285,6.285,0,0,0,1.568-2.832l.856-3.423H55.772V18.66a14.473,14.473,0,0,0-2.437-8.049,3.151,3.151,0,0,0-5.772,1.748,9.759,9.759,0,0,1-1.94,5.821l-1.48,1.973h-.118a8.137,8.137,0,0,0-1.621.171l-3.427-7.343A20.76,20.76,0,0,0,7.194,5.55L4.732,7.519,8.743,14.2a14.933,14.933,0,0,0-2.283,3.5L.871,29.814,6.064,38.47l11.461-7.162a1.358,1.358,0,0,1,.725-.208h.726l.943,8.48a5.473,5.473,0,0,0-1.086.475,5.4,5.4,0,0,0-2.736-.747,5.478,5.478,0,0,0-5.472,5.472,5.407,5.407,0,0,0,.82,2.843,8.511,8.511,0,0,0-1.638,2.7A6.6,6.6,0,0,0,4.2,55.271l-.8,3.19H9.256V66.67H1.047V85.824H85.871V66.67H69.454V64.257a14.254,14.254,0,0,0-.606-4.092,9.3,9.3,0,0,0,3.342-7.176H69.454a6.57,6.57,0,0,1-5.6,6.529L53.534,61.1A12.557,12.557,0,0,1,50.3,52.656v-.19l3.47-1.735a4.119,4.119,0,0,0,2.214-3l.376-2.262a4.092,4.092,0,0,1,4.05-3.43h.836v1.909a5.464,5.464,0,0,0,2.437,4.553l3.036,2.023,3.036-2.023a5.465,5.465,0,0,0,2.437-4.553v-.906A4.319,4.319,0,0,1,73.558,45l.192.573a6.832,6.832,0,0,0,6.489,4.676h5.633V47.516H80.239a4.1,4.1,0,0,1-3.894-2.806l-.192-.573a7.084,7.084,0,0,0-4.535-4.478,5.429,5.429,0,0,0-9.612-.352h-1.6a6.818,6.818,0,0,0-6.748,5.716l-.376,2.26a1.37,1.37,0,0,1-.739,1l-1.3.651a6.915,6.915,0,0,1-.944-3.49,9.512,9.512,0,0,0-1.51-5.156,7.035,7.035,0,0,0,4.247-6.452H50.3a4.321,4.321,0,0,1-2.959,4.1l-2.692.9a6.8,6.8,0,0,0-3.308,2.385L39.9,43.137a4.127,4.127,0,0,1-3.285,1.643,4.037,4.037,0,0,1-1.758-.412l4.093-4.093L37.02,38.34l-4.093,4.093a4.037,4.037,0,0,1-.412-1.758V37.939a1.373,1.373,0,0,1,.547-1.094L35.116,35.3a8.253,8.253,0,0,0,3.221-5.549l.259-2.071a5.48,5.48,0,0,1,5.43-4.794h1.486l2.3-3.067a12.391,12.391,0,0,0,1.112-1.79L53.036,19.6v.575a6.273,6.273,0,0,0-5.329,3.47l2.448,1.224a3.564,3.564,0,0,1,3.2-1.981h2.029l-.005.023a3.576,3.576,0,0,1-3.475,2.713ZM63.981,42.044a2.736,2.736,0,1,1,5.472,0v1.909a2.731,2.731,0,0,1-1.219,2.277L66.717,47.24,65.2,46.227a2.728,2.728,0,0,1-1.219-2.275ZM33.252,18.532a17.157,17.157,0,0,0-1.242-2.561l3.792-3.16c.248.432.483.873.7,1.328l1.461,3.132L33.6,19.449Zm1-7.993-3.828,3.189a17.088,17.088,0,0,0-2.677-2.583L30.3,6.886a18.132,18.132,0,0,1,3.948,3.654ZM16.41,9.415l-.042.014L14.058,4.812a18.045,18.045,0,0,1,4.206-.962ZM25.6,9.4a11.154,11.154,0,0,0-1.988-5.319A18.069,18.069,0,0,1,27.935,5.52ZM8.9,7.686A18.028,18.028,0,0,1,11.56,5.931l2.225,4.449a15.123,15.123,0,0,0-3.024,1.87L8.308,8.162ZM16.1,42.044a2.707,2.707,0,0,1,1.821.713l.915.825.915-.824a2.7,2.7,0,0,1,1.821-.714,2.734,2.734,0,0,1,1.765,4.824,8.447,8.447,0,0,0-9.74-.981,2.736,2.736,0,0,1,2.5-3.843ZM6.911,55.725a3.873,3.873,0,0,1,2.349-2.48c0,.019,0,.04,0,.059v2.422ZM11.992,53.3A5.787,5.787,0,0,1,23.27,51.474l1.105,3.316a10.012,10.012,0,0,0,1.043,2.175,5.456,5.456,0,0,0-1.85,2.9l-1.015,4.063h6.9L32.19,65.3a3.022,3.022,0,0,1,1.343,1.368H11.992ZM26.058,61.2l.167-.664A2.73,2.73,0,0,1,28.411,58.5v2.7Zm18.9,5.472H36.446a5.752,5.752,0,0,0-3.03-3.816l-2.27-1.134V58.461a5.472,5.472,0,1,1,10.945,0v.722A11.193,11.193,0,0,0,44.955,66.67ZM74.926,83.087H72.19V69.406h2.736ZM63.981,77.615h5.472v5.472H63.981Zm5.472-2.736H63.981V69.406h5.472Zm-8.209,8.209H58.509V69.406h2.736ZM14.729,74.879H9.256V69.406h5.472ZM9.256,77.615h5.472v5.472H9.256Zm8.209-8.209H20.2V83.087H17.465ZM28.41,74.879H22.937V69.406H28.41Zm-5.472,2.736H28.41v5.472H22.937Zm8.209-8.209h2.736V83.087H31.146Zm10.945,5.472H36.619V69.406h5.472Zm-5.472,2.736h5.472v5.472H36.619Zm8.209-8.209h2.736V83.087H44.827ZM50.3,77.615h5.472v5.472H50.3Zm5.472-2.736H50.3V69.406h5.472ZM3.784,69.406H6.52V83.087H3.784ZM77.662,83.087V77.615h5.472v5.472Zm5.472-8.209H77.662V69.406h5.472ZM33.475,33.115l-2.056,1.541a4.126,4.126,0,0,0-1.64,3.283v2.736a6.841,6.841,0,0,0,12.313,4.1l1.438-1.917a4.071,4.071,0,0,1,1.985-1.43l.569-.19a6.809,6.809,0,0,1,1.48,4.241,9.609,9.609,0,0,0,1.224,4.679l-1.224.612v1.881a15.28,15.28,0,0,0,4.505,10.877l.49.49,11.71-1.8a9.4,9.4,0,0,0,2.134-.6,11.554,11.554,0,0,1,.315,2.632V66.67H49.3a8.472,8.472,0,0,1-4.471-7.486v-.722a8.2,8.2,0,0,0-15.939-2.736h-.011a5.638,5.638,0,0,0-.917.077,7.218,7.218,0,0,1-.991-1.878l-1.105-3.316a8.461,8.461,0,0,0-.774-1.64,5.47,5.47,0,0,0-2.437-9.549l-.928-8.348a7.347,7.347,0,0,0,6.614-5.01l-2.6-.866a4.631,4.631,0,0,1-4.4,3.17h-3.1a4.1,4.1,0,0,0-2.175.624l-9.1,5.686L3.962,29.647,8.944,18.853a12.39,12.39,0,0,1,8.79-6.934l.778-.156,2.278-6.835a8.48,8.48,0,0,1,2.147,5.649v.845l.757.378a14.378,14.378,0,0,1,7,7.713L35.127,31.03a5.484,5.484,0,0,1-1.653,2.085Zm2.683-7.028-1.566-4.074,4.526-2.263.728,1.56A8.214,8.214,0,0,0,36.158,26.087ZM50.3,12.36a.43.43,0,0,1,.759-.23A11.731,11.731,0,0,1,52.835,16.6l-2.94-1.122a12.451,12.451,0,0,0,.4-3.115Z" transform="translate(-0.871 -1)"/>
      </g>
    </g>
  </g>
</svg>
