<svg xmlns="http://www.w3.org/2000/svg" xmlns:xlink="http://www.w3.org/1999/xlink" width="129.063" height="85" viewBox="0 0 129.063 85">
  <defs>
    <clipPath id="clip-path">
      <path id="path5597" d="M0-682.665H85v85H0Z" transform="translate(0 682.665)"/>
    </clipPath>
  </defs>
  <g id="Grupo_1201554" data-name="Grupo 1201554" transform="translate(-787.781 -2549.432)">
    <g id="Rectángulo_410589" data-name="Rectángulo 410589" transform="translate(787.781 2575.623)" fill="#ffc94a" stroke="#dfab32" stroke-width="1">
      <rect width="129.063" height="43.021" rx="8" stroke="none"/>
      <rect x="0.5" y="0.5" width="128.063" height="42.021" rx="7.5" fill="none"/>
    </g>
    <g id="g5553" transform="translate(808.616 3232.097)">
      <path id="path5555" d="M10-557.729H92.51v5.375H10Z" transform="translate(-8.755 -109.38)" fill="#fea95c"/>
      <path id="path5557" d="M10-362.915H92.51v5.375H10Z" transform="translate(-8.755 -279.937)" fill="#fea95c"/>
      <path id="path5559" d="M10-168.1H92.51v5.375H10Z" transform="translate(-8.755 -450.495)" fill="#fea95c"/>
      <g id="g5561" transform="translate(5.703 -681.42)">
        <path id="path5563" d="M-82.3-580.155H-94v-76.879l5.852-5.631,5.852,5.631Z" transform="translate(94.004 662.665)" fill="#fee45a"/>
      </g>
      <g id="g5565" transform="translate(8.235 -681.42)">
        <path id="path5567" d="M-23.346,0l-3.32,3.195,2.532,2.436V82.51h6.641V5.631Z" transform="translate(26.667)" fill="#fedf30"/>
      </g>
      <g id="g5569" transform="translate(26.333 -681.42)">
        <path id="path5571" d="M-82.3-580.155H-94v-76.879l5.852-5.631,5.852,5.631Z" transform="translate(94.004 662.665)" fill="#8ac9fe"/>
      </g>
      <g id="g5573" transform="translate(28.865 -681.42)">
        <path id="path5575" d="M-23.346,0l-3.32,3.195,2.532,2.436V82.51h6.641V5.631Z" transform="translate(26.667)" fill="#60b7ff"/>
      </g>
      <g id="g5577" transform="translate(46.963 -681.42)">
        <path id="path5579" d="M-82.3-580.155H-94v-76.879l5.852-5.631,5.852,5.631Z" transform="translate(94.004 662.665)" fill="#f6a7d2"/>
      </g>
      <g id="g5581" transform="translate(49.495 -681.42)">
        <path id="path5583" d="M-23.346,0l-3.32,3.195,2.532,2.436V82.51h6.641V5.631Z" transform="translate(26.667)" fill="#f28cc4"/>
      </g>
      <g id="g5585" transform="translate(67.592 -681.42)">
        <path id="path5587" d="M-82.3-580.155H-94v-76.879l5.852-5.631,5.852,5.631Z" transform="translate(94.004 662.665)" fill="#bbec6c"/>
      </g>
      <g id="g5589" transform="translate(70.125 -681.42)">
        <path id="path5591" d="M-23.346,0l-3.32,3.195,2.532,2.436V82.51h6.641V5.631Z" transform="translate(26.667)" fill="#a2e62e"/>
      </g>
      <g id="g5593" transform="translate(0 -682.665)">
        <g id="g5595" clip-path="url(#clip-path)">
          <g id="g5601" transform="translate(1.245 20.931)">
            <path id="path5603" d="M-31.345,0H-35.8" transform="translate(35.803)" fill="none" stroke="#000" stroke-linecap="round" stroke-linejoin="round" stroke-miterlimit="10" stroke-width="2"/>
          </g>
        </g>
      </g>
      <g id="g5605" transform="translate(17.407 -661.734)">
        <path id="path5607" d="M-62.757,0h-8.925" transform="translate(71.682)" fill="none" stroke="#000" stroke-linecap="round" stroke-linejoin="round" stroke-miterlimit="10" stroke-width="2"/>
      </g>
      <g id="g5609" transform="translate(38.037 -661.734)">
        <path id="path5611" d="M-62.757,0h-8.925" transform="translate(71.682)" fill="none" stroke="#000" stroke-linecap="round" stroke-linejoin="round" stroke-miterlimit="10" stroke-width="2"/>
      </g>
      <g id="g5613" transform="translate(58.667 -661.734)">
        <path id="path5615" d="M-62.757,0h-8.925" transform="translate(71.682)" fill="none" stroke="#000" stroke-linecap="round" stroke-linejoin="round" stroke-miterlimit="10" stroke-width="2"/>
      </g>
      <g id="g5617" transform="translate(0 -682.665)">
        <g id="g5619" clip-path="url(#clip-path)">
          <g id="g5625" transform="translate(79.297 20.931)">
            <path id="path5627" d="M-31.345,0H-35.8" transform="translate(35.803)" fill="none" stroke="#000" stroke-linecap="round" stroke-linejoin="round" stroke-miterlimit="10" stroke-width="2"/>
          </g>
          <g id="g5629" transform="translate(79.297 15.556)">
            <path id="path5631" d="M0,0H4.458" fill="none" stroke="#000" stroke-linecap="round" stroke-linejoin="round" stroke-miterlimit="10" stroke-width="2"/>
          </g>
        </g>
      </g>
      <g id="g5633" transform="translate(58.667 -667.109)">
        <path id="path5635" d="M0,0H8.925" fill="none" stroke="#000" stroke-linecap="round" stroke-linejoin="round" stroke-miterlimit="10" stroke-width="2"/>
      </g>
      <g id="g5637" transform="translate(38.037 -667.109)">
        <path id="path5639" d="M0,0H8.925" fill="none" stroke="#000" stroke-linecap="round" stroke-linejoin="round" stroke-miterlimit="10" stroke-width="2"/>
      </g>
      <g id="g5641" transform="translate(17.407 -667.109)">
        <path id="path5643" d="M0,0H8.925" fill="none" stroke="#000" stroke-linecap="round" stroke-linejoin="round" stroke-miterlimit="10" stroke-width="2"/>
      </g>
      <g id="g5645" transform="translate(0 -682.665)">
        <g id="g5647" clip-path="url(#clip-path)">
          <g id="g5653" transform="translate(1.245 15.556)">
            <path id="path5655" d="M0,0H4.458" fill="none" stroke="#000" stroke-linecap="round" stroke-linejoin="round" stroke-miterlimit="10" stroke-width="2"/>
          </g>
          <g id="g5657" transform="translate(79.297 39.813)">
            <path id="path5659" d="M0,0H4.458" fill="none" stroke="#000" stroke-linecap="round" stroke-linejoin="round" stroke-miterlimit="10" stroke-width="2"/>
          </g>
        </g>
      </g>
      <g id="g5661" transform="translate(58.667 -642.852)">
        <path id="path5663" d="M0,0H8.925" fill="none" stroke="#000" stroke-linecap="round" stroke-linejoin="round" stroke-miterlimit="10" stroke-width="2"/>
      </g>
      <g id="g5665" transform="translate(38.037 -642.852)">
        <path id="path5667" d="M0,0H8.925" fill="none" stroke="#000" stroke-linecap="round" stroke-linejoin="round" stroke-miterlimit="10" stroke-width="2"/>
      </g>
      <g id="g5669" transform="translate(17.407 -642.852)">
        <path id="path5671" d="M0,0H8.925" fill="none" stroke="#000" stroke-linecap="round" stroke-linejoin="round" stroke-miterlimit="10" stroke-width="2"/>
      </g>
      <g id="g5673" transform="translate(0 -682.665)">
        <g id="g5675" clip-path="url(#clip-path)">
          <g id="g5681" transform="translate(1.245 39.813)">
            <path id="path5683" d="M0,0H4.458" fill="none" stroke="#000" stroke-linecap="round" stroke-linejoin="round" stroke-miterlimit="10" stroke-width="2"/>
          </g>
          <g id="g5685" transform="translate(1.245 45.187)">
            <path id="path5687" d="M-31.345,0H-35.8" transform="translate(35.803)" fill="none" stroke="#000" stroke-linecap="round" stroke-linejoin="round" stroke-miterlimit="10" stroke-width="2"/>
          </g>
        </g>
      </g>
      <g id="g5689" transform="translate(17.407 -637.478)">
        <path id="path5691" d="M-62.757,0h-8.925" transform="translate(71.682)" fill="none" stroke="#000" stroke-linecap="round" stroke-linejoin="round" stroke-miterlimit="10" stroke-width="2"/>
      </g>
      <g id="g5693" transform="translate(38.037 -637.478)">
        <path id="path5695" d="M-62.757,0h-8.925" transform="translate(71.682)" fill="none" stroke="#000" stroke-linecap="round" stroke-linejoin="round" stroke-miterlimit="10" stroke-width="2"/>
      </g>
      <g id="g5697" transform="translate(58.667 -637.478)">
        <path id="path5699" d="M-62.757,0h-8.925" transform="translate(71.682)" fill="none" stroke="#000" stroke-linecap="round" stroke-linejoin="round" stroke-miterlimit="10" stroke-width="2"/>
      </g>
      <g id="g5701" transform="translate(0 -682.665)">
        <g id="g5703" clip-path="url(#clip-path)">
          <g id="g5709" transform="translate(79.297 45.187)">
            <path id="path5711" d="M-31.345,0H-35.8" transform="translate(35.803)" fill="none" stroke="#000" stroke-linecap="round" stroke-linejoin="round" stroke-miterlimit="10" stroke-width="2"/>
          </g>
          <g id="g5713" transform="translate(1.245 69.444)">
            <path id="path5715" d="M-31.345,0H-35.8" transform="translate(35.803)" fill="none" stroke="#000" stroke-linecap="round" stroke-linejoin="round" stroke-miterlimit="10" stroke-width="2"/>
          </g>
        </g>
      </g>
      <g id="g5717" transform="translate(17.407 -613.221)">
        <path id="path5719" d="M-62.757,0h-8.925" transform="translate(71.682)" fill="none" stroke="#000" stroke-linecap="round" stroke-linejoin="round" stroke-miterlimit="10" stroke-width="2"/>
      </g>
      <g id="g5721" transform="translate(38.037 -613.221)">
        <path id="path5723" d="M-62.757,0h-8.925" transform="translate(71.682)" fill="none" stroke="#000" stroke-linecap="round" stroke-linejoin="round" stroke-miterlimit="10" stroke-width="2"/>
      </g>
      <g id="g5725" transform="translate(58.667 -613.221)">
        <path id="path5727" d="M-62.757,0h-8.925" transform="translate(71.682)" fill="none" stroke="#000" stroke-linecap="round" stroke-linejoin="round" stroke-miterlimit="10" stroke-width="2"/>
      </g>
      <g id="g5729" transform="translate(0 -682.665)">
        <g id="g5731" clip-path="url(#clip-path)">
          <g id="g5737" transform="translate(79.297 69.444)">
            <path id="path5739" d="M-31.345,0H-35.8" transform="translate(35.803)" fill="none" stroke="#000" stroke-linecap="round" stroke-linejoin="round" stroke-miterlimit="10" stroke-width="2"/>
          </g>
          <g id="g5741" transform="translate(79.297 64.069)">
            <path id="path5743" d="M0,0H4.458" fill="none" stroke="#000" stroke-linecap="round" stroke-linejoin="round" stroke-miterlimit="10" stroke-width="2"/>
          </g>
        </g>
      </g>
      <g id="g5745" transform="translate(58.667 -618.596)">
        <path id="path5747" d="M0,0H8.925" fill="none" stroke="#000" stroke-linecap="round" stroke-linejoin="round" stroke-miterlimit="10" stroke-width="2"/>
      </g>
      <g id="g5749" transform="translate(38.037 -618.596)">
        <path id="path5751" d="M0,0H8.925" fill="none" stroke="#000" stroke-linecap="round" stroke-linejoin="round" stroke-miterlimit="10" stroke-width="2"/>
      </g>
      <g id="g5753" transform="translate(17.407 -618.596)">
        <path id="path5755" d="M0,0H8.925" fill="none" stroke="#000" stroke-linecap="round" stroke-linejoin="round" stroke-miterlimit="10" stroke-width="2"/>
      </g>
      <g id="g5757" transform="translate(0 -682.665)">
        <g id="g5759" clip-path="url(#clip-path)">
          <g id="g5765" transform="translate(1.245 64.069)">
            <path id="path5767" d="M0,0H4.458" fill="none" stroke="#000" stroke-linecap="round" stroke-linejoin="round" stroke-miterlimit="10" stroke-width="2"/>
          </g>
          <g id="g5769" transform="translate(1.245 83.755)">
            <path id="path5771" d="M0,0H82.51" fill="none" stroke="#000" stroke-linecap="round" stroke-linejoin="round" stroke-miterlimit="10" stroke-width="2"/>
          </g>
          <g id="g5773" transform="translate(5.703 1.245)">
            <path id="path5775" d="M0-174.365v-19.167l5.852-5.631,5.852,5.631v76.879H0v-51.464" transform="translate(0 199.164)" fill="none" stroke="#000" stroke-linecap="round" stroke-linejoin="round" stroke-miterlimit="10" stroke-width="2"/>
          </g>
          <g id="g5777" transform="translate(26.333 1.245)">
            <path id="path5779" d="M-82.3-580.155H-94v-76.879l5.852-5.631,5.852,5.631Z" transform="translate(94.004 662.665)" fill="none" stroke="#000" stroke-linecap="round" stroke-linejoin="round" stroke-miterlimit="10" stroke-width="2"/>
          </g>
          <g id="g5781" transform="translate(46.963 1.245)">
            <path id="path5783" d="M-82.3-401.988v25.339H-94v-76.879l5.852-5.631,5.852,5.631v45.15" transform="translate(94.004 459.159)" fill="none" stroke="#000" stroke-linecap="round" stroke-linejoin="round" stroke-miterlimit="10" stroke-width="2"/>
          </g>
          <g id="g5785" transform="translate(67.592 1.245)">
            <path id="path5787" d="M-82.3-580.155H-94v-76.879l5.852-5.631,5.852,5.631Z" transform="translate(94.004 662.665)" fill="none" stroke="#000" stroke-linecap="round" stroke-linejoin="round" stroke-miterlimit="10" stroke-width="2"/>
          </g>
          <g id="g5789" transform="translate(10.352 17.183)">
            <path id="path5791" d="M-8.457-17.51a1.246,1.246,0,0,0,0-2.49,1.246,1.246,0,0,0,0,2.49" transform="translate(9.659 20)"/>
          </g>
          <g id="g5793" transform="translate(10.352 41.255)">
            <path id="path5795" d="M-8.457-17.51a1.246,1.246,0,0,0,0-2.49,1.246,1.246,0,0,0,0,2.49" transform="translate(9.659 20)"/>
          </g>
          <g id="g5797" transform="translate(10.352 65.327)">
            <path id="path5799" d="M-8.457-17.51a1.246,1.246,0,0,0,0-2.49,1.246,1.246,0,0,0,0,2.49" transform="translate(9.659 20)"/>
          </g>
          <g id="g5801" transform="translate(30.982 17.183)">
            <path id="path5803" d="M-8.456-17.51a1.246,1.246,0,0,0,0-2.49,1.246,1.246,0,0,0,0,2.49" transform="translate(9.659 20)"/>
          </g>
          <g id="g5805" transform="translate(30.982 41.255)">
            <path id="path5807" d="M-8.456-17.51a1.246,1.246,0,0,0,0-2.49,1.246,1.246,0,0,0,0,2.49" transform="translate(9.659 20)"/>
          </g>
          <g id="g5809" transform="translate(30.982 65.327)">
            <path id="path5811" d="M-8.456-17.51a1.246,1.246,0,0,0,0-2.49,1.246,1.246,0,0,0,0,2.49" transform="translate(9.659 20)"/>
          </g>
          <g id="g5813" transform="translate(51.612 17.183)">
            <path id="path5815" d="M-8.457-17.51a1.246,1.246,0,0,0,0-2.49,1.246,1.246,0,0,0,0,2.49" transform="translate(9.66 20)"/>
          </g>
          <g id="g5817" transform="translate(51.612 41.255)">
            <path id="path5819" d="M-8.457-17.51a1.246,1.246,0,0,0,0-2.49,1.246,1.246,0,0,0,0,2.49" transform="translate(9.66 20)"/>
          </g>
          <g id="g5821" transform="translate(51.612 65.327)">
            <path id="path5823" d="M-8.457-17.51a1.246,1.246,0,0,0,0-2.49,1.246,1.246,0,0,0,0,2.49" transform="translate(9.66 20)"/>
          </g>
          <g id="g5825" transform="translate(72.242 17.183)">
            <path id="path5827" d="M-8.457-17.51a1.246,1.246,0,0,0,0-2.49,1.246,1.246,0,0,0,0,2.49" transform="translate(9.66 20)"/>
          </g>
          <g id="g5829" transform="translate(72.242 41.255)">
            <path id="path5831" d="M-8.457-17.51a1.246,1.246,0,0,0,0-2.49,1.246,1.246,0,0,0,0,2.49" transform="translate(9.66 20)"/>
          </g>
          <g id="g5833" transform="translate(72.242 65.327)">
            <path id="path5835" d="M-8.457-17.51a1.246,1.246,0,0,0,0-2.49,1.246,1.246,0,0,0,0,2.49" transform="translate(9.66 20)"/>
          </g>
        </g>
      </g>
    </g>
  </g>
</svg>
