<svg xmlns="http://www.w3.org/2000/svg" width="129.063" height="71.859" viewBox="0 0 129.063 71.859">
  <g id="Grupo_1202230" data-name="Grupo 1202230" transform="translate(-787.781 -2554.846)">
    <g id="Rectángulo_410589" data-name="Rectángulo 410589" transform="translate(787.781 2575.623)" fill="#ffc94a" stroke="#dfab32" stroke-width="1">
      <rect width="129.063" height="43.021" rx="8" stroke="none"/>
      <rect x="0.5" y="0.5" width="128.063" height="42.021" rx="7.5" fill="none"/>
    </g>
    <g id="drought_4849560" transform="translate(809.05 2511.546)">
      <g id="Grupo_1202064" data-name="Grupo 1202064" transform="translate(0 73.747)">
        <g id="Grupo_1202063" data-name="Grupo 1202063">
          <path id="Trazado_1275403" data-name="Trazado 1275403" d="M65.7,229l-2.619,3.819,1.757,4.951-7.367,3.345,2.585-4.815-2.467-4.106L59.905,229H28.394l-4.123,5.711,3.143,2.5-8.042,6.539,1.875-6.4-3.886-4.241L20.25,229H5.5v19.667H90.149V229Z" transform="translate(-4.571 -228.071)" fill="#935434"/>
          <path id="Trazado_1275404" data-name="Trazado 1275404" d="M85.578,245.009H.929A.927.927,0,0,1,0,244.079v-19.65a.927.927,0,0,1,.929-.929H15.7a.906.906,0,0,1,.811.49.941.941,0,0,1-.068.963l-2.467,3.5,3.4,3.683a.888.888,0,0,1,.2.879l-1.048,3.582,4.849-3.954-2.247-1.791a.925.925,0,0,1-.169-1.267l4.123-5.694a.937.937,0,0,1,.743-.389H55.334a.917.917,0,0,1,.828.507.941.941,0,0,1-.068.963l-1.943,2.686,2.163,3.582a.925.925,0,0,1,.017.912l-1.3,2.416,4.106-1.875-1.47-4.139a.955.955,0,0,1,.1-.828l2.619-3.818a.916.916,0,0,1,.76-.406H85.6a.927.927,0,0,1,.929.929v19.65a.941.941,0,0,1-.946.929ZM1.842,243.167H84.666V225.359H61.62l-2.078,3.024,1.605,4.494a.913.913,0,0,1-.49,1.149l-7.384,3.345a.9.9,0,0,1-1.048-.2.922.922,0,0,1-.135-1.064l2.349-4.359-2.2-3.65a.922.922,0,0,1,.051-1.014l1.25-1.723H24.313l-3.329,4.613,2.45,1.96a.9.9,0,0,1,.338.71.93.93,0,0,1-.338.727l-8.059,6.539a.94.94,0,0,1-1.1.051.914.914,0,0,1-.372-1.031l1.74-5.914L12.1,229.16a.917.917,0,0,1-.068-1.149l1.875-2.653H1.842Z" transform="translate(0 -223.5)" fill="#262626"/>
        </g>
      </g>
      <g id="Grupo_1202065" data-name="Grupo 1202065" transform="translate(30.848 74.118)">
        <path id="Trazado_1275405" data-name="Trazado 1275405" d="M183.494,237.866a.926.926,0,0,1-.321-1.791l7.975-2.957-4.731-5.914a.926.926,0,1,1,1.453-1.149l5.525,6.91a.931.931,0,0,1-.406,1.453l-9.175,3.4A.984.984,0,0,1,183.494,237.866Z" transform="translate(-182.578 -225.701)" fill="#262626"/>
      </g>
      <g id="Grupo_1202066" data-name="Grupo 1202066" transform="translate(34.879 82.96)">
        <path id="Trazado_1275406" data-name="Trazado 1275406" d="M210.734,284.666a.945.945,0,0,1-.76-.389l-3.379-4.8a.921.921,0,0,1,1.5-1.064l3.379,4.8a.934.934,0,0,1-.22,1.284A.844.844,0,0,1,210.734,284.666Z" transform="translate(-206.431 -278.031)" fill="#262626"/>
      </g>
      <g id="Grupo_1202067" data-name="Grupo 1202067" transform="translate(3.527 73.743)">
        <path id="Trazado_1275407" data-name="Trazado 1275407" d="M23.837,234.513a.845.845,0,0,1-.473-.135.914.914,0,0,1-.321-1.267l1.47-2.5-3.5-5.728a.921.921,0,1,1,1.571-.963l3.785,6.2a.872.872,0,0,1,0,.946l-1.757,2.974A.859.859,0,0,1,23.837,234.513Z" transform="translate(-20.876 -223.476)" fill="#262626"/>
      </g>
      <g id="Grupo_1202068" data-name="Grupo 1202068" transform="translate(33.248 85.351)">
        <path id="Trazado_1275408" data-name="Trazado 1275408" d="M205.529,297.6l-3.329,4.342" transform="translate(-201.284 -296.685)" fill="#935434"/>
        <path id="Trazado_1275409" data-name="Trazado 1275409" d="M197.7,298.352a.96.96,0,0,1-.558-.186.935.935,0,0,1-.169-1.3l3.345-4.325a.928.928,0,1,1,1.47,1.132L198.44,298A.977.977,0,0,1,197.7,298.352Z" transform="translate(-196.781 -292.181)" fill="#262626"/>
      </g>
      <g id="Grupo_1202069" data-name="Grupo 1202069" transform="translate(63.762 74.118)">
        <path id="Trazado_1275410" data-name="Trazado 1275410" d="M378.294,237.866a.926.926,0,0,1-.321-1.791l7.975-2.957-4.731-5.914a.926.926,0,1,1,1.453-1.149l5.525,6.91a.931.931,0,0,1-.406,1.453l-9.175,3.4A1.149,1.149,0,0,1,378.294,237.866Z" transform="translate(-377.378 -225.701)" fill="#262626"/>
      </g>
      <g id="Grupo_1202070" data-name="Grupo 1202070" transform="translate(67.792 82.96)">
        <path id="Trazado_1275411" data-name="Trazado 1275411" d="M405.534,284.666a.945.945,0,0,1-.76-.389l-3.379-4.8a.921.921,0,0,1,1.5-1.064l3.379,4.8a.934.934,0,0,1-.22,1.284A.844.844,0,0,1,405.534,284.666Z" transform="translate(-401.231 -278.031)" fill="#262626"/>
      </g>
      <g id="Grupo_1202071" data-name="Grupo 1202071" transform="translate(66.145 85.351)">
        <path id="Trazado_1275412" data-name="Trazado 1275412" d="M400.245,297.6l-3.345,4.342" transform="translate(-395.984 -296.685)" fill="#935434"/>
        <path id="Trazado_1275413" data-name="Trazado 1275413" d="M392.4,298.352a.96.96,0,0,1-.558-.186.935.935,0,0,1-.169-1.3l3.345-4.325a.928.928,0,1,1,1.47,1.132L393.14,298a.977.977,0,0,1-.743.355Z" transform="translate(-391.481 -292.181)" fill="#262626"/>
      </g>
      <g id="Grupo_1202072" data-name="Grupo 1202072" transform="translate(6.68 81.035)">
        <path id="Trazado_1275414" data-name="Trazado 1275414" d="M47.364,275.428,45.1,272.1" transform="translate(-44.16 -271.177)" fill="#935434"/>
        <path id="Trazado_1275415" data-name="Trazado 1275415" d="M42.74,271.8a.917.917,0,0,1-.76-.406L39.7,268.083a.923.923,0,1,1,1.521-1.048l2.281,3.328a.922.922,0,0,1-.237,1.284A.949.949,0,0,1,42.74,271.8Z" transform="translate(-39.536 -266.636)" fill="#262626"/>
      </g>
      <g id="Grupo_1202078" data-name="Grupo 1202078" transform="translate(0 93.363)">
        <g id="Grupo_1202074" data-name="Grupo 1202074">
          <g id="Grupo_1202073" data-name="Grupo 1202073">
            <path id="Trazado_1275416" data-name="Trazado 1275416" d="M5.5,345.1H90.166v19.954H5.5Z" transform="translate(-4.571 -344.171)" fill="#f7931e"/>
            <path id="Trazado_1275417" data-name="Trazado 1275417" d="M85.578,361.4H.929A.927.927,0,0,1,0,360.467V340.529a.927.927,0,0,1,.929-.929H85.6a.927.927,0,0,1,.929.929v19.954a.938.938,0,0,1-.946.912ZM1.842,359.554H84.666v-18.1H1.842Z" transform="translate(0 -339.6)" fill="#262626"/>
          </g>
        </g>
        <g id="Grupo_1202075" data-name="Grupo 1202075" transform="translate(7.046 5.508)">
          <path id="Trazado_1275418" data-name="Trazado 1275418" d="M112.545,374.059h-.507a.927.927,0,0,1-.929-.929.916.916,0,0,1,.929-.929h.507a.929.929,0,0,1,0,1.859Zm-3.852,0h-.507a.927.927,0,0,1-.929-.929.916.916,0,0,1,.929-.929h.507a.929.929,0,1,1,0,1.859Zm-3.852,0h-.507a.927.927,0,0,1-.929-.929.916.916,0,0,1,.929-.929h.507a.929.929,0,0,1,0,1.859Zm-3.852,0h-.507a.927.927,0,0,1-.929-.929.916.916,0,0,1,.929-.929h.507a.929.929,0,0,1,0,1.859Zm-3.869,0h-.507a.927.927,0,0,1-.929-.929.916.916,0,0,1,.929-.929h.507a.929.929,0,0,1,0,1.859Zm-3.852,0H92.76a.927.927,0,0,1-.929-.929.916.916,0,0,1,.929-.929h.507a.929.929,0,0,1,0,1.859Zm-3.852,0h-.507a.927.927,0,0,1-.929-.929.916.916,0,0,1,.929-.929h.507a.929.929,0,0,1,0,1.859Zm-3.852,0h-.507a.927.927,0,0,1-.929-.929.916.916,0,0,1,.929-.929h.507a.929.929,0,0,1,0,1.859Zm-3.869,0h-.507a.927.927,0,0,1-.929-.929.916.916,0,0,1,.929-.929h.507a.927.927,0,0,1,.929.929A.916.916,0,0,1,81.693,374.059Zm-3.852,0h-.507a.927.927,0,0,1-.929-.929.916.916,0,0,1,.929-.929h.507a.929.929,0,0,1,0,1.859Zm-3.852,0h-.507a.927.927,0,0,1-.929-.929.916.916,0,0,1,.929-.929h.507a.929.929,0,0,1,0,1.859Zm-3.852,0h-.507a.927.927,0,0,1-.929-.929.916.916,0,0,1,.929-.929h.507a.929.929,0,0,1,0,1.859Zm-3.852,0h-.507a.927.927,0,0,1-.929-.929.916.916,0,0,1,.929-.929h.507a.929.929,0,0,1,0,1.859Zm-3.869,0h-.507a.927.927,0,0,1-.929-.929.916.916,0,0,1,.929-.929h.507a.927.927,0,0,1,.929.929A.916.916,0,0,1,62.415,374.059Zm-3.852,0h-.507a.927.927,0,0,1-.929-.929.916.916,0,0,1,.929-.929h.507a.929.929,0,0,1,0,1.859Zm-3.852,0H54.2a.927.927,0,0,1-.929-.929.916.916,0,0,1,.929-.929h.507a.929.929,0,0,1,0,1.859Zm-3.852,0h-.507a.927.927,0,0,1-.929-.929.916.916,0,0,1,.929-.929h.507a.929.929,0,0,1,0,1.859Zm-3.852,0H46.5a.927.927,0,0,1-.929-.929.916.916,0,0,1,.929-.929h.507a.929.929,0,0,1,0,1.859Zm-3.869,0h-.507a.927.927,0,0,1-.929-.929.916.916,0,0,1,.929-.929h.507a.929.929,0,0,1,0,1.859Z" transform="translate(-41.7 -372.2)" fill="#262626"/>
        </g>
        <g id="Grupo_1202076" data-name="Grupo 1202076" transform="translate(7.046 10.154)">
          <path id="Trazado_1275419" data-name="Trazado 1275419" d="M112.545,401.559h-.507a.927.927,0,0,1-.929-.929.916.916,0,0,1,.929-.929h.507a.929.929,0,0,1,0,1.859Zm-3.852,0h-.507a.927.927,0,0,1-.929-.929.916.916,0,0,1,.929-.929h.507a.929.929,0,1,1,0,1.859Zm-3.852,0h-.507a.927.927,0,0,1-.929-.929.916.916,0,0,1,.929-.929h.507a.929.929,0,0,1,0,1.859Zm-3.852,0h-.507a.927.927,0,0,1-.929-.929.916.916,0,0,1,.929-.929h.507a.929.929,0,0,1,0,1.859Zm-3.869,0h-.507a.927.927,0,0,1-.929-.929.916.916,0,0,1,.929-.929h.507a.929.929,0,0,1,0,1.859Zm-3.852,0H92.76a.927.927,0,0,1-.929-.929.916.916,0,0,1,.929-.929h.507a.929.929,0,0,1,0,1.859Zm-3.852,0h-.507a.927.927,0,0,1-.929-.929.916.916,0,0,1,.929-.929h.507a.929.929,0,0,1,0,1.859Zm-3.852,0h-.507a.927.927,0,0,1-.929-.929.916.916,0,0,1,.929-.929h.507a.929.929,0,0,1,0,1.859Zm-3.869,0h-.507a.927.927,0,0,1-.929-.929.916.916,0,0,1,.929-.929h.507a.927.927,0,0,1,.929.929A.916.916,0,0,1,81.693,401.559Zm-3.852,0h-.507a.927.927,0,0,1-.929-.929.916.916,0,0,1,.929-.929h.507a.929.929,0,0,1,0,1.859Zm-3.852,0h-.507a.927.927,0,0,1-.929-.929.916.916,0,0,1,.929-.929h.507a.929.929,0,0,1,0,1.859Zm-3.852,0h-.507a.927.927,0,0,1-.929-.929.916.916,0,0,1,.929-.929h.507a.929.929,0,0,1,0,1.859Zm-3.852,0h-.507a.927.927,0,0,1-.929-.929.916.916,0,0,1,.929-.929h.507a.929.929,0,0,1,0,1.859Zm-3.869,0h-.507a.927.927,0,0,1-.929-.929.916.916,0,0,1,.929-.929h.507a.927.927,0,0,1,.929.929A.916.916,0,0,1,62.415,401.559Zm-3.852,0h-.507a.927.927,0,0,1-.929-.929.916.916,0,0,1,.929-.929h.507a.929.929,0,0,1,0,1.859Zm-3.852,0H54.2a.927.927,0,0,1-.929-.929.916.916,0,0,1,.929-.929h.507a.929.929,0,0,1,0,1.859Zm-3.852,0h-.507a.927.927,0,0,1-.929-.929.916.916,0,0,1,.929-.929h.507a.929.929,0,0,1,0,1.859Zm-3.852,0H46.5a.927.927,0,0,1-.929-.929.916.916,0,0,1,.929-.929h.507a.929.929,0,0,1,0,1.859Zm-3.869,0h-.507a.927.927,0,0,1-.929-.929.916.916,0,0,1,.929-.929h.507a.929.929,0,0,1,0,1.859Z" transform="translate(-41.7 -399.7)" fill="#262626"/>
        </g>
        <g id="Grupo_1202077" data-name="Grupo 1202077" transform="translate(7.046 14.818)">
          <path id="Trazado_1275420" data-name="Trazado 1275420" d="M112.545,429.159h-.507a.929.929,0,0,1,0-1.859h.507a.927.927,0,0,1,.929.929A.938.938,0,0,1,112.545,429.159Zm-3.852,0h-.507a.929.929,0,0,1,0-1.859h.507a.927.927,0,0,1,.929.929A.938.938,0,0,1,108.693,429.159Zm-3.852,0h-.507a.929.929,0,0,1,0-1.859h.507a.927.927,0,0,1,.929.929A.949.949,0,0,1,104.84,429.159Zm-3.852,0h-.507a.929.929,0,0,1,0-1.859h.507a.927.927,0,0,1,.929.929A.949.949,0,0,1,100.988,429.159Zm-3.869,0h-.507a.929.929,0,0,1,0-1.859h.507a.927.927,0,0,1,.929.929A.938.938,0,0,1,97.119,429.159Zm-3.852,0H92.76a.929.929,0,0,1,0-1.859h.507a.927.927,0,0,1,.929.929A.938.938,0,0,1,93.267,429.159Zm-3.852,0h-.507a.929.929,0,0,1,0-1.859h.507a.927.927,0,0,1,.929.929A.949.949,0,0,1,89.414,429.159Zm-3.852,0h-.507a.929.929,0,0,1,0-1.859h.507a.927.927,0,0,1,.929.929A.949.949,0,0,1,85.562,429.159Zm-3.869,0h-.507a.929.929,0,0,1,0-1.859h.507a.929.929,0,0,1,0,1.859Zm-3.852,0h-.507a.929.929,0,0,1,0-1.859h.507a.927.927,0,0,1,.929.929A.938.938,0,0,1,77.841,429.159Zm-3.852,0h-.507a.929.929,0,0,1,0-1.859h.507a.927.927,0,0,1,.929.929A.938.938,0,0,1,73.988,429.159Zm-3.852,0h-.507a.929.929,0,0,1,0-1.859h.507a.927.927,0,0,1,.929.929A.949.949,0,0,1,70.136,429.159Zm-3.852,0h-.507a.929.929,0,0,1,0-1.859h.507a.927.927,0,0,1,.929.929A.949.949,0,0,1,66.284,429.159Zm-3.869,0h-.507a.929.929,0,0,1,0-1.859h.507a.929.929,0,0,1,0,1.859Zm-3.852,0h-.507a.929.929,0,0,1,0-1.859h.507a.927.927,0,0,1,.929.929A.938.938,0,0,1,58.562,429.159Zm-3.852,0H54.2a.929.929,0,0,1,0-1.859h.507a.927.927,0,0,1,.929.929A.938.938,0,0,1,54.71,429.159Zm-3.852,0h-.507a.929.929,0,0,1,0-1.859h.507a.927.927,0,0,1,.929.929A.949.949,0,0,1,50.858,429.159Zm-3.852,0H46.5a.929.929,0,0,1,0-1.859h.507a.927.927,0,0,1,.929.929A.949.949,0,0,1,47.005,429.159Zm-3.869,0h-.507a.929.929,0,0,1,0-1.859h.507a.927.927,0,0,1,.929.929A.938.938,0,0,1,43.136,429.159Z" transform="translate(-41.7 -427.3)" fill="#262626"/>
        </g>
      </g>
      <g id="Grupo_1202079" data-name="Grupo 1202079" transform="translate(23.184 51.997)">
        <path id="Trazado_1275421" data-name="Trazado 1275421" d="M152.535,100.265c-6.556-.76-9.935,7.806-9.935,7.806s2.72-2.23,7.468,1.115c3.6,2.534,9.343-1.233,9.343-1.233S157.925,100.89,152.535,100.265Z" transform="translate(-141.69 -99.298)" fill="#22b573"/>
        <path id="Trazado_1275422" data-name="Trazado 1275422" d="M148.582,106.455a6.036,6.036,0,0,1-3.531-1.048c-4.038-2.855-6.268-1.217-6.353-1.149a.913.913,0,0,1-1.115.034.923.923,0,0,1-.3-1.081c.152-.372,3.734-9.208,10.9-8.38,5.981.693,7.586,8.11,7.654,8.414a.922.922,0,0,1-.406.963A14.494,14.494,0,0,1,148.582,106.455Zm-7.924-4.562a9.535,9.535,0,0,1,5.457,2.011c2.45,1.723,6.3-.118,7.738-.912-.49-1.622-2.112-5.9-5.9-6.336-3.92-.456-6.623,2.974-7.975,5.272A4.2,4.2,0,0,1,140.658,101.893Z" transform="translate(-137.213 -94.776)" fill="#262626"/>
      </g>
      <g id="Grupo_1202080" data-name="Grupo 1202080" transform="translate(43.138 43.3)">
        <path id="Trazado_1275423" data-name="Trazado 1275423" d="M268.425,48.8c6.589.068,8.887,8.972,8.887,8.972s-2.433-2.551-7.536.186c-3.024,1.605-6.86-.727-8.414-1.842a1.105,1.105,0,0,1-.355-1.352C261.8,52.955,264.167,48.765,268.425,48.8Z" transform="translate(-259.962 -47.87)" fill="#22b573"/>
        <path id="Trazado_1275424" data-name="Trazado 1275424" d="M262.83,54.857c-2.737,0-5.424-1.673-6.674-2.568A2.026,2.026,0,0,1,255.5,49.8c.9-1.96,3.464-6.5,8.211-6.5h.068c7.215.068,9.665,9.276,9.766,9.665A.932.932,0,0,1,273.1,54a.922.922,0,0,1-1.115-.169c-.068-.068-2.078-1.977-6.437.355A5.5,5.5,0,0,1,262.83,54.857Zm.879-9.7c-3.683,0-5.8,3.785-6.539,5.424a.166.166,0,0,0,.068.22c1.385,1,4.866,3.16,7.434,1.791a8.965,8.965,0,0,1,6.336-1.2c-1.064-2.45-3.329-6.184-7.248-6.218A.062.062,0,0,0,263.709,45.159Z" transform="translate(-255.314 -43.3)" fill="#262626"/>
      </g>
      <g id="Grupo_1202081" data-name="Grupo 1202081" transform="translate(43.051 47.989)">
        <path id="Trazado_1275425" data-name="Trazado 1275425" d="M255.729,98.82a.927.927,0,0,1-.929-.929V75a3.135,3.135,0,0,1,2.72-3.109l6.066-.828a.92.92,0,0,1,.237,1.825l-6.066.828A1.308,1.308,0,0,0,256.625,75V97.89A.879.879,0,0,1,255.729,98.82Z" transform="translate(-254.8 -71.051)" fill="#262626"/>
      </g>
      <g id="Grupo_1202082" data-name="Grupo 1202082" transform="translate(33.079 56.593)">
        <path id="Trazado_1275426" data-name="Trazado 1275426" d="M206.612,136.225a.946.946,0,0,1-.879-.625l-2.8-8.448a2.337,2.337,0,0,0-1.183-1.352l-5.373-2.044a.92.92,0,1,1,.642-1.723l5.407,2.061a.128.128,0,0,1,.068.034,4.112,4.112,0,0,1,2.18,2.45l2.8,8.448a.928.928,0,0,1-.591,1.166A1.479,1.479,0,0,1,206.612,136.225Z" transform="translate(-195.778 -121.978)" fill="#262626"/>
      </g>
    </g>
  </g>
</svg>
