<svg xmlns="http://www.w3.org/2000/svg" width="129.063" height="101.006" viewBox="0 0 129.063 101.006">
  <g id="Grupo_1201413" data-name="Grupo 1201413" transform="translate(-788.103 -1966.163)">
    <g id="Rect치ngulo_410589" data-name="Rect치ngulo 410589" transform="translate(788.103 2007.607)" fill="#a1c6f1" stroke="#6f89a8" stroke-width="1">
      <rect width="129.063" height="43.021" rx="8" stroke="none"/>
      <rect x="0.5" y="0.5" width="128.063" height="42.021" rx="7.5" fill="none"/>
    </g>
    <g id="plant_2362420" transform="translate(779.814 1950.163)">
      <path id="Trazado_1275463" data-name="Trazado 1275463" d="M340.2,154.518h-8.417A11.784,11.784,0,0,1,320,142.734V136h8.417A11.784,11.784,0,0,1,340.2,147.784Z" transform="translate(-233.713 -94.748)" fill="#02c26a"/>
      <path id="Trazado_1275464" data-name="Trazado 1275464" d="M320,24v6.734a11.784,11.784,0,0,0,11.785,11.784H340.2V35.784A11.784,11.784,0,0,0,328.417,24Z" transform="translate(-233.713 -6.317)" fill="#02c26a"/>
      <path id="Trazado_1275465" data-name="Trazado 1275465" d="M416,93.05h0a22.991,22.991,0,0,1,6.734,16.257v35.93h6.734V110.413A25.252,25.252,0,0,0,417.6,89L416,88Z" transform="translate(-309.511 -56.849)" fill="#00b55b"/>
      <rect id="Rect치ngulo_412550" data-name="Rect치ngulo 412550" width="6.722" height="6.722" transform="translate(69.375 103.389)" fill="#ffb401"/>
      <path id="Trazado_1275466" data-name="Trazado 1275466" d="M96,250.518h8.417A11.784,11.784,0,0,0,116.2,238.734V232h-8.417A11.784,11.784,0,0,0,96,243.784Z" transform="translate(-56.849 -170.547)" fill="#02c26a"/>
      <path id="Trazado_1275467" data-name="Trazado 1275467" d="M116.2,120v6.734a11.784,11.784,0,0,1-11.785,11.784H96v-6.734A11.784,11.784,0,0,1,107.785,120Z" transform="translate(-56.849 -82.115)" fill="#02c26a"/>
      <path id="Trazado_1275468" data-name="Trazado 1275468" d="M45.468,189.05h0a22.99,22.99,0,0,0-6.734,16.257v15.729H32V206.413A25.252,25.252,0,0,1,43.868,185l1.6-1Z" transform="translate(-6.317 -132.648)" fill="#00b55b"/>
      <path id="Trazado_1275469" data-name="Trazado 1275469" d="M57.252,388.619V375.151l-10.1-5.05v-5.05L38.734,360H32v28.619Z" transform="translate(-6.317 -271.612)" fill="#b1712c"/>
      <path id="Trazado_1275470" data-name="Trazado 1275470" d="M360,388.619V375.151l10.1-5.05v-5.05l8.417-5.05h6.734v28.619Z" transform="translate(-265.296 -271.612)" fill="#b1712c"/>
      <path id="Trazado_1275471" data-name="Trazado 1275471" d="M320.417,117.006h3.367V104.579l6.734-3.367v5.693h3.367V96.412l5.868,3.521,1.732-2.887-6.011-3.607,5.612-3.367h4.584v9.148l-7.6,4.56a1.684,1.684,0,0,0-.817,1.444v8.417h3.367v-7.464l5.05-3.03v13.861h3.367V53.564a26.935,26.935,0,0,0-12.66-22.841l-.808-.5v-.75A13.483,13.483,0,0,0,322.1,16h-8.417A1.683,1.683,0,0,0,312,17.683v6.734a13.483,13.483,0,0,0,13.467,13.468h7.7a21.156,21.156,0,0,1,5.765,14.573V62.676l-3.367-3.086V53.036A13.483,13.483,0,0,0,322.1,39.568h-8.417A1.683,1.683,0,0,0,312,41.252v6.734a13.483,13.483,0,0,0,13.467,13.468h7.15l6.317,5.791V87.435l-7.6,4.56a1.684,1.684,0,0,0-.817,1.444v4.01l-9.17,4.585a1.683,1.683,0,0,0-.931,1.506v1.683H312v3.367h8.417ZM332.2,32.541,323.2,24.822l-2.191,2.556,8.329,7.139h-3.866a10.112,10.112,0,0,1-10.1-10.1v-5.05H322.1a10.112,10.112,0,0,1,10.1,10.1Zm3.367,2.978V34.225a23.42,23.42,0,0,1,10.1,19.338V86.7H342.3V52.458A24.5,24.5,0,0,0,335.568,35.519ZM332.2,56.5l-10.647-9.759-2.275,2.482,9.665,8.86h-3.477a10.112,10.112,0,0,1-10.1-10.1v-5.05H322.1a10.112,10.112,0,0,1,10.1,10.1Z" transform="translate(-227.396)"/>
      <path id="Trazado_1275472" data-name="Trazado 1275472" d="M39.865,133.885h7.7a13.483,13.483,0,0,0,13.468-13.468v-6.734A1.683,1.683,0,0,0,59.352,112H50.935a13.483,13.483,0,0,0-13.468,13.468v.75l-.808.505A26.935,26.935,0,0,0,24,149.564v43.241h3.367V178.944l5.05,3.03v4.1h3.367v-5.05a1.684,1.684,0,0,0-.817-1.444l-7.6-4.56V165.87h4.584l5.612,3.367-6.011,3.607,1.732,2.887,5.868-3.521V182.7h3.367v-5.693l6.734,3.367v12.427h3.367v-8.417h8.417v-3.367H52.618v-1.683a1.683,1.683,0,0,0-.931-1.506l-9.17-4.585v-4.01a1.684,1.684,0,0,0-.817-1.444l-7.593-4.556,6.31-5.785h7.15a13.483,13.483,0,0,0,13.468-13.468v-6.734a1.683,1.683,0,0,0-1.683-1.683H50.935a13.483,13.483,0,0,0-13.468,13.467v6.554L34.1,158.676V148.458a21.156,21.156,0,0,1,5.765-14.573Zm.969-8.417a10.112,10.112,0,0,1,10.1-10.1h6.734v5.05a10.112,10.112,0,0,1-10.1,10.1H43.7l8.329-7.139-2.191-2.556-9.005,7.719Zm0,23.568a10.112,10.112,0,0,1,10.1-10.1h6.734v5.05a10.112,10.112,0,0,1-10.1,10.1H44.091l9.665-8.86-2.275-2.482L40.834,152.5Zm-10.1-.578V162.5H27.367V149.564a23.42,23.42,0,0,1,10.1-19.339v1.294A24.5,24.5,0,0,0,30.734,148.458Z" transform="translate(0 -75.799)"/>
      <path id="Trazado_1275473" data-name="Trazado 1275473" d="M208,83.367a3.371,3.371,0,0,1,3.367,3.367h3.367A6.741,6.741,0,0,0,208,80Z" transform="translate(-145.281 -50.532)"/>
      <path id="Trazado_1275474" data-name="Trazado 1275474" d="M218.1,61.468h3.367A13.483,13.483,0,0,0,208,48v3.367A10.112,10.112,0,0,1,218.1,61.468Z" transform="translate(-145.281 -25.266)"/>
      <path id="Trazado_1275475" data-name="Trazado 1275475" d="M208,16v3.367A16.853,16.853,0,0,1,224.834,36.2H228.2A20.224,20.224,0,0,0,208,16Z" transform="translate(-145.281)"/>
      <path id="Trazado_1275476" data-name="Trazado 1275476" d="M229.468,425.683A1.683,1.683,0,0,0,227.784,424H221.05a1.683,1.683,0,0,0-1.683,1.683v1.683H216v3.367h3.367v1.683a1.683,1.683,0,0,0,1.683,1.683h6.734a1.683,1.683,0,0,0,1.683-1.683v-1.683h3.367v-3.367h-3.367Zm-3.367,5.05h-3.367v-3.367H226.1Z" transform="translate(-151.597 -322.145)"/>
    </g>
  </g>
</svg>
