<svg xmlns="http://www.w3.org/2000/svg" width="69.164" height="69.164" viewBox="0 0 69.164 69.164">
  <g id="family_2452798" transform="translate(-1 -1)">
    <g id="Grupo_1212228" data-name="Grupo 1212228" transform="translate(2.116 2.116)">
      <g id="Grupo_1212209" data-name="Grupo 1212209" transform="translate(33.466 36.813)">
        <path id="Trazado_1245381" data-name="Trazado 1245381" d="M61,37.376a10.749,10.749,0,0,1,2.688,2.767,10.574,10.574,0,0,1,1.774,5.868v6.838H58.773V65.12H48.733A12.109,12.109,0,0,0,37.9,58.426H32a10.046,10.046,0,0,0,9.538-6.905l.435.145.993.993a4.467,4.467,0,0,0,3.157,1.305h3.726l-.959-2.878a5.574,5.574,0,0,0-4.63-3.771l.491-1.473a12.5,12.5,0,0,0-1.171-10.408l.234.223a5.386,5.386,0,0,0,7.608,0L52.08,35l4.116.513A10.675,10.675,0,0,1,61,37.376Z" transform="translate(-32 -35)" fill="#b4dd7f"/>
      </g>
      <g id="Grupo_1212210" data-name="Grupo 1212210" transform="translate(0 38.631)">
        <path id="Trazado_1245382" data-name="Trazado 1245382" d="M8.693,53.776H2v-5.41a11.173,11.173,0,0,1,8.757-10.91l3.692-.826L16.5,44.852l5.611-2.242h.011a13.92,13.92,0,0,0,.591,3.045l.491,1.473A5.574,5.574,0,0,0,18.577,50.9l-.959,2.878h3.726A4.467,4.467,0,0,0,24.5,52.471l1-1,.424-.145a9.87,9.87,0,0,0,2.443,3.971,9.989,9.989,0,0,0,7.095,2.945h-5.9a12.109,12.109,0,0,0-10.832,6.693H8.693Z" transform="translate(-2 -36.63)" fill="#fcd770"/>
      </g>
      <g id="Grupo_1212211" data-name="Grupo 1212211" transform="translate(12.449 37.928)">
        <path id="Trazado_1245383" data-name="Trazado 1245383" d="M16.328,36l4.529,4.529a11.564,11.564,0,0,0-.067,1.249,8.168,8.168,0,0,0,.045.9h-.011l-5.611,2.242L13.16,36.7Z" transform="translate(-13.16 -36)" fill="#ffc729"/>
      </g>
      <g id="Grupo_1212212" data-name="Grupo 1212212" transform="translate(16.733 60.239)">
        <path id="Trazado_1245384" data-name="Trazado 1245384" d="M50.466,62.693H17A12.109,12.109,0,0,1,27.832,56h11.8A12.109,12.109,0,0,1,50.466,62.693Z" transform="translate(-17 -56)" fill="#ff826e"/>
      </g>
      <g id="Grupo_1212213" data-name="Grupo 1212213" transform="translate(6.693 17.849)">
        <path id="Trazado_1245385" data-name="Trazado 1245385" d="M12.462,18v6.693H11.347a3.347,3.347,0,1,1,0-6.693Z" transform="translate(-8 -18)" fill="#f0d0b4"/>
      </g>
      <g id="Grupo_1212214" data-name="Grupo 1212214" transform="translate(29.004 17.849)">
        <path id="Trazado_1245386" data-name="Trazado 1245386" d="M29.116,18a3.347,3.347,0,0,1,0,6.693H28V18Z" transform="translate(-28 -18)" fill="#f0d0b4"/>
      </g>
      <g id="Grupo_1212215" data-name="Grupo 1212215" transform="translate(4.462 0)">
        <path id="Trazado_1245387" data-name="Trazado 1245387" d="M12.693,17.618v2.231H11.578A3.342,3.342,0,0,0,8.231,23.2L6.413,17.729A7.756,7.756,0,0,1,6,15.208,7.984,7.984,0,0,1,11.009,7.8l.569-.223A11.521,11.521,0,0,1,21.428,2h5.823a5.527,5.527,0,0,1,5.522,5.522v.056a5.507,5.507,0,0,1-1.618,3.849L30,12.586a3.123,3.123,0,0,0-1.785-.547,3.237,3.237,0,0,0-3.246,3.246.309.309,0,0,0,.011.1h-.011l-3.514,1a31.923,31.923,0,0,1-8.757,1.227Z" transform="translate(-6 -2)" fill="#b27946"/>
      </g>
      <g id="Grupo_1212216" data-name="Grupo 1212216" transform="translate(23.426 5.578)">
        <path id="Trazado_1245388" data-name="Trazado 1245388" d="M28.031,12.009l1.16-1.16A5.507,5.507,0,0,0,30.809,7l1.45,1.45a10.259,10.259,0,0,1,3.012,7.273c0,.134,0,.268-.011.4a10.2,10.2,0,0,1-1.071,4.206L33.04,22.618a3.342,3.342,0,0,0-3.347-3.347H28.578L25.164,17.91a3.447,3.447,0,0,1-2.153-3.1.309.309,0,0,1-.011-.1,3.237,3.237,0,0,1,3.246-3.246,3.123,3.123,0,0,1,1.785.547Z" transform="translate(-23 -7)" fill="#b27946"/>
      </g>
      <g id="Grupo_1212217" data-name="Grupo 1212217" transform="translate(35.686 4.462)">
        <path id="Trazado_1245389" data-name="Trazado 1245389" d="M60.774,18.461V40.727a10.675,10.675,0,0,0-4.808-1.863l-4.116-.513-1.026-5.143a8.933,8.933,0,0,0,5.488-8.244V21.618a3.342,3.342,0,0,0-3.347-3.347H49.619a6.693,6.693,0,0,1-6.214-4.206l-.033.011a7.8,7.8,0,0,0-4.908,7.251v3.637a8.941,8.941,0,0,0,2.61,6.314,9.066,9.066,0,0,0,2.878,1.93l-.993,4.975A12.943,12.943,0,0,0,41.5,36.432,12.362,12.362,0,0,0,33.99,32.84L34,32.773V17.155a8.236,8.236,0,0,1,.045-.915,8.931,8.931,0,0,1,8.88-8.01A7.625,7.625,0,0,1,48.314,6,12.454,12.454,0,0,1,60.774,18.461Z" transform="translate(-33.99 -6)" fill="#b27946"/>
      </g>
      <g id="Grupo_1212218" data-name="Grupo 1212218" transform="translate(15.618 49.084)">
        <path id="Trazado_1245390" data-name="Trazado 1245390" d="M21.589,46.045A4.254,4.254,0,0,1,22.247,46h1.562v1.116a9.957,9.957,0,0,0,.5,3.124l-.424.145-1,1a4.467,4.467,0,0,1-3.157,1.305H16l.959-2.878a5.574,5.574,0,0,1,4.629-3.771Z" transform="translate(-16 -46)" fill="#656d78"/>
      </g>
      <g id="Grupo_1212219" data-name="Grupo 1212219" transform="translate(20.08 31.235)">
        <path id="Trazado_1245391" data-name="Trazado 1245391" d="M30.241,39.181,27.4,40a5.589,5.589,0,0,0-4.049,5.366v2.488H21.785a4.254,4.254,0,0,0-.658.045l-.491-1.473a13.92,13.92,0,0,1-.591-3.045,8.168,8.168,0,0,1-.045-.9,11.565,11.565,0,0,1,.067-1.249A12.509,12.509,0,0,1,32.472,30H34.3a12.4,12.4,0,0,1,8.813,3.659,12.943,12.943,0,0,1,1.461,1.751c.134.19.257.379.379.58l.011.022a12.5,12.5,0,0,1,1.171,10.408l-.491,1.473a4.254,4.254,0,0,0-.658-.045H43.426V46.376a4.468,4.468,0,0,0-4.094-4.451l-6.18-.513a3.43,3.43,0,0,1-2.22-1.082,3.332,3.332,0,0,1-.692-1.149Z" transform="translate(-20 -30)" fill="#656d78"/>
      </g>
      <g id="Grupo_1212220" data-name="Grupo 1212220" transform="translate(43.004 49.084)">
        <path id="Trazado_1245392" data-name="Trazado 1245392" d="M43.272,46.045A5.574,5.574,0,0,1,47.9,49.815l.959,2.878H45.135a4.467,4.467,0,0,1-3.157-1.305l-.993-.993-.435-.145a10.08,10.08,0,0,0,.5-3.135V46h1.562a4.254,4.254,0,0,1,.658.045Z" transform="translate(-40.55 -46)" fill="#656d78"/>
      </g>
      <g id="Grupo_1212221" data-name="Grupo 1212221" transform="translate(0 55.777)">
        <path id="Trazado_1245393" data-name="Trazado 1245393" d="M2,52H8.693V63.155H2Z" transform="translate(-2 -52)" fill="#f0d0b4"/>
      </g>
      <g id="Grupo_1212222" data-name="Grupo 1212222" transform="translate(60.239 54.662)">
        <path id="Trazado_1245394" data-name="Trazado 1245394" d="M56,51h6.693V63.271H56Z" transform="translate(-56 -51)" fill="#f0d0b4"/>
      </g>
      <g id="Grupo_1212223" data-name="Grupo 1212223" transform="translate(15.618 32.273)">
        <path id="Trazado_1245395" data-name="Trazado 1245395" d="M24.924,30.93V32.8l.011.011a12.334,12.334,0,0,0-4.406,8.3L16,36.586V31.008l.033-.067a8.911,8.911,0,0,0,8.891-.011Z" transform="translate(-16 -30.93)" fill="#f0d0b4"/>
      </g>
      <g id="Grupo_1212224" data-name="Grupo 1212224" transform="translate(11.155 13.386)">
        <path id="Trazado_1245396" data-name="Trazado 1245396" d="M29.849,18.462v6.693A8.916,8.916,0,0,1,16.5,32.9a8.744,8.744,0,0,1-1.885-1.428A8.94,8.94,0,0,1,12,25.155V16.231A31.923,31.923,0,0,0,20.757,15l3.514-1h.011a3.447,3.447,0,0,0,2.153,3.1Z" transform="translate(-12 -14)" fill="#f0d0b4"/>
      </g>
      <g id="Grupo_1212225" data-name="Grupo 1212225" transform="translate(23.426 40.416)">
        <path id="Trazado_1245397" data-name="Trazado 1245397" d="M43.08,46.9v1.116a10.034,10.034,0,0,1-17.135,7.095A10.05,10.05,0,0,1,23,48.013v-3.6a5.589,5.589,0,0,1,4.049-5.366l2.845-.814a3.332,3.332,0,0,0,.692,1.149,3.43,3.43,0,0,0,2.22,1.082l6.18.513a4.468,4.468,0,0,1,4.094,4.451Z" transform="translate(-23 -38.23)" fill="#f0d0b4"/>
      </g>
      <g id="Grupo_1212226" data-name="Grupo 1212226" transform="translate(44.655 31.67)">
        <path id="Trazado_1245398" data-name="Trazado 1245398" d="M49.895,30.39l1.026,5.143-.658.658a5.386,5.386,0,0,1-7.608,0l-.234-.223-.011-.022c-.123-.2-.245-.39-.379-.58l.993-4.975a9.014,9.014,0,0,0,6.872,0Z" transform="translate(-42.03 -30.39)" fill="#f0d0b4"/>
      </g>
      <g id="Grupo_1212227" data-name="Grupo 1212227" transform="translate(40.159 12.528)">
        <path id="Trazado_1245399" data-name="Trazado 1245399" d="M55.849,20.782v3.347a8.933,8.933,0,0,1-5.488,8.244A8.925,8.925,0,0,1,38,24.129V20.492a7.8,7.8,0,0,1,4.908-7.251l.033-.011a6.693,6.693,0,0,0,6.214,4.206H52.5a3.342,3.342,0,0,1,3.347,3.347Z" transform="translate(-38 -13.23)" fill="#f0d0b4"/>
      </g>
    </g>
    <g id="Grupo_1212229" data-name="Grupo 1212229" transform="translate(1 1)">
      <path id="Trazado_1245400" data-name="Trazado 1245400" d="M20.572,29.5a5.749,5.749,0,0,0,5.463-3.938l.057-.172-2.116-.706-.057.173a3.528,3.528,0,0,1-6.693,0l-.057-.172-2.116.706.057.171A5.748,5.748,0,0,0,20.572,29.5Z" transform="translate(0.624 1.736)"/>
      <path id="Trazado_1245401" data-name="Trazado 1245401" d="M32.572,52.5a5.749,5.749,0,0,0,5.463-3.938l.057-.172-2.116-.706-.057.173a3.528,3.528,0,0,1-6.693,0l-.057-.172-2.116.706.057.171A5.748,5.748,0,0,0,32.572,52.5Z" transform="translate(2.01 4.394)"/>
      <path id="Trazado_1245402" data-name="Trazado 1245402" d="M49.975,23.684l-.057.172a3.528,3.528,0,0,1-6.693,0l-.057-.172-2.116.706.057.171a5.758,5.758,0,0,0,10.926,0l.057-.172Z" transform="translate(3.628 1.621)"/>
      <path id="Trazado_1245403" data-name="Trazado 1245403" d="M68.2,43.453a11.661,11.661,0,0,0-2.5-2.7V19.039A13.593,13.593,0,0,0,52.124,5.462,8.669,8.669,0,0,0,46.282,7.7a10.041,10.041,0,0,0-8.072,4.75,11.343,11.343,0,0,0-2.624-4.1L34.444,7.209A6.638,6.638,0,0,0,27.829,1H22.007A12.671,12.671,0,0,0,11.4,6.793l-.225.09A9.091,9.091,0,0,0,5.928,18.2L7.72,23.571a4.455,4.455,0,0,0,4.435,4.2h.066A10.048,10.048,0,0,0,16.618,35v4.15L10.63,40.48a12.3,12.3,0,0,0-9.63,12V70.164H70.164V49.94A11.658,11.658,0,0,0,68.2,43.453Zm-.267,6.487v5.722H63.47V51.2H61.239V67.932H52.978a13.128,13.128,0,0,0-10.764-6.668,11.2,11.2,0,0,0,3.378-4.056l.166.166A5.539,5.539,0,0,0,49.7,59.008h5.277l-1.449-4.347a6.685,6.685,0,0,0-4.242-4.236l.1-.3a13.468,13.468,0,0,0,.154-8.071,6.535,6.535,0,0,0,1.66.22,6.456,6.456,0,0,0,4.6-1.9l.268-.268,3.579.447a9.464,9.464,0,0,1,8.29,9.39ZM21.121,45.009c-.016.272-.041.542-.041.819,0,.05.006.1.006.152l-3.7,1.478-1.467-5.869,1.455-.324Zm2.864,7.306h.442a11.125,11.125,0,0,0,.311,2.574l-.909.909a3.369,3.369,0,0,1-2.366.979H19.28l.471-1.411a4.456,4.456,0,0,1,4.233-3.051Zm.442-3.6v1.371h-.311l-.221-.663A11.361,11.361,0,0,1,34.673,34.466h1.818A11.363,11.363,0,0,1,47.27,49.42l-.222.664h-.311v-.356a5.611,5.611,0,0,0-5.115-5.559l-6.178-.514a2.284,2.284,0,0,1-.532-4.443l1.023-.341-.706-2.116-1.022.341a4.508,4.508,0,0,0-3.088,4.283c0,.124.006.248.016.369l-1.854.53a6.723,6.723,0,0,0-4.855,6.436ZM32.235,21.08a2.231,2.231,0,0,1,0,4.462Zm-.066,6.693h.066a4.454,4.454,0,0,0,4.429-4.132l.033-.067v8.671c-.069,0-.137-.01-.206-.01H34.673a13.506,13.506,0,0,0-4.818.9,9.988,9.988,0,0,0,2.315-5.36ZM51.2,33.351a7.817,7.817,0,0,1-7.809-7.809V21.9a6.654,6.654,0,0,1,3.32-5.78,7.789,7.789,0,0,0,6.72,3.84h3.347A2.233,2.233,0,0,1,59.008,22.2v3.347A7.817,7.817,0,0,1,51.2,33.351Zm0,2.231a9.981,9.981,0,0,0,2.585-.35l.666,3.33-.231.231a4.374,4.374,0,0,1-6.04,0l-.2-.2c-.009-.013-.017-.028-.025-.041l.664-3.317a9.934,9.934,0,0,0,2.585.351ZM46.737,52.315h.442a4.456,4.456,0,0,1,4.233,3.051l.471,1.411H49.7a3.369,3.369,0,0,1-2.366-.979l-.909-.909a11.125,11.125,0,0,0,.311-2.574Zm-20.08-3.6a4.481,4.481,0,0,1,3.236-4.29l1.977-.564a4.532,4.532,0,0,0,3.388,2.02l6.178.514a3.366,3.366,0,0,1,3.07,3.335v2.587a8.924,8.924,0,1,1-17.849,0ZM41.485,63.47a10.91,10.91,0,0,1,8.823,4.462H20.856a10.91,10.91,0,0,1,8.823-4.462ZM46.737,9.924H47.2l.327-.327a6.458,6.458,0,0,1,4.6-1.9A11.359,11.359,0,0,1,63.47,19.039V39.371a11.711,11.711,0,0,0-3.551-1.035L56.6,37.92l-.7-3.512a10.041,10.041,0,0,0,5.345-8.866V22.2a4.467,4.467,0,0,0-4.462-4.462H53.43a5.578,5.578,0,0,1-5.578-5.578H45.622a7.735,7.735,0,0,0,.234,1.887,8.878,8.878,0,0,0-4.7,7.861v3.638A10.044,10.044,0,0,0,46.5,34.409l-.37,1.851a13.564,13.564,0,0,0-7.205-3.794V17.733a7.817,7.817,0,0,1,7.809-7.809ZM32.522,12.331a6.614,6.614,0,0,0,1.519-2.366,9.171,9.171,0,0,1,1.687,10.559l-.015.028a4.437,4.437,0,0,0-3.478-1.7h-.9l-3.209-1.284A2.323,2.323,0,0,1,26.657,15.4a2.126,2.126,0,0,1,4.143-.673l.377,1.13,2.116-.706-.377-1.13a4.371,4.371,0,0,0-.741-1.342ZM12,8.955l.914-.366.193-.322a10.427,10.427,0,0,1,8.9-5.036h5.822a4.406,4.406,0,0,1,3.116,7.522l-.591.591a4.317,4.317,0,0,0-5.85,3.294l-2.786.8a30.726,30.726,0,0,1-8.447,1.184,1.116,1.116,0,1,1,0-2.231h1.116V12.155H13.271a3.339,3.339,0,0,0-1.116,6.488v.205a4.444,4.444,0,0,0-3.2,1.368l-.908-2.723A6.862,6.862,0,0,1,12,8.955ZM9.924,23.311a2.233,2.233,0,0,1,2.231-2.231v4.462A2.233,2.233,0,0,1,9.924,23.311Zm4.462,3.347V18.81a32.964,32.964,0,0,0,7.944-1.23l2.359-.674A4.536,4.536,0,0,0,27.3,19.636L30,20.719v5.938a7.809,7.809,0,0,1-15.618,0ZM22.2,36.7A9.98,9.98,0,0,0,25,36.29a13.579,13.579,0,0,0-3.44,6l-2.714-2.713v-3.47A9.969,9.969,0,0,0,22.2,36.7ZM6.179,45.366a10.049,10.049,0,0,1,4.934-2.709l2.629-.585,2.1,8.406,5.468-2.188a13.475,13.475,0,0,0,.464,1.835l.1.3a6.685,6.685,0,0,0-4.242,4.236l-1.448,4.347h5.277a5.541,5.541,0,0,0,3.943-1.633l.166-.166a11.216,11.216,0,0,0,3.378,4.056,13.126,13.126,0,0,0-10.764,6.668H9.924V52.315H7.693v4.462H3.231V52.484a10,10,0,0,1,2.948-7.118ZM3.231,59.008H7.693v8.924H3.231ZM63.47,67.932V57.893h4.462v10.04Z" transform="translate(-1 -1)"/>
    </g>
  </g>
</svg>
