<svg xmlns="http://www.w3.org/2000/svg" width="73.33" height="70.877" viewBox="0 0 73.33 70.877">
  <g id="Fill_Outline" data-name="Fill Outline" transform="translate(-2 -4)">
    <g id="Color" transform="translate(3.222 5.222)">
      <path id="Trazado_1245404" data-name="Trazado 1245404" d="M25.192,53.22a9.868,9.868,0,0,0-.1-1.352l2.745-1.589-3.666-6.355-2.743,1.589a9.731,9.731,0,0,0-2.341-1.358V41H11.75v3.161a9.754,9.754,0,0,0-2.341,1.36L6.666,43.933,3,50.287l2.743,1.589a8.845,8.845,0,0,0,0,2.7L3,56.153l3.666,6.355,2.742-1.589a9.754,9.754,0,0,0,2.341,1.358V65.44h7.332V62.279a9.731,9.731,0,0,0,2.341-1.36l2.743,1.589,3.666-6.355-2.745-1.589a9.867,9.867,0,0,0,.1-1.344Zm-9.776,3.666a3.666,3.666,0,1,1,3.666-3.666A3.666,3.666,0,0,1,15.416,56.886Z" transform="translate(-3 2.993)" fill="#656b76"/>
      <path id="Trazado_1245405" data-name="Trazado 1245405" d="M22.972,53.22a9.984,9.984,0,0,0-.1-1.356l2.737-1.576-3.666-6.355-2.737,1.589a9.549,9.549,0,0,0-2.346-1.356V41H13v4.888h5.45a22.038,22.038,0,0,0,2.823,6.807l-3.849,3.862L22.458,61.6l3.153-5.45-2.737-1.576a9.983,9.983,0,0,0,.1-1.356Z" transform="translate(-0.78 2.993)" fill="#464a51"/>
      <path id="Trazado_1245406" data-name="Trazado 1245406" d="M7.888,50.243a12.113,12.113,0,0,1,1.259-5.4L6.666,43.4,3,49.755l2.75,1.576a8.42,8.42,0,0,0,0,2.713L3,55.62l3.666,6.355L9.4,60.386a9.549,9.549,0,0,0,2.346,1.356v3.165h7.332V62.415A12.209,12.209,0,0,1,7.888,50.243Z" transform="translate(-3 3.526)" fill="#464a51"/>
      <path id="Trazado_1245407" data-name="Trazado 1245407" d="M67.769,48.773V39H62.318a21.859,21.859,0,0,0-2.827-6.807l3.86-3.859-6.913-6.913-3.86,3.86a21.84,21.84,0,0,0-6.805-2.827V17H36v5.451a21.84,21.84,0,0,0-6.805,2.827l-3.86-3.86-6.913,6.913,3.86,3.859A21.858,21.858,0,0,0,19.451,39H14v9.776h5.451a21.84,21.84,0,0,0,2.827,6.805l-3.86,3.86,6.913,6.913,3.86-3.86A21.84,21.84,0,0,0,36,65.318v5.451h9.776V65.318a21.84,21.84,0,0,0,6.805-2.827l3.86,3.86,6.913-6.913-3.86-3.86a21.84,21.84,0,0,0,2.827-6.805ZM40.885,57.327A13.442,13.442,0,1,1,54.327,43.885,13.442,13.442,0,0,1,40.885,57.327Z" transform="translate(-0.558 -2.336)" fill="#d0d8da"/>
      <path id="Trazado_1245408" data-name="Trazado 1245408" d="M42.886,22.45V17H33.11v5.45A21.979,21.979,0,0,0,27,24.858v11.3a13.442,13.442,0,0,1,17.108-4.253v-.244l.807-.807a9.689,9.689,0,0,0,2.847-6.66,21.448,21.448,0,0,0-4.876-1.747Z" transform="translate(2.329 -2.336)" fill="#93999a"/>
      <path id="Trazado_1245409" data-name="Trazado 1245409" d="M51.479,62.328a21.483,21.483,0,0,1-5.707,2.187v5.45H36v-5.45a22.038,22.038,0,0,1-6.807-2.823l-3.862,3.849-6.9-6.9,3.849-3.862a22.038,22.038,0,0,1-2.823-6.807H14V38.193h5.45a22.038,22.038,0,0,1,2.823-6.807l-3.849-3.862,6.9-6.9,2.1,2.1A25.059,25.059,0,0,0,47.606,62.633,23.791,23.791,0,0,0,51.479,62.328Z" transform="translate(-0.558 -1.532)" fill="#93999a"/>
      <path id="Trazado_1245410" data-name="Trazado 1245410" d="M66.545,8.666A7.322,7.322,0,0,0,60.2,12.332H22.552A7.332,7.332,0,0,0,15.22,5H10.332A7.332,7.332,0,0,0,3,12.332H15.22v7.332H3A7.332,7.332,0,0,0,10.332,27H15.22a7.332,7.332,0,0,0,7.332-7.332H60.2a7.332,7.332,0,1,0,6.344-11Zm0,9.776A2.444,2.444,0,1,1,68.989,16,2.444,2.444,0,0,1,66.545,18.442Z" transform="translate(-3 -5)" fill="#e9f1f2"/>
      <path id="Trazado_1245411" data-name="Trazado 1245411" d="M68.378,19.641a7.953,7.953,0,0,1-7.87-9.031c-.11.159-.208.318-.306.477H27.44V12.92a3.055,3.055,0,0,1-3.055,3.055H23.163a3.045,3.045,0,0,0-3.055,3.055,3.055,3.055,0,0,1-3.055,3.055H8.5A3.055,3.055,0,0,1,5.444,19.03v-.611H3a7.332,7.332,0,0,0,7.332,7.332H15.22a7.332,7.332,0,0,0,7.332-7.332H60.2a7.324,7.324,0,0,0,12.856-.306,7.832,7.832,0,0,1-4.68,1.528Z" transform="translate(-3 -3.754)" fill="#d0d8da"/>
      <path id="Trazado_1245412" data-name="Trazado 1245412" d="M49.774,15v6.953a9.758,9.758,0,0,1-2.86,6.9l-.807.807V54.7A13.462,13.462,0,0,1,29,54.7V15Z" transform="translate(2.773 -2.78)" fill="#fcbc04"/>
      <path id="Trazado_1245413" data-name="Trazado 1245413" d="M49.774,15v3.666a2.444,2.444,0,1,1-4.888,0,2.444,2.444,0,1,1-4.888,0,2.425,2.425,0,0,1-3.666,2.1V39.44a10.99,10.99,0,0,0,9.779,10.925l0,4.338A13.462,13.462,0,0,1,29,54.7V15Z" transform="translate(2.773 -2.78)" fill="#e59730"/>
      <rect id="Rectángulo_410737" data-name="Rectángulo 410737" width="5" height="14" rx="2" transform="translate(32.778 1.942)" fill="#f9e109"/>
      <rect id="Rectángulo_410738" data-name="Rectángulo 410738" width="5" height="14" rx="2" transform="translate(37.778 1.942)" fill="#f9e109"/>
      <rect id="Rectángulo_410739" data-name="Rectángulo 410739" width="5" height="14" rx="2" transform="translate(42.778 1.942)" fill="#f9e109"/>
      <rect id="Rectángulo_410740" data-name="Rectángulo 410740" width="4" height="14" rx="2" transform="translate(47.778 1.942)" fill="#f9e109"/>
      <path id="Trazado_1245414" data-name="Trazado 1245414" d="M31.11,19.776V14.63a5.073,5.073,0,0,0-1.124-3.246C27.817,8.771,25,10.279,25,12.444V21l4.888,9.776H37.22V25.886A6.11,6.11,0,0,0,31.11,19.776Z" transform="translate(1.885 -3.89)" fill="#f9e109"/>
      <g id="Grupo_1212230" data-name="Grupo 1212230" transform="translate(26.885 2.444)">
        <path id="Trazado_1245415" data-name="Trazado 1245415" d="M46.888,18A2.444,2.444,0,1,1,42,18V9.444A2.451,2.451,0,0,1,44.444,7v8.554A2.451,2.451,0,0,0,46.888,18Z" transform="translate(-21.226 -7)" fill="#fcbc04"/>
        <path id="Trazado_1245416" data-name="Trazado 1245416" d="M42.888,18A2.444,2.444,0,1,1,38,18V9.444A2.451,2.451,0,0,1,40.444,7v8.554A2.451,2.451,0,0,0,42.888,18Z" transform="translate(-22.114 -7)" fill="#fcbc04"/>
        <path id="Trazado_1245417" data-name="Trazado 1245417" d="M38.888,18A2.444,2.444,0,1,1,34,18V9.444A2.451,2.451,0,0,1,36.444,7v8.554A2.451,2.451,0,0,0,38.888,18Z" transform="translate(-23.002 -7)" fill="#fcbc04"/>
        <path id="Trazado_1245418" data-name="Trazado 1245418" d="M34.888,18A2.444,2.444,0,0,1,30,18V9.444A2.451,2.451,0,0,1,32.444,7v8.554A2.451,2.451,0,0,0,34.888,18Z" transform="translate(-23.89 -7)" fill="#fcbc04"/>
        <path id="Trazado_1245419" data-name="Trazado 1245419" d="M34.924,27.341a11.868,11.868,0,0,1-5.866-5.572l-.367-.709a11.911,11.911,0,0,1-1.248-5.3V10A2.444,2.444,0,0,0,25,12.444V21l4.888,9.776,1.169.233a7.963,7.963,0,0,1,6.163,5.877v-6.11a3.759,3.759,0,0,0-2.3-3.434Z" transform="translate(-25 -6.334)" fill="#fcbc04"/>
      </g>
      <path id="Trazado_1245420" data-name="Trazado 1245420" d="M46.136,54.6c-.477.11-.965.2-1.466.269.379-.2.745-.415,1.1-.635Z" transform="translate(6.252 5.93)" fill="#93999a"/>
    </g>
    <g id="Outline_copy" data-name="Outline copy" transform="translate(2 4)">
      <path id="Trazado_1245421" data-name="Trazado 1245421" d="M62.218,37.007h-4.5a23.062,23.062,0,0,0-2.24-5.4l3.185-3.185a1.222,1.222,0,0,0,0-1.728l-5.888-5.886a1.222,1.222,0,1,0-1.728,1.728l5.024,5.022-3,3a1.222,1.222,0,0,0-.171,1.514A20.556,20.556,0,0,1,55.573,38.5a1.222,1.222,0,0,0,1.193.952H61v7.332H56.766a1.222,1.222,0,0,0-1.193.952,20.556,20.556,0,0,1-2.666,6.425,1.222,1.222,0,0,0,.171,1.514l3,3-5.185,5.185-3-3a1.222,1.222,0,0,0-1.515-.171,20.548,20.548,0,0,1-6.425,2.668A1.222,1.222,0,0,0,39,64.551V70a1.222,1.222,0,0,0,2.444,0V65.5a23,23,0,0,0,5.4-2.24l3.185,3.185a1.222,1.222,0,0,0,1.728,0l6.913-6.913a1.222,1.222,0,0,0,0-1.728L55.48,54.623a23.063,23.063,0,0,0,2.24-5.4h4.5a1.222,1.222,0,0,0,1.222-1.222V38.229a1.222,1.222,0,0,0-1.222-1.222Z" transform="translate(6.215 -0.347)"/>
      <path id="Trazado_1245422" data-name="Trazado 1245422" d="M43.549,68.778H39.883V64.548a1.222,1.222,0,0,0-.951-1.193,20.548,20.548,0,0,1-6.425-2.668,1.222,1.222,0,0,0-1.515.171l-3,3L22.81,58.669l3-3a1.222,1.222,0,0,0,.171-1.514,20.588,20.588,0,0,1-2.668-6.425,1.222,1.222,0,0,0-1.191-.952H17.886V39.449h4.231a1.222,1.222,0,0,0,1.191-.952,20.588,20.588,0,0,1,2.668-6.425,1.222,1.222,0,0,0-.171-1.514l-3-3,5.01-5.01a1.222,1.222,0,1,0-1.728-1.728l-5.866,5.872a1.222,1.222,0,0,0,0,1.728l3.185,3.185a23.063,23.063,0,0,0-2.249,5.4h-4.5a1.222,1.222,0,0,0-1.222,1.222V48a1.222,1.222,0,0,0,1.222,1.222h4.5a23.063,23.063,0,0,0,2.24,5.4l-2.9,2.9a4.878,4.878,0,1,0-.3,1.978c.009.01.012.022.021.032l4.512,4.506L23.946,65.4l-1.684-.978a1.222,1.222,0,0,0-1.364.1A8.534,8.534,0,0,1,18.852,65.7a1.222,1.222,0,0,0-.764,1.133v1.944H13.2V66.838a1.222,1.222,0,0,0-.764-1.133,8.554,8.554,0,0,1-2.048-1.188,1.222,1.222,0,0,0-1.363-.1L7.341,65.4,4.9,61.167l1.685-.978a1.222,1.222,0,0,0,.6-1.222,7.7,7.7,0,0,1,0-2.368,1.222,1.222,0,0,0-.6-1.222L4.9,54.4l2.444-4.233,1.684.978a1.222,1.222,0,0,0,1.363-.1,8.554,8.554,0,0,1,2.048-1.188,1.222,1.222,0,0,0,.764-1.133V45.559a1.222,1.222,0,0,0-2.444,0v2.373a10.99,10.99,0,0,0-1.193.692L7.5,47.436a1.222,1.222,0,0,0-1.669.447L2.164,54.238A1.222,1.222,0,0,0,2.611,55.9l2.055,1.187c-.018.244-.027.467-.027.69s.009.451.027.69L2.611,59.657a1.222,1.222,0,0,0-.447,1.667L5.83,67.678a1.222,1.222,0,0,0,1.669.447l2.058-1.188a10.991,10.991,0,0,0,1.193.692V70a1.222,1.222,0,0,0,1.222,1.222H19.3A1.222,1.222,0,0,0,20.526,70V67.627a10.89,10.89,0,0,0,1.194-.692l2.057,1.188a1.222,1.222,0,0,0,1.671-.447l1.067-1.848.617.618a1.222,1.222,0,0,0,1.728,0l3.185-3.185a23,23,0,0,0,5.4,2.24V70a1.222,1.222,0,0,0,1.222,1.222h4.888a1.222,1.222,0,0,0,0-2.444ZM15.638,60.224a2.444,2.444,0,1,1,2.444-2.444A2.444,2.444,0,0,1,15.638,60.224Z" transform="translate(-2 -0.344)"/>
      <path id="Trazado_1245423" data-name="Trazado 1245423" d="M66.767,7.666a8.58,8.58,0,0,0-7.012,3.666H56.991V10.11A3.65,3.65,0,0,0,50.881,7.4a3.61,3.61,0,0,0-4.888,0,3.61,3.61,0,0,0-4.888,0,3.65,3.65,0,0,0-6.11,2.713v.843a3.886,3.886,0,0,0-3.689-.626,3.637,3.637,0,0,0-1.476,1H23.91A8.568,8.568,0,0,0,15.442,4H10.554A8.564,8.564,0,0,0,2,12.554a1.222,1.222,0,0,0,1.222,1.222h7.332a1.222,1.222,0,1,0,0-2.444H4.566a6.12,6.12,0,0,1,5.988-4.888h4.888a6.117,6.117,0,0,1,6.11,6.11,1.222,1.222,0,0,0,1.222,1.222h6.11v4.888h-6.11a1.222,1.222,0,0,0-1.222,1.222A6.117,6.117,0,0,1,15.442,26H10.554a6.12,6.12,0,0,1-5.988-4.888H15.442a1.222,1.222,0,0,0,1.222-1.222V12.554a1.222,1.222,0,0,0-2.444,0v6.11h-11A1.222,1.222,0,0,0,2,19.886a8.564,8.564,0,0,0,8.554,8.554h4.888a8.568,8.568,0,0,0,8.467-7.332h4.975V22.33a1.222,1.222,0,0,0,.128.546l4.76,9.518v3.474A14.653,14.653,0,1,0,58.146,48.1a1.222,1.222,0,0,0-1.107-1.332,1.237,1.237,0,0,0-1.327,1.107,12.213,12.213,0,0,1-2.387,6.252v-14.6a12,12,0,0,1,1.963,3.91,1.222,1.222,0,1,0,2.351-.667,14.6,14.6,0,0,0-4.314-6.915V32.612l.448-.448a10.962,10.962,0,0,0,3.209-7.332,1.223,1.223,0,0,0-2.444-.1,8.522,8.522,0,0,1-2.5,5.7l-.807.807a1.222,1.222,0,0,0-.356.865V56.569A12.22,12.22,0,0,1,33.773,39.461V49.811a1.222,1.222,0,1,0,2.444,0v-17.7a1.222,1.222,0,0,0-.128-.546l-4.76-9.518V13.776a1.222,1.222,0,0,1,.807-1.15c.635-.229,1.369.089,2.018.871a3.851,3.851,0,0,1,.842,2.465v5.146a1.222,1.222,0,0,0,1.222,1.222A4.888,4.888,0,0,1,41.1,27.218v4.888a1.222,1.222,0,1,0,2.444,0V27.218a7.319,7.319,0,0,0-2.672-5.655q.118-.089.228-.187a3.61,3.61,0,0,0,4.888,0,3.61,3.61,0,0,0,4.888,0,3.65,3.65,0,0,0,6.11-2.713V13.776h3.434a1.222,1.222,0,0,0,1.057-.611,6.11,6.11,0,1,1,0,6.11A1.222,1.222,0,0,0,59.367,20.5a8.554,8.554,0,1,0,7.4-12.831ZM37.439,10.11a1.222,1.222,0,1,1,2.444,0v8.554a1.222,1.222,0,1,1-2.444,0Zm6.11,9.776a1.222,1.222,0,0,1-1.222-1.222V10.11a1.222,1.222,0,1,1,2.444,0v8.554A1.222,1.222,0,0,1,43.549,19.886Zm4.888,0a1.222,1.222,0,0,1-1.222-1.222V10.11a1.222,1.222,0,0,1,2.444,0v8.554A1.222,1.222,0,0,1,48.437,19.886Zm6.11-1.222a1.222,1.222,0,1,1-2.444,0V10.11a1.222,1.222,0,0,1,2.444,0Z" transform="translate(-2 -4)"/>
      <path id="Trazado_1245424" data-name="Trazado 1245424" d="M55.666,13.444a1.222,1.222,0,0,0,0-2.444,3.666,3.666,0,1,0,3.666,3.666,1.222,1.222,0,1,0-2.444,0,1.222,1.222,0,1,1-1.222-1.222Z" transform="translate(9.101 -2.446)"/>
    </g>
  </g>
</svg>
