<svg xmlns="http://www.w3.org/2000/svg" width="80.46" height="80.749" viewBox="0 0 80.46 80.749">
  <g id="help_17729919" transform="translate(-26.05 -24.16)">
    <g id="Grupo_1212231" data-name="Grupo 1212231" transform="translate(27.268 25.376)">
      <path id="Trazado_1245425" data-name="Trazado 1245425" d="M157.615,31.15H199.5a3.286,3.286,0,0,1,3.275,3.275V88.545A3.286,3.286,0,0,1,199.5,91.82h-41.88a3.286,3.286,0,0,1-3.275-3.275V34.427a3.286,3.286,0,0,1,3.275-3.277Z" transform="translate(-133.233 -31.15)" fill="#a6cfe2" fill-rule="evenodd"/>
      <path id="Trazado_1245426" data-name="Trazado 1245426" d="M190.332,31.15h36.479a3.286,3.286,0,0,1,3.275,3.275V79.69a27.908,27.908,0,0,1-12.067.8c-16.9-2.466-30.609-18.676-30.609-36.212a29.85,29.85,0,0,1,2.922-13.127Z" transform="translate(-160.548 -31.15)" fill="#c5f3ff" fill-rule="evenodd"/>
      <path id="Trazado_1245427" data-name="Trazado 1245427" d="M184.38,80.08h8.539v8.47H184.38Z" transform="translate(-158.045 -71.565)" fill="#fff3b7" fill-rule="evenodd"/>
      <path id="Trazado_1245428" data-name="Trazado 1245428" d="M184.38,160.3h8.539v8.464H184.38Z" transform="translate(-158.045 -137.825)" fill="#fff3b7" fill-rule="evenodd"/>
      <path id="Trazado_1245429" data-name="Trazado 1245429" d="M360.692,130.434l3.71,3.71a1.35,1.35,0,0,1,0,1.909l-17.493,17.5-6.679,1.056,1.056-6.674,17.5-17.5A1.356,1.356,0,0,1,360.692,130.434Z" transform="translate(-286.774 -112.833)" fill="#e4b906" fill-rule="evenodd"/>
      <path id="Trazado_1245430" data-name="Trazado 1245430" d="M377.59,144.492l1.49,1.49a1.35,1.35,0,0,1,0,1.909l-17.493,17.5-3.587.567.586-3.689,17.5-17.5A1.35,1.35,0,0,1,377.59,144.492Z" transform="translate(-301.451 -124.67)" fill="#f4dd00" fill-rule="evenodd"/>
      <path id="Trazado_1245431" data-name="Trazado 1245431" d="M346.909,238.467l-6.679,1.056,1.056-6.674A7.6,7.6,0,0,1,346.909,238.467Z" transform="translate(-286.774 -197.75)" fill="#b3b3b3" fill-rule="evenodd"/>
      <path id="Trazado_1245432" data-name="Trazado 1245432" d="M435.517,130.432l3.71,3.71a1.35,1.35,0,0,1,0,1.909l-2.788,2.791-5.619-5.623,2.788-2.788A1.359,1.359,0,0,1,435.517,130.432Z" transform="translate(-361.599 -112.831)" fill="#628cc9" fill-rule="evenodd"/>
      <path id="Trazado_1245433" data-name="Trazado 1245433" d="M52.593,238.54h3.132a1.666,1.666,0,0,1,1.662,1.662v1.213a1.643,1.643,0,0,0,1.229,1.608,16.839,16.839,0,0,1,4.143,1.716,1.645,1.645,0,0,0,2.008-.266l.863-.858a1.665,1.665,0,0,1,2.348,0l2.215,2.215a1.665,1.665,0,0,1,0,2.348l-.863.863a1.648,1.648,0,0,0-.261,2.008,16.819,16.819,0,0,1,1.716,4.138,1.644,1.644,0,0,0,1.608,1.234h1.213a1.666,1.666,0,0,1,1.662,1.662v3.132a1.666,1.666,0,0,1-1.662,1.662H72.393a1.642,1.642,0,0,0-1.608,1.234,17.008,17.008,0,0,1-1.716,4.144,1.638,1.638,0,0,0,.266,2l.858.863a1.665,1.665,0,0,1,0,2.348l-2.215,2.215a1.665,1.665,0,0,1-2.348,0l-.863-.858a1.645,1.645,0,0,0-2.008-.266,16.815,16.815,0,0,1-4.138,1.716,1.644,1.644,0,0,0-1.234,1.608V279.1a1.666,1.666,0,0,1-1.662,1.662H52.593a1.663,1.663,0,0,1-1.662-1.662v-1.213a1.642,1.642,0,0,0-1.234-1.608,17,17,0,0,1-4.143-1.716,1.646,1.646,0,0,0-2.008.266l-.858.858a1.671,1.671,0,0,1-2.353,0l-2.21-2.215a1.655,1.655,0,0,1,0-2.348l.858-.863a1.638,1.638,0,0,0,.266-2,16.94,16.94,0,0,1-1.716-4.144,1.644,1.644,0,0,0-1.608-1.234H34.707a1.665,1.665,0,0,1-1.657-1.662v-3.132a1.665,1.665,0,0,1,1.657-1.662h1.218a1.642,1.642,0,0,0,1.608-1.234,16.886,16.886,0,0,1,1.716-4.138,1.644,1.644,0,0,0-.266-2.008l-.858-.863a1.655,1.655,0,0,1,0-2.348l2.21-2.215a1.671,1.671,0,0,1,2.353,0l.858.858a1.645,1.645,0,0,0,2.008.266,16.939,16.939,0,0,1,4.143-1.716,1.644,1.644,0,0,0,1.234-1.608V240.2a1.663,1.663,0,0,1,1.662-1.662Z" transform="translate(-33.05 -202.449)" fill="gray" fill-rule="evenodd"/>
      <path id="Trazado_1245434" data-name="Trazado 1245434" d="M95.32,287.94a12.473,12.473,0,1,1-12.47,12.47A12.473,12.473,0,0,1,95.32,287.94Z" transform="translate(-74.184 -243.253)" fill="#b3b3b3" fill-rule="evenodd"/>
      <path id="Trazado_1245435" data-name="Trazado 1245435" d="M115.611,309.734a12.473,12.473,0,0,1-20.991,13,12.473,12.473,0,0,1,20.991-13Z" transform="translate(-83.046 -257.567)" fill="#e6e6e6" fill-rule="evenodd"/>
      <path id="Trazado_1245436" data-name="Trazado 1245436" d="M176.078,327.69a3,3,0,1,1-3,3A3,3,0,0,1,176.078,327.69Z" transform="translate(-148.712 -276.085)" fill="#fff" fill-rule="evenodd"/>
      <path id="Trazado_1245437" data-name="Trazado 1245437" d="M210.337,287.01a1.384,1.384,0,1,1-1.387,1.382A1.38,1.38,0,0,1,210.337,287.01Z" transform="translate(-178.339 -242.485)" fill="#b3b3b3" fill-rule="evenodd"/>
      <path id="Trazado_1245438" data-name="Trazado 1245438" d="M125.251,344.161a12.661,12.661,0,0,1-2.979.36,12.391,12.391,0,0,1-2.979-.36v-6.97a5.8,5.8,0,0,1,.164-10.951v4.528l1.42,1.4,1.42,1.4,1.42-1.4,1.42-1.4v-4.509a5.8,5.8,0,0,1,.113,10.932v6.97Z" transform="translate(-101.135 -274.888)" fill="#98e6fb" fill-rule="evenodd"/>
      <path id="Trazado_1245439" data-name="Trazado 1245439" d="M329.57,314.51h11.651v6.058H329.57Z" transform="translate(-277.969 -265.199)" fill="#f4dd00" fill-rule="evenodd"/>
    </g>
    <path id="Trazado_1245440" data-name="Trazado 1245440" d="M78.875,73.468H90.522a1.222,1.222,0,0,1,1.218,1.218v6.058a1.222,1.222,0,0,1-1.218,1.218H78.875a1.218,1.218,0,0,1-1.218-1.218V74.686A1.218,1.218,0,0,1,78.875,73.468ZM89.3,75.906H80.093v3.621H89.3V75.906ZM48.725,96.225A13.69,13.69,0,1,1,62.1,82.536,13.692,13.692,0,0,1,48.725,96.225Zm-4.519-3.242V88.43a6.891,6.891,0,0,1-2.5-10.172A7.916,7.916,0,0,1,45.133,75.6a1.223,1.223,0,0,1,1.672,1.129v4.02l1.624,1.6,1.624-1.6v-4a1.217,1.217,0,0,1,1.761-1.089c5.939,2.64,6.047,9.827.79,12.772v4.552a11.255,11.255,0,1,0-8.4,0Zm5.96.672V87.68h.005a1.219,1.219,0,0,1,.731-1.115c3.3-1.436,4.138-5.243,1.589-7.617v2.3a1.215,1.215,0,0,1-.365.868l-2.842,2.8a1.217,1.217,0,0,1-1.7,0L44.8,82.184a1.212,1.212,0,0,1-.43-.933V78.9a4.366,4.366,0,0,0-.74,5.845,5.36,5.36,0,0,0,2.2,1.785,1.218,1.218,0,0,1,.809,1.149v5.974a11.332,11.332,0,0,0,3.522,0ZM46.811,60.249h.35v-31.6a4.5,4.5,0,0,1,4.49-4.493h41.88a4.5,4.5,0,0,1,4.493,4.493V42.511a2.836,2.836,0,0,1,2.21-1.145,2.576,2.576,0,0,1,1.815.75l3.71,3.714a2.57,2.57,0,0,1,0,3.63l-7.735,7.735V82.773a4.5,4.5,0,0,1-4.493,4.49H66.213a.355.355,0,0,0-.03.089,18.443,18.443,0,0,1-.78,2.28h.005a19.453,19.453,0,0,1-1.065,2.161.422.422,0,0,0,.07.538c.893.893,1.707,1.509,1.707,2.9a2.857,2.857,0,0,1-.849,2.033l.005.005-2.215,2.215a2.892,2.892,0,0,1-4.074,0l-.858-.863a.422.422,0,0,0-.538-.075,18.2,18.2,0,0,1-4.439,1.839.426.426,0,0,0-.325.433c0,1.263.137,2.269-.844,3.251a2.872,2.872,0,0,1-2.038.844H46.813a2.884,2.884,0,0,1-2.88-2.88c0-2.264.325-1.169-2.605-2.422v.005a18.612,18.612,0,0,1-2.161-1.07.429.429,0,0,0-.538.075c-.893.893-1.509,1.7-2.9,1.7a2.874,2.874,0,0,1-2.038-.839L31.48,97.264a2.892,2.892,0,0,1,0-4.074l.863-.858a.423.423,0,0,0,.075-.538,18.287,18.287,0,0,1-1.839-4.439.426.426,0,0,0-.433-.325c-1.263,0-2.269.134-3.251-.849a2.854,2.854,0,0,1-.844-2.033V81.015a2.883,2.883,0,0,1,2.88-2.88h1.213a.424.424,0,0,0,.433-.325,18.23,18.23,0,0,1,1.839-4.439.422.422,0,0,0-.075-.538c-.893-.893-1.7-1.509-1.7-2.9a2.88,2.88,0,0,1,.844-2.038h-.005l2.215-2.215a2.882,2.882,0,0,1,4.074,0l.858.863a.431.431,0,0,0,.538.075A18.3,18.3,0,0,1,43.6,64.777a.417.417,0,0,0,.325-.43h.005V63.134h-.005a2.889,2.889,0,0,1,2.884-2.885Zm2.788,0h.345a2.883,2.883,0,0,1,2.88,2.88v1.213a.418.418,0,0,0,.325.43,18.159,18.159,0,0,1,4.439,1.845.427.427,0,0,0,.538-.075c.893-.893,1.509-1.707,2.9-1.707a2.871,2.871,0,0,1,2.038.844l2.215,2.215a2.882,2.882,0,0,1,0,4.074l-.863.858a.421.421,0,0,0-.07.538,18.036,18.036,0,0,1,1.06,2.161h.005a18.681,18.681,0,0,1,.774,2.28.417.417,0,0,0,.43.325c1.263,0,2.269-.137,3.251.844a2.872,2.872,0,0,1,.844,2.038v3.132a2.888,2.888,0,0,1-.078.686h22.9a2.069,2.069,0,0,0,2.057-2.057V59.631l-7.325,7.325a1.214,1.214,0,0,1-.774.35l-6.576,1.041a1.215,1.215,0,0,1-1.382-1.411l1.06-6.679a1.205,1.205,0,0,1,.336-.642l-.005-.005L95.586,44.944V28.653A2.065,2.065,0,0,0,93.529,26.6H51.651A2.064,2.064,0,0,0,49.6,28.653Zm.345,2.436H46.811a.444.444,0,0,0-.444.444h-.005v1.213h.005a2.868,2.868,0,0,1-2.135,2.783,15.827,15.827,0,0,0-3.848,1.594,2.872,2.872,0,0,1-3.477-.454l-.858-.863a.461.461,0,0,0-.632,0l-2.21,2.215H33.2a.449.449,0,0,0,.005.626l.858.863a2.867,2.867,0,0,1,.454,3.477,15.884,15.884,0,0,0-1.594,3.848,2.868,2.868,0,0,1-2.783,2.135H28.93a.448.448,0,0,0-.444.444v3.132a.448.448,0,0,0,.444.444c1.145,0,2.033-.129,2.969.592a2.863,2.863,0,0,1,1.027,1.544,15.742,15.742,0,0,0,1.594,3.848,2.872,2.872,0,0,1-.454,3.477l-.858.858a.451.451,0,0,0,0,.632l2.21,2.21a.451.451,0,0,0,.632,0c.809-.809,1.347-1.524,2.52-1.678a2.831,2.831,0,0,1,1.815.365,15.476,15.476,0,0,0,1.874.922v.005a16.411,16.411,0,0,0,1.973.667,2.862,2.862,0,0,1,2.135,2.783v1.213a.444.444,0,0,0,.444.444h3.132a.445.445,0,0,0,.444-.444c0-1.145-.124-2.033.592-2.969a2.9,2.9,0,0,1,1.544-1.027,15.742,15.742,0,0,0,3.848-1.594,2.871,2.871,0,0,1,3.477.454l.863.858a.444.444,0,0,0,.626,0l2.215-2.21a.456.456,0,0,0,0-.632c-.814-.809-1.53-1.347-1.683-2.522a2.9,2.9,0,0,1,.365-1.815,15.477,15.477,0,0,0,.922-1.874h.005a16.416,16.416,0,0,0,.667-1.973,2.867,2.867,0,0,1,2.783-2.135v.005h1.213v-.005a.449.449,0,0,0,.449-.444V81.008a.448.448,0,0,0-.444-.444c-1.149,0-2.038.124-2.969-.592a2.871,2.871,0,0,1-1.03-1.544,15.294,15.294,0,0,0-.67-1.973l.005-.005a16.088,16.088,0,0,0-.928-1.869,2.871,2.871,0,0,1,.454-3.477l.863-.863a.454.454,0,0,0,0-.626L61.34,67.4a.454.454,0,0,0-.626,0c-.814.814-1.352,1.53-2.525,1.683a2.9,2.9,0,0,1-1.815-.365,15.68,15.68,0,0,0-3.848-1.594,2.872,2.872,0,0,1-2.135-2.783V63.127A.449.449,0,0,0,49.943,62.685ZM69.2,70.73a1.218,1.218,0,0,1,0-2.436h8.994a1.218,1.218,0,0,1,0,2.436Zm31.19-19.346-3.9-3.9L83.986,60a8.763,8.763,0,0,1,3.9,3.9Zm-2.175-5.619,3.9,3.9,1.928-1.925a.139.139,0,0,0,0-.188l-3.71-3.71a.129.129,0,0,0-.188,0ZM85.782,65.122A6.471,6.471,0,0,0,82.757,62.1l-.573,3.592ZM67.657,50.653a1.218,1.218,0,0,1,0-2.436h3.374a1.218,1.218,0,0,1,0,2.436Zm7.5,2.506a1.218,1.218,0,1,1,0,2.436h-7.5a1.218,1.218,0,0,1,0-2.436Zm6.674,0a1.218,1.218,0,0,1,0,2.436H79.014a1.218,1.218,0,0,1,0-2.436Zm-6.714-2.506a1.218,1.218,0,1,1,0-2.436H81.83a1.218,1.218,0,0,1,0,2.436ZM67.657,36.112a1.218,1.218,0,0,1,0-2.436H70.9a1.218,1.218,0,1,1,0,2.436Zm7.676,2.5a1.218,1.218,0,0,1,0,2.436H67.657a1.218,1.218,0,0,1,0-2.436Zm6.5,0a1.218,1.218,0,0,1,0,2.436H79.014a1.218,1.218,0,0,1,0-2.436Zm-7.158-2.5a1.218,1.218,0,0,1,0-2.436H81.83a1.218,1.218,0,0,1,0,2.436ZM55.4,52.454a1.213,1.213,0,1,1,1.465-1.933l1.834,1.4,2.146-2.847H54.821V55.1h6.106V53.006l-1.016,1.347a1.221,1.221,0,0,1-1.7.237Zm7.212-5.727.533-.7a1.215,1.215,0,1,1,1.939,1.465l-1.721,2.288v6.542a1.221,1.221,0,0,1-1.218,1.218H53.6a1.222,1.222,0,0,1-1.218-1.218V47.851A1.218,1.218,0,0,1,53.6,46.633h8.545a1.262,1.262,0,0,1,.468.094Zm-7.359-8.16a1.23,1.23,0,0,1-.433-.76v3.329h6.106V38.265l-1.4,2.062a1.222,1.222,0,0,1-1.775.261Zm-.435-1.129a1.22,1.22,0,0,1,1.968-.755l1.47,1.189,1.864-2.762h-5.3Zm6.95-4.765.957-1.417a1.217,1.217,0,1,1,2.017,1.361l-1.382,2.043v7.7a1.218,1.218,0,0,1-1.218,1.218H53.6a1.218,1.218,0,0,1-1.218-1.218V33.891A1.222,1.222,0,0,1,53.6,32.673Z" transform="translate(0 0)"/>
  </g>
</svg>
