<svg xmlns="http://www.w3.org/2000/svg" width="74.444" height="78.54" viewBox="0 0 74.444 78.54">
  <g id="table_7178890" transform="translate(-20.082 -6.886)">
    <path id="Trazado_1245712" data-name="Trazado 1245712" d="M191.267,43.7h-3.395a.9.9,0,0,1-.9-.9v-6.79a.9.9,0,0,1,.9-.9h5.542Z" transform="translate(-140.405 -23.315)" fill="#0681af"/>
    <path id="Trazado_1245713" data-name="Trazado 1245713" d="M285.759,43.7h3.395a.9.9,0,0,0,.9-.9v-6.79a.9.9,0,0,0-.9-.9h-5.542Z" transform="translate(-222.012 -23.315)" fill="#0681af"/>
    <path id="Trazado_1245714" data-name="Trazado 1245714" d="M225.763,34.191h-9.474a1.705,1.705,0,0,1-1.705-1.705V21.306h12.885v11.18A1.705,1.705,0,0,1,225.763,34.191Z" transform="translate(-163.721 -11.658)" fill="#017297"/>
    <path id="Trazado_1245715" data-name="Trazado 1245715" d="M217.214,12.762h0a32.357,32.357,0,0,0-15.695,0h0a.6.6,0,0,1-.743-.58V9.418a.98.98,0,0,1,.743-.951h0a32.357,32.357,0,0,1,15.695,0h0a.981.981,0,0,1,.743.951v2.764A.6.6,0,0,1,217.214,12.762Z" transform="translate(-152.063)" fill="#3692bc"/>
    <path id="Trazado_1245716" data-name="Trazado 1245716" d="M41.565,175.622l-1.7,2.94a.9.9,0,0,1-1.23.329l-5.88-3.395a.9.9,0,0,1-.329-1.23l2.771-4.8Z" transform="translate(-9.799 -136.772)" fill="#0681af"/>
    <path id="Trazado_1245717" data-name="Trazado 1245717" d="M87.023,95.578l1.7-2.94a.9.9,0,0,0-.329-1.23l-5.88-3.395a.9.9,0,0,0-1.23.329l-2.771,4.8Z" transform="translate(-48.815 -67.886)" fill="#0681af"/>
    <path id="Trazado_1245718" data-name="Trazado 1245718" d="M48.789,110.7l-4.737,8.205a1.705,1.705,0,0,1-2.33.624l-9.682-5.59,6.443-11.159,9.682,5.59A1.705,1.705,0,0,1,48.789,110.7Z" transform="translate(-9.573 -80.462)" fill="#017297"/>
    <path id="Trazado_1245719" data-name="Trazado 1245719" d="M32.309,91.691h0a32.354,32.354,0,0,0-7.847,13.592h0a.6.6,0,0,1-.874.353l-2.393-1.382a.981.981,0,0,1-.453-1.119h0A32.354,32.354,0,0,1,28.59,89.543h0a.981.981,0,0,1,1.2-.168l2.393,1.382A.6.6,0,0,1,32.309,91.691Z" transform="translate(-0.001 -69.028)" fill="#3692bc"/>
    <path id="Trazado_1245720" data-name="Trazado 1245720" d="M87.023,374.7l1.7,2.94a.9.9,0,0,1-.329,1.23l-5.88,3.395a.9.9,0,0,1-1.23-.329l-2.771-4.8Z" transform="translate(-48.815 -310.081)" fill="#0681af"/>
    <path id="Trazado_1245721" data-name="Trazado 1245721" d="M41.565,284.56l-1.7-2.94a.9.9,0,0,0-1.23-.329l-5.88,3.395a.9.9,0,0,0-.329,1.23l2.771,4.8Z" transform="translate(-9.799 -231.099)" fill="#0681af"/>
    <path id="Trazado_1245722" data-name="Trazado 1245722" d="M44.052,300.926l4.737,8.205a1.705,1.705,0,0,1-.624,2.33l-9.682,5.59L32.04,305.892l9.682-5.59A1.705,1.705,0,0,1,44.052,300.926Z" transform="translate(-9.573 -247.062)" fill="#017297"/>
    <path id="Trazado_1245723" data-name="Trazado 1245723" d="M24.461,317.3h0a32.356,32.356,0,0,0,7.847,13.592h0a.6.6,0,0,1-.131.933L29.784,333.2a.981.981,0,0,1-1.2-.168h0a32.354,32.354,0,0,1-7.847-13.592h0a.98.98,0,0,1,.453-1.119l2.393-1.382A.6.6,0,0,1,24.461,317.3Z" transform="translate(0 -261.239)" fill="#3692bc"/>
    <path id="Trazado_1245724" data-name="Trazado 1245724" d="M285.759,421.667h3.395a.9.9,0,0,1,.9.9v6.79a.9.9,0,0,1-.9.9h-5.542Z" transform="translate(-222.012 -349.741)" fill="#0681af"/>
    <path id="Trazado_1245725" data-name="Trazado 1245725" d="M191.267,421.667h-3.395a.9.9,0,0,0-.9.9v6.79a.9.9,0,0,0,.9.9h5.542Z" transform="translate(-140.405 -349.741)" fill="#0681af"/>
    <path id="Trazado_1245726" data-name="Trazado 1245726" d="M216.289,407.861h9.474a1.705,1.705,0,0,1,1.705,1.705v11.18H214.584v-11.18A1.705,1.705,0,0,1,216.289,407.861Z" transform="translate(-163.722 -338.083)" fill="#017297"/>
    <path id="Trazado_1245727" data-name="Trazado 1245727" d="M201.521,470.58h0a32.356,32.356,0,0,0,15.695,0h0a.6.6,0,0,1,.743.58v2.764a.98.98,0,0,1-.743.951h0a32.357,32.357,0,0,1-15.695,0h0a.981.981,0,0,1-.743-.951V471.16A.6.6,0,0,1,201.521,470.58Z" transform="translate(-152.064 -391.03)" fill="#3692bc"/>
    <path id="Trazado_1245728" data-name="Trazado 1245728" d="M420.18,284.56l1.7-2.94a.9.9,0,0,1,1.23-.329l5.88,3.395a.9.9,0,0,1,.329,1.23l-2.771,4.8Z" transform="translate(-337.337 -231.099)" fill="#0681af"/>
    <path id="Trazado_1245729" data-name="Trazado 1245729" d="M368.893,374.7l-1.7,2.94a.9.9,0,0,0,.329,1.23l5.88,3.395a.9.9,0,0,0,1.23-.329l2.771-4.8Z" transform="translate(-292.492 -310.081)" fill="#0681af"/>
    <path id="Trazado_1245730" data-name="Trazado 1245730" d="M371.047,309.131l4.737-8.205a1.706,1.706,0,0,1,2.33-.624l9.682,5.59-6.443,11.159-9.682-5.59A1.7,1.7,0,0,1,371.047,309.131Z" transform="translate(-295.653 -247.061)" fill="#017297"/>
    <path id="Trazado_1245731" data-name="Trazado 1245731" d="M415.781,330.888h0a32.353,32.353,0,0,0,7.847-13.592h0a.6.6,0,0,1,.874-.353l2.393,1.382a.981.981,0,0,1,.453,1.119h0a32.355,32.355,0,0,1-7.847,13.592h0a.981.981,0,0,1-1.2.168l-2.394-1.382A.6.6,0,0,1,415.781,330.888Z" transform="translate(-333.48 -261.24)" fill="#3692bc"/>
    <path id="Trazado_1245732" data-name="Trazado 1245732" d="M368.893,95.577l-1.7-2.94a.9.9,0,0,1,.329-1.23l5.88-3.395a.9.9,0,0,1,1.23.329l2.771,4.8Z" transform="translate(-292.492 -67.886)" fill="#0681af"/>
    <path id="Trazado_1245733" data-name="Trazado 1245733" d="M420.18,175.622l1.7,2.94a.9.9,0,0,0,1.23.329l5.88-3.395a.9.9,0,0,0,.329-1.23l-2.771-4.8Z" transform="translate(-337.337 -136.772)" fill="#0681af"/>
    <path id="Trazado_1245734" data-name="Trazado 1245734" d="M375.783,118.908l-4.737-8.205a1.705,1.705,0,0,1,.624-2.33l9.682-5.59,6.443,11.159-9.682,5.59A1.705,1.705,0,0,1,375.783,118.908Z" transform="translate(-295.653 -80.461)" fill="#017297"/>
    <path id="Trazado_1245735" data-name="Trazado 1245735" d="M423.629,105.284h0a32.354,32.354,0,0,0-7.847-13.592h0a.6.6,0,0,1,.131-.933l2.394-1.382a.981.981,0,0,1,1.2.168h0a32.355,32.355,0,0,1,7.847,13.592h0a.981.981,0,0,1-.453,1.119l-2.393,1.382A.6.6,0,0,1,423.629,105.284Z" transform="translate(-333.481 -69.029)" fill="#3692bc"/>
    <circle id="Elipse_12358" data-name="Elipse 12358" cx="25.77" cy="25.77" r="25.77" transform="translate(31.534 20.386)" fill="#fd6930"/>
    <path id="Trazado_1245736" data-name="Trazado 1245736" d="M185.484,99.1a25.778,25.778,0,0,1-22.813,45.7,25.774,25.774,0,1,0,22.813-45.7Z" transform="translate(-119.884 -77.354)" fill="#fd5426"/>
    <rect id="Rectángulo_410805" data-name="Rectángulo 410805" width="8.59" height="10.738" transform="translate(57.304 31.123)" fill="#dff6fd"/>
    <rect id="Rectángulo_410806" data-name="Rectángulo 410806" width="8.59" height="10.738" transform="matrix(-0.5, -0.866, 0.866, -0.5, 44.285, 53.673)" fill="#dff6fd"/>
    <rect id="Rectángulo_410807" data-name="Rectángulo 410807" width="8.59" height="10.738" transform="matrix(-0.5, 0.866, -0.866, -0.5, 76.191, 52.099)" fill="#dff6fd"/>
    <path id="Trazado_1245737" data-name="Trazado 1245737" d="M349.553,291.226a25.729,25.729,0,0,1-4.178,7.507l.688.4,4.3-7.439Z" transform="translate(-274.168 -239.591)" fill="#c8effe"/>
    <rect id="Rectángulo_410808" data-name="Rectángulo 410808" width="8.59" height="10.738" transform="translate(53.009 26.828)" fill="#f2fbff"/>
    <rect id="Rectángulo_410809" data-name="Rectángulo 410809" width="8.59" height="10.738" transform="matrix(-0.5, -0.866, 0.866, -0.5, 42.713, 59.54)" fill="#f2fbff"/>
    <rect id="Rectángulo_410810" data-name="Rectángulo 410810" width="8.59" height="10.738" transform="matrix(-0.5, 0.866, -0.866, -0.5, 70.324, 53.671)" fill="#f2fbff"/>
    <path id="Trazado_1245738" data-name="Trazado 1245738" d="M138.306,103.014a25.8,25.8,0,1,1-3.243-4.364" transform="translate(-58.799 -69.947)" fill="none" stroke="#000" stroke-linecap="round" stroke-linejoin="round" stroke-miterlimit="10" stroke-width="1.2"/>
    <path id="Trazado_1245739" data-name="Trazado 1245739" d="M206.781,11.9a32.365,32.365,0,0,0-5.26.862h0a.6.6,0,0,1-.743-.58V9.418a.98.98,0,0,1,.743-.951h0a32.357,32.357,0,0,1,15.695,0h0a.981.981,0,0,1,.743.951v2.764a.6.6,0,0,1-.743.58h0a32.344,32.344,0,0,0-4.993-.84" transform="translate(-152.064)" fill="none" stroke="#000" stroke-linecap="round" stroke-linejoin="round" stroke-miterlimit="10" stroke-width="1.2"/>
    <line id="Línea_818" data-name="Línea 818" x2="4.295" transform="translate(55.157 16.091)" fill="none" stroke="#000" stroke-linecap="round" stroke-linejoin="round" stroke-miterlimit="10" stroke-width="1.2"/>
    <rect id="Rectángulo_410811" data-name="Rectángulo 410811" width="8.59" height="10.738" transform="translate(53.009 26.828)" fill="none" stroke="#000" stroke-linecap="round" stroke-linejoin="round" stroke-miterlimit="10" stroke-width="1.2"/>
    <rect id="Rectángulo_410812" data-name="Rectángulo 410812" width="8.59" height="10.738" transform="matrix(-0.5, -0.866, 0.866, -0.5, 42.713, 59.54)" fill="none" stroke="#000" stroke-linecap="round" stroke-linejoin="round" stroke-miterlimit="10" stroke-width="1.2"/>
    <path id="Trazado_1245740" data-name="Trazado 1245740" d="M255.047,278.831l-2.746-1.586,4.295-7.439,9.3,5.369-4.3,7.439-1.771-1.023" transform="translate(-195.572 -221.503)" fill="none" stroke="#000" stroke-linecap="round" stroke-linejoin="round" stroke-miterlimit="10" stroke-width="1.2"/>
    <line id="Línea_819" data-name="Línea 819" x2="2.148" y2="4.295" transform="translate(46.567 28.976)" fill="none" stroke="#000" stroke-linecap="round" stroke-linejoin="round" stroke-miterlimit="10" stroke-width="1.2"/>
    <line id="Línea_820" data-name="Línea 820" x2="4.295" transform="translate(74.484 46.156)" fill="none" stroke="#000" stroke-linecap="round" stroke-linejoin="round" stroke-miterlimit="10" stroke-width="1.2"/>
    <line id="Línea_821" data-name="Línea 821" x1="2.147" y2="4.295" transform="translate(48.714 59.041)" fill="none" stroke="#000" stroke-linecap="round" stroke-linejoin="round" stroke-miterlimit="10" stroke-width="1.2"/>
    <path id="Trazado_1245741" data-name="Trazado 1245741" d="M297.417,43.7h3.395a.9.9,0,0,0,.9-.9v-6.79a.9.9,0,0,0-.9-.9h-1.247" transform="translate(-233.67 -23.315)" fill="none" stroke="#000" stroke-linecap="round" stroke-linejoin="round" stroke-miterlimit="10" stroke-width="1.2"/>
    <path id="Trazado_1245742" data-name="Trazado 1245742" d="M189.12,35.111h-1.247a.9.9,0,0,0-.9.9V42.8a.9.9,0,0,0,.9.9h3.395" transform="translate(-140.406 -23.315)" fill="none" stroke="#000" stroke-linecap="round" stroke-linejoin="round" stroke-miterlimit="10" stroke-width="1.2"/>
    <line id="Línea_822" data-name="Línea 822" y2="8.384" transform="translate(50.862 12.444)" fill="none" stroke="#000" stroke-linecap="round" stroke-linejoin="round" stroke-miterlimit="10" stroke-width="1.2"/>
    <line id="Línea_823" data-name="Línea 823" y1="8.384" transform="translate(63.747 12.444)" fill="none" stroke="#000" stroke-linecap="round" stroke-linejoin="round" stroke-miterlimit="10" stroke-width="1.2"/>
    <path id="Trazado_1245743" data-name="Trazado 1245743" d="M32.309,91.691h0a32.354,32.354,0,0,0-7.847,13.592h0a.6.6,0,0,1-.874.353l-2.393-1.382a.981.981,0,0,1-.453-1.119h0A32.354,32.354,0,0,1,28.59,89.543h0a.981.981,0,0,1,1.2-.168l2.393,1.382A.6.6,0,0,1,32.309,91.691Z" transform="translate(-0.001 -69.028)" fill="none" stroke="#000" stroke-linecap="round" stroke-linejoin="round" stroke-miterlimit="10" stroke-width="1.2"/>
    <line id="Línea_824" data-name="Línea 824" y1="3.72" x2="2.147" transform="translate(30.194 29.264)" fill="none" stroke="#000" stroke-linecap="round" stroke-linejoin="round" stroke-miterlimit="10" stroke-width="1.2"/>
    <path id="Trazado_1245744" data-name="Trazado 1245744" d="M98.682,95.578l1.7-2.94a.9.9,0,0,0-.329-1.23l-5.88-3.395a.9.9,0,0,0-1.229.329l-.624,1.08" transform="translate(-60.474 -67.886)" fill="none" stroke="#000" stroke-linecap="round" stroke-linejoin="round" stroke-miterlimit="10" stroke-width="1.2"/>
    <path id="Trazado_1245745" data-name="Trazado 1245745" d="M33.052,193.379l-.624,1.08a.9.9,0,0,0,.329,1.229l5.88,3.395a.9.9,0,0,0,1.23-.329l1.7-2.94" transform="translate(-9.799 -156.964)" fill="none" stroke="#000" stroke-linecap="round" stroke-linejoin="round" stroke-miterlimit="10" stroke-width="1.2"/>
    <line id="Línea_825" data-name="Línea 825" x2="7.261" y2="4.192" transform="translate(24.888 34.879)" fill="none" stroke="#000" stroke-linecap="round" stroke-linejoin="round" stroke-miterlimit="10" stroke-width="1.2"/>
    <line id="Línea_826" data-name="Línea 826" x1="7.261" y1="4.192" transform="translate(31.33 23.72)" fill="none" stroke="#000" stroke-linecap="round" stroke-linejoin="round" stroke-miterlimit="10" stroke-width="1.2"/>
    <path id="Trazado_1245746" data-name="Trazado 1245746" d="M24.461,317.3h0a32.356,32.356,0,0,0,7.847,13.592h0a.6.6,0,0,1-.131.933L29.784,333.2a.981.981,0,0,1-1.2-.168h0a32.354,32.354,0,0,1-7.847-13.592h0a.98.98,0,0,1,.453-1.119l2.393-1.382A.6.6,0,0,1,24.461,317.3Z" transform="translate(0 -261.239)" fill="none" stroke="#000" stroke-linecap="round" stroke-linejoin="round" stroke-miterlimit="10" stroke-width="1.2"/>
    <line id="Línea_827" data-name="Línea 827" x1="2.147" y1="3.72" transform="translate(30.194 59.329)" fill="none" stroke="#000" stroke-linecap="round" stroke-linejoin="round" stroke-miterlimit="10" stroke-width="1.2"/>
    <path id="Trazado_1245747" data-name="Trazado 1245747" d="M41.565,284.561l-1.7-2.94a.9.9,0,0,0-1.23-.329l-5.88,3.395a.9.9,0,0,0-.329,1.23l.624,1.08" transform="translate(-9.799 -231.099)" fill="none" stroke="#000" stroke-linecap="round" stroke-linejoin="round" stroke-miterlimit="10" stroke-width="1.2"/>
    <path id="Trazado_1245748" data-name="Trazado 1245748" d="M92.316,380.855l.624,1.08a.9.9,0,0,0,1.229.329l5.88-3.395a.9.9,0,0,0,.329-1.23l-1.7-2.94" transform="translate(-60.473 -310.08)" fill="none" stroke="#000" stroke-linecap="round" stroke-linejoin="round" stroke-miterlimit="10" stroke-width="1.2"/>
    <line id="Línea_828" data-name="Línea 828" y1="4.192" x2="7.261" transform="translate(31.33 64.399)" fill="none" stroke="#000" stroke-linecap="round" stroke-linejoin="round" stroke-miterlimit="10" stroke-width="1.2"/>
    <line id="Línea_829" data-name="Línea 829" x1="7.261" y2="4.192" transform="translate(24.888 53.24)" fill="none" stroke="#000" stroke-linecap="round" stroke-linejoin="round" stroke-miterlimit="10" stroke-width="1.2"/>
    <path id="Trazado_1245749" data-name="Trazado 1245749" d="M201.521,470.58h0a32.356,32.356,0,0,0,15.695,0h0a.6.6,0,0,1,.743.58v2.764a.98.98,0,0,1-.743.951h0a32.357,32.357,0,0,1-15.695,0h0a.981.981,0,0,1-.743-.951V471.16A.6.6,0,0,1,201.521,470.58Z" transform="translate(-152.064 -391.03)" fill="none" stroke="#000" stroke-linecap="round" stroke-linejoin="round" stroke-miterlimit="10" stroke-width="1.2"/>
    <line id="Línea_830" data-name="Línea 830" x1="4.295" transform="translate(55.157 76.221)" fill="none" stroke="#000" stroke-linecap="round" stroke-linejoin="round" stroke-miterlimit="10" stroke-width="1.2"/>
    <path id="Trazado_1245750" data-name="Trazado 1245750" d="M191.266,421.667h-3.395a.9.9,0,0,0-.9.9v6.79a.9.9,0,0,0,.9.9h1.247" transform="translate(-140.404 -349.741)" fill="none" stroke="#000" stroke-linecap="round" stroke-linejoin="round" stroke-miterlimit="10" stroke-width="1.2"/>
    <path id="Trazado_1245751" data-name="Trazado 1245751" d="M299.564,430.257h1.247a.9.9,0,0,0,.9-.9v-6.79a.9.9,0,0,0-.9-.9h-3.395" transform="translate(-233.669 -349.741)" fill="none" stroke="#000" stroke-linecap="round" stroke-linejoin="round" stroke-miterlimit="10" stroke-width="1.2"/>
    <line id="Línea_831" data-name="Línea 831" y1="8.384" transform="translate(63.747 71.484)" fill="none" stroke="#000" stroke-linecap="round" stroke-linejoin="round" stroke-miterlimit="10" stroke-width="1.2"/>
    <line id="Línea_832" data-name="Línea 832" y2="8.384" transform="translate(50.862 71.484)" fill="none" stroke="#000" stroke-linecap="round" stroke-linejoin="round" stroke-miterlimit="10" stroke-width="1.2"/>
    <path id="Trazado_1245752" data-name="Trazado 1245752" d="M415.781,330.888h0a32.353,32.353,0,0,0,7.847-13.592h0a.6.6,0,0,1,.874-.353l2.393,1.382a.981.981,0,0,1,.453,1.119h0a32.355,32.355,0,0,1-7.847,13.592h0a.981.981,0,0,1-1.2.168l-2.394-1.382A.6.6,0,0,1,415.781,330.888Z" transform="translate(-333.48 -261.24)" fill="none" stroke="#000" stroke-linecap="round" stroke-linejoin="round" stroke-miterlimit="10" stroke-width="1.2"/>
    <line id="Línea_833" data-name="Línea 833" x1="2.147" y2="3.72" transform="translate(82.268 59.329)" fill="none" stroke="#000" stroke-linecap="round" stroke-linejoin="round" stroke-miterlimit="10" stroke-width="1.2"/>
    <path id="Trazado_1245753" data-name="Trazado 1245753" d="M368.893,374.7l-1.7,2.94a.9.9,0,0,0,.329,1.23l5.88,3.395a.9.9,0,0,0,1.23-.329l.624-1.08" transform="translate(-292.492 -310.081)" fill="none" stroke="#000" stroke-linecap="round" stroke-linejoin="round" stroke-miterlimit="10" stroke-width="1.2"/>
    <path id="Trazado_1245754" data-name="Trazado 1245754" d="M428.693,287l.624-1.08a.9.9,0,0,0-.329-1.229l-5.88-3.395a.9.9,0,0,0-1.23.329l-1.7,2.94" transform="translate(-337.337 -231.099)" fill="none" stroke="#000" stroke-linecap="round" stroke-linejoin="round" stroke-miterlimit="10" stroke-width="1.2"/>
    <line id="Línea_834" data-name="Línea 834" x1="7.261" y1="4.192" transform="translate(82.46 53.24)" fill="none" stroke="#000" stroke-linecap="round" stroke-linejoin="round" stroke-miterlimit="10" stroke-width="1.2"/>
    <line id="Línea_835" data-name="Línea 835" x2="7.261" y2="4.192" transform="translate(76.018 64.399)" fill="none" stroke="#000" stroke-linecap="round" stroke-linejoin="round" stroke-miterlimit="10" stroke-width="1.2"/>
    <path id="Trazado_1245755" data-name="Trazado 1245755" d="M423.629,105.284h0a32.354,32.354,0,0,0-7.847-13.592h0a.6.6,0,0,1,.131-.933l2.394-1.382a.981.981,0,0,1,1.2.168h0a32.355,32.355,0,0,1,7.847,13.592h0a.981.981,0,0,1-.453,1.119l-2.393,1.382A.6.6,0,0,1,423.629,105.284Z" transform="translate(-333.481 -69.029)" fill="none" stroke="#000" stroke-linecap="round" stroke-linejoin="round" stroke-miterlimit="10" stroke-width="1.2"/>
    <line id="Línea_836" data-name="Línea 836" x2="2.147" y2="3.72" transform="translate(82.268 29.264)" fill="none" stroke="#000" stroke-linecap="round" stroke-linejoin="round" stroke-miterlimit="10" stroke-width="1.2"/>
    <path id="Trazado_1245756" data-name="Trazado 1245756" d="M420.18,195.814l1.7,2.94a.9.9,0,0,0,1.23.329l5.88-3.395a.9.9,0,0,0,.329-1.23l-.624-1.08" transform="translate(-337.337 -156.964)" fill="none" stroke="#000" stroke-linecap="round" stroke-linejoin="round" stroke-miterlimit="10" stroke-width="1.2"/>
    <path id="Trazado_1245757" data-name="Trazado 1245757" d="M375.259,89.423l-.624-1.08a.9.9,0,0,0-1.229-.329l-5.88,3.395a.9.9,0,0,0-.329,1.23l1.7,2.94" transform="translate(-292.493 -67.886)" fill="none" stroke="#000" stroke-linecap="round" stroke-linejoin="round" stroke-miterlimit="10" stroke-width="1.2"/>
    <line id="Línea_837" data-name="Línea 837" x1="7.261" y2="4.192" transform="translate(76.018 23.72)" fill="none" stroke="#000" stroke-linecap="round" stroke-linejoin="round" stroke-miterlimit="10" stroke-width="1.2"/>
    <line id="Línea_838" data-name="Línea 838" y1="4.192" x2="7.261" transform="translate(82.46 34.879)" fill="none" stroke="#000" stroke-linecap="round" stroke-linejoin="round" stroke-miterlimit="10" stroke-width="1.2"/>
    <path id="Trazado_1245758" data-name="Trazado 1245758" d="M256,165.8V170.1h8.59V159.361h-4.295" transform="translate(-198.696 -128.238)" fill="none" stroke="#000" stroke-linecap="round" stroke-linejoin="round" stroke-miterlimit="10" stroke-width="1.2"/>
    <path id="Trazado_1245759" data-name="Trazado 1245759" d="M307.256,270.359l3.72,2.148,4.295-7.439-9.3-5.369-2.147,3.72" transform="translate(-239.08 -212.968)" fill="none" stroke="#000" stroke-linecap="round" stroke-linejoin="round" stroke-miterlimit="10" stroke-width="1.2"/>
    <path id="Trazado_1245760" data-name="Trazado 1245760" d="M154.571,231.569l3.72-2.147L154,221.982l-9.3,5.369,2.148,3.72" transform="translate(-104.706 -181.118)" fill="none" stroke="#000" stroke-linecap="round" stroke-linejoin="round" stroke-miterlimit="10" stroke-width="1.2"/>
  </g>
</svg>
