<svg xmlns="http://www.w3.org/2000/svg" width="89.475" height="89.452" viewBox="0 0 89.475 89.452">
  <g id="meeting_7185741" transform="translate(-6.696 -6.85)">
    <path id="Trazado_1245761" data-name="Trazado 1245761" d="M206.533,59.861H194.246a5.786,5.786,0,0,0-5.786,5.786V77.526h23.858V65.647A5.786,5.786,0,0,0,206.533,59.861Z" transform="translate(-148.944 -43.066)" fill="#7a6d79"/>
    <path id="Trazado_1245762" data-name="Trazado 1245762" d="M200.495,59.86a5.785,5.785,0,0,0-5.785,5.785V77.525h-6.249V65.645a5.785,5.785,0,0,1,5.785-5.785Z" transform="translate(-148.945 -43.065)" fill="#685e68"/>
    <path id="Trazado_1245763" data-name="Trazado 1245763" d="M188.461,73.968v-8.2A5.785,5.785,0,0,1,193.7,60.01" transform="translate(-148.945 -43.189)" fill="none" stroke="#000" stroke-linecap="round" stroke-linejoin="round" stroke-miterlimit="10" stroke-width="1.3"/>
    <path id="Trazado_1245764" data-name="Trazado 1245764" d="M293.371,60.01a5.785,5.785,0,0,1,5.235,5.759v8.2" transform="translate(-235.232 -43.189)" fill="none" stroke="#000" stroke-linecap="round" stroke-linejoin="round" stroke-miterlimit="10" stroke-width="1.3"/>
    <path id="Trazado_1245765" data-name="Trazado 1245765" d="M230,35.076A7.063,7.063,0,1,1,216.38,32.44c2.874,1.178,3.584.529,6.554.529s3.287.852,6.554-.529A7.035,7.035,0,0,1,230,35.076Z" transform="translate(-171.489 -20.513)" fill="#ffdfcf"/>
    <path id="Trazado_1245766" data-name="Trazado 1245766" d="M231.849,11.927a7.064,7.064,0,0,1-13.108,0,7.065,7.065,0,0,1,13.108,0Z" transform="translate(-173.85)" fill="#7a6d79"/>
    <circle id="Elipse_12359" data-name="Elipse 12359" cx="7.064" cy="7.064" r="7.064" transform="translate(44.381 7.5)" fill="none" stroke="#000" stroke-linecap="round" stroke-linejoin="round" stroke-miterlimit="10" stroke-width="1.3"/>
    <path id="Trazado_1245767" data-name="Trazado 1245767" d="M218.741,32.44a7.064,7.064,0,0,0,13.108,0" transform="translate(-173.85 -20.513)" fill="none" stroke="#000" stroke-linecap="round" stroke-linejoin="round" stroke-miterlimit="10" stroke-width="1.3"/>
    <path id="Trazado_1245768" data-name="Trazado 1245768" d="M206.533,369.877H194.246a5.786,5.786,0,0,1-5.786-5.786V352.212h23.858v11.879A5.786,5.786,0,0,1,206.533,369.877Z" transform="translate(-148.944 -283.52)" fill="#8ac9fe"/>
    <path id="Trazado_1245769" data-name="Trazado 1245769" d="M200.495,369.877a5.785,5.785,0,0,1-5.785-5.785v-11.88h-6.249v11.88a5.785,5.785,0,0,0,5.785,5.785Z" transform="translate(-148.945 -283.519)" fill="#60b7ff"/>
    <path id="Trazado_1245770" data-name="Trazado 1245770" d="M193.7,386.9a5.785,5.785,0,0,1-5.235-5.759v-8.2" transform="translate(-148.945 -300.569)" fill="none" stroke="#000" stroke-linecap="round" stroke-linejoin="round" stroke-miterlimit="10" stroke-width="1.3"/>
    <path id="Trazado_1245771" data-name="Trazado 1245771" d="M293.371,438.757a5.78,5.78,0,0,0,4.4-2.766" transform="translate(-235.232 -352.426)" fill="none" stroke="#000" stroke-linecap="round" stroke-linejoin="round" stroke-miterlimit="10" stroke-width="1.3"/>
    <line id="Línea_839" data-name="Línea 839" y1="5.093" transform="translate(63.374 72.372)" fill="none" stroke="#000" stroke-linecap="round" stroke-linejoin="round" stroke-miterlimit="10" stroke-width="1.3"/>
    <path id="Trazado_1245772" data-name="Trazado 1245772" d="M230,431.557a7.063,7.063,0,1,0-13.617,2.636c2.874-1.178,3.584-.529,6.554-.529s3.287-.852,6.554.529A7.035,7.035,0,0,0,230,431.557Z" transform="translate(-171.489 -342.968)" fill="#ae6c6c"/>
    <path id="Trazado_1245773" data-name="Trazado 1245773" d="M231.849,458.621a7.064,7.064,0,0,0-13.108,0,7.065,7.065,0,0,0,13.108,0Z" transform="translate(-173.85 -367.396)" fill="#7a6d79"/>
    <circle id="Elipse_12360" data-name="Elipse 12360" cx="7.064" cy="7.064" r="7.064" transform="translate(44.381 81.524)" fill="none" stroke="#000" stroke-linecap="round" stroke-linejoin="round" stroke-miterlimit="10" stroke-width="1.3"/>
    <path id="Trazado_1245774" data-name="Trazado 1245774" d="M231.849,458.621a7.064,7.064,0,0,0-13.108,0" transform="translate(-173.85 -367.396)" fill="none" stroke="#000" stroke-linecap="round" stroke-linejoin="round" stroke-miterlimit="10" stroke-width="1.3"/>
    <path id="Trazado_1245775" data-name="Trazado 1245775" d="M59.73,206.664V194.377a5.786,5.786,0,0,1,5.786-5.786H77.395v23.858H65.516A5.786,5.786,0,0,1,59.73,206.664Z" transform="translate(-43.066 -148.944)" fill="#fe76a8"/>
    <path id="Trazado_1245776" data-name="Trazado 1245776" d="M59.729,200.625a5.785,5.785,0,0,1,5.785-5.785H77.394v-6.249H65.514a5.785,5.785,0,0,0-5.785,5.785Z" transform="translate(-43.065 -148.944)" fill="#fe5694"/>
    <path id="Trazado_1245777" data-name="Trazado 1245777" d="M59.879,193.826a5.785,5.785,0,0,1,5.759-5.235h8.2" transform="translate(-43.189 -148.944)" fill="none" stroke="#000" stroke-linecap="round" stroke-linejoin="round" stroke-miterlimit="10" stroke-width="1.3"/>
    <path id="Trazado_1245778" data-name="Trazado 1245778" d="M73.837,298.736h-8.2a5.785,5.785,0,0,1-5.759-5.235" transform="translate(-43.189 -235.231)" fill="none" stroke="#000" stroke-linecap="round" stroke-linejoin="round" stroke-miterlimit="10" stroke-width="1.3"/>
    <path id="Trazado_1245779" data-name="Trazado 1245779" d="M34.945,230.128a7.063,7.063,0,1,0-2.636-13.617c1.178,2.874.529,3.584.529,6.554s.852,3.287-.529,6.554A7.035,7.035,0,0,0,34.945,230.128Z" transform="translate(-20.513 -171.488)" fill="#ffdfcf"/>
    <path id="Trazado_1245780" data-name="Trazado 1245780" d="M11.8,231.979a7.064,7.064,0,0,0,0-13.108,7.065,7.065,0,0,0,0,13.108Z" transform="translate(0 -173.849)" fill="#7a6d79"/>
    <path id="Trazado_1245781" data-name="Trazado 1245781" d="M9.435,227.829a7.063,7.063,0,1,0-1.8-5.57" transform="translate(-0.215 -171.488)" fill="none" stroke="#000" stroke-linecap="round" stroke-linejoin="round" stroke-miterlimit="10" stroke-width="1.3"/>
    <path id="Trazado_1245782" data-name="Trazado 1245782" d="M32.309,231.979a7.064,7.064,0,0,0,0-13.108" transform="translate(-20.513 -173.849)" fill="none" stroke="#000" stroke-linecap="round" stroke-linejoin="round" stroke-miterlimit="10" stroke-width="1.3"/>
    <path id="Trazado_1245783" data-name="Trazado 1245783" d="M369.747,206.664V194.377a5.786,5.786,0,0,0-5.786-5.786H352.082v23.858h11.879A5.786,5.786,0,0,0,369.747,206.664Z" transform="translate(-283.52 -148.944)" fill="#8ac9fe"/>
    <path id="Trazado_1245784" data-name="Trazado 1245784" d="M369.747,200.625a5.785,5.785,0,0,0-5.785-5.785H352.082v-6.249h11.879a5.785,5.785,0,0,1,5.785,5.785Z" transform="translate(-283.52 -148.944)" fill="#60b7ff"/>
    <path id="Trazado_1245785" data-name="Trazado 1245785" d="M372.812,188.591h8.2a5.785,5.785,0,0,1,5.759,5.235" transform="translate(-300.57 -148.944)" fill="none" stroke="#000" stroke-linecap="round" stroke-linejoin="round" stroke-miterlimit="10" stroke-width="1.3"/>
    <path id="Trazado_1245786" data-name="Trazado 1245786" d="M386.77,293.5a5.785,5.785,0,0,1-5.759,5.235h-8.2" transform="translate(-300.57 -235.231)" fill="none" stroke="#000" stroke-linecap="round" stroke-linejoin="round" stroke-miterlimit="10" stroke-width="1.3"/>
    <path id="Trazado_1245787" data-name="Trazado 1245787" d="M431.427,230.128a7.063,7.063,0,1,1,2.636-13.617c-1.178,2.874-.529,3.584-.529,6.554s-.852,3.287.529,6.554A7.035,7.035,0,0,1,431.427,230.128Z" transform="translate(-342.969 -171.488)" fill="#ffdfcf"/>
    <path id="Trazado_1245788" data-name="Trazado 1245788" d="M458.491,231.979a7.064,7.064,0,0,1,0-13.108,7.065,7.065,0,0,1,0,13.108Z" transform="translate(-367.397 -173.849)" fill="#ae6c6c"/>
    <circle id="Elipse_12361" data-name="Elipse 12361" cx="7.064" cy="7.064" r="7.064" transform="translate(81.393 44.512)" fill="none" stroke="#000" stroke-linecap="round" stroke-linejoin="round" stroke-miterlimit="10" stroke-width="1.3"/>
    <path id="Trazado_1245789" data-name="Trazado 1245789" d="M458.491,218.871a7.064,7.064,0,0,0,0,13.108" transform="translate(-367.397 -173.849)" fill="none" stroke="#000" stroke-linecap="round" stroke-linejoin="round" stroke-miterlimit="10" stroke-width="1.3"/>
    <path id="Trazado_1245790" data-name="Trazado 1245790" d="M171.788,127.841h-40.71a2.186,2.186,0,0,0-2.186,2.186v40.711a2.186,2.186,0,0,0,2.186,2.186h40.711a2.186,2.186,0,0,0,2.186-2.186v-40.71A2.186,2.186,0,0,0,171.788,127.841Z" transform="translate(-99.951 -98.978)" fill="#dc8758"/>
    <path id="Trazado_1245791" data-name="Trazado 1245791" d="M135.887,172.919h-4.812a2.185,2.185,0,0,1-2.185-2.185v-40.71a2.186,2.186,0,0,1,2.185-2.187h4.813a2.186,2.186,0,0,0-2.185,2.187v40.71A2.185,2.185,0,0,0,135.887,172.919Z" transform="translate(-99.948 -98.975)" fill="#c57a44"/>
    <path id="Trazado_1245792" data-name="Trazado 1245792" d="M368.681,127.841h.33a2.185,2.185,0,0,1,2.185,2.185v8.6" transform="translate(-297.173 -98.978)" fill="none" stroke="#000" stroke-linecap="round" stroke-linejoin="round" stroke-miterlimit="10" stroke-width="1.3"/>
    <line id="Línea_840" data-name="Línea 840" x1="1.921" transform="translate(63.374 28.863)" fill="none" stroke="#000" stroke-linecap="round" stroke-linejoin="round" stroke-miterlimit="10" stroke-width="1.3"/>
    <path id="Trazado_1245793" data-name="Trazado 1245793" d="M333.508,322.989v8.255a2.185,2.185,0,0,1-2.185,2.185h-8.464" transform="translate(-259.485 -259.484)" fill="none" stroke="#000" stroke-linecap="round" stroke-linejoin="round" stroke-miterlimit="10" stroke-width="1.3"/>
    <path id="Trazado_1245794" data-name="Trazado 1245794" d="M128.889,322.989v8.255a2.185,2.185,0,0,0,2.185,2.185h8.389" transform="translate(-99.948 -259.484)" fill="none" stroke="#000" stroke-linecap="round" stroke-linejoin="round" stroke-miterlimit="10" stroke-width="1.3"/>
    <path id="Trazado_1245795" data-name="Trazado 1245795" d="M128.889,138.623v-8.6a2.185,2.185,0,0,1,2.185-2.185h8.389" transform="translate(-99.948 -98.977)" fill="none" stroke="#000" stroke-linecap="round" stroke-linejoin="round" stroke-miterlimit="10" stroke-width="1.3"/>
    <line id="Línea_841" data-name="Línea 841" y1="11.826" transform="translate(28.941 45.663)" fill="none" stroke="#000" stroke-linecap="round" stroke-linejoin="round" stroke-miterlimit="10" stroke-width="1.3"/>
    <line id="Línea_842" data-name="Línea 842" x1="11.826" transform="translate(45.532 73.945)" fill="none" stroke="#000" stroke-linecap="round" stroke-linejoin="round" stroke-miterlimit="10" stroke-width="1.3"/>
    <line id="Línea_843" data-name="Línea 843" y1="11.826" transform="translate(74.023 45.663)" fill="none" stroke="#000" stroke-linecap="round" stroke-linejoin="round" stroke-miterlimit="10" stroke-width="1.3"/>
    <line id="Línea_844" data-name="Línea 844" x1="11.826" transform="translate(45.532 28.862)" fill="none" stroke="#000" stroke-linecap="round" stroke-linejoin="round" stroke-miterlimit="10" stroke-width="1.3"/>
    <path id="Trazado_1245796" data-name="Trazado 1245796" d="M271.423,92.454v7.115l-2.906,2.908a3.008,3.008,0,0,0,0,4.254h0a3.009,3.009,0,0,0,4.255,0l3.875-3.875a2.706,2.706,0,0,0,.792-1.913V92.454" transform="translate(-214.064 -69.873)" fill="#7a6d79"/>
    <path id="Trazado_1245797" data-name="Trazado 1245797" d="M194.477,92.454v7.115l1.8,1.806c1.174,1.175.759,2.281-.416,3.456h0c-1.175,1.175-2.665,1.973-3.84.8l-2.773-2.773a2.706,2.706,0,0,1-.792-1.913V92.454" transform="translate(-148.945 -69.873)" fill="#685e68"/>
    <path id="Trazado_1245798" data-name="Trazado 1245798" d="M213.9,148.061a3.009,3.009,0,0,1-4.255,0l-1.1-1.1L212.8,142.7l1.1,1.1A3.006,3.006,0,0,1,213.9,148.061Z" transform="translate(-165.463 -111.204)" fill="#ffdfcf"/>
    <path id="Trazado_1245799" data-name="Trazado 1245799" d="M194.477,94.833v4.736l2.907,2.908a3.008,3.008,0,0,1,0,4.254h0a3.009,3.009,0,0,1-4.255,0l-3.875-3.875a2.706,2.706,0,0,1-.792-1.913V92.454" transform="translate(-148.945 -69.873)" fill="none" stroke="#000" stroke-linecap="round" stroke-linejoin="round" stroke-miterlimit="10" stroke-width="1.3"/>
    <line id="Línea_845" data-name="Línea 845" x1="4.257" y2="4.255" transform="translate(43.081 31.501)" fill="none" stroke="#000" stroke-linecap="round" stroke-linejoin="round" stroke-miterlimit="10" stroke-width="1.3"/>
    <path id="Trazado_1245800" data-name="Trazado 1245800" d="M268.513,148.061a3.009,3.009,0,0,0,4.255,0l1.1-1.1-4.257-4.255-1.1,1.1A3.006,3.006,0,0,0,268.513,148.061Z" transform="translate(-214.062 -111.204)" fill="#ffdfcf"/>
    <path id="Trazado_1245801" data-name="Trazado 1245801" d="M271.423,94.833v4.736l-2.906,2.908a3.008,3.008,0,0,0,0,4.254h0a3.009,3.009,0,0,0,4.255,0l3.875-3.875a2.706,2.706,0,0,0,.792-1.913V92.454" transform="translate(-214.064 -69.873)" fill="none" stroke="#000" stroke-linecap="round" stroke-linejoin="round" stroke-miterlimit="10" stroke-width="1.3"/>
    <line id="Línea_846" data-name="Línea 846" x1="4.257" y1="4.255" transform="translate(55.553 31.501)" fill="none" stroke="#000" stroke-linecap="round" stroke-linejoin="round" stroke-miterlimit="10" stroke-width="1.3"/>
    <path id="Trazado_1245802" data-name="Trazado 1245802" d="M348.768,271.554h-7.115l-2.908-2.906a3.008,3.008,0,0,0-4.254,0h0a3.009,3.009,0,0,0,0,4.255l3.875,3.875a2.706,2.706,0,0,0,1.913.792h8.488" transform="translate(-268.328 -214.065)" fill="#8ac9fe"/>
    <path id="Trazado_1245803" data-name="Trazado 1245803" d="M355.283,194.607h-7.115l-1.806,1.8c-1.175,1.174-2.281.759-3.456-.416h0c-1.175-1.175-1.973-2.665-.8-3.84l2.773-2.773a2.706,2.706,0,0,1,1.913-.792h8.488" transform="translate(-274.843 -148.944)" fill="#60b7ff"/>
    <path id="Trazado_1245804" data-name="Trazado 1245804" d="M334.488,214.032a3.009,3.009,0,0,1,0-4.255l1.1-1.1,4.255,4.257-1.1,1.1A3.006,3.006,0,0,1,334.488,214.032Z" transform="translate(-268.324 -165.463)" fill="#ffdfcf"/>
    <path id="Trazado_1245805" data-name="Trazado 1245805" d="M346.39,194.607h-4.736l-2.908,2.906a3.008,3.008,0,0,1-4.254,0h0a3.009,3.009,0,0,1,0-4.255l3.875-3.875a2.706,2.706,0,0,1,1.913-.792h8.488" transform="translate(-268.328 -148.944)" fill="none" stroke="#000" stroke-linecap="round" stroke-linejoin="round" stroke-miterlimit="10" stroke-width="1.3"/>
    <line id="Línea_847" data-name="Línea 847" x1="4.255" y1="4.257" transform="translate(67.266 43.211)" fill="none" stroke="#000" stroke-linecap="round" stroke-linejoin="round" stroke-miterlimit="10" stroke-width="1.3"/>
    <path id="Trazado_1245806" data-name="Trazado 1245806" d="M334.488,268.643a3.009,3.009,0,0,0,0,4.255l1.1,1.1,4.255-4.257-1.1-1.1A3.006,3.006,0,0,0,334.488,268.643Z" transform="translate(-268.324 -214.061)" fill="#ffdfcf"/>
    <path id="Trazado_1245807" data-name="Trazado 1245807" d="M346.39,271.554h-4.736l-2.908-2.906a3.008,3.008,0,0,0-4.254,0h0a3.009,3.009,0,0,0,0,4.255l3.875,3.875a2.706,2.706,0,0,0,1.913.792h8.488" transform="translate(-268.328 -214.065)" fill="none" stroke="#000" stroke-linecap="round" stroke-linejoin="round" stroke-miterlimit="10" stroke-width="1.3"/>
    <line id="Línea_848" data-name="Línea 848" y1="4.257" x2="4.255" transform="translate(67.266 55.684)" fill="none" stroke="#000" stroke-linecap="round" stroke-linejoin="round" stroke-miterlimit="10" stroke-width="1.3"/>
    <path id="Trazado_1245808" data-name="Trazado 1245808" d="M271.423,348.9v-7.115l-2.906-2.908a3.008,3.008,0,0,1,0-4.254h0a3.008,3.008,0,0,1,4.255,0l3.875,3.875a2.706,2.706,0,0,1,.792,1.913V348.9" transform="translate(-214.064 -268.327)" fill="#8ac9fe"/>
    <path id="Trazado_1245809" data-name="Trazado 1245809" d="M194.477,355.413V348.3l1.8-1.806c1.174-1.175.759-2.281-.416-3.456h0c-1.175-1.175-2.665-1.973-3.84-.8l-2.773,2.773a2.706,2.706,0,0,0-.792,1.913v8.488" transform="translate(-148.945 -274.842)" fill="#60b7ff"/>
    <path id="Trazado_1245810" data-name="Trazado 1245810" d="M213.9,334.619a3.009,3.009,0,0,0-4.255,0l-1.1,1.1,4.257,4.255,1.1-1.1A3.006,3.006,0,0,0,213.9,334.619Z" transform="translate(-165.463 -268.324)" fill="#9b5e5e"/>
    <path id="Trazado_1245811" data-name="Trazado 1245811" d="M194.477,346.521v-4.736l2.907-2.908a3.008,3.008,0,0,0,0-4.254h0a3.009,3.009,0,0,0-4.255,0l-3.875,3.875a2.706,2.706,0,0,0-.792,1.913V348.9" transform="translate(-148.945 -268.328)" fill="none" stroke="#000" stroke-linecap="round" stroke-linejoin="round" stroke-miterlimit="10" stroke-width="1.3"/>
    <line id="Línea_849" data-name="Línea 849" x2="4.257" y2="4.255" transform="translate(43.081 67.396)" fill="none" stroke="#000" stroke-linecap="round" stroke-linejoin="round" stroke-miterlimit="10" stroke-width="1.3"/>
    <path id="Trazado_1245812" data-name="Trazado 1245812" d="M268.513,334.619a3.009,3.009,0,0,1,4.255,0l1.1,1.1-4.257,4.255-1.1-1.1A3.006,3.006,0,0,1,268.513,334.619Z" transform="translate(-214.062 -268.324)" fill="#9b5e5e"/>
    <path id="Trazado_1245813" data-name="Trazado 1245813" d="M271.423,346.521v-4.736l-2.906-2.908a3.009,3.009,0,0,1,4.255-4.255l3.875,3.875a2.713,2.713,0,0,1,.792,1.914v5.382" transform="translate(-214.065 -268.327)" fill="none" stroke="#000" stroke-linecap="round" stroke-linejoin="round" stroke-miterlimit="10" stroke-width="1.3"/>
    <line id="Línea_850" data-name="Línea 850" y1="4.255" x2="4.257" transform="translate(55.553 67.396)" fill="none" stroke="#000" stroke-linecap="round" stroke-linejoin="round" stroke-miterlimit="10" stroke-width="1.3"/>
    <path id="Trazado_1245814" data-name="Trazado 1245814" d="M92.323,271.554h7.115l2.908-2.906a3.008,3.008,0,0,1,4.254,0h0a3.009,3.009,0,0,1,0,4.255l-3.875,3.875a2.706,2.706,0,0,1-1.913.792H92.323" transform="translate(-69.873 -214.065)" fill="#fe76a8"/>
    <path id="Trazado_1245815" data-name="Trazado 1245815" d="M92.323,194.607h7.115l1.806,1.8c1.175,1.174,2.281.759,3.456-.416h0c1.175-1.175,1.973-2.665.8-3.84l-2.773-2.773a2.706,2.706,0,0,0-1.913-.792H92.323" transform="translate(-69.873 -148.944)" fill="#fe5694"/>
    <path id="Trazado_1245816" data-name="Trazado 1245816" d="M147.931,214.032a3.009,3.009,0,0,0,0-4.255l-1.1-1.1-4.255,4.257,1.1,1.1A3.006,3.006,0,0,0,147.931,214.032Z" transform="translate(-111.205 -165.463)" fill="#ffdfcf"/>
    <path id="Trazado_1245817" data-name="Trazado 1245817" d="M94.7,194.607h4.736l2.908,2.906a3.008,3.008,0,0,0,4.254,0h0a3.009,3.009,0,0,0,0-4.255l-3.875-3.875a2.706,2.706,0,0,0-1.913-.792H92.323" transform="translate(-69.873 -148.944)" fill="none" stroke="#000" stroke-linecap="round" stroke-linejoin="round" stroke-miterlimit="10" stroke-width="1.3"/>
    <line id="Línea_851" data-name="Línea 851" x1="4.255" y2="4.257" transform="translate(31.37 43.211)" fill="none" stroke="#000" stroke-linecap="round" stroke-linejoin="round" stroke-miterlimit="10" stroke-width="1.3"/>
    <path id="Trazado_1245818" data-name="Trazado 1245818" d="M147.931,268.643a3.009,3.009,0,0,1,0,4.255l-1.1,1.1-4.255-4.257,1.1-1.1A3.006,3.006,0,0,1,147.931,268.643Z" transform="translate(-111.205 -214.061)" fill="#ffdfcf"/>
    <path id="Trazado_1245819" data-name="Trazado 1245819" d="M94.7,271.554h4.736l2.908-2.906a3.008,3.008,0,0,1,4.254,0h0a3.009,3.009,0,0,1,0,4.255l-3.875,3.875a2.706,2.706,0,0,1-1.913.792H92.323" transform="translate(-69.873 -214.065)" fill="none" stroke="#000" stroke-linecap="round" stroke-linejoin="round" stroke-miterlimit="10" stroke-width="1.3"/>
    <line id="Línea_852" data-name="Línea 852" x2="4.255" y2="4.257" transform="translate(31.37 55.684)" fill="none" stroke="#000" stroke-linecap="round" stroke-linejoin="round" stroke-miterlimit="10" stroke-width="1.3"/>
  </g>
</svg>
