<svg xmlns="http://www.w3.org/2000/svg" xmlns:xlink="http://www.w3.org/1999/xlink" width="72.975" height="72.976" viewBox="0 0 72.975 72.976">
  <defs>
    <clipPath id="clip-path">
      <path id="path4905" d="M0-682.665H72.975v72.975H0Z" transform="translate(0 682.665)"/>
    </clipPath>
  </defs>
  <g id="g4899" transform="translate(0 682.665)">
    <g id="g4901" transform="translate(0 -682.665)">
      <g id="g4903" clip-path="url(#clip-path)">
        <g id="g4909" transform="translate(1.077 1.077)">
          <path id="path4911" d="M-576.067-500.286a6.387,6.387,0,0,0-4.179-1.868l1.155-1.155a2.156,2.156,0,0,0,0-3.023l-4.973-4.973a28.644,28.644,0,0,0,1.815-4.232l6.181,6.181a6.433,6.433,0,0,1,0,9.071m-51.963-54.986a2.155,2.155,0,0,0-3.023,0l-1.155,1.155a6.39,6.39,0,0,0-1.869-4.178,6.433,6.433,0,0,1,9.07,0l6.181,6.181a28.694,28.694,0,0,0-4.232,1.815Zm-15.117,6.047a6.388,6.388,0,0,0,4.179,1.868l-1.155,1.155a2.155,2.155,0,0,0,0,3.023l4.973,4.973a28.66,28.66,0,0,0-1.815,4.232l-6.181-6.181a6.433,6.433,0,0,1,0-9.07m51.963,54.986a2.155,2.155,0,0,0,3.023,0l1.155-1.155a6.39,6.39,0,0,0,1.869,4.178,6.433,6.433,0,0,1-9.071,0l-6.181-6.181a28.672,28.672,0,0,0,4.232-1.815Z" transform="translate(645.017 560.166)" fill="#53d9f7" fill-rule="evenodd"/>
        </g>
        <g id="g4913" transform="translate(1.077 1.077)">
          <path id="path4915" d="M-141.932-550.806a2.155,2.155,0,0,1-3.023,0l-1.155-1.155a6.39,6.39,0,0,1-1.869,4.178,6.433,6.433,0,0,0,9.071,0l6.181-6.181a28.69,28.69,0,0,1-4.232-1.815Zm51.963-54.986a6.389,6.389,0,0,1-4.179,1.868l1.155,1.155a2.156,2.156,0,0,1,0,3.023l-4.973,4.973a28.656,28.656,0,0,1,1.815,4.232l6.182-6.181a6.433,6.433,0,0,0,0-9.071m-15.118-6.047a2.155,2.155,0,0,1,3.023,0l1.155,1.155a6.391,6.391,0,0,1,1.869-4.178,6.433,6.433,0,0,0-9.071,0l-6.181,6.181a28.7,28.7,0,0,1,4.232,1.815Zm-51.963,54.986a6.388,6.388,0,0,1,4.179-1.868l-1.155-1.155a2.156,2.156,0,0,1,0-3.023l4.973-4.973a28.657,28.657,0,0,1-1.815-4.232l-6.182,6.182a6.433,6.433,0,0,0,0,9.07" transform="translate(158.92 616.734)" fill="#fff" fill-rule="evenodd"/>
        </g>
        <g id="g4917" transform="translate(6.628 6.628)">
          <path id="path4919" d="M-381.565-482.608a31.937,31.937,0,0,1-4.092,1.955l-2.5-2.5a28.7,28.7,0,0,0,4.232-1.815Zm-31.621-55.809a31.924,31.924,0,0,1,4.092-1.955l2.5,2.5a28.672,28.672,0,0,0-4.232,1.815Zm-14.049,16.186a31.965,31.965,0,0,1,1.955-4.092l2.361,2.361a28.638,28.638,0,0,0-1.815,4.232Zm59.719,23.437a31.916,31.916,0,0,1-1.955,4.092l-2.361-2.361a28.651,28.651,0,0,0,1.815-4.232Z" transform="translate(427.235 540.372)" fill="#00a8e8" fill-rule="evenodd"/>
        </g>
        <g id="g4921" transform="translate(6.628 6.628)">
          <path id="path4923" d="M-482.606-117.375a31.926,31.926,0,0,1,1.955,4.092l-2.5,2.5a28.661,28.661,0,0,0-1.815-4.232ZM-522.23-71.7a31.921,31.921,0,0,1-4.092-1.955l2.361-2.361a28.7,28.7,0,0,0,4.232,1.815Zm-16.186-14.049,2.361-2.361a28.642,28.642,0,0,1-1.815-4.232l-2.5,2.5a31.946,31.946,0,0,0,1.955,4.092m39.623-45.67a31.952,31.952,0,0,1,4.092,1.955l-2.361,2.361a28.68,28.68,0,0,0-4.232-1.815Z" transform="translate(540.371 131.424)" fill="#9de5f9" fill-rule="evenodd"/>
        </g>
        <g id="g4925" transform="translate(1.069 59.079)">
          <path id="path4927" d="M-50.6-.082a6.39,6.39,0,0,0-4.178,1.869,6.414,6.414,0,0,0,0,9.07,6.394,6.394,0,0,0,4.524,1.879h.023a6.394,6.394,0,0,0,4.524-1.879,6.389,6.389,0,0,0,1.869-4.178,6.4,6.4,0,0,0-1.869-4.892A6.4,6.4,0,0,0-50.6-.082" transform="translate(56.661 0.092)" fill="#ffe1ba" fill-rule="evenodd"/>
        </g>
        <g id="g4929" transform="translate(7.625 7.625)">
          <path id="path4931" d="M-241.136-177.984l-9.07-9.07-7.559,7.559,9.07,9.07Zm7.559,7.559-7.559,7.559,9.071,9.071,7.559-7.559Zm-7.559-28.862a28.862,28.862,0,0,1,28.862,28.862,28.862,28.862,0,0,1-28.862,28.862A28.862,28.862,0,0,1-270-170.425a28.862,28.862,0,0,1,28.862-28.862" transform="translate(269.998 199.288)" fill="#ffc277" fill-rule="evenodd"/>
        </g>
        <g id="g4933" transform="translate(19.858 19.858)">
          <path id="path4935" d="M-138.933-75.781l-9.07-9.07-7.559,7.559,9.07,9.07Zm7.559,7.559-7.559,7.559,9.071,9.071,7.559-7.559Z" transform="translate(155.562 84.852)" fill="#fff" fill-rule="evenodd"/>
        </g>
        <g id="g4937" transform="translate(7.625 7.626)">
          <path id="path4939" d="M-254.534-.369a28.863,28.863,0,0,0-27.259,28.817,28.863,28.863,0,0,0,27.259,28.817A28.862,28.862,0,0,1-285,28.449,28.862,28.862,0,0,1-254.534-.369" transform="translate(284.999 0.413)" fill="#ff905b" fill-rule="evenodd"/>
        </g>
        <g id="g4941" transform="translate(1.069 1.069)">
          <path id="path4943" d="M-50.6-107.09a6.39,6.39,0,0,1-4.178-1.869,6.414,6.414,0,0,1,0-9.07,6.394,6.394,0,0,1,4.524-1.879h.023a6.394,6.394,0,0,1,4.524,1.879,6.389,6.389,0,0,1,1.869,4.178,6.4,6.4,0,0,1-1.869,4.892A6.4,6.4,0,0,1-50.6-107.09" transform="translate(56.661 119.908)" fill="#fef2e2" fill-rule="evenodd"/>
        </g>
        <g id="g4945" transform="translate(59.079 1.069)">
          <path id="path4947" d="M-56.568-107.09a6.39,6.39,0,0,0,4.178-1.869,6.414,6.414,0,0,0,0-9.07,6.394,6.394,0,0,0-4.524-1.879h-.023a6.394,6.394,0,0,0-4.524,1.879,6.389,6.389,0,0,0-1.869,4.178,6.4,6.4,0,0,0,1.869,4.892,6.4,6.4,0,0,0,4.892,1.869" transform="translate(63.339 119.908)" fill="#ffe1ba" fill-rule="evenodd"/>
        </g>
        <g id="g4949" transform="translate(5.352 5.352)">
          <path id="path4951" d="M-515.087-80.954l-1.155-1.155a6.4,6.4,0,0,1-4.892-1.869A6.4,6.4,0,0,1-523-88.869l-1.155-1.155a2.155,2.155,0,0,0-3.024,0l-4.973,4.973A28.991,28.991,0,0,1-520.06-72.957l4.973-4.973a2.156,2.156,0,0,0,0-3.023m-61.033,0,1.155-1.155a6.4,6.4,0,0,0,4.892-1.869,6.4,6.4,0,0,0,1.868-4.892l1.155-1.155a2.156,2.156,0,0,1,3.024,0l4.973,4.973a28.992,28.992,0,0,0-12.094,12.094l-4.973-4.973a2.156,2.156,0,0,1,0-3.023m0,42.892,1.155,1.155a6.4,6.4,0,0,1,4.892,1.869,6.4,6.4,0,0,1,1.868,4.892l1.155,1.155a2.156,2.156,0,0,0,3.024,0l4.973-4.973a28.993,28.993,0,0,1-12.094-12.094l-4.973,4.973a2.156,2.156,0,0,0,0,3.023m61.033,0-1.155,1.155a6.4,6.4,0,0,0-4.892,1.869A6.4,6.4,0,0,0-523-30.146l-1.155,1.155a2.156,2.156,0,0,1-3.024,0l-4.973-4.973A28.992,28.992,0,0,0-520.06-46.058l4.973,4.973a2.156,2.156,0,0,1,0,3.023" transform="translate(576.739 90.643)" fill="#bbbbbf" fill-rule="evenodd"/>
        </g>
        <g id="g4953" transform="translate(8.583 8.583)">
          <path id="path4955" d="M0-101.043a32.23,32.23,0,0,1,12.094-12.094l2.361,2.361A28.991,28.991,0,0,0,2.361-98.682ZM12.094-57.327A32.23,32.23,0,0,1,0-69.422l2.361-2.361A28.993,28.993,0,0,0,14.455-59.689Zm31.621-55.81a32.229,32.229,0,0,1,12.094,12.094l-2.361,2.361a28.993,28.993,0,0,0-12.094-12.094Zm0,55.81-2.361-2.361A28.994,28.994,0,0,0,53.448-71.783l2.361,2.361A32.229,32.229,0,0,1,43.715-57.327" transform="translate(0 113.137)" fill="#7a797f" fill-rule="evenodd"/>
        </g>
        <g id="g4957" transform="translate(59.079 59.079)">
          <path id="path4959" d="M-56.568-.082A6.39,6.39,0,0,1-52.39,1.786a6.414,6.414,0,0,1,0,9.07,6.394,6.394,0,0,1-4.524,1.879h-.023a6.394,6.394,0,0,1-4.524-1.879,6.389,6.389,0,0,1-1.869-4.178A6.4,6.4,0,0,1-61.46,1.786,6.4,6.4,0,0,1-56.568-.082" transform="translate(63.339 0.092)" fill="#fef2e2" fill-rule="evenodd"/>
        </g>
        <g id="g4961" transform="translate(45.039 12.97)">
          <path id="path4963" d="M-35.724-35.725v-2.138m-4.276,0V-40" transform="translate(40 40.001)" fill="none" stroke="#fff" stroke-miterlimit="2.613" stroke-width="1.3"/>
        </g>
        <g id="g4965" transform="translate(1.069 1.069)">
          <path id="path4967" d="M-15.694-15.7a6.414,6.414,0,0,1,9.07,0,6.414,6.414,0,0,1,0,9.07,6.414,6.414,0,0,1-9.07,0A6.414,6.414,0,0,1-15.694-15.7Z" transform="translate(17.573 17.574)" fill="none" stroke="#000" stroke-miterlimit="22.926" stroke-width="1.3"/>
        </g>
        <g id="g4969" transform="translate(59.079 1.069)">
          <path id="path4971" d="M-91.477-15.7a6.414,6.414,0,0,0-9.07,0,6.414,6.414,0,0,0,0,9.07,6.414,6.414,0,0,0,9.07,0A6.414,6.414,0,0,0-91.477-15.7Z" transform="translate(102.426 17.574)" fill="none" stroke="#000" stroke-miterlimit="22.926" stroke-width="1.3"/>
        </g>
        <g id="g4973" transform="translate(1.069 59.078)">
          <path id="path4975" d="M-15.694-91.477a6.414,6.414,0,0,0,9.07,0,6.414,6.414,0,0,0,0-9.07,6.414,6.414,0,0,0-9.07,0A6.414,6.414,0,0,0-15.694-91.477Z" transform="translate(17.573 102.426)" fill="none" stroke="#000" stroke-miterlimit="22.926" stroke-width="1.3"/>
        </g>
        <g id="g4977" transform="translate(59.079 59.078)">
          <path id="path4979" d="M-91.477-91.477a6.414,6.414,0,0,1-9.07,0,6.414,6.414,0,0,1,0-9.07,6.414,6.414,0,0,1,9.07,0A6.414,6.414,0,0,1-91.477-91.477Z" transform="translate(102.426 102.426)" fill="none" stroke="#000" stroke-miterlimit="22.926" stroke-width="1.3"/>
        </g>
        <g id="g4981" transform="translate(1.077 1.077)">
          <path id="path4983" d="M-408.2-509.245l4.975,4.974a2.155,2.155,0,0,0,3.023,0l1.155-1.155m6.76-6.76,1.155-1.155a2.156,2.156,0,0,0,0-3.023l-4.974-4.975m-38.99,12.094-4.975,4.974a2.155,2.155,0,0,1-3.023,0l-1.155-1.155m-6.76-6.76-1.155-1.155a2.155,2.155,0,0,1,0-3.023l4.974-4.975m16.324,13.911-6.181,6.181a6.433,6.433,0,0,1-9.071,0m-9.07-9.07a6.433,6.433,0,0,1,0-9.071l6.182-6.181m13.911-34.76-4.975-4.975a2.155,2.155,0,0,0-3.023,0l-1.155,1.155m-6.76,6.76-1.155,1.155a2.155,2.155,0,0,0,0,3.023l4.974,4.975m16.324-13.91-6.181-6.182a6.433,6.433,0,0,0-9.071,0m-7.559,19.653,4.67,4.67m-6.182-15.252a6.433,6.433,0,0,0,0,9.071m46.988-10.143,4.975-4.975a2.155,2.155,0,0,1,3.023,0l1.155,1.155m6.76,6.76,1.155,1.155a2.156,2.156,0,0,1,0,3.023l-4.974,4.975m-16.324-13.91,6.182-6.182a6.433,6.433,0,0,1,9.071,0m9.07,9.07a6.433,6.433,0,0,1,0,9.071L-394.291-544m-18.141,36.576,6.182,6.182a6.433,6.433,0,0,0,9.071,0m9.07-9.07a6.433,6.433,0,0,0,0-9.071l-6.182-6.181" transform="translate(457.061 570.198)" fill="none" stroke="#000" stroke-miterlimit="22.926" stroke-width="1.3"/>
        </g>
        <g id="g4985" transform="translate(7.625 7.625)">
          <path id="path4987" d="M-482.274-250.068v-2.138m-.178,4.276a28.865,28.865,0,0,1-28.684,25.655A28.862,28.862,0,0,1-540-251.137,28.862,28.862,0,0,1-511.136-280a28.865,28.865,0,0,1,28.684,25.655" transform="translate(539.999 279.999)" fill="none" stroke="#000" stroke-miterlimit="22.926" stroke-width="1.3"/>
        </g>
        <g id="g4989" transform="translate(19.858 19.858)">
          <path id="path4991" d="M0-63.151l7.559-7.559,9.07,9.07L9.07-54.08Zm16.629,16.63,7.559-7.559,9.07,9.07L25.7-37.45Z" transform="translate(0 70.709)" fill="none" stroke="#000" stroke-miterlimit="22.926" stroke-width="1.3"/>
        </g>
        <g id="g4993" transform="translate(23.638 23.638)">
          <path id="path4995" d="M0,0,9.07,9.071" fill="none" stroke="#000" stroke-miterlimit="22.926" stroke-width="1.3"/>
        </g>
      </g>
    </g>
  </g>
</svg>
