<svg xmlns="http://www.w3.org/2000/svg" width="110.621" height="74.222" viewBox="0 0 110.621 74.222">
  <g id="Grupo_1201228" data-name="Grupo 1201228" transform="translate(-787.781 -2547.836)">
    <g id="Rectángulo_410589" data-name="Rectángulo 410589" transform="translate(787.781 2571.653)" fill="#ffc94a" stroke="#dfab32" stroke-width="1">
      <rect width="110.621" height="36.874" rx="8" stroke="none"/>
      <rect x="0.5" y="0.5" width="109.621" height="35.874" rx="7.5" fill="none"/>
    </g>
    <g id="mountain-range_6312364" transform="translate(803.209 2547.836)">
      <path id="Trazado_1243992" data-name="Trazado 1243992" d="M174.353,115.584l6.561-6.561-2.824-2.824-2.741,1.088-4.573,4.573-.715,2.368,1.979,1.979Z" transform="translate(-145.436 -90.804)" fill="#f6e869"/>
      <path id="Trazado_1243993" data-name="Trazado 1243993" d="M170.462,95.563l-1.8-1.8L162.1,100.32l-.958,1.979,1.293,1.293Z" transform="translate(-137.808 -80.166)" fill="#efdf2c"/>
      <path id="Trazado_1243994" data-name="Trazado 1243994" d="M346.38,187.27l2.452-2.448V173.1a4.414,4.414,0,0,0-4.414-4.414,4.189,4.189,0,0,1-3.384-1.723l-5.388-7.409a4.184,4.184,0,0,0-6.3-.535,4.134,4.134,0,0,0-.774,1.028l-5.446,10.211-.646,4.346Z" transform="translate(-275.758 -134.95)" fill="#6dc647"/>
      <path id="Trazado_1243995" data-name="Trazado 1243995" d="M300.947,246.786l-2.331,3.831,27.631,16.506,2.181-2.76v-6.257a7.479,7.479,0,0,0-1.068-.6l-8.315-3.778a.834.834,0,0,1-.381-.348l-2.487-4.351a7.542,7.542,0,0,0-6.536-3.8h-5.259a.843.843,0,0,1-.679-.346l-.981-1.349-1.471,2.758A4.1,4.1,0,0,1,300.947,246.786Z" transform="translate(-255.355 -208.234)" fill="#4fb02a"/>
      <path id="Trazado_1243996" data-name="Trazado 1243996" d="M123.684,226.261l-8.315-3.778a4.173,4.173,0,0,1-.694-.4,25.616,25.616,0,0,0-1.978-2.68l-1.717-3a4.181,4.181,0,0,0-3.631-2.109H102.09a4.184,4.184,0,0,1-3.384-1.723l-5.36-7.369a4.186,4.186,0,0,0-7.1.453l-6.916,12.969a4.185,4.185,0,0,1-3.691,2.215h-3.1c-12.636,4.423-14.454,21.668-2.279,26.244h51.7a4.183,4.183,0,0,0,4.184-4.182V230.07a4.183,4.183,0,0,0-2.452-3.809Z" transform="translate(-53.063 -173.941)" fill="#8bd270"/>
      <path id="Trazado_1243997" data-name="Trazado 1243997" d="M26.1,323.443H20.43a4.165,4.165,0,0,0-1.648.339l-4.893,2.1a4.181,4.181,0,0,0-2.429,2.906l-3.636,15.78a4.182,4.182,0,0,0,4.076,5.122H23.816A25.524,25.524,0,0,1,26.1,323.443Z" transform="translate(-6.628 -276.552)" fill="#6dc647"/>
      <circle id="Elipse_12341" data-name="Elipse 12341" cx="3.272" cy="3.272" r="3.272" transform="translate(34.899 41.438)" fill="#fa5c6f"/>
      <path id="Trazado_1243998" data-name="Trazado 1243998" d="M217.134,408.131H211.4a3.744,3.744,0,0,1-3.028-1.542l-5.739-7.889a3.753,3.753,0,0,0-.393-.454c-4.77-.556-10.8,12.1-8.733,15.384H222.45l-2.062-3.611A3.749,3.749,0,0,0,217.134,408.131Z" transform="translate(-165.126 -340.494)" fill="#c0e8f9"/>
      <path id="Trazado_1243999" data-name="Trazado 1243999" d="M171.476,393.057a3.746,3.746,0,0,1,.918-1.123,3.743,3.743,0,0,0-4.31-.693l-.458.228A3.75,3.75,0,0,0,166,393.057l-7.107,13.324a3.7,3.7,0,0,1-.708.937h5.48a3.7,3.7,0,0,0,.708-.937Z" transform="translate(-135.279 -334.183)" fill="#a6dff4"/>
      <path id="Trazado_1244000" data-name="Trazado 1244000" d="M157.635,155.385l2.314-2.314-2.824-2.824-1.426-.2-1.63,1.63a3.169,3.169,0,0,0,.15,4.476A3.268,3.268,0,0,0,157.635,155.385Z" transform="translate(-131.032 -128.291)" fill="#5f7080"/>
      <path id="Trazado_1244001" data-name="Trazado 1244001" d="M148.015,143.056l2.241-2.241-1.8-1.8-2.314,2.314a3.267,3.267,0,0,0,1.211,5.391A3.261,3.261,0,0,1,148.015,143.056Z" transform="translate(-124.164 -118.858)" fill="#546370"/>
      <path id="Trazado_1244002" data-name="Trazado 1244002" d="M227.573,17.969a9.814,9.814,0,0,0-9.081-10.3c-11.415,2.77-10.972,16.146-.654,19.6A9.813,9.813,0,0,0,227.573,17.969Z" transform="translate(-179.599 -6.555)" fill="#78cbed"/>
      <path id="Trazado_1244003" data-name="Trazado 1244003" d="M201.878,21.518c-1.89-5.474.087-11.278,4.458-14.01a9.814,9.814,0,1,0-.654,19.6A12.751,12.751,0,0,1,201.878,21.518Z" transform="translate(-167.443 -6.397)" fill="#34b6e2"/>
      <path id="Trazado_1244004" data-name="Trazado 1244004" d="M73.285,41.852a1.087,1.087,0,0,0,1.087-1.087V38.15a5.5,5.5,0,0,0-5.5-5.5,3.109,3.109,0,0,1-2.5-1.275l-5.388-7.409a5.27,5.27,0,0,0-8.914.621l-6.378,11.96-4.341-5.969a5.243,5.243,0,0,0-1.875-1.6V21.749a10.9,10.9,0,1,0-11.237-6.865L21.418,21.7a4.359,4.359,0,1,0,6.165,6.165L34.4,21.049a10.988,10.988,0,0,0,2.9.7V28.41A5.278,5.278,0,0,0,32.432,31.2L25.516,44.165a3.091,3.091,0,0,1-2.732,1.64H14.014a5.224,5.224,0,0,0-2.076.427l-4.893,2.1a5.284,5.284,0,0,0-3.061,3.661L2.857,56.883a1.087,1.087,0,1,0,2.119.488L6.1,52.477a3.1,3.1,0,0,1,1.8-2.15l4.895-2.1a3.064,3.064,0,0,1,1.218-.25h8.771a5.263,5.263,0,0,0,4.65-2.79l6.917-12.97A3.091,3.091,0,0,1,37.3,30.591v9.9a4.359,4.359,0,1,0,2.175,0V31.707c.155.189-.272-.379,5.449,7.478l.057.079a5.288,5.288,0,0,0,4.263,2.171H54.5A3.1,3.1,0,0,1,57.185,43l2.488,4.352a5.239,5.239,0,0,0,2.4,2.184l8.315,3.778A3.1,3.1,0,0,1,72.2,56.129V68.953a3.1,3.1,0,0,1-3.1,3.1H58.166l-1.75-3.064a4.847,4.847,0,0,0-4.2-2.435H46.484a2.662,2.662,0,0,1-2.148-1.094L38.6,57.566a4.816,4.816,0,0,0-6.068-1.481l-.46.229a4.807,4.807,0,0,0-2.1,2.048L22.861,71.689a2.6,2.6,0,0,1-.231.359H5.484a3.094,3.094,0,0,1-3.017-3.79L3.833,62.33a1.087,1.087,0,0,0-2.119-.488L.349,67.769a5.269,5.269,0,0,0,5.136,6.454H69.1a5.276,5.276,0,0,0,5.271-5.27v-23.1a1.087,1.087,0,0,0-2.175,0v6.012a5.241,5.241,0,0,0-.915-.536l-8.315-3.778a3.077,3.077,0,0,1-1.407-1.283l-2.488-4.352A5.279,5.279,0,0,0,54.5,39.26H49.239a3.109,3.109,0,0,1-2.1-.82l6.844-12.832a3.1,3.1,0,0,1,5.236-.364l5.388,7.41a5.291,5.291,0,0,0,4.263,2.17A3.325,3.325,0,0,1,72.2,38.15v2.615a1.087,1.087,0,0,0,1.087,1.087ZM29.128,23.243l-3.09-3.09,3.246-3.246A10.915,10.915,0,0,0,32.373,20Zm-3.083,3.083a2.185,2.185,0,0,1-3.09-3.09L24.5,21.691l3.09,3.09ZM30.5,14.663h0a8.733,8.733,0,1,1,8.966,4.9V10.9a1.087,1.087,0,1,0-2.175,0v8.658A8.723,8.723,0,0,1,30.5,14.663ZM40.567,44.71a2.185,2.185,0,1,1-2.185-2.185A2.187,2.187,0,0,1,40.567,44.71Zm-8.68,14.676a2.644,2.644,0,0,1,1.154-1.126l.459-.229a2.649,2.649,0,0,1,3.337.814l5.738,7.889a4.844,4.844,0,0,0,3.907,1.99H52.22a2.667,2.667,0,0,1,2.309,1.34l1.133,1.984H25.134Z" transform="translate(-0.211 0)"/>
    </g>
  </g>
</svg>
