<svg xmlns="http://www.w3.org/2000/svg" width="129.063" height="95.295" viewBox="0 0 129.063 95.295">
  <g id="Grupo_1201414" data-name="Grupo 1201414" transform="translate(-788.103 -1970.717)">
    <g id="Rectángulo_410589" data-name="Rectángulo 410589" transform="translate(788.103 2007.607)" fill="#a1c6f1" stroke="#6f89a8" stroke-width="1">
      <rect width="129.063" height="43.021" rx="8" stroke="none"/>
      <rect x="0.5" y="0.5" width="128.063" height="42.021" rx="7.5" fill="none"/>
    </g>
    <g id="feeding_10632664" transform="translate(788.953 1954.288)">
      <path id="Trazado_1275477" data-name="Trazado 1275477" d="M196.608,427.632S185.483,414.917,168,419.685C167.976,424.42,177.478,440.266,196.608,427.632Z" transform="translate(-121.802 -322.284)" fill="#75a97d"/>
      <path id="Trazado_1275478" data-name="Trazado 1275478" d="M344,427.632s11.126-12.715,28.608-7.947C372.632,424.42,363.13,440.266,344,427.632Z" transform="translate(-262.836 -322.284)" fill="#75a97d"/>
      <ellipse id="Elipse_12373" data-name="Elipse 12373" cx="14.304" cy="9.536" rx="14.304" ry="9.536" transform="translate(22.357 29.059)" fill="#606669"/>
      <path id="Trazado_1275479" data-name="Trazado 1275479" d="M90.188,98.955v0a21.733,21.733,0,0,1-2.239.115,19.841,19.841,0,0,1-7.464-1.4,44.514,44.514,0,0,1,.608-16.507A20.1,20.1,0,0,1,87.949,80a21.6,21.6,0,0,1,2.924.2A44.663,44.663,0,0,0,90.188,98.955Z" transform="translate(-51.287 -50.941)" fill="#fdb432"/>
      <path id="Trazado_1275480" data-name="Trazado 1275480" d="M311.486,264h6.357v44.5h-6.357Z" transform="translate(-236.782 -198.386)" fill="#75a97d"/>
      <path id="Trazado_1275481" data-name="Trazado 1275481" d="M365.843,272s17.483,6.357,15.894,14.3-12.715,3.179-15.894,0l-6.357-9.536Z" transform="translate(-275.246 -204.797)" fill="#e7ecf0"/>
      <path id="Trazado_1275482" data-name="Trazado 1275482" d="M341.843,288s9.536,6.357,11.126,12.715c.944,3.777-1.026,7.432-4.768,7.947-2.628.362-6.018-.857-9.536-4.768L335.486,288Z" transform="translate(-256.014 -217.618)" fill="#dfe1e4"/>
      <path id="Trazado_1275483" data-name="Trazado 1275483" d="M198.968,272s-17.483,6.357-15.894,14.3,12.715,3.179,15.894,0l6.357-9.536Z" transform="translate(-133.8 -204.797)" fill="#e7ecf0"/>
      <path id="Trazado_1275484" data-name="Trazado 1275484" d="M241.665,288s-9.536,6.357-11.126,12.715c-.944,3.777,1.026,7.432,4.768,7.947,2.628.362,6.018-.857,9.536-4.768L248.023,288Z" transform="translate(-171.729 -217.618)" fill="#dfe1e4"/>
      <path id="Trazado_1275485" data-name="Trazado 1275485" d="M289.258,296s-14.3,20.662,3.179,20.662S295.616,296,295.616,296Z" transform="translate(-214.554 -224.029)" fill="#e7ecf0"/>
      <path id="Trazado_1275486" data-name="Trazado 1275486" d="M288.916,246.357c0,4.768-6.357,4.768-12.715,4.768s-12.715,0-12.715-4.768c0-3.511,5.693-6.357,12.715-6.357S288.916,242.846,288.916,246.357Z" transform="translate(-198.318 -179.154)" fill="#fdb432"/>
      <circle id="Elipse_12374" data-name="Elipse 12374" cx="7.947" cy="7.947" r="7.947" transform="translate(46.198 32.237)" fill="#fdb432"/>
      <circle id="Elipse_12375" data-name="Elipse 12375" cx="6.357" cy="6.357" r="6.357" transform="translate(57.323 40.184)" fill="#606669"/>
      <path id="Trazado_1275487" data-name="Trazado 1275487" d="M96.931,45.035S60.376,46.587,71.5,29.1C81.917,12.737,96.955,44.942,96.931,45.035Z" transform="translate(-42.786 -6.44)" fill="#ced0d2"/>
      <path id="Trazado_1275488" data-name="Trazado 1275488" d="M68.181,61.286c-2.474,1.237-4.017,2.9-4.464,4.774a53.807,53.807,0,0,0-7.929,3.963c-6.159,3.813-8.876,7.781-8.073,11.8A6.683,6.683,0,0,0,50.838,86.5a7.681,7.681,0,0,0,3.885.948,12.873,12.873,0,0,0,2.549-.275,7.741,7.741,0,0,0,1.061,2.349,7.159,7.159,0,0,0,5.029,3.1,8.142,8.142,0,0,0,1.109.075,10.338,10.338,0,0,0,4.972-1.374,8.011,8.011,0,0,0,3.775,2.3v8.1a32.8,32.8,0,0,0-5.426-3.545A29.9,29.9,0,0,0,45.78,95.867a1.589,1.589,0,0,0-1.171,1.525c-.016,3.186,3.019,9.255,8.761,12.362a16.386,16.386,0,0,0,7.882,1.968,24.416,24.416,0,0,0,11.966-3.542v1.935a1.589,1.589,0,0,0,1.589,1.589h6.357a1.589,1.589,0,0,0,1.589-1.589v-1.935a24.414,24.414,0,0,0,11.966,3.542,16.387,16.387,0,0,0,7.882-1.968c5.741-3.108,8.777-9.176,8.761-12.362a1.59,1.59,0,0,0-1.171-1.525,29.9,29.9,0,0,0-22.012,2.309,32.821,32.821,0,0,0-5.426,3.545V93.548a7.916,7.916,0,0,0,3.57-2.23,10.414,10.414,0,0,0,4.966,1.376,8.14,8.14,0,0,0,1.114-.076,7.159,7.159,0,0,0,5.029-3.1,7.74,7.74,0,0,0,1.062-2.35,12.879,12.879,0,0,0,2.549.275,7.667,7.667,0,0,0,3.917-.966,6.606,6.606,0,0,0,3.09-4.663c.8-4.014-1.913-7.982-8.073-11.8a53.809,53.809,0,0,0-7.929-3.963c-.447-1.871-1.99-3.537-4.464-4.774a22.182,22.182,0,0,0-9.7-2.03,22.188,22.188,0,0,0-9.7,2.03ZM52.428,83.749a3.523,3.523,0,0,1-1.6-2.553c-.953-4.763,8.131-9.68,13.151-11.812a5.116,5.116,0,0,0,1.751,2.192C62.5,74.257,58.347,78.4,57.268,82.711a9.453,9.453,0,0,0-.224,1.258,6.576,6.576,0,0,1-4.616-.221ZM63.8,89.469a3.966,3.966,0,0,1-2.829-1.727,5.309,5.309,0,0,1-.614-4.26c.357-1.429,1.923-5.279,8.708-10.495a21.045,21.045,0,0,0,2.872.417A44.465,44.465,0,0,0,69.7,77.748c-1.95,4.4-2.535,8.014-1.76,10.77a6.772,6.772,0,0,1-4.143.951Zm-8.914,17.49a14.871,14.871,0,0,1-5.374-5.076A12.523,12.523,0,0,1,47.98,98.6a26.29,26.29,0,0,1,18.236,2.344,29.563,29.563,0,0,1,4.209,2.641c-7.859-.641-12.342-2.81-12.394-2.835a1.589,1.589,0,0,0-1.419,2.845c.224.112,4.681,2.294,12.559,3.072-5.346,2.383-10.22,2.5-14.289.3ZM107.99,98.6a12.544,12.544,0,0,1-1.528,3.288,14.869,14.869,0,0,1-5.374,5.076c-4.07,2.2-8.943,2.086-14.289-.3,7.877-.779,12.334-2.96,12.559-3.072a1.589,1.589,0,0,0-1.419-2.845c-.052.026-4.531,2.193-12.384,2.835A27.165,27.165,0,0,1,107.99,98.6Zm-28.416,9.93H76.4V94.168c.478.034.971.054,1.487.054q.883,0,1.692-.067Zm4.877-20.048c-.893,1.7-3.1,2.565-6.568,2.565s-5.675-.863-6.568-2.565c-2.006-3.824,2.03-11.5,4.24-14.918h4.657C82.421,76.979,86.457,84.654,84.451,88.479ZM94.8,87.743a3.967,3.967,0,0,1-2.829,1.727,6.781,6.781,0,0,1-4.143-.95c.776-2.756.191-6.367-1.759-10.771A44.439,44.439,0,0,0,83.833,73.4a21.03,21.03,0,0,0,2.874-.417c2.384,1.838,7.658,6.3,8.707,10.5a5.31,5.31,0,0,1-.614,4.26ZM104.933,81.2a3.531,3.531,0,0,1-1.58,2.544,6.464,6.464,0,0,1-4.632.23,9.449,9.449,0,0,0-.224-1.259c-1.081-4.323-5.272-8.487-8.464-11.134a5.118,5.118,0,0,0,1.747-2.2c5.018,2.132,14.106,7.05,13.154,11.813ZM89.008,67.2c0,1.006-.335,2.022-2.769,2.63a38.742,38.742,0,0,1-8.356.549,38.742,38.742,0,0,1-8.356-.549c-2.434-.609-2.769-1.624-2.769-2.63,0-2.251,4.758-4.768,11.126-4.768S89.008,64.953,89.008,67.2ZM73.217,41.774H70.034a7.94,7.94,0,0,0-6.353-3.179c-.045,0-.089,0-.134,0a9.536,9.536,0,0,0-11.715-7.666c-.359-.6-.742-1.211-1.145-1.838-4.03-6.26-7.935-10.246-11.606-11.848-3.143-1.371-7.725-1.693-11.707,4.564-2.13,3.347-2.82,6.353-2.065,8.965a10.313,10.313,0,0,0-4.38,6.23H17.589a1.589,1.589,0,1,0,0,3.179h3.338a10.373,10.373,0,0,0,4.738,6.476,17.124,17.124,0,0,0,3.918,1.912l-3.652,6.391-4.456,2.971a1.589,1.589,0,1,0,1.763,2.645L28.007,57.4a1.591,1.591,0,0,0,.5-.534l4.272-7.477a22.8,22.8,0,0,0,3.884.331,22.512,22.512,0,0,0,4.768-.508v6.207l-2.713,2.713a1.589,1.589,0,0,0,2.248,2.248L44.143,57.2a1.589,1.589,0,0,0,.465-1.124V48.246a16.828,16.828,0,0,0,2.734-1.387,9.576,9.576,0,0,0,2.777,1.967l.77,3.849-1.345,2.691a1.589,1.589,0,1,0,2.843,1.422l1.589-3.179a1.588,1.588,0,0,0,.137-1.022L53.536,49.7c.2.013.4.021.609.021a9.544,9.544,0,0,0,2.152-.247,7.941,7.941,0,0,0,14.259,1.045,3.185,3.185,0,0,1,1.071,2.38,1.589,1.589,0,1,0,3.179,0,6.369,6.369,0,0,0-3.222-5.528,7.963,7.963,0,0,0-.116-2.419h1.749A3.182,3.182,0,0,1,76.4,48.131a1.589,1.589,0,0,0,3.179,0A6.365,6.365,0,0,0,73.217,41.774ZM30.056,23.517c1.778-2.794,3.669-4.066,5.793-3.885,6.119.521,13.107,12.238,15.79,17.419C44.6,37.042,31.72,35.97,28.787,30.884,27.693,28.987,28.108,26.577,30.056,23.517ZM23.947,38.595a6.487,6.487,0,0,1,2.881-4.987q.287.347.619.676A47.005,47.005,0,0,0,27.3,43.91c-2.073-1.42-3.355-3.294-3.355-5.315Zm6.71,6.971a47.626,47.626,0,0,1-.231-9.135,25.96,25.96,0,0,0,6.238,2.247,55.081,55.081,0,0,0,.431,7.856c-.145,0-.289.008-.434.008a18.545,18.545,0,0,1-6-.976Zm9.6.649a52.737,52.737,0,0,1-.425-6.9q1.18.195,2.452.35c.791.1,1.57.176,2.33.243,0,.093-.007.186-.007.28a9.48,9.48,0,0,0,.913,4.068,15.444,15.444,0,0,1-5.263,1.962Zm15.481.126a6.363,6.363,0,0,1-7.952-6.156c0-.021,0-.043,0-.064,1.615.078,3.035.1,4.126.1,1.359,0,2.209-.034,2.3-.038A1.589,1.589,0,0,0,55.682,39c.152-.581.184-.7-1.433-3.779-.21-.4-.456-.858-.732-1.361.207-.02.416-.031.627-.031a6.366,6.366,0,0,1,6.293,5.463,7.955,7.955,0,0,0-4.7,7.051Zm7.942,4.97a4.768,4.768,0,1,1,4.768-4.768A4.774,4.774,0,0,1,63.681,51.31Z"/>
    </g>
  </g>
</svg>
