<svg xmlns="http://www.w3.org/2000/svg" xmlns:xlink="http://www.w3.org/1999/xlink" width="129.063" height="88.836" viewBox="0 0 129.063 88.836">
  <defs>
    <clipPath id="clip-path">
      <path id="path9480" d="M0-682.665H88.836v88.836H0Z" transform="translate(0 682.665)"/>
    </clipPath>
  </defs>
  <g id="Grupo_1201559" data-name="Grupo 1201559" transform="translate(-788.103 -1984.699)">
    <g id="Rectángulo_410589" data-name="Rectángulo 410589" transform="translate(788.103 2007.607)" fill="#a1c6f1" stroke="#6f89a8" stroke-width="1">
      <rect width="129.063" height="43.021" rx="8" stroke="none"/>
      <rect x="0.5" y="0.5" width="128.063" height="42.021" rx="7.5" fill="none"/>
    </g>
    <g id="g9474" transform="translate(808.216 2667.364)">
      <g id="g9476" transform="translate(0 -682.665)">
        <g id="g9478" clip-path="url(#clip-path)">
          <g id="g9484" transform="translate(3.705 35.611)">
            <path id="path9486" d="M-518.29-58.871l-11.833,13.351,4.683.957a33.07,33.07,0,0,1-29.672,18.626,32.971,32.971,0,0,1-32.933-32.934,33.417,33.417,0,0,1,.342-4.774l-4.231,4.774-2.939-8.807a41.067,41.067,0,0,0-.951,8.807A40.446,40.446,0,0,0-583.9-30.083a40.447,40.447,0,0,0,28.788,11.924,40.445,40.445,0,0,0,23.579-7.519,40.6,40.6,0,0,0,13.909-17.289l4.983,1.018Z" transform="translate(595.825 67.679)" fill="#57a4ff"/>
          </g>
          <g id="g9488" transform="translate(1.948 3.705)">
            <path id="path9490" d="M-116.851-182.9l-4.683-.957a33.07,33.07,0,0,1,29.672-18.626,32.971,32.971,0,0,1,32.933,32.934,33.382,33.382,0,0,1-.343,4.774l4.231-4.774,2.939,8.807a41.052,41.052,0,0,0,.951-8.807,40.447,40.447,0,0,0-11.924-28.788,40.446,40.446,0,0,0-28.788-11.924,40.444,40.444,0,0,0-23.579,7.519,40.6,40.6,0,0,0-13.909,17.289l-4.983-1.018,5.648,16.923Z" transform="translate(134.332 210.266)" fill="#57a4ff"/>
          </g>
          <g id="g9492" transform="translate(36.422 20.987)">
            <path id="path9494" d="M-69.206-197.729l-2.358,2.358-2.358-2.358a19.249,19.249,0,0,1,0-27.223l2.358-2.357,2.358,2.357a19.249,19.249,0,0,1,0,27.223" transform="translate(79.559 227.309)" fill="#b6e892"/>
          </g>
          <g id="g9496" transform="translate(20.183 38.388)">
            <path id="path9498" d="M-137.4-117.112v3.035h-3.035a17.52,17.52,0,0,1-17.52-17.52v-3.035h3.034a17.52,17.52,0,0,1,17.52,17.52" transform="translate(157.95 134.632)" fill="#b6e892"/>
          </g>
          <g id="g9500" transform="translate(48.098 38.388)">
            <path id="path9502" d="M0-117.112v3.035H3.035a17.52,17.52,0,0,0,17.52-17.52v-3.035H17.52A17.52,17.52,0,0,0,0-117.112" transform="translate(0 134.632)" fill="#b6e892"/>
          </g>
          <g id="g9504" transform="translate(40.737 49.104)">
            <path id="path9506" d="M-40.363-9.784l-2.358,2.358-2.358-2.358A19.475,19.475,0,0,1-46.4-11.248V8.7h7.36V-11.247a19.4,19.4,0,0,1-1.322,1.462" transform="translate(46.401 11.248)" fill="#ffb655"/>
          </g>
          <g id="g9508" transform="translate(3.705 35.611)">
            <path id="path9510" d="M-114.506-251.31A40.447,40.447,0,0,1-126.43-280.1c0-.508.013-1.014.031-1.518l-1.346,1.519-2.939-8.807a41.068,41.068,0,0,0-.951,8.807,40.447,40.447,0,0,0,11.925,28.788,40.447,40.447,0,0,0,28.788,11.925q1.312,0,2.613-.084a40.412,40.412,0,0,1-26.2-11.841" transform="translate(131.636 288.906)" fill="#006df0"/>
          </g>
          <g id="g9512" transform="translate(1.948 27.495)">
            <path id="path9514" d="M-35.438-1.928q-.162.363-.319.73L-40.74-2.216l5.648,16.923,3.781-4.267Z" transform="translate(40.74 2.216)" fill="#006df0"/>
          </g>
          <g id="g9516" transform="translate(7.361 3.705)">
            <path id="path9518" d="M-31.918-165.831A40.6,40.6,0,0,1-18.01-183.121a40.4,40.4,0,0,1,20.966-7.435c-.86-.054-1.724-.084-2.592-.084a40.446,40.446,0,0,0-23.579,7.519,40.61,40.61,0,0,0-13.478,16.313Z" transform="translate(36.693 190.64)" fill="#006df0"/>
          </g>
          <g id="g9520" transform="translate(36.422 20.987)">
            <path id="path9522" d="M-70.844-17.439c-.081-.084-.162-.168-.245-.251l-2.358-2.358L-75.8-17.69a19.249,19.249,0,0,0,0,27.222l2.358,2.358,2.358-2.358c.083-.083.164-.167.245-.251a19.248,19.248,0,0,1,0-26.72" transform="translate(81.442 20.048)" fill="#7ccc92"/>
          </g>
          <g id="g9524" transform="translate(20.183 38.388)">
            <path id="path9526" d="M-34.795-20.284v-2.9a17.674,17.674,0,0,0-2.171-.134H-40v3.034A17.52,17.52,0,0,0-22.48-2.764h3.034V-2.9A17.522,17.522,0,0,1-34.795-20.284" transform="translate(40 23.319)" fill="#7ccc92"/>
          </g>
          <g id="g9528" transform="translate(48.098 38.388)">
            <path id="path9530" d="M-34.795-117.111A17.522,17.522,0,0,1-19.445-134.5v-.134H-22.48A17.52,17.52,0,0,0-40-117.111v3.035h3.035a17.673,17.673,0,0,0,2.171-.134Z" transform="translate(40 134.63)" fill="#7ccc92"/>
          </g>
          <g id="g9532" transform="translate(46.152 49.105)">
            <path id="path9534" d="M-11.6-25.535l.209-.209v-3.611a19.4,19.4,0,0,1-1.322,1.462l-.623.623Z" transform="translate(13.333 29.355)" fill="#ff7956"/>
          </g>
          <g id="g9536" transform="translate(40.737 49.104)">
            <path id="path9538" d="M-8.844-9.784a19.512,19.512,0,0,1-1.323-1.464V8.7H-6.7V-7.637Z" transform="translate(10.167 11.248)" fill="#ff7956"/>
          </g>
          <g id="g9540" transform="translate(44.417 61.328)">
            <path id="path9542" d="M-219.23,0A36.648,36.648,0,0,1-235.08,15.864,36.724,36.724,0,0,1-252.026,20" transform="translate(252.026)" fill="none" stroke="#fff" stroke-miterlimit="10" stroke-width="2" stroke-dasharray="15 10 15 10 350"/>
          </g>
          <g id="g9544" transform="translate(63.138 12.606)">
            <path id="path9546" d="M0,0A37.127,37.127,0,0,1,7.369,5.722,36.62,36.62,0,0,1,17.786,26.413" fill="none" stroke="#fff" stroke-miterlimit="10" stroke-width="2" stroke-dasharray="15 10 15 10 350"/>
          </g>
          <g id="g9548" transform="translate(36.422 20.987)">
            <path id="path9550" d="M-69.206-197.729l-2.358,2.358-2.358-2.358a19.249,19.249,0,0,1,0-27.223l2.358-2.357,2.358,2.357A19.249,19.249,0,0,1-69.206-197.729Z" transform="translate(79.559 227.309)" fill="none" stroke="#000" stroke-miterlimit="10" stroke-width="2"/>
          </g>
          <g id="g9552" transform="translate(20.183 38.388)">
            <path id="path9554" d="M-137.4-117.112v3.035h-3.035a17.52,17.52,0,0,1-17.52-17.52v-3.035h3.034A17.52,17.52,0,0,1-137.4-117.112Z" transform="translate(157.95 134.632)" fill="none" stroke="#000" stroke-miterlimit="10" stroke-width="2"/>
          </g>
          <g id="g9556" transform="translate(48.098 38.388)">
            <path id="path9558" d="M0-117.112v3.035H3.035a17.52,17.52,0,0,0,17.52-17.52v-3.035H17.52A17.52,17.52,0,0,0,0-117.112Z" transform="translate(0 134.632)" fill="none" stroke="#000" stroke-miterlimit="10" stroke-width="2"/>
          </g>
          <g id="g9560" transform="translate(44.417 32.662)">
            <path id="path9562" d="M0,0V32.924" fill="none" stroke="#000" stroke-miterlimit="10" stroke-width="2"/>
          </g>
          <g id="g9564" transform="translate(28.562 46.767)">
            <path id="path9566" d="M-81.385-81.386-93.56-93.561" transform="translate(93.56 93.561)" fill="none" stroke="#000" stroke-miterlimit="10" stroke-width="2"/>
          </g>
          <g id="g9568" transform="translate(48.098 46.767)">
            <path id="path9570" d="M0-81.386,12.175-93.561" transform="translate(0 93.561)" fill="none" stroke="#000" stroke-miterlimit="10" stroke-width="2"/>
          </g>
          <g id="g9572" transform="translate(40.737 49.104)">
            <path id="path9574" d="M-40.363-9.784l-2.358,2.358-2.358-2.358A19.475,19.475,0,0,1-46.4-11.248V8.7h7.36V-11.247A19.4,19.4,0,0,1-40.363-9.784Z" transform="translate(46.401 11.248)" fill="none" stroke="#000" stroke-miterlimit="10" stroke-width="2"/>
          </g>
          <g id="g9576" transform="translate(3.705 44.418)">
            <path id="path9578" d="M0,0A40.447,40.447,0,0,0,11.925,28.787a40.72,40.72,0,0,0,52.367,4.406A40.6,40.6,0,0,0,78.2,15.9l4.983,1.018L77.535,0,65.7,13.35l4.682.957A33.07,33.07,0,0,1,40.713,32.933,32.973,32.973,0,0,1,7.79.831" transform="translate(0 0.001)" fill="none" stroke="#000" stroke-miterlimit="10" stroke-width="2"/>
          </g>
          <g id="g9580" transform="translate(1.948 3.705)">
            <path id="path9582" d="M-556.042-272.148a40.446,40.446,0,0,0-11.925-28.788,40.446,40.446,0,0,0-28.788-11.924,40.446,40.446,0,0,0-23.579,7.519,40.6,40.6,0,0,0-13.908,17.289l-4.983-1.018,5.648,16.923,11.833-13.351-4.682-.957a33.07,33.07,0,0,1,29.672-18.626,32.973,32.973,0,0,1,32.923,32.1" transform="translate(639.225 312.861)" fill="none" stroke="#000" stroke-miterlimit="10" stroke-width="2"/>
          </g>
        </g>
      </g>
    </g>
  </g>
</svg>
