<svg xmlns="http://www.w3.org/2000/svg" width="129.063" height="100.129" viewBox="0 0 129.063 100.129">
  <g id="Grupo_1202232" data-name="Grupo 1202232" transform="translate(-788.103 -1975.054)">
    <g id="Rectángulo_410589" data-name="Rectángulo 410589" transform="translate(788.103 2007.607)" fill="#a1c6f1" stroke="#6f89a8" stroke-width="1">
      <rect width="129.063" height="43.021" rx="8" stroke="none"/>
      <rect x="0.5" y="0.5" width="128.063" height="42.021" rx="7.5" fill="none"/>
    </g>
    <g id="farming_10578742" transform="translate(791.376 1963.11)">
      <path id="Trazado_1275489" data-name="Trazado 1275489" d="M115.316,410.181v17.41H17.07v-17.41a9.484,9.484,0,0,1,5.393,1.522c3.463,2.24,5.132,6.16,10.981,6.16,6.478,0,7.83-4.81,12.171-6.817a9.735,9.735,0,0,1,4.2-.866,9.621,9.621,0,0,1,4.6,1.061c4.031,2.107,5.5,6.622,11.773,6.622,6.07,0,7.639-4.224,11.385-6.408a9.53,9.53,0,0,1,4.989-1.274,10.45,10.45,0,0,1,2.925.388c5.414,1.559,6.376,7.295,13.449,7.295,4.808,0,6.792-2.648,9.27-4.833a9.884,9.884,0,0,1,7.106-2.849Z" transform="translate(-4.825 -316.543)" fill="#e5ad76"/>
      <path id="Trazado_1275490" data-name="Trazado 1275490" d="M38.924,137.137c2.755-2.257,4.663-5.307,9.824-5.307,4.993,0,6.94,2.855,9.557,5.083v0a9.741,9.741,0,0,0,6.817,2.595,9.519,9.519,0,0,0,6.22-2.111c2.942-2.273,4.79-5.569,10.154-5.569,5.128,0,7.044,3.011,9.773,5.262v0a10.226,10.226,0,0,0,12.991.174c2.845-2.267,4.724-5.438,9.986-5.438v17.41H16V131.83c5.229,0,7.118,3.134,9.935,5.4v0a9.6,9.6,0,0,0,6.439,2.281A9.626,9.626,0,0,0,38.924,137.137Z" transform="translate(-3.974 -95.294)" fill="#e5ad76"/>
      <path id="Trazado_1275491" data-name="Trazado 1275491" d="M108.21,413.031c-2.478,2.185-4.462,4.833-9.27,4.833-7.073,0-8.035-5.736-13.449-7.295a10.447,10.447,0,0,0-2.925-.388,9.53,9.53,0,0,0-4.989,1.274c-3.746,2.185-5.315,6.408-11.385,6.408-6.277,0-7.742-4.515-11.773-6.622a9.621,9.621,0,0,0-4.6-1.061,9.736,9.736,0,0,0-4.2.866c-4.341,2.006-5.693,6.817-12.171,6.817-5.848,0-7.518-3.92-10.981-6.16a9.484,9.484,0,0,0-5.393-1.522v6.154a9.484,9.484,0,0,1,5.393,1.522c3.463,2.24,5.133,6.16,10.981,6.16,6.478,0,7.83-4.81,12.171-6.817a9.735,9.735,0,0,1,4.2-.866,9.62,9.62,0,0,1,4.6,1.061c4.031,2.107,5.5,6.622,11.773,6.622,6.07,0,7.639-4.224,11.385-6.408a9.53,9.53,0,0,1,4.989-1.274,10.45,10.45,0,0,1,2.925.388c5.414,1.559,6.376,7.295,13.449,7.295,4.808,0,6.792-2.648,9.27-4.833a9.884,9.884,0,0,1,7.106-2.849v-6.154A9.884,9.884,0,0,0,108.21,413.031Z" transform="translate(-4.825 -316.543)" fill="#ce8e55"/>
      <path id="Trazado_1275492" data-name="Trazado 1275492" d="M104.26,137.268a10.226,10.226,0,0,1-12.991-.174v0c-2.728-2.25-4.644-5.262-9.773-5.262-5.364,0-7.213,3.3-10.154,5.569a9.519,9.519,0,0,1-6.22,2.111,9.741,9.741,0,0,1-6.817-2.595v0c-2.618-2.228-4.564-5.083-9.557-5.083-5.161,0-7.069,3.05-9.824,5.307a9.626,9.626,0,0,1-6.55,2.373,9.6,9.6,0,0,1-6.439-2.281v0c-2.817-2.263-4.706-5.4-9.935-5.4v6.154c5.229,0,7.118,3.134,9.935,5.4v0a9.6,9.6,0,0,0,6.439,2.281,9.626,9.626,0,0,0,6.55-2.373c2.755-2.257,4.663-5.307,9.824-5.307,4.993,0,6.94,2.855,9.557,5.083v0a9.741,9.741,0,0,0,6.817,2.595,9.519,9.519,0,0,0,6.22-2.111c2.942-2.273,4.79-5.569,10.154-5.569,5.128,0,7.044,3.011,9.773,5.262v0a10.226,10.226,0,0,0,12.991.174c2.845-2.267,4.724-5.438,9.986-5.438V131.83C108.984,131.83,107.1,135,104.26,137.268Z" transform="translate(-3.974 -95.294)" fill="#d3945b"/>
      <path id="Trazado_1275493" data-name="Trazado 1275493" d="M373.327,386.521l0,0c-2.478,2.185-4.462,4.833-9.27,4.833-7.073,0-8.035-5.736-13.449-7.295v0c1.409-4.179,5.859-7.229,11.129-7.229C368,376.83,373.1,381.136,373.327,386.521Z" transform="translate(-269.944 -290.035)" fill="#b03bcc"/>
      <path id="Trazado_1275494" data-name="Trazado 1275494" d="M199.14,378.794c.373-5.264,5.411-9.434,11.572-9.434,6.244,0,11.336,4.283,11.586,9.65-3.746,2.185-5.315,6.408-11.385,6.408-6.277,0-7.742-4.515-11.773-6.622Z" transform="translate(-149.546 -284.098)" fill="#e374db"/>
      <path id="Trazado_1275495" data-name="Trazado 1275495" d="M55.155,369.362c5.994.086,10.882,4.121,11.356,9.239-4.341,2.006-5.693,6.817-12.171,6.817-5.848,0-7.518-3.92-10.981-6.16l0,0c.1-5.479,5.256-9.894,11.594-9.894C55.022,369.36,55.09,369.36,55.155,369.362Z" transform="translate(-25.722 -284.098)" fill="#b03bcc"/>
      <path id="Trazado_1275496" data-name="Trazado 1275496" d="M358.815,384.061v0a10.8,10.8,0,0,1,7.024-6.579,13.137,13.137,0,0,0-4.1-.65c-5.27,0-9.719,3.05-11.129,7.229v0c5.414,1.559,6.376,7.295,13.449,7.295a9.821,9.821,0,0,0,4.107-.821c-3.667-1.64-5.205-5.28-9.351-6.474Z" transform="translate(-269.944 -290.035)" fill="#9c37b5"/>
      <path id="Trazado_1275497" data-name="Trazado 1275497" d="M207.347,378.8v0c.286-4.029,3.306-7.415,7.469-8.783a13.135,13.135,0,0,0-4.1-.651c-6.16,0-11.2,4.17-11.572,9.434v0c4.031,2.107,5.5,6.622,11.773,6.622a9.808,9.808,0,0,0,4.1-.821C211.891,383.2,210.313,380.346,207.347,378.8Z" transform="translate(-149.547 -284.098)" fill="#c661c4"/>
      <path id="Trazado_1275498" data-name="Trazado 1275498" d="M51.565,379.258l0,0c.081-4.23,3.171-7.824,7.492-9.243a13.114,13.114,0,0,0-3.9-.648c-.066,0-.133,0-.2,0-6.339,0-11.49,4.415-11.594,9.894l0,0c3.463,2.24,5.133,6.16,10.981,6.16a9.811,9.811,0,0,0,4.1-.819C55.607,383.329,54.046,380.862,51.565,379.258Z" transform="translate(-25.722 -284.098)" fill="#9c37b5"/>
      <path id="Trazado_1275499" data-name="Trazado 1275499" d="M207.823,79.6h0c-3.018-5.539.986-12.845,7.4-12.794,3.953-.429,8.072.814,9.918,4.562h0c2.592,4.355-.887,9.92-2.154,14.263l.014.018c-3.212,3.008-10.136,2.635-13.036-.484,0,0-2.14-5.563-2.14-5.565Z" transform="translate(-155.632 -43.545)" fill="#ef9538"/>
      <path id="Trazado_1275500" data-name="Trazado 1275500" d="M214.066,85.167s-2.14-5.564-2.14-5.565h0c-2.88-5.286.637-12.178,6.538-12.751a13.073,13.073,0,0,0-3.243-.043c-6.412-.051-10.415,7.255-7.4,12.794h0s2.142,5.565,2.14,5.565c1.951,2.1,5.72,2.951,8.957,2.372A8.661,8.661,0,0,1,214.066,85.167Z" transform="translate(-155.632 -43.546)" fill="#e08532"/>
      <path id="Trazado_1275501" data-name="Trazado 1275501" d="M367.655,78.414a8.561,8.561,0,0,1,7.853-11.607c3.954-.429,8.072.814,9.918,4.562h0c2.039,3.223.3,7.62-.978,10.93h0l-1.134,3.221c-3.015,3.013-10.088,2.876-12.991-.174-.332-.867-2.386-6.2-2.667-6.932Z" transform="translate(-283.027 -43.545)" fill="#ec6437"/>
      <path id="Trazado_1275502" data-name="Trazado 1275502" d="M49.472,79.783h0c-2.828-5.249.525-12.2,6.571-12.743.562-.1,2.452-.046,3.048-.082a8.56,8.56,0,0,1,8.179,11.379c-.638,1.757-1.923,5.494-2.548,7.233-2.927,3.043-10.005,3.109-12.989.092C51.732,85.661,49.471,79.785,49.472,79.783Z" transform="translate(-29.77 -43.726)" fill="#ec6437"/>
      <path id="Trazado_1275503" data-name="Trazado 1275503" d="M374.424,85.345c-.331-.867-2.385-6.2-2.667-6.932a8.573,8.573,0,0,1,7.021-11.56,13.054,13.054,0,0,0-3.271-.047,8.561,8.561,0,0,0-7.853,11.607c.281.731,2.335,6.064,2.667,6.932,1.887,1.983,5.537,2.733,8.688,2.189a8.253,8.253,0,0,1-4.585-2.189Z" transform="translate(-283.027 -43.545)" fill="#d35533"/>
      <path id="Trazado_1275504" data-name="Trazado 1275504" d="M55.833,85.661s-2.259-5.878-2.259-5.879h0c-2.828-5.249.525-12.2,6.571-12.743.045-.008.1-.015.163-.022a8.105,8.105,0,0,0-1.217-.062c-.6.036-2.486-.021-3.048.082-6.046.548-9.4,7.495-6.571,12.744h0s2.261,5.878,2.259,5.879c1.884,1.9,5.4,2.579,8.474,2.051a8.058,8.058,0,0,1-4.371-2.051Z" transform="translate(-29.77 -43.725)" fill="#d35533"/>
      <path id="Trazado_1275505" data-name="Trazado 1275505" d="M364.462,287.531l-10.212-9.955a1.582,1.582,0,1,1,2.183-2.289l1.126,1.05a1.357,1.357,0,1,0,1.877-1.961l-1.093-1.075a1.942,1.942,0,1,1,2.761-2.731l1.333,1.391v-5.485a1.991,1.991,0,0,1,3.982,0v5.485l1.442-1.428a1.963,1.963,0,1,1,2.79,2.761l-1.137,1.175a1.278,1.278,0,0,0-.357.882,1.255,1.255,0,0,0,.119.534,1.268,1.268,0,0,0,2.045.361l.89-.89a1.465,1.465,0,0,1,2.086,2.058Z" transform="translate(-272.448 -200.736)" fill="#50dd5a"/>
      <path id="Trazado_1275506" data-name="Trazado 1275506" d="M425.524,21.207a2.314,2.314,0,0,1,1.834,2.847l-1.811,7.12a8.485,8.485,0,0,0-2.486-.581v0l.447-7.643a2.474,2.474,0,0,0-.137-.981,2.3,2.3,0,0,1,2.154-.761Z" transform="translate(-327.532 -7.334)" fill="#50dd5a"/>
      <path id="Trazado_1275507" data-name="Trazado 1275507" d="M405.758,18.606a2.474,2.474,0,0,1,.137.981l-.447,7.643v0c-.271-.023-.546-.033-.825-.029l-2.224.031c-.279,0-.554.021-.825.051l-.663-7.629a2.5,2.5,0,0,1,2.453-2.716h.037a2.5,2.5,0,0,1,2.355,1.666Z" transform="translate(-309.92 -3.972)" fill="#49c160"/>
      <path id="Trazado_1275508" data-name="Trazado 1275508" d="M385.811,23.479l.663,7.629a8.373,8.373,0,0,0-2.468.652l-2.012-7.067A2.308,2.308,0,0,1,384.2,21.75a2.522,2.522,0,0,1,1.731.7,2.483,2.483,0,0,0-.125,1.028Z" transform="translate(-294.818 -7.795)" fill="#50dd5a"/>
      <path id="Trazado_1275509" data-name="Trazado 1275509" d="M215.152,280.063l-10.212-9.955a1.582,1.582,0,1,1,2.183-2.289l1.126,1.048a1.357,1.357,0,0,0,1.877-1.961l-1.093-1.075a1.94,1.94,0,1,1,2.759-2.729l1.335,1.389v-5.485a1.991,1.991,0,1,1,3.982,0v5.485l1.442-1.426a1.963,1.963,0,1,1,2.79,2.761L220.2,267a1.267,1.267,0,1,0,1.807,1.776l.89-.888a1.465,1.465,0,1,1,2.086,2.058Z" transform="translate(-153.766 -194.799)" fill="#49c160"/>
      <path id="Trazado_1275510" data-name="Trazado 1275510" d="M265.172,21.207a2.313,2.313,0,0,1,1.836,2.847l-1.811,7.12a8.485,8.485,0,0,0-2.486-.581v0l.447-7.643a2.469,2.469,0,0,0-.139-.981h0A2.3,2.3,0,0,1,265.172,21.207Z" transform="translate(-200.075 -7.334)" fill="#50dd5a"/>
      <path id="Trazado_1275511" data-name="Trazado 1275511" d="M245.4,18.606a2.469,2.469,0,0,1,.139.981l-.447,7.643v0c-.271-.023-.546-.033-.825-.029l-2.224.031c-.279,0-.554.021-.825.051l-.665-7.629a2.5,2.5,0,0,1,2.455-2.716h.037a2.5,2.5,0,0,1,2.353,1.666Z" transform="translate(-182.456 -3.972)" fill="#49c160"/>
      <path id="Trazado_1275512" data-name="Trazado 1275512" d="M225.457,23.479l.665,7.629a8.386,8.386,0,0,0-2.47.652l-2.01-7.067a2.306,2.306,0,0,1,2.209-2.944,2.514,2.514,0,0,1,1.731.7,2.482,2.482,0,0,0-.125,1.028Z" transform="translate(-167.36 -7.795)" fill="#50dd5a"/>
      <path id="Trazado_1275513" data-name="Trazado 1275513" d="M59.392,280.063,49.18,270.108a1.582,1.582,0,1,1,2.183-2.289l1.126,1.048a1.357,1.357,0,0,0,1.877-1.961l-1.093-1.075a1.941,1.941,0,1,1,2.761-2.728l1.333,1.389v-5.485a1.991,1.991,0,0,1,3.982,0v5.485l1.442-1.426a1.963,1.963,0,1,1,2.792,2.761L64.447,267a1.269,1.269,0,0,0-.357.882,1.283,1.283,0,0,0,.117.533,1.267,1.267,0,0,0,2.045.361l.89-.888a1.465,1.465,0,1,1,2.086,2.058Z" transform="translate(-29.958 -194.799)" fill="#50dd5a"/>
      <path id="Trazado_1275514" data-name="Trazado 1275514" d="M106.792,21.207a2.311,2.311,0,0,1,1.834,2.847l-1.809,7.12a8.484,8.484,0,0,0-2.486-.581v0l.447-7.643a2.47,2.47,0,0,0-.139-.981h0a2.3,2.3,0,0,1,2.152-.761Z" transform="translate(-74.185 -7.334)" fill="#50dd5a"/>
      <path id="Trazado_1275515" data-name="Trazado 1275515" d="M87.018,18.606a2.469,2.469,0,0,1,.139.981L86.71,27.23v0c-.273-.023-.548-.033-.827-.029l-2.224.031c-.279,0-.554.021-.825.051l-.663-7.629a2.5,2.5,0,0,1,2.453-2.716h.037a2.5,2.5,0,0,1,2.355,1.666Z" transform="translate(-56.565 -3.972)" fill="#49c160"/>
      <path id="Trazado_1275516" data-name="Trazado 1275516" d="M67.071,23.479l.663,7.629a8.356,8.356,0,0,0-2.468.652l-2.012-7.067a2.308,2.308,0,0,1,2.211-2.944,2.514,2.514,0,0,1,1.731.7,2.482,2.482,0,0,0-.125,1.028Z" transform="translate(-41.463 -7.795)" fill="#50dd5a"/>
      <g id="Grupo_1202091" data-name="Grupo 1202091" transform="translate(11 11.943)">
        <path id="Trazado_1275517" data-name="Trazado 1275517" d="M72.282,175.934l-3.027.043a1.026,1.026,0,1,0,.014,2.051h.015l3.027-.043a1.026,1.026,0,1,0-.029-2.051Z" transform="translate(-56.495 -142.293)" fill="#12263f"/>
        <path id="Trazado_1275518" data-name="Trazado 1275518" d="M96.838,112.848h.015l2.345-.033a1.026,1.026,0,1,0-.029-2.051l-2.345.033a1.026,1.026,0,0,0,.014,2.051Z" transform="translate(-78.409 -90.492)" fill="#12263f"/>
        <path id="Trazado_1275519" data-name="Trazado 1275519" d="M95.811,195.134l-2.556.036a1.026,1.026,0,1,0,.014,2.051h.015l2.556-.036a1.026,1.026,0,0,0-.029-2.051Z" transform="translate(-75.572 -157.555)" fill="#12263f"/>
        <path id="Trazado_1275520" data-name="Trazado 1275520" d="M230.665,175.934l-3.027.043a1.026,1.026,0,1,0,.014,2.051h.015l3.027-.043a1.026,1.026,0,1,0-.029-2.051Z" transform="translate(-182.388 -142.293)" fill="#12263f"/>
        <path id="Trazado_1275521" data-name="Trazado 1275521" d="M255.221,112.848h.015l2.345-.033a1.026,1.026,0,1,0-.029-2.051l-2.345.033a1.026,1.026,0,1,0,.014,2.051Z" transform="translate(-204.302 -90.492)" fill="#12263f"/>
        <path id="Trazado_1275522" data-name="Trazado 1275522" d="M254.194,195.134l-2.556.036a1.026,1.026,0,0,0,.014,2.051h.015l2.556-.036a1.026,1.026,0,0,0-.029-2.051Z" transform="translate(-201.465 -157.555)" fill="#12263f"/>
        <path id="Trazado_1275523" data-name="Trazado 1275523" d="M391.018,175.934l-3.027.043a1.026,1.026,0,0,0,.014,2.051h.015l3.027-.043a1.026,1.026,0,0,0-.029-2.051Z" transform="translate(-309.847 -142.293)" fill="#12263f"/>
        <path id="Trazado_1275524" data-name="Trazado 1275524" d="M415.575,112.848h.015l2.345-.033a1.026,1.026,0,0,0-.029-2.051l-2.345.033a1.026,1.026,0,1,0,.014,2.051Z" transform="translate(-331.761 -90.492)" fill="#12263f"/>
        <path id="Trazado_1275525" data-name="Trazado 1275525" d="M414.551,195.134,412,195.17a1.026,1.026,0,1,0,.014,2.051h.015l2.556-.036a1.026,1.026,0,0,0-.029-2.051Z" transform="translate(-328.927 -157.555)" fill="#12263f"/>
        <path id="Trazado_1275526" data-name="Trazado 1275526" d="M11,36.536V53.946a1.026,1.026,0,0,0,1.026,1.026h98.247a1.026,1.026,0,0,0,1.026-1.026V36.536a1.026,1.026,0,0,0-1.026-1.026,10.909,10.909,0,0,0-7.683,3.016l1.259-3.573a9.426,9.426,0,0,0-.506-7.537c0-.009-.009-.016-.013-.025a9.885,9.885,0,0,0-.735-1.2,9.553,9.553,0,0,0-3.373-2.93l1.6-6.287a3.333,3.333,0,0,0-4.69-3.823c-.034-.039-.066-.08-.1-.118a3.525,3.525,0,0,0-5.162.073c-.033.037-.062.077-.093.114A3.489,3.489,0,0,0,88.72,13a3.338,3.338,0,0,0-2.531,4.182l1.777,6.24a9.549,9.549,0,0,0-3.289,3.024,9.449,9.449,0,0,0-1.005,8.795L84.8,38.185a10.728,10.728,0,0,0-7.282-2.675,11.03,11.03,0,0,0-7.892,3.2l1.324-3.758a9.427,9.427,0,0,0-.508-7.54l0-.009A9.867,9.867,0,0,0,69.7,26.19a9.554,9.554,0,0,0-3.373-2.93l1.6-6.288a3.333,3.333,0,0,0-4.69-3.823c-.034-.039-.066-.08-.1-.118a3.525,3.525,0,0,0-5.162.073c-.033.037-.062.077-.093.114A3.49,3.49,0,0,0,55.824,13a3.337,3.337,0,0,0-2.531,4.182l1.777,6.24a9.547,9.547,0,0,0-3.289,3.024,9.449,9.449,0,0,0-1.005,8.795l1.067,2.775a10.656,10.656,0,0,0-7.07-2.5,10.827,10.827,0,0,0-7.519,2.874l1.21-3.433a9.449,9.449,0,0,0-1.254-8.763,9.554,9.554,0,0,0-3.373-2.93l1.6-6.287a3.333,3.333,0,0,0-4.69-3.823c-.034-.039-.066-.08-.1-.118a3.525,3.525,0,0,0-5.162.073c-.033.037-.062.077-.093.114A3.487,3.487,0,0,0,23.336,13,3.338,3.338,0,0,0,20.8,17.18l1.777,6.24a9.548,9.548,0,0,0-3.289,3.023,9.449,9.449,0,0,0-1.005,8.795l1.187,3.086a10.794,10.794,0,0,0-7.446-2.814A1.026,1.026,0,0,0,11,36.536ZM96.974,15.019a1.286,1.286,0,0,1,1.858,1.448l-1.54,6.054q-.338-.088-.683-.153L97,15.674a3.511,3.511,0,0,0-.026-.655Zm-4.586-.538a1.459,1.459,0,0,1,1.072-.485,1.482,1.482,0,0,1,1.086.455,1.459,1.459,0,0,1,.406,1.1l-.39,6.653-1.972.028L92.013,15.6a1.458,1.458,0,0,1,.375-1.116ZM88.3,15.6a1.272,1.272,0,0,1,.839-.593,1.432,1.432,0,0,1,.841.1,3.494,3.494,0,0,0-.008.665l.582,6.681c-.229.049-.455.107-.678.172l-1.711-6.01A1.274,1.274,0,0,1,88.3,15.6Zm-.849,14.022-2.058.029a7.617,7.617,0,0,1,.985-2.058,7.423,7.423,0,0,1,6.119-3.3l2.223-.032a7.413,7.413,0,0,1,5.761,2.567l-1.856.025a1.026,1.026,0,1,0,.013,2.051h.014l3.106-.041a7.411,7.411,0,0,1,.157,5.412l-1.222,3.469-4.739.064a1.026,1.026,0,1,0,.014,2.051h.014l3.983-.054-.547,1.553a8.271,8.271,0,0,1-4.174,1.756,1.021,1.021,0,0,0-.809-1.669L90.84,41.5a1.024,1.024,0,0,0-.982.8,9.908,9.908,0,0,1-1.707-1.12l-1.583-4.116,3.916-.056a1.026,1.026,0,1,0-.014-2.051h-.015l-4.671.066-.2-.519a7.555,7.555,0,0,1-.509-2.795l2.4-.034a1.026,1.026,0,0,0-.029-2.051ZM64.08,15.019a1.286,1.286,0,0,1,1.858,1.448L64.4,22.521q-.337-.088-.683-.153l.392-6.694a3.492,3.492,0,0,0-.025-.655Zm-4.586-.538a1.46,1.46,0,0,1,1.072-.485,1.482,1.482,0,0,1,1.086.455,1.458,1.458,0,0,1,.406,1.1l-.39,6.653-1.972.028L59.119,15.6a1.459,1.459,0,0,1,.375-1.116ZM55.4,15.6a1.274,1.274,0,0,1,.839-.593,1.432,1.432,0,0,1,.841.1,3.512,3.512,0,0,0-.008.665l.581,6.682c-.229.049-.455.107-.679.172l-1.711-6.01A1.274,1.274,0,0,1,55.4,15.6Zm-.849,14.022-2.058.029a7.617,7.617,0,0,1,.985-2.058,7.423,7.423,0,0,1,6.119-3.3l2.223-.032a7.419,7.419,0,0,1,5.761,2.567l-1.856.025a1.026,1.026,0,1,0,.013,2.051h.014l3.106-.041a7.411,7.411,0,0,1,.157,5.412L67.8,37.74,63.06,37.8a1.026,1.026,0,1,0,.014,2.051h.014l3.984-.054-.6,1.7a8.2,8.2,0,0,1-4.137,1.628,1.021,1.021,0,0,0-.8-1.686l-3.594.057a1.022,1.022,0,0,0-.962.734,10.486,10.486,0,0,1-1.791-1.223l-1.518-3.947,3.916-.056a1.026,1.026,0,1,0-.029-2.051l-4.672.066-.2-.519a7.555,7.555,0,0,1-.508-2.795l2.4-.034a1.026,1.026,0,0,0-.029-2.051ZM31.59,15.019a1.286,1.286,0,0,1,1.858,1.448l-1.54,6.055q-.337-.088-.683-.153l.392-6.694A3.51,3.51,0,0,0,31.59,15.019ZM27,14.48a1.473,1.473,0,0,1,2.564,1.074l-.39,6.653-1.972.028L26.629,15.6A1.459,1.459,0,0,1,27,14.48ZM22.914,15.6a1.272,1.272,0,0,1,.839-.593,1.434,1.434,0,0,1,.841.1,3.511,3.511,0,0,0-.008.665l.581,6.682c-.229.049-.455.107-.679.172l-1.711-6.01a1.272,1.272,0,0,1,.137-1.018Zm-.848,14.022-2.059.027a7.62,7.62,0,0,1,.985-2.056,7.423,7.423,0,0,1,6.119-3.3l2.223-.032a7.437,7.437,0,0,1,5.76,2.565l-1.857.026a1.026,1.026,0,1,0,.014,2.051h.015l3.1-.044a7.41,7.41,0,0,1,.158,5.415l-1.222,3.469-4.739.064a1.026,1.026,0,1,0,.014,2.051H30.6L34.58,39.8l-.5,1.431a8.362,8.362,0,0,1-4.2,1.858,1.02,1.02,0,0,0-.825-1.649l-3.593.057a1.026,1.026,0,0,0-.993.853,9.5,9.5,0,0,1-1.645-1.042l-1.633-4.246,3.916-.056a1.026,1.026,0,1,0-.029-2.051l-4.672.066-.2-.519a7.556,7.556,0,0,1-.508-2.8l2.4-.032a1.026,1.026,0,0,0-.027-2.051Zm-9.014,7.986c3.008.279,4.62,1.792,6.46,3.517,2.058,1.931,4.39,4.119,8.889,4.119s6.831-2.188,8.889-4.119c2.038-1.912,3.8-3.563,7.485-3.563s5.447,1.651,7.485,3.563c2.058,1.931,4.39,4.119,8.889,4.119s6.831-2.188,8.889-4.119c2.038-1.912,3.8-3.563,7.485-3.563s5.448,1.651,7.486,3.563c2.058,1.931,4.39,4.119,8.89,4.119s6.831-2.188,8.889-4.119c1.839-1.726,3.452-3.239,6.46-3.517V52.921h-96.2Z" transform="translate(-11 -11.943)" fill="#12263f"/>
        <path id="Trazado_1275527" data-name="Trazado 1275527" d="M111.333,283.44a10.529,10.529,0,0,0-6.344,1.957c-1.03-4.365-4.939-7.747-9.9-8.594l8.343-8.581a2.491,2.491,0,1,0-3.548-3.5l-.89.89a.241.241,0,0,1-.344-.338l1.136-1.174a2.989,2.989,0,0,0-3.944-4.467v-3.067a3.016,3.016,0,1,0-6.033,0v3.014a2.938,2.938,0,0,0-1.706-.54h0a2.941,2.941,0,0,0-2.135.907,2.976,2.976,0,0,0,.055,4.175l1.094,1.076a.332.332,0,0,1-.459.48l-1.126-1.05a2.607,2.607,0,0,0-3.6,3.774L90.5,276.76a12.486,12.486,0,0,0-9.623,6.891,12.017,12.017,0,0,0-2.3-.211,10.971,10.971,0,0,0-4.151.756c-.908-4.522-4.894-8.054-9.977-8.923l8.344-8.582a2.492,2.492,0,0,0-3.547-3.5l-.89.89a.241.241,0,0,1-.344-.338l1.136-1.174a2.989,2.989,0,0,0-3.944-4.467v-3.066a3.016,3.016,0,1,0-6.032,0v3.014a2.94,2.94,0,0,0-1.706-.54h0a2.942,2.942,0,0,0-2.135.907,2.976,2.976,0,0,0,.055,4.175l1.094,1.076a.332.332,0,0,1-.459.479L54.9,263.1a2.607,2.607,0,0,0-3.6,3.775l8.571,8.357c-5.143.776-9.266,4.3-10.255,8.829a11.138,11.138,0,0,0-3.782-.617,11.339,11.339,0,0,0-3.4.488,10.8,10.8,0,0,0-3.841-5.956,13.3,13.3,0,0,0-6.095-2.7l8.345-8.583a2.492,2.492,0,0,0-3.549-3.5l-.89.89a.241.241,0,0,1-.344-.338l1.136-1.174a2.989,2.989,0,0,0-3.943-4.467v-3.066a3.016,3.016,0,1,0-6.032,0v3.014a2.94,2.94,0,0,0-1.706-.54h0a2.941,2.941,0,0,0-2.135.906,2.974,2.974,0,0,0,.055,4.175l1.094,1.076a.332.332,0,0,1-.459.479l-1.126-1.05a2.607,2.607,0,0,0-3.6,3.775l8.572,8.357a13.234,13.234,0,0,0-6.646,2.974,10.637,10.637,0,0,0-3.656,6.154,10.827,10.827,0,0,0-4.534-.917,1.026,1.026,0,0,0-1.026,1.026v17.41a1.026,1.026,0,0,0,1.026,1.026h98.248a1.026,1.026,0,0,0,1.026-1.026V284.466a1.026,1.026,0,0,0-1.026-1.026ZM83.362,266.933c-.529-.508.259-1.282.767-.8l1.126,1.049a2.383,2.383,0,0,0,3.3-3.442l-1.094-1.075a.915.915,0,1,1,1.3-1.287l1.335,1.389a1.026,1.026,0,0,0,1.765-.711v-5.485a.965.965,0,0,1,1.93,0v5.485a1.026,1.026,0,0,0,1.747.729l1.443-1.426a.918.918,0,0,1,.677-.27.937.937,0,0,1,.656,1.589l-1.136,1.174a2.293,2.293,0,1,0,3.269,3.216l.89-.89a.44.44,0,0,1,.626.618L93.884,275.1v-9.8a1.026,1.026,0,0,0-2.051,0v9.891Zm9.277,11.713c5.534,0,10.057,3.583,10.529,8.24q-.369.338-.723.672c-2.038,1.912-3.8,3.563-7.486,3.563s-5.448-1.651-7.486-3.563a15.351,15.351,0,0,0-4.609-3.31c1.613-3.34,5.48-5.6,9.775-5.6ZM52.732,265.4c-.529-.508.259-1.282.767-.8l1.126,1.049a2.383,2.383,0,0,0,3.3-3.442l-1.094-1.076a.915.915,0,1,1,1.3-1.287l1.335,1.389a1.026,1.026,0,0,0,1.764-.711v-5.485a.965.965,0,1,1,1.93,0v5.485a1.026,1.026,0,0,0,1.747.729l1.443-1.426a.917.917,0,0,1,.677-.27.937.937,0,0,1,.655,1.589l-1.136,1.174a2.293,2.293,0,1,0,3.268,3.216l.89-.89c.408-.414,1.018.223.626.618l-8.075,8.306v-9.8a1.026,1.026,0,0,0-2.051,0v9.891Zm9.277,11.713c5.466,0,9.957,3.51,10.51,8.091a21.445,21.445,0,0,0-2.825,2.352c-2.038,1.912-3.8,3.563-7.485,3.563s-5.447-1.651-7.485-3.563a19.624,19.624,0,0,0-3.192-2.585c.68-4.453,5.146-7.857,10.477-7.857ZM20.781,265.4c-.529-.508.259-1.282.767-.8l1.126,1.049a2.383,2.383,0,0,0,3.3-3.442l-1.094-1.076a.915.915,0,1,1,1.3-1.286l1.335,1.389a1.026,1.026,0,0,0,1.767-.711v-5.485a.965.965,0,0,1,1.93,0v5.485a1.026,1.026,0,0,0,1.747.729l1.443-1.426a.937.937,0,0,1,1.332,1.318l-1.137,1.174a2.293,2.293,0,1,0,3.269,3.216l.89-.89c.406-.416,1.018.223.626.617L31.3,273.565v-9.8a1.026,1.026,0,0,0-2.051,0v9.891Zm9.295,11.713c5.207,0,9.645,3.3,10.44,7.637a18.063,18.063,0,0,0-3.569,2.806c-2.038,1.912-3.8,3.563-7.485,3.563s-5.447-1.651-7.485-3.563a24.026,24.026,0,0,0-2.438-2.084c.411-4.654,5.013-8.357,10.538-8.357Zm80.232,23.735h-96.2V285.537c3.008.279,4.62,1.792,6.46,3.517,2.058,1.931,4.39,4.119,8.889,4.119s6.831-2.188,8.889-4.119c2.038-1.912,3.8-3.563,7.485-3.563s5.448,1.651,7.485,3.563c2.058,1.931,4.39,4.119,8.889,4.119s6.831-2.188,8.889-4.119c2.038-1.912,3.8-3.563,7.485-3.563s5.448,1.651,7.486,3.563c2.058,1.931,4.39,4.119,8.889,4.119s6.831-2.188,8.89-4.119c1.839-1.726,3.452-3.239,6.46-3.517Z" transform="translate(-11.843 -202.771)" fill="#12263f"/>
        <path id="Trazado_1275528" data-name="Trazado 1275528" d="M308.112,470.859h-3.257a1.026,1.026,0,0,0,0,2.051h3.257a1.026,1.026,0,0,0,0-2.051Z" transform="translate(-243.76 -376.719)" fill="#12263f"/>
        <path id="Trazado_1275529" data-name="Trazado 1275529" d="M207.128,470.859H186.947a1.026,1.026,0,1,0,0,2.051h20.181a1.026,1.026,0,1,0,0-2.051Z" transform="translate(-150.038 -376.719)" fill="#12263f"/>
      </g>
    </g>
  </g>
</svg>
