<svg xmlns="http://www.w3.org/2000/svg" width="129.063" height="68.549" viewBox="0 0 129.063 68.549">
  <g id="Grupo_1202233" data-name="Grupo 1202233" transform="translate(-788.103 -1991.352)">
    <g id="Rectángulo_410589" data-name="Rectángulo 410589" transform="translate(788.103 2007.607)" fill="#a1c6f1" stroke="#6f89a8" stroke-width="1">
      <rect width="129.063" height="43.021" rx="8" stroke="none"/>
      <rect x="0.5" y="0.5" width="128.063" height="42.021" rx="7.5" fill="none"/>
    </g>
    <g id="Page-1" transform="translate(801.228 1991.356)">
      <g id="_010---Boxed-Plants" data-name="010---Boxed-Plants" transform="translate(0 -0.004)">
        <path id="Shape" d="M100.385,32V43.995a1.714,1.714,0,0,1-1.714,1.714H2.714A1.714,1.714,0,0,1,1,43.995V32Z" transform="translate(0.714 21.127)" fill="#ff5722"/>
        <path id="Shape-2" data-name="Shape" d="M56.714,32V43.995A1.714,1.714,0,0,1,55,45.708h5.141a1.714,1.714,0,0,0,1.714-1.714V32Z" transform="translate(39.245 21.127)" fill="#d84315"/>
        <path id="Shape-3" data-name="Shape" d="M100.385,35.231H91.818L84.244,23.236h-67.1L9.568,35.231H1L15.394,13.641A6.875,6.875,0,0,0,23,12.681c.1-.1.188-.188.274-.291.086.1.171.188.274.291a4.88,4.88,0,0,0,.446.394c2.759,2.21,7.385,1.474,10.641-1.782A14.637,14.637,0,0,0,36.984,8.26a14.637,14.637,0,0,0,2.348,3.033c3.444,3.444,8.4,4.061,11.087,1.388.1-.1.188-.188.274-.291.086.1.171.188.274.291a4.88,4.88,0,0,0,.446.394c2.759,2.21,7.385,1.474,10.641-1.782A14.637,14.637,0,0,0,64.4,8.26a14.637,14.637,0,0,0,2.348,3.033c3.444,3.444,8.4,4.061,11.087,1.388.1-.1.188-.188.274-.291.086.1.171.188.274.291a4.879,4.879,0,0,0,.446.394,7.049,7.049,0,0,0,7.163.565Z" transform="translate(0.714 4.187)" fill="#ff9801"/>
        <path id="Shape-4" data-name="Shape" d="M52.589,11.4a8.036,8.036,0,0,1-4.776.547L61.842,32.991h5.141Z" transform="translate(34.117 6.428)" fill="#f57c00"/>
        <path id="Rectangle-path" d="M1,24h99.385V37.708H1Z" transform="translate(0.714 15.419)" fill="#ff5722"/>
        <path id="Rectangle-path-2" data-name="Rectangle-path" d="M56,24h5.141V37.708H56Z" transform="translate(39.958 15.419)" fill="#d84315"/>
        <path id="Shape-5" data-name="Shape" d="M88.25,28.995H6L13.574,17h67.1Z" transform="translate(4.281 10.424)" fill="sienna"/>
        <path id="Shape-6" data-name="Shape" d="M51.721,17H46.58l7.574,11.995h5.141Z" transform="translate(33.237 10.424)" fill="#783e22"/>
        <path id="Shape-7" data-name="Shape" d="M20.423,16.853c-.086.1-.171.188-.274.291a6.875,6.875,0,0,1-7.608.96,10.852,10.852,0,0,1-3.478-2.348A12.649,12.649,0,0,1,5.6,2.613a12.636,12.636,0,0,1,13.16,3.461A10.2,10.2,0,0,1,20.423,8.2a7.411,7.411,0,0,1,0,8.653Z" transform="translate(3.567 -0.276)" fill="#60a917"/>
        <path id="Shape-8" data-name="Shape" d="M19.66,8.2A10.2,10.2,0,0,0,18,6.074a12.774,12.774,0,0,0-11.93-3.8,13.354,13.354,0,0,1,6.789,3.8A10.2,10.2,0,0,1,14.519,8.2a7.411,7.411,0,0,1,0,8.653c-.086.1-.171.188-.274.291a5.428,5.428,0,0,1-1.828,1.184,6.683,6.683,0,0,0,6.969-1.184c.1-.1.188-.188.274-.291A7.411,7.411,0,0,0,19.66,8.2Z" transform="translate(4.33 -0.275)" fill="#549414"/>
        <path id="Shape-9" data-name="Shape" d="M27.708,12.725a14.637,14.637,0,0,1-2.348,3.033c-3.256,3.256-7.882,3.993-10.641,1.782a4.88,4.88,0,0,1-.446-.394c-.1-.1-.188-.188-.274-.291A7.411,7.411,0,0,0,14,8.2,10.761,10.761,0,0,1,15.662,6.06,12.8,12.8,0,0,1,27.708,2.29a7.2,7.2,0,0,0-1.114.326,12.327,12.327,0,0,0,1.114,10.11Z" transform="translate(9.99 -0.278)" fill="#60a917"/>
        <path id="Shape-10" data-name="Shape" d="M25.7,2.616a7.2,7.2,0,0,1,1.114-.326,12.581,12.581,0,0,0-5.257-.024l.117.024a7.2,7.2,0,0,0-1.114.326,12.327,12.327,0,0,0,1.114,10.11,14.637,14.637,0,0,1-2.348,3.033,10.7,10.7,0,0,1-4.073,2.57,8.89,8.89,0,0,0,9.214-2.57,14.637,14.637,0,0,0,2.348-3.033A12.327,12.327,0,0,1,25.7,2.616Z" transform="translate(10.884 -0.279)" fill="#549414"/>
        <path id="Shape-11" data-name="Shape" d="M36.426,16.853c-.086.1-.171.188-.274.291-2.69,2.673-7.642,2.056-11.087-1.388a14.637,14.637,0,0,1-2.348-3.033A12.327,12.327,0,0,1,21.6,2.613a7.2,7.2,0,0,1,1.114-.326A12.826,12.826,0,0,1,34.763,6.074,10.2,10.2,0,0,1,36.426,8.2,7.411,7.411,0,0,1,36.426,16.853Z" transform="translate(14.981 -0.276)" fill="#60a917"/>
        <path id="Shape-12" data-name="Shape" d="M35.668,8.2a10.2,10.2,0,0,0-1.662-2.125,12.822,12.822,0,0,0-11.95-3.806,13.378,13.378,0,0,1,6.81,3.806A10.2,10.2,0,0,1,30.528,8.2a7.411,7.411,0,0,1,0,8.653c-.086.1-.171.188-.274.291a5.483,5.483,0,0,1-1.868,1.174,6.693,6.693,0,0,0,7.008-1.174c.1-.1.188-.188.274-.291A7.411,7.411,0,0,0,35.668,8.2Z" transform="translate(15.738 -0.275)" fill="#549414"/>
        <path id="Shape-13" data-name="Shape" d="M43.708,12.725a14.637,14.637,0,0,1-2.348,3.033c-3.256,3.256-7.882,3.993-10.641,1.782a4.88,4.88,0,0,1-.446-.394c-.1-.1-.188-.188-.274-.291A7.411,7.411,0,0,0,30,8.2,10.761,10.761,0,0,1,31.662,6.06,12.8,12.8,0,0,1,43.708,2.29a7.2,7.2,0,0,0-1.114.326,12.327,12.327,0,0,0,1.114,10.11Z" transform="translate(21.406 -0.278)" fill="#60a917"/>
        <path id="Shape-14" data-name="Shape" d="M41.7,2.616a7.2,7.2,0,0,1,1.114-.326,12.581,12.581,0,0,0-5.257-.024l.117.024a7.2,7.2,0,0,0-1.114.326,12.327,12.327,0,0,0,1.114,10.11,14.637,14.637,0,0,1-2.348,3.033,10.7,10.7,0,0,1-4.073,2.57,8.89,8.89,0,0,0,9.214-2.57,14.637,14.637,0,0,0,2.348-3.033A12.327,12.327,0,0,1,41.7,2.616Z" transform="translate(22.3 -0.279)" fill="#549414"/>
        <path id="Shape-15" data-name="Shape" d="M52.426,16.853c-.086.1-.171.188-.274.291-2.69,2.673-7.642,2.056-11.087-1.388a14.637,14.637,0,0,1-2.348-3.033A12.327,12.327,0,0,1,37.6,2.613a7.2,7.2,0,0,1,1.114-.326A12.826,12.826,0,0,1,50.763,6.074,10.2,10.2,0,0,1,52.426,8.2,7.411,7.411,0,0,1,52.426,16.853Z" transform="translate(26.397 -0.276)" fill="#60a917"/>
        <path id="Shape-16" data-name="Shape" d="M51.668,8.2a10.2,10.2,0,0,0-1.662-2.125,12.822,12.822,0,0,0-11.95-3.806,13.378,13.378,0,0,1,6.81,3.806A10.2,10.2,0,0,1,46.528,8.2a7.411,7.411,0,0,1,0,8.653c-.086.1-.171.188-.274.291a5.483,5.483,0,0,1-1.868,1.174,6.693,6.693,0,0,0,7.008-1.174c.1-.1.188-.188.274-.291A7.411,7.411,0,0,0,51.668,8.2Z" transform="translate(27.155 -0.275)" fill="#549414"/>
        <path id="Shape-17" data-name="Shape" d="M57.361,15.761a10.852,10.852,0,0,1-3.478,2.348,7.05,7.05,0,0,1-7.163-.565,4.881,4.881,0,0,1-.446-.394c-.1-.1-.188-.188-.274-.291A7.411,7.411,0,0,0,46,8.2a10.761,10.761,0,0,1,1.662-2.142A12.68,12.68,0,0,1,60.822,2.6,12.68,12.68,0,0,1,57.361,15.761Z" transform="translate(32.823 -0.28)" fill="#60a917"/>
        <path id="Shape-18" data-name="Shape" d="M59.947,2.605a12.156,12.156,0,0,0-6.359-.343,8.413,8.413,0,0,1,1.218.343,12.68,12.68,0,0,1-3.461,13.16,10.852,10.852,0,0,1-3.478,2.348c-.212.089-.425.156-.639.228a7.618,7.618,0,0,0,5.78-.228,10.852,10.852,0,0,0,3.478-2.348A12.68,12.68,0,0,0,59.947,2.605Z" transform="translate(33.698 -0.285)" fill="#549414"/>
        <g id="Grupo_1202092" data-name="Grupo 1202092">
          <circle id="Oval" cx="1.714" cy="1.714" r="1.714" transform="translate(6.854 44.559)"/>
          <circle id="Oval-2" data-name="Oval" cx="1.714" cy="1.714" r="1.714" transform="translate(41.125 27.424)"/>
          <circle id="Oval-3" data-name="Oval" cx="1.714" cy="1.714" r="1.714" transform="translate(30.844 30.851)"/>
          <circle id="Oval-4" data-name="Oval" cx="1.714" cy="1.714" r="1.714" transform="translate(68.542 30.851)"/>
          <circle id="Oval-5" data-name="Oval" cx="1.714" cy="1.714" r="1.714" transform="translate(58.26 27.424)"/>
          <circle id="Oval-6" data-name="Oval" cx="1.714" cy="1.714" r="1.714" transform="translate(6.854 58.268)"/>
          <circle id="Oval-7" data-name="Oval" cx="1.714" cy="1.714" r="1.714" transform="translate(92.531 44.559)"/>
          <circle id="Oval-8" data-name="Oval" cx="1.714" cy="1.714" r="1.714" transform="translate(92.531 58.268)"/>
          <path id="Shape-19" data-name="Shape" d="M102.525,39.463,89.183,19.453a12.851,12.851,0,0,0,2.209-1.762,14.313,14.313,0,0,0,3.843-15,1.714,1.714,0,0,0-.966-.965,14.311,14.311,0,0,0-15,3.845c-.171.171-.307.343-.461.514-.153-.171-.274-.353-.439-.514A14.407,14.407,0,0,0,65.115,1.263,14.512,14.512,0,0,0,51.855,5.571c-.171.171-.307.343-.463.524-.153-.171-.276-.355-.44-.514A14.413,14.413,0,0,0,37.7,1.263,14.512,14.512,0,0,0,24.439,5.571c-.171.163-.305.343-.458.514-.153-.171-.278-.351-.44-.514a14.3,14.3,0,0,0-15-3.843,1.714,1.714,0,0,0-.961.963,14.284,14.284,0,0,0,3.843,15,12.877,12.877,0,0,0,2.228,1.738L.288,39.463A1.724,1.724,0,0,0,0,40.414v25.7a3.427,3.427,0,0,0,3.427,3.427H99.385a3.427,3.427,0,0,0,3.427-3.427v-25.7A1.724,1.724,0,0,0,102.525,39.463ZM81.693,7.993a11.092,11.092,0,0,1,10.571-3.3,11.138,11.138,0,0,1-3.3,10.574,7.291,7.291,0,0,1-7.248,2.245,10.624,10.624,0,0,1,4.719-4.687,1.714,1.714,0,1,0-1.532-3.066,14.267,14.267,0,0,0-3.187,2.18,10.956,10.956,0,0,0-.9-2.913A9.275,9.275,0,0,1,81.693,7.993Zm-5.747,0a7.54,7.54,0,0,1,2.4,6.834,14.084,14.084,0,0,0-5.62-5.077,1.714,1.714,0,0,0-1.532,3.066,10.624,10.624,0,0,1,4.719,4.7,7.238,7.238,0,0,1-7.241-2.246,11.069,11.069,0,0,1-3.3-10.569h.015a.376.376,0,0,0,.074-.015A11.068,11.068,0,0,1,75.946,8Zm-21.666,0a11.392,11.392,0,0,1,7.656-3.542,14.166,14.166,0,0,0,1.186,8.9,13.276,13.276,0,0,1-1.566,1.921,7.293,7.293,0,0,1-7.25,2.245,10.614,10.614,0,0,1,4.717-4.687,1.714,1.714,0,1,0-1.532-3.066,14.267,14.267,0,0,0-3.187,2.18,10.991,10.991,0,0,0-.9-2.913,9,9,0,0,1,.877-1.035Zm-5.751,0a7.54,7.54,0,0,1,2.4,6.834,14.084,14.084,0,0,0-5.62-5.077,1.714,1.714,0,0,0-1.532,3.066,10.624,10.624,0,0,1,4.719,4.7,7.238,7.238,0,0,1-7.241-2.246,11.069,11.069,0,0,1-3.3-10.569h.015l.072-.015A11.068,11.068,0,0,1,48.529,8Zm-21.666,0a11.392,11.392,0,0,1,7.656-3.542,14.166,14.166,0,0,0,1.186,8.9,13.277,13.277,0,0,1-1.566,1.921,7.3,7.3,0,0,1-7.248,2.245,10.636,10.636,0,0,1,4.719-4.687,1.714,1.714,0,1,0-1.532-3.066,14.222,14.222,0,0,0-3.167,2.164,11,11,0,0,0-.925-2.891,9.172,9.172,0,0,1,.877-1.042ZM10.547,4.7A11.075,11.075,0,0,1,21.118,8a8.441,8.441,0,0,1,2.5,4.827,5.394,5.394,0,0,1-.11,1.983,14.085,14.085,0,0,0-5.6-5.053,1.716,1.716,0,0,0-1.532,3.071,10.624,10.624,0,0,1,4.721,4.7,5.113,5.113,0,0,1-2.416.252,8.439,8.439,0,0,1-4.827-2.5A11.069,11.069,0,0,1,10.547,4.7ZM18.258,21.17a9.938,9.938,0,0,0,1.2.075,8.168,8.168,0,0,0,2.7-.464,10.966,10.966,0,0,1,.123,1.6V33.56a1.714,1.714,0,1,0,3.427,0V22.379a10.769,10.769,0,0,1,.122-1.585,8.273,8.273,0,0,0,2.742.458,11.546,11.546,0,0,0,8-3.561c.406-.406.766-.838,1.121-1.27a16.7,16.7,0,0,0,1.155,1.271,11.549,11.549,0,0,0,8,3.53,8.367,8.367,0,0,0,2.713-.458,10.86,10.86,0,0,1,.125,1.609V33.56a1.714,1.714,0,1,0,3.427,0V22.379a10.8,10.8,0,0,1,.122-1.587,8.294,8.294,0,0,0,2.742.459,11.546,11.546,0,0,0,8-3.561c.406-.406.766-.838,1.121-1.27a15.077,15.077,0,0,0,1.155,1.271,11.549,11.549,0,0,0,8.009,3.53,8.367,8.367,0,0,0,2.713-.458,10.861,10.861,0,0,1,.125,1.609V33.56a1.714,1.714,0,1,0,3.427,0V22.379a10.771,10.771,0,0,1,.122-1.585,8.263,8.263,0,0,0,2.731.458,9.949,9.949,0,0,0,2.634-.372L97.9,38.7H93.477L86.405,27.5a1.714,1.714,0,1,0-2.9,1.83L89.421,38.7H13.391l5.915-9.366a1.714,1.714,0,0,0-2.9-1.83L9.335,38.7H4.916l11.9-17.847a10.6,10.6,0,0,0,1.436.315ZM99.385,66.118H3.427V55.836H22.276a1.714,1.714,0,1,0,0-3.427H3.427V42.128H99.385V52.409H30.844a1.714,1.714,0,0,0,0,3.427H99.385Z" transform="translate(0 -0.996)"/>
        </g>
      </g>
    </g>
  </g>
</svg>
