<svg xmlns="http://www.w3.org/2000/svg" width="129.063" height="91.166" viewBox="0 0 129.063 91.166">
  <g id="Grupo_1202235" data-name="Grupo 1202235" transform="translate(-788.103 -1976.939)">
    <g id="Rectángulo_410589" data-name="Rectángulo 410589" transform="translate(788.103 2007.607)" fill="#a1c6f1" stroke="#6f89a8" stroke-width="1">
      <rect width="129.063" height="43.021" rx="8" stroke="none"/>
      <rect x="0.5" y="0.5" width="128.063" height="42.021" rx="7.5" fill="none"/>
    </g>
    <g id="livestock_3397536" transform="translate(807.233 1975.939)">
      <g id="Grupo_1202117" data-name="Grupo 1202117" transform="translate(2.531 2.47)">
        <g id="Grupo_1202093" data-name="Grupo 1202093" transform="translate(79.403 70.58)">
          <path id="Trazado_1275530" data-name="Trazado 1275530" d="M64.823,50.559V67.645H56V50h8.823Z" transform="translate(-56 -50)" fill="#dfb28b"/>
        </g>
        <g id="Grupo_1202094" data-name="Grupo 1202094" transform="translate(64.698 70.58)">
          <path id="Trazado_1275531" data-name="Trazado 1275531" d="M54.823,50V67.645H46V50h8.823Z" transform="translate(-46 -50)" fill="#dfb28b"/>
        </g>
        <g id="Grupo_1202095" data-name="Grupo 1202095" transform="translate(49.994 70.58)">
          <path id="Trazado_1275532" data-name="Trazado 1275532" d="M36,50h8.823V67.645H36Z" transform="translate(-36 -50)" fill="#dfb28b"/>
        </g>
        <g id="Grupo_1202096" data-name="Grupo 1202096" transform="translate(35.29 70.58)">
          <path id="Trazado_1275533" data-name="Trazado 1275533" d="M26,50h8.823V67.645H26Z" transform="translate(-26 -50)" fill="#dfb28b"/>
        </g>
        <g id="Grupo_1202097" data-name="Grupo 1202097" transform="translate(20.586 70.58)">
          <path id="Trazado_1275534" data-name="Trazado 1275534" d="M16,50h8.823V67.645H16Z" transform="translate(-16 -50)" fill="#dfb28b"/>
        </g>
        <g id="Grupo_1202098" data-name="Grupo 1202098" transform="translate(5.882 70.58)">
          <path id="Trazado_1275535" data-name="Trazado 1275535" d="M8.941,50h5.882V67.645H6V50Z" transform="translate(-6 -50)" fill="#dfb28b"/>
        </g>
        <g id="Grupo_1202099" data-name="Grupo 1202099" transform="translate(73.521 70.58)">
          <path id="Trazado_1275536" data-name="Trazado 1275536" d="M57.882,58.823v8.822H52V50h5.882Z" transform="translate(-52 -50)" fill="#d3a06c"/>
        </g>
        <g id="Grupo_1202100" data-name="Grupo 1202100" transform="translate(58.817 70.58)">
          <path id="Trazado_1275537" data-name="Trazado 1275537" d="M47.882,58.823v8.822H42V50h5.882Z" transform="translate(-42 -50)" fill="#d3a06c"/>
        </g>
        <g id="Grupo_1202101" data-name="Grupo 1202101" transform="translate(44.113 70.58)">
          <path id="Trazado_1275538" data-name="Trazado 1275538" d="M37.882,58.823v8.822H32V50h5.882Z" transform="translate(-32 -50)" fill="#d3a06c"/>
        </g>
        <g id="Grupo_1202102" data-name="Grupo 1202102" transform="translate(29.408 70.58)">
          <path id="Trazado_1275539" data-name="Trazado 1275539" d="M27.882,58.823v8.822H22V50h5.882Z" transform="translate(-22 -50)" fill="#d3a06c"/>
        </g>
        <g id="Grupo_1202103" data-name="Grupo 1202103" transform="translate(14.704 70.58)">
          <path id="Trazado_1275540" data-name="Trazado 1275540" d="M17.882,58.823v8.822H12V50h5.882Z" transform="translate(-12 -50)" fill="#d3a06c"/>
        </g>
        <g id="Grupo_1202104" data-name="Grupo 1202104" transform="translate(0 70.58)">
          <path id="Trazado_1275541" data-name="Trazado 1275541" d="M7.882,58.823v8.822H2V50H7.882Z" transform="translate(-2 -50)" fill="#d3a06c"/>
        </g>
        <g id="Grupo_1202105" data-name="Grupo 1202105" transform="translate(0)">
          <path id="Trazado_1275542" data-name="Trazado 1275542" d="M28.865,61.111A9.232,9.232,0,0,1,27,57.876l-1.191-3.558a7.5,7.5,0,0,0-1.529-2.661,4.411,4.411,0,0,0-1.691-8.484h-.162L21.115,31.408h-2.1a3.082,3.082,0,0,0-1.559.441L6.411,38.76,2,31.408,7.676,19.1a14.9,14.9,0,0,1,2.941-4.22A14.518,14.518,0,0,1,11.94,13.7a14.894,14.894,0,0,1,6.235-2.882L21.115,2l1.294,1.294a10.639,10.639,0,0,1,3.117,7.529,17.059,17.059,0,0,1,8.249,9.072L38.76,32.864a7.258,7.258,0,0,1-2.5,3.353l-2.206,1.662a2.96,2.96,0,0,0-1.176,2.353v2.941A5.882,5.882,0,0,0,43.466,46.7l1.544-2.059a5.907,5.907,0,0,1,2.853-2.059l1.559-.515A8.825,8.825,0,0,1,51.994,48.3v.029a8.8,8.8,0,0,0,2,5.6l-2,1v1.118A15.072,15.072,0,0,0,56.405,66.7l11.852-1.823a8.512,8.512,0,0,0,3.411-1.309,13.833,13.833,0,0,1,.912,4.955V72.58H51.994a10.648,10.648,0,0,1-5.882-9.514v-.779a7.353,7.353,0,0,0-14.557-1.47H30.438a4.334,4.334,0,0,0-1.573.294Z" transform="translate(-2 -2)" fill="#cf9e76"/>
        </g>
        <g id="Grupo_1202106" data-name="Grupo 1202106" transform="translate(19.115)">
          <path id="Trazado_1275543" data-name="Trazado 1275543" d="M32.645,32.864,27.66,19.895a17.059,17.059,0,0,0-8.249-9.072,10.639,10.639,0,0,0-3.117-7.529L15,2A20.985,20.985,0,0,1,26.16,5.264a20.736,20.736,0,0,1,7.69,8.764l4.205,9.014a7.352,7.352,0,0,0-4.749,5.985l-.279,2.22a7.411,7.411,0,0,1-.382,1.617Z" transform="translate(-15 -2)" fill="#b27946"/>
        </g>
        <g id="Grupo_1202107" data-name="Grupo 1202107" transform="translate(4.411)">
          <path id="Trazado_1275544" data-name="Trazado 1275544" d="M19.7,2l-2.941,8.823A14.894,14.894,0,0,0,10.529,13.7a14.518,14.518,0,0,0-1.323,1.176L5,7.882,6.647,6.573A20.82,20.82,0,0,1,19.66,2Z" transform="translate(-5 -2)" fill="#b27946"/>
        </g>
        <g id="Grupo_1202108" data-name="Grupo 1202108" transform="translate(30.879 8.822)">
          <path id="Trazado_1275545" data-name="Trazado 1275545" d="M48.982,25.821a11.765,11.765,0,0,0,10.087,5.705H81.817V49.172H75.759a5.863,5.863,0,0,1-5.573-4.029l-.206-.6a6.132,6.132,0,0,0-4.544-4.058h-.015A4.322,4.322,0,0,0,64.348,38.7a4.4,4.4,0,0,0-7.264,1.647H54.452a5.877,5.877,0,0,0-5.808,4.911l-.4,2.441a2.984,2.984,0,0,1-1.588,2.147l-2.544,1.265a8.8,8.8,0,0,1-2-5.6v-.029a8.825,8.825,0,0,0-2.573-6.235l-1.559.515a5.907,5.907,0,0,0-2.853,2.059l-1.544,2.059A5.88,5.88,0,0,1,23,40.349V37.408a2.96,2.96,0,0,1,1.176-2.353l2.206-1.662a7.258,7.258,0,0,0,2.5-3.353,7.412,7.412,0,0,0,.382-1.617l.279-2.22a7.356,7.356,0,0,1,7.293-6.44H37.7l2.029-2.706a11.927,11.927,0,0,0,2.382-7.146A1.908,1.908,0,0,1,44.027,8a1.928,1.928,0,0,1,1.6.853A14.145,14.145,0,0,1,48,16.69v3.073H46.88A5.313,5.313,0,0,0,42.115,22.7a2.962,2.962,0,0,0,2.941,2.941h.265a5.143,5.143,0,0,0,2.985-.941l.015.015Z" transform="translate(-23 -8)" fill="#ccd1d9"/>
        </g>
        <g id="Grupo_1202109" data-name="Grupo 1202109" transform="translate(49.994 20.586)">
          <path id="Trazado_1275546" data-name="Trazado 1275546" d="M44.823,16l-.456,1.853a5.3,5.3,0,0,1-2.176,3.088,5.143,5.143,0,0,1-2.985.941h-.265A2.962,2.962,0,0,1,36,18.941,5.313,5.313,0,0,1,40.764,16h4.058Z" transform="translate(-36 -16)" fill="#aab2bd"/>
        </g>
        <g id="Grupo_1202110" data-name="Grupo 1202110" transform="translate(29.408 52.935)">
          <path id="Trazado_1275547" data-name="Trazado 1275547" d="M36.7,46.131a10.648,10.648,0,0,0,5.882,9.514h-14.7A4.72,4.72,0,0,0,25.25,51.4L22,49.763V45.352a6.929,6.929,0,0,1,.147-1.47A7.351,7.351,0,0,1,36.7,45.352Z" transform="translate(-22 -38)" fill="#e6e9ed"/>
        </g>
        <g id="Grupo_1202111" data-name="Grupo 1202111" transform="translate(8.823 47.053)">
          <path id="Trazado_1275548" data-name="Trazado 1275548" d="M13.882,57.527H8V41.69a7.429,7.429,0,0,1,.221-1.809,7.691,7.691,0,0,1,2.617-4.161A7.57,7.57,0,0,1,15.69,34a7.648,7.648,0,0,1,4.5,1.456A7.819,7.819,0,0,1,21.454,36.6a7.5,7.5,0,0,1,1.529,2.661l1.191,3.558a9.232,9.232,0,0,0,1.867,3.235A4.5,4.5,0,0,0,23.336,49.1L22.7,51.645h5.882l3.25,1.632a4.72,4.72,0,0,1,2.632,4.25H13.882Z" transform="translate(-8 -34)" fill="#ffeaa7"/>
        </g>
        <g id="Grupo_1202112" data-name="Grupo 1202112" transform="translate(23.527 58.817)">
          <path id="Trazado_1275549" data-name="Trazado 1275549" d="M18.632,45.338a4.5,4.5,0,0,1,2.706-3.044A4.334,4.334,0,0,1,22.911,42h1.118a6.929,6.929,0,0,0-.147,1.47v4.411H18Z" transform="translate(-18 -42)" fill="#ff826e"/>
        </g>
        <g id="Grupo_1202113" data-name="Grupo 1202113" transform="translate(10.293 41.172)">
          <path id="Trazado_1275550" data-name="Trazado 1275550" d="M19.293,30a4.411,4.411,0,0,1,1.691,8.484,7.819,7.819,0,0,0-1.265-1.147,7.648,7.648,0,0,0-4.5-1.456,7.57,7.57,0,0,0-4.852,1.72,4.4,4.4,0,0,1,5.985-6.455A4.355,4.355,0,0,1,19.131,30Z" transform="translate(-9 -30)" fill="#ff826e"/>
        </g>
        <g id="Grupo_1202114" data-name="Grupo 1202114" transform="translate(2.941 52.935)">
          <path id="Trazado_1275551" data-name="Trazado 1275551" d="M10.1,38a7.429,7.429,0,0,0-.221,1.809v4.073H4l.4-1.6A5.661,5.661,0,0,1,9.882,38Z" transform="translate(-4 -38)" fill="#ff826e"/>
        </g>
        <g id="Grupo_1202115" data-name="Grupo 1202115" transform="translate(49.994 41.172)">
          <path id="Trazado_1275552" data-name="Trazado 1275552" d="M42.529,34.911A5.877,5.877,0,0,1,48.337,30h2.632a4.076,4.076,0,0,0-.265,1.47v2.044a4.4,4.4,0,0,0,1.97,3.676l2.441,1.632,2.441-1.632a4.4,4.4,0,0,0,1.97-3.676V31.47a3.991,3.991,0,0,0-.221-1.338h.015a6.132,6.132,0,0,1,4.544,4.058l.206.6a5.863,5.863,0,0,0,5.573,4.029H75.7V59.408H56.586V55.35a13.833,13.833,0,0,0-.912-4.955A8.512,8.512,0,0,1,52.263,51.7L40.411,53.527A15.072,15.072,0,0,1,36,42.881V41.763l2-1L40.544,39.5a2.984,2.984,0,0,0,1.588-2.147Z" transform="translate(-36 -30)" fill="#ecc19c"/>
        </g>
        <g id="Grupo_1202116" data-name="Grupo 1202116" transform="translate(64.698 38.231)">
          <path id="Trazado_1275553" data-name="Trazado 1275553" d="M54.823,32.411v2.044a4.4,4.4,0,0,1-1.97,3.676l-2.441,1.632L47.97,38.131A4.4,4.4,0,0,1,46,34.455V32.411a4.076,4.076,0,0,1,.265-1.47,4.392,4.392,0,0,1,8.337.132A3.992,3.992,0,0,1,54.823,32.411Z" transform="translate(-46 -28)" fill="#dfb28b"/>
        </g>
      </g>
      <g id="Grupo_1202118" data-name="Grupo 1202118" transform="translate(0.871 1)">
        <circle id="Elipse_12376" data-name="Elipse 12376" cx="1.47" cy="1.47" r="1.47" transform="translate(61.947 49.994)"/>
        <circle id="Elipse_12377" data-name="Elipse 12377" cx="1.47" cy="1.47" r="1.47" transform="translate(44.302 29.408)"/>
        <circle id="Elipse_12378" data-name="Elipse 12378" cx="1.47" cy="1.47" r="1.47" transform="translate(14.894 17.645)"/>
        <circle id="Elipse_12379" data-name="Elipse 12379" cx="1.47" cy="1.47" r="1.47" transform="translate(35.48 58.817)"/>
        <circle id="Elipse_12380" data-name="Elipse 12380" cx="1.47" cy="1.47" r="1.47" transform="translate(14.894 52.935)"/>
        <path id="Trazado_1275554" data-name="Trazado 1275554" d="M11,43h2.941v5.882H11Z" transform="translate(3.894 18.758)"/>
        <path id="Trazado_1275555" data-name="Trazado 1275555" d="M55.723,27.468h-.257v2.941h.257a6.757,6.757,0,0,0,2.456-.473,13.3,13.3,0,0,0,11.3,6.355H92.227V33.349H69.478a10.344,10.344,0,0,1-8.825-5l-.026-.044a6.755,6.755,0,0,0,1.685-3.044l.92-3.679H59.877V19.98a15.555,15.555,0,0,0-2.619-8.65,3.387,3.387,0,0,0-6.2,1.879,10.488,10.488,0,0,1-2.085,6.257l-1.591,2.12h-.126a8.745,8.745,0,0,0-1.742.184l-3.683-7.892A22.312,22.312,0,0,0,7.667,5.891L5.021,8.007l4.311,7.184a16.05,16.05,0,0,0-2.454,3.764L.871,31.968l5.582,9.3,12.318-7.7a1.46,1.46,0,0,1,.779-.224h.781l1.013,9.114a5.881,5.881,0,0,0-1.168.51,5.807,5.807,0,0,0-2.941-.8,5.888,5.888,0,0,0-5.882,5.882,5.811,5.811,0,0,0,.881,3.056,9.147,9.147,0,0,0-1.76,2.9,7.1,7.1,0,0,0-6.027,5.319l-.859,3.429H9.883V71.58H1.061V92.166H92.227V71.58H74.582V68.986a15.32,15.32,0,0,0-.651-4.4,9.99,9.99,0,0,0,3.592-7.712H74.582a7.062,7.062,0,0,1-6.02,7.017L57.472,65.6A13.5,13.5,0,0,1,54,56.519v-.2l3.729-1.864a4.427,4.427,0,0,0,2.379-3.22l.4-2.431a4.4,4.4,0,0,1,4.352-3.686h.9v2.051a5.872,5.872,0,0,0,2.619,4.894l3.263,2.175L74.9,52.057a5.874,5.874,0,0,0,2.619-4.894V46.19a4.641,4.641,0,0,1,1.47,2.1l.206.616a7.342,7.342,0,0,0,6.974,5.026h6.054V50.994H86.173a4.406,4.406,0,0,1-4.185-3.016l-.206-.616a7.614,7.614,0,0,0-4.874-4.813,5.835,5.835,0,0,0-10.331-.378H64.859a7.328,7.328,0,0,0-7.252,6.143l-.4,2.429a1.473,1.473,0,0,1-.794,1.073l-1.4.7A7.431,7.431,0,0,1,54,48.767a10.223,10.223,0,0,0-1.623-5.542,7.561,7.561,0,0,0,4.564-6.934H54A4.644,4.644,0,0,1,50.815,40.7l-2.894.965a7.306,7.306,0,0,0-3.555,2.563l-1.544,2.059a4.435,4.435,0,0,1-3.53,1.766,4.339,4.339,0,0,1-1.889-.443l4.4-4.4-2.079-2.079-4.4,4.4a4.339,4.339,0,0,1-.443-1.889V40.7a1.476,1.476,0,0,1,.588-1.176l2.209-1.656a8.87,8.87,0,0,0,3.461-5.964l.278-2.226a5.89,5.89,0,0,1,5.836-5.152h1.6l2.473-3.3a13.318,13.318,0,0,0,1.2-1.923l4.419,1.687v.618a6.742,6.742,0,0,0-5.727,3.729l2.631,1.316a3.831,3.831,0,0,1,3.444-2.129h2.181l-.006.025a3.843,3.843,0,0,1-3.735,2.916ZM68.7,45.113a2.941,2.941,0,0,1,5.882,0v2.051a2.935,2.935,0,0,1-1.31,2.447L71.641,50.7,70.01,49.609a2.932,2.932,0,0,1-1.31-2.445ZM35.673,19.843a18.44,18.44,0,0,0-1.335-2.753l4.076-3.4c.266.465.519.938.748,1.428l1.57,3.366-4.682,2.341Zm1.075-8.59-4.114,3.428A18.365,18.365,0,0,0,29.756,11.9L32.5,7.326a19.488,19.488,0,0,1,4.244,3.927ZM17.572,10.045l-.046.015L15.044,5.1a19.394,19.394,0,0,1,4.52-1.034Zm9.881-.013a11.988,11.988,0,0,0-2.137-5.717,19.42,19.42,0,0,1,4.642,1.544ZM9.5,8.186A19.376,19.376,0,0,1,12.359,6.3l2.391,4.782a16.253,16.253,0,0,0-3.25,2.01L8.864,8.7Zm7.731,36.927a2.91,2.91,0,0,1,1.957.766l.984.887.984-.885a2.9,2.9,0,0,1,1.957-.768,2.938,2.938,0,0,1,1.9,5.185,9.078,9.078,0,0,0-10.468-1.054,2.941,2.941,0,0,1,2.689-4.13Zm-9.872,14.7a4.162,4.162,0,0,1,2.525-2.666c0,.021,0,.043,0,.063v2.6Zm5.461-2.6a6.22,6.22,0,0,1,12.121-1.966l1.188,3.564a10.761,10.761,0,0,0,1.12,2.338,5.864,5.864,0,0,0-1.988,3.122l-1.091,4.367h7.417l2.941,1.47a3.248,3.248,0,0,1,1.444,1.47H12.824ZM27.941,65.7l.179-.713A2.934,2.934,0,0,1,30.47,62.8v2.9ZM48.251,71.58H39.106a6.182,6.182,0,0,0-3.257-4.1L33.41,66.26v-3.5a5.882,5.882,0,0,1,11.763,0v.776A12.03,12.03,0,0,0,48.251,71.58ZM80.463,89.225H77.522v-14.7h2.941ZM68.7,83.343h5.882v5.882H68.7ZM74.582,80.4H68.7V74.521h5.882Zm-8.823,8.823H62.818v-14.7h2.941ZM15.765,80.4H9.883V74.521h5.882ZM9.883,83.343h5.882v5.882H9.883Zm8.823-8.823h2.941v14.7H18.706ZM30.469,80.4H24.587V74.521h5.882Zm-5.882,2.941h5.882v5.882H24.587Zm8.823-8.823h2.941v14.7H33.41ZM45.173,80.4H39.292V74.521h5.882Zm-5.882,2.941h5.882v5.882H39.292Zm8.823-8.823h2.941v14.7H48.114ZM54,83.343h5.882v5.882H54ZM59.877,80.4H54V74.521h5.882ZM4,74.521H6.942v14.7H4Zm79.4,14.7V83.343h5.882v5.882ZM89.286,80.4H83.4V74.521h5.882ZM35.913,35.517,33.7,37.172A4.434,4.434,0,0,0,31.939,40.7v2.941a7.352,7.352,0,0,0,13.234,4.411l1.545-2.06a4.375,4.375,0,0,1,2.134-1.537l.612-.2a7.318,7.318,0,0,1,1.591,4.558,10.327,10.327,0,0,0,1.316,5.029l-1.316.657v2.022A16.422,16.422,0,0,0,55.9,68.208l.526.526L69.009,66.8a10.1,10.1,0,0,0,2.294-.643,12.417,12.417,0,0,1,.338,2.829v2.6H52.919a9.105,9.105,0,0,1-4.805-8.046v-.776a8.817,8.817,0,0,0-17.13-2.941h-.012a6.059,6.059,0,0,0-.985.082,7.758,7.758,0,0,1-1.065-2.019l-1.188-3.564a9.094,9.094,0,0,0-.832-1.763,5.879,5.879,0,0,0-2.619-10.264l-1-8.972a7.9,7.9,0,0,0,7.108-5.385L27.6,27a4.977,4.977,0,0,1-4.726,3.407H19.55a4.409,4.409,0,0,0-2.338.671L7.433,37.19l-3.241-5.4,5.355-11.6A13.316,13.316,0,0,1,19,12.735l.837-.168L22.28,5.222a9.114,9.114,0,0,1,2.307,6.071V12.2l.813.406a15.453,15.453,0,0,1,7.529,8.29l4.76,12.378a5.9,5.9,0,0,1-1.776,2.241ZM38.8,27.963l-1.684-4.379,4.864-2.432.782,1.676A8.828,8.828,0,0,0,38.8,27.963ZM54,13.209a.462.462,0,0,1,.816-.247,12.608,12.608,0,0,1,1.909,4.8l-3.16-1.206A13.382,13.382,0,0,0,54,13.209Z" transform="translate(-0.871 -1)"/>
      </g>
    </g>
  </g>
</svg>
