<svg xmlns="http://www.w3.org/2000/svg" width="129.063" height="88.188" viewBox="0 0 129.063 88.188">
  <g id="Grupo_1202234" data-name="Grupo 1202234" transform="translate(-788.103 -1976.732)">
    <g id="Rectángulo_410589" data-name="Rectángulo 410589" transform="translate(788.103 2007.607)" fill="#a1c6f1" stroke="#6f89a8" stroke-width="1">
      <rect width="129.063" height="43.021" rx="8" stroke="none"/>
      <rect x="0.5" y="0.5" width="128.063" height="42.021" rx="7.5" fill="none"/>
    </g>
    <g id="tomato_7467919" transform="translate(806.062 1974.733)">
      <circle id="Elipse_12381" data-name="Elipse 12381" cx="13.23" cy="13.23" r="13.23" transform="translate(12.76 38.751)" fill="#ce3045"/>
      <circle id="Elipse_12382" data-name="Elipse 12382" cx="13.23" cy="13.23" r="13.23" transform="translate(53.922 38.751)" fill="#ce3045"/>
      <circle id="Elipse_12383" data-name="Elipse 12383" cx="13.23" cy="13.23" r="13.23" transform="translate(33.341 35.811)" fill="#f5846f"/>
      <path id="Trazado_1275556" data-name="Trazado 1275556" d="M15,3H64.982V26.521H15Z" transform="translate(6.581 0.47)" fill="#ffcb05"/>
      <path id="Trazado_1275557" data-name="Trazado 1275557" d="M2,40H90.2V70.871H2Z" transform="translate(0.47 17.862)" fill="#c2d952"/>
      <path id="Trazado_1275558" data-name="Trazado 1275558" d="M8,40h8.82V64.991H8Z" transform="translate(3.29 17.862)" fill="#5b7fad"/>
      <path id="Trazado_1275559" data-name="Trazado 1275559" d="M50,40h8.82V64.991H50Z" transform="translate(23.032 17.862)" fill="#5b7fad"/>
      <path id="Trazado_1275560" data-name="Trazado 1275560" d="M2,57H90.2v5.88H2Z" transform="translate(0.47 25.853)" fill="#f5846f"/>
      <path id="Trazado_1275561" data-name="Trazado 1275561" d="M20,46H55.281v5.88H20Z" transform="translate(8.931 20.682)" fill="#5b7fad"/>
      <g id="Grupo_1202119" data-name="Grupo 1202119" transform="translate(7.792 24.051)">
        <path id="Trazado_1275562" data-name="Trazado 1275562" d="M37.025,27.026,47.051,28.76,39.7,30.5l2.94,5.616-7.35-2.94-5.88,2.94,1.47-5.88L25,27.29l8.556-.265S35.29,22.88,30.88,19.94L35.29,17S40.23,19.411,37.025,27.026Z" transform="translate(3.49 -17)" fill="#c2d952"/>
        <path id="Trazado_1275563" data-name="Trazado 1275563" d="M14.9,29.568l8.791-5.116-4.513,6.057,5.865,2.411-7.527,2.47L14.9,41.416l-2.661-5.454L5.841,37.491l6.38-5.7s-1.338-4.293-6.6-3.7L7.1,23s5.336-1.323,7.777,6.571Z" transform="translate(-5.62 -14.22)" fill="#c2d952"/>
        <path id="Trazado_1275564" data-name="Trazado 1275564" d="M55.313,29.568l-8.791-5.116,4.513,6.057L45.17,32.919l7.527,2.47,2.617,6.027,2.661-5.454,6.395,1.529-6.38-5.7s1.338-4.293,6.6-3.7L63.1,23s-5.336-1.323-7.777,6.571Z" transform="translate(12.97 -14.22)" fill="#c2d952"/>
      </g>
      <path id="Trazado_1275565" data-name="Trazado 1275565" d="M90.673,56.392H81.779a14.655,14.655,0,0,0,.162-8.306l2.837.676a1.462,1.462,0,0,0,1.646-.75,1.48,1.48,0,0,0-.323-1.779l-5.557-4.969a4.512,4.512,0,0,1,4.631-1.882,1.527,1.527,0,0,0,1.294-.515,1.418,1.418,0,0,0,.279-1.352L85.263,32.43A1.476,1.476,0,0,0,84.2,31.416c-.059-.015-5.836-1.352-8.909,5.836L68.02,33.018a1.473,1.473,0,0,0-1.926,2.146L67.681,37.3a14.835,14.835,0,0,0-9.144,3.249,14.752,14.752,0,0,0-2.47-2.69l2.6-.617a1.471,1.471,0,0,0-.088-2.881l-8.291-1.441a11.53,11.53,0,0,0,.515-4.469H71.577a1.474,1.474,0,0,0,1.47-1.47V3.47A1.474,1.474,0,0,0,71.577,2h-50a1.474,1.474,0,0,0-1.47,1.47V26.991a1.474,1.474,0,0,0,1.47,1.47H41.662a4.407,4.407,0,0,1,2.014,4.175l-7.453.235a1.466,1.466,0,0,0-.617,2.778l2.631,1.308a14.776,14.776,0,0,0-3.646,3.572,14.69,14.69,0,0,0-9.144-3.249l1.588-2.132a1.463,1.463,0,0,0-.088-1.852A1.48,1.48,0,0,0,25.109,33l-7.277,4.234c-3.072-7.189-8.85-5.851-8.908-5.836a1.5,1.5,0,0,0-1.058,1.014L6.38,37.5a1.489,1.489,0,0,0,.279,1.352,1.435,1.435,0,0,0,1.294.515A4.564,4.564,0,0,1,12.6,41.25L7.042,46.219a1.472,1.472,0,0,0,1.323,2.528l2.837-.676a14.654,14.654,0,0,0,.162,8.306H2.47A1.474,1.474,0,0,0,1,57.847V88.718a1.474,1.474,0,0,0,1.47,1.47h88.2a1.474,1.474,0,0,0,1.47-1.47V57.847a1.474,1.474,0,0,0-1.47-1.47ZM72.356,41.706a1.444,1.444,0,0,0,.853-.97,1.48,1.48,0,0,0-.235-1.264l-.221-.294,2.573,1.5a1.463,1.463,0,0,0,2.146-.838c1.47-4.778,3.969-5.557,5.248-5.616l.662,2.249a7.155,7.155,0,0,0-6.042,4.734,1.463,1.463,0,0,0,.426,1.529l2.043,1.823-.735-.176a1.448,1.448,0,0,0-1.661.794l-1.25,2.573-1.352-3.1a1.455,1.455,0,0,0-.882-.809L70.2,42.6l2.19-.9Zm8.026,17.626V81.383H74.5V59.332ZM60.037,43.147a11.807,11.807,0,0,1,8.115-2.9L65.359,41.4a1.473,1.473,0,0,0-.911,1.411,1.449,1.449,0,0,0,1.014,1.338l6.895,2.264,2.352,5.424a1.468,1.468,0,0,0,1.323.882h.029a1.488,1.488,0,0,0,1.323-.823l1.632-3.337a11.673,11.673,0,0,1-.368,7.835H59.273a14.641,14.641,0,0,0,.75-13.245ZM41.706,25.521H23.036V4.94H70.092V25.521H49.909a7.169,7.169,0,0,0-2.69-2.793,1.471,1.471,0,0,0-1.455.1l-4.043,2.69Zm3.161,10.026a1.461,1.461,0,0,0,1.308-.9,7.149,7.149,0,0,0-1.588-7.512l1.94-1.294c.941.882,2.337,3.072.4,7.674a1.5,1.5,0,0,0,.059,1.279,1.522,1.522,0,0,0,1.044.75l2.94.515-.353.088a1.481,1.481,0,0,0-.97,2.117l1.088,2.087-3.66-1.47a1.561,1.561,0,0,0-1.205.044l-3.028,1.514.691-2.778a1.474,1.474,0,0,0-.764-1.676l-.676-.338,2.734-.088Zm-4.719,3.66-.9,3.6a1.482,1.482,0,0,0,.5,1.5,1.46,1.46,0,0,0,1.573.162l5.292-2.646,6.733,2.69a1.427,1.427,0,0,0,.544.1,1.471,1.471,0,0,0,1.088-.485,1.447,1.447,0,0,0,.206-1.661L53.8,39.824a11.688,11.688,0,0,1,1.9,16.567H37.384a11.7,11.7,0,0,1,2.749-17.185Zm31.4,20.125V81.383H21.581V59.332H71.562ZM33.106,43.161a14.541,14.541,0,0,0,.735,13.23H14.5a11.673,11.673,0,0,1-.368-7.835l1.632,3.337a1.488,1.488,0,0,0,1.323.823h.029a1.46,1.46,0,0,0,1.323-.882l2.352-5.424,6.895-2.264A1.484,1.484,0,0,0,28.7,42.809a1.452,1.452,0,0,0-.911-1.411l-2.793-1.147a11.832,11.832,0,0,1,8.129,2.911ZM18.626,59.332V81.383h-5.88V59.332ZM9.747,36.458l.662-2.249c1.294.059,3.763.853,5.248,5.616a1.491,1.491,0,0,0,.867.941,1.457,1.457,0,0,0,1.279-.1l2.573-1.5-.221.294a1.5,1.5,0,0,0-.235,1.264,1.514,1.514,0,0,0,.853.97l2.19.9-3.734,1.235a1.455,1.455,0,0,0-.882.809l-1.352,3.1-1.25-2.573a1.462,1.462,0,0,0-1.323-.823.857.857,0,0,0-.338.044l-.735.176,2.043-1.823a1.463,1.463,0,0,0,.426-1.529,7.155,7.155,0,0,0-6.042-4.734ZM3.925,59.332H9.82V81.383H3.94V59.332ZM89.188,87.263H3.94v-2.94H89.2v2.94Zm0-5.88h-5.88V59.332h5.88Z"/>
      <path id="Trazado_1275566" data-name="Trazado 1275566" d="M20.47,53.82H55.751a1.474,1.474,0,0,0,1.47-1.47V46.47A1.474,1.474,0,0,0,55.751,45H20.47A1.474,1.474,0,0,0,19,46.47v5.88A1.474,1.474,0,0,0,20.47,53.82Zm1.47-5.88H54.281v2.94H21.94Z" transform="translate(8.461 20.212)"/>
      <path id="Trazado_1275567" data-name="Trazado 1275567" d="M25.41,9.41a1.474,1.474,0,0,1,1.47,1.47h2.94a4.425,4.425,0,0,0-2.94-4.146V5H23.94V6.735a4.4,4.4,0,0,0,1.47,8.556,1.47,1.47,0,1,1-1.47,1.47H21a4.425,4.425,0,0,0,2.94,4.146v1.735h2.94V20.906a4.4,4.4,0,0,0-1.47-8.556,1.47,1.47,0,0,1,0-2.94Z" transform="translate(9.401 1.41)"/>
      <path id="Trazado_1275568" data-name="Trazado 1275568" d="M41.41,18.23a1.474,1.474,0,0,1-1.47-1.47H37a4.425,4.425,0,0,0,2.94,4.146v1.735h2.94V20.906a4.4,4.4,0,0,0-1.47-8.556,1.47,1.47,0,1,1,1.47-1.47h2.94a4.425,4.425,0,0,0-2.94-4.146V5H39.94V6.735a4.4,4.4,0,0,0,1.47,8.556,1.47,1.47,0,1,1,0,2.94Z" transform="translate(16.922 1.41)"/>
    </g>
  </g>
</svg>
