<svg xmlns="http://www.w3.org/2000/svg" width="129.063" height="93.83" viewBox="0 0 129.063 93.83">
  <g id="Grupo_1202236" data-name="Grupo 1202236" transform="translate(-788.103 -1974.299)">
    <g id="Rectángulo_410589" data-name="Rectángulo 410589" transform="translate(788.103 2007.607)" fill="#a1c6f1" stroke="#6f89a8" stroke-width="1">
      <rect width="129.063" height="43.021" rx="8" stroke="none"/>
      <rect x="0.5" y="0.5" width="128.063" height="42.021" rx="7.5" fill="none"/>
    </g>
    <g id="bargaining_18613937" transform="translate(790.868 1958.298)">
      <path id="Trazado_1275569" data-name="Trazado 1275569" d="M40.484,391.032v-9.861a7.836,7.836,0,0,0,2.394-1.451l5.424-4.771c2.648-2.876-1.8-6.778-4.351-4.006l-3.489,2.718a6.834,6.834,0,0,0-6.79-6.278H29.614a6.831,6.831,0,0,0-6.812,6.811v16.839H40.484Z" transform="translate(-5.474 -282.693)" fill="#7985eb" fill-rule="evenodd"/>
      <path id="Trazado_1275570" data-name="Trazado 1275570" d="M45.269,393.082v-9.861a7.833,7.833,0,0,0,2.394-1.451L53.088,377a2.824,2.824,0,0,0-.581-4.4,2.712,2.712,0,0,0-2.607.891l-4.651,3.527V375.71a6.838,6.838,0,0,0-3.556-5.456,6.755,6.755,0,0,0-2.072-.324H35.561a6.831,6.831,0,0,0-6.811,6.811v16.34H45.27Z" transform="translate(-10.259 -284.743)" fill="#8691ed" fill-rule="evenodd"/>
      <circle id="Elipse_12384" data-name="Elipse 12384" cx="6.637" cy="6.637" r="6.637" transform="translate(20.027 72.329)" fill="#e2b698"/>
      <path id="Trazado_1275571" data-name="Trazado 1275571" d="M51.869,317.632a6.637,6.637,0,0,0,0-13.142,6.637,6.637,0,0,0,0,13.142Z" transform="translate(-24.271 -232.095)" fill="#e8c4ab" fill-rule="evenodd"/>
      <path id="Trazado_1275572" data-name="Trazado 1275572" d="M363.22,391.032v-9.861a7.834,7.834,0,0,1-2.394-1.451l-5.424-4.771c-2.648-2.876,1.8-6.778,4.35-4.006l3.489,2.718a6.834,6.834,0,0,1,6.79-6.278h4.059a6.832,6.832,0,0,1,6.812,6.811v16.839H363.22Z" transform="translate(-272.402 -282.693)" fill="#3cb54b" fill-rule="evenodd"/>
      <path id="Trazado_1275573" data-name="Trazado 1275573" d="M363.22,393.082v-9.861a7.833,7.833,0,0,1-2.394-1.451L355.4,377a2.824,2.824,0,0,1,.581-4.4,2.712,2.712,0,0,1,2.607.891l4.651,3.527V375.71a6.839,6.839,0,0,1,3.556-5.456,6.755,6.755,0,0,1,2.072-.324h4.059a6.831,6.831,0,0,1,6.811,6.811v16.34H363.22Z" transform="translate(-272.402 -284.743)" fill="#50bc5d" fill-rule="evenodd"/>
      <circle id="Elipse_12385" data-name="Elipse 12385" cx="6.637" cy="6.637" r="6.637" transform="translate(92.527 72.329)" fill="#e2b698"/>
      <path id="Trazado_1275574" data-name="Trazado 1275574" d="M413.194,317.632a6.637,6.637,0,1,1,5.7-6.571A6.638,6.638,0,0,1,413.194,317.632Z" transform="translate(-314.964 -232.095)" fill="#e8c4ab" fill-rule="evenodd"/>
      <path id="Trazado_1275575" data-name="Trazado 1275575" d="M261.037,241.947v-9.861a7.832,7.832,0,0,1-2.394-1.451l-5.424-4.771c-2.648-2.875,1.8-6.778,4.351-4.006l3.489,2.718a6.834,6.834,0,0,1,6.79-6.278h4.059a6.831,6.831,0,0,1,6.812,6.811v16.839H261.037Z" transform="translate(-190.194 -162.751)" fill="#7985eb" fill-rule="evenodd"/>
      <path id="Trazado_1275576" data-name="Trazado 1275576" d="M261.038,244v-9.861a7.835,7.835,0,0,1-2.394-1.451l-5.424-4.771a2.824,2.824,0,0,1,.581-4.4,2.711,2.711,0,0,1,2.607.891l4.651,3.527v-1.308a6.838,6.838,0,0,1,3.556-5.456,6.752,6.752,0,0,1,2.072-.324h4.059a6.831,6.831,0,0,1,6.811,6.811V244h-16.52Z" transform="translate(-190.195 -164.801)" fill="#8691ed" fill-rule="evenodd"/>
      <circle id="Elipse_12386" data-name="Elipse 12386" cx="6.637" cy="6.637" r="6.637" transform="translate(72.553 43.186)" fill="#e2b698"/>
      <path id="Trazado_1275577" data-name="Trazado 1275577" d="M311.012,168.548a6.637,6.637,0,1,1,5.7-6.571A6.638,6.638,0,0,1,311.012,168.548Z" transform="translate(-232.756 -112.155)" fill="#e8c4ab" fill-rule="evenodd"/>
      <path id="Trazado_1275578" data-name="Trazado 1275578" d="M142.269,241.947v-9.861a7.832,7.832,0,0,0,2.394-1.451l5.424-4.771c2.648-2.875-1.8-6.778-4.35-4.006l-3.489,2.718a6.834,6.834,0,0,0-6.79-6.278H131.4a6.831,6.831,0,0,0-6.812,6.811v16.839h17.682Z" transform="translate(-87.362 -162.751)" fill="#d62733" fill-rule="evenodd"/>
      <path id="Trazado_1275579" data-name="Trazado 1275579" d="M147.052,244v-9.861a7.834,7.834,0,0,0,2.394-1.451l5.424-4.771a2.824,2.824,0,0,0-.581-4.4,2.711,2.711,0,0,0-2.607.891l-4.651,3.527v-1.308a6.838,6.838,0,0,0-3.556-5.456,6.752,6.752,0,0,0-2.072-.324h-4.059a6.831,6.831,0,0,0-6.811,6.811V244h16.52Z" transform="translate(-92.146 -164.801)" fill="#ee2b39" fill-rule="evenodd"/>
      <circle id="Elipse_12387" data-name="Elipse 12387" cx="6.637" cy="6.637" r="6.637" transform="translate(39.924 43.186)" fill="#e2b698"/>
      <g id="Grupo_1202120" data-name="Grupo 1202120" transform="translate(17.328 17.493)">
        <path id="Trazado_1275580" data-name="Trazado 1275580" d="M153.653,168.548a6.637,6.637,0,0,0,0-13.141,6.637,6.637,0,0,0,0,13.141Z" transform="translate(-123.486 -129.648)" fill="#e8c4ab" fill-rule="evenodd"/>
        <path id="Trazado_1275581" data-name="Trazado 1275581" d="M404.983,152.154a8.944,8.944,0,0,1,4.067,16.909l-1.257,4.426a.568.568,0,0,1-.99.2l-2.959-3.72a8.943,8.943,0,0,1,1.14-17.813Z" transform="translate(-323.08 -127.031)" fill="#0dbaf3" fill-rule="evenodd"/>
        <path id="Trazado_1275582" data-name="Trazado 1275582" d="M411.972,152.318a8.944,8.944,0,0,1,3.31,16.877l-1.161,4.087-2.532-3.183a8.943,8.943,0,0,1,.383-17.781Z" transform="translate(-329.311 -127.163)" fill="#3bc7f5" fill-rule="evenodd"/>
        <path id="Trazado_1275583" data-name="Trazado 1275583" d="M193.838,23.633a12.345,12.345,0,0,1,5.614,23.339l-1.85,6.514a.568.568,0,0,1-.991.2l-4.346-5.464a12.344,12.344,0,0,1,1.573-24.587Z" transform="translate(-150.473 -23.633)" fill="#0dbaf3" fill-rule="evenodd"/>
        <path id="Trazado_1275584" data-name="Trazado 1275584" d="M203.011,23.838a12.345,12.345,0,0,1,4.62,23.3L206,52.874l-3.57-4.488a12.344,12.344,0,0,1,.579-24.548Z" transform="translate(-158.652 -23.798)" fill="#3bc7f5" fill-rule="evenodd"/>
        <path id="Trazado_1275585" data-name="Trazado 1275585" d="M31.744,152.154a8.944,8.944,0,0,1,4.067,16.909l-1.257,4.426a.568.568,0,0,1-.991.2l-2.959-3.72a8.943,8.943,0,0,1,1.139-17.813Z" transform="translate(-22.801 -127.031)" fill="#0dbaf3" fill-rule="evenodd"/>
        <path id="Trazado_1275586" data-name="Trazado 1275586" d="M37.423,152.263a8.944,8.944,0,0,1,3.452,16.888l-1.235,4.35L36.9,170.055a8.943,8.943,0,0,1,.524-17.792Z" transform="translate(-27.865 -127.118)" fill="#3bc7f5" fill-rule="evenodd"/>
        <path id="Trazado_1275587" data-name="Trazado 1275587" d="M46.267,187.986a1.547,1.547,0,1,1-1.547,1.547A1.547,1.547,0,0,1,46.267,187.986Zm6.222,0a1.547,1.547,0,1,1-1.547,1.547A1.547,1.547,0,0,1,52.489,187.986Z" transform="translate(-40.435 -155.858)" fill="#fff" fill-rule="evenodd"/>
        <path id="Trazado_1275588" data-name="Trazado 1275588" d="M419.5,187.986a1.547,1.547,0,1,1-1.547,1.547A1.547,1.547,0,0,1,419.5,187.986Zm6.222,0a1.547,1.547,0,1,1-1.547,1.547A1.547,1.547,0,0,1,425.726,187.986Z" transform="translate(-340.711 -155.858)" fill="#fff" fill-rule="evenodd"/>
        <path id="Trazado_1275589" data-name="Trazado 1275589" d="M273.484,391.032v-9.861a7.833,7.833,0,0,0,2.394-1.451l5.424-4.771c2.648-2.876-1.8-6.778-4.351-4.006l-3.489,2.718a6.834,6.834,0,0,0-6.79-6.278h-4.059a6.831,6.831,0,0,0-6.812,6.811v16.839h17.682Z" transform="translate(-210.255 -300.186)" fill="#d62733" fill-rule="evenodd"/>
        <path id="Trazado_1275590" data-name="Trazado 1275590" d="M278.268,393.082v-9.861a7.833,7.833,0,0,0,2.394-1.451L286.087,377a2.824,2.824,0,0,0-.581-4.4,2.712,2.712,0,0,0-2.607.891l-4.651,3.527V375.71a6.838,6.838,0,0,0-3.556-5.456,6.754,6.754,0,0,0-2.072-.324H268.56a6.831,6.831,0,0,0-6.811,6.811v16.34h16.52Z" transform="translate(-215.039 -302.236)" fill="#ee2b39" fill-rule="evenodd"/>
      </g>
      <circle id="Elipse_12388" data-name="Elipse 12388" cx="6.637" cy="6.637" r="6.637" transform="translate(65.574 72.329)" fill="#e2b698"/>
      <path id="Trazado_1275591" data-name="Trazado 1275591" d="M284.868,317.632a6.637,6.637,0,1,0-5.7-6.571A6.638,6.638,0,0,0,284.868,317.632Z" transform="translate(-211.723 -232.095)" fill="#e8c4ab" fill-rule="evenodd"/>
      <path id="Trazado_1275592" data-name="Trazado 1275592" d="M129.822,391.032v-9.861a7.836,7.836,0,0,1-2.394-1.451L122,374.948c-2.648-2.876,1.8-6.778,4.351-4.006l3.489,2.718a6.834,6.834,0,0,1,6.79-6.278h4.059a6.831,6.831,0,0,1,6.812,6.811v16.839H129.822Z" transform="translate(-84.629 -282.693)" fill="#f7b84e" fill-rule="evenodd"/>
      <path id="Trazado_1275593" data-name="Trazado 1275593" d="M129.823,393.082v-9.861a7.836,7.836,0,0,1-2.394-1.451L122,377a2.824,2.824,0,0,1,.581-4.4,2.712,2.712,0,0,1,2.607.891l4.651,3.527V375.71a6.838,6.838,0,0,1,3.556-5.456,6.754,6.754,0,0,1,2.072-.324h4.059a6.831,6.831,0,0,1,6.811,6.811v16.34h-16.52Z" transform="translate(-84.63 -284.743)" fill="#ffcb5b" fill-rule="evenodd"/>
      <circle id="Elipse_12389" data-name="Elipse 12389" cx="6.637" cy="6.637" r="6.637" transform="translate(46.903 72.329)" fill="#e2b698"/>
      <path id="Trazado_1275594" data-name="Trazado 1275594" d="M179.8,317.632a6.637,6.637,0,0,1,0-13.142,6.637,6.637,0,0,1,0,13.142Z" transform="translate(-127.191 -232.095)" fill="#e8c4ab" fill-rule="evenodd"/>
      <g id="Grupo_1202121" data-name="Grupo 1202121" transform="translate(15.998 16.001)">
        <path id="Trazado_1275595" data-name="Trazado 1275595" d="M309.378,150.572a5.165,5.165,0,1,0,5.164,5.166,5.172,5.172,0,0,0-5.164-5.166Zm0,12.99a7.825,7.825,0,1,1,7.823-7.824,7.834,7.834,0,0,1-7.823,7.824Z" transform="translate(-245.732 -122.127)" fill-rule="evenodd"/>
        <path id="Trazado_1275596" data-name="Trazado 1275596" d="M276.857,240.172h-10.12a1.329,1.329,0,1,1,0-2.659h8.791V222.362a5.344,5.344,0,0,0-5.338-5.337h-3.971a5.365,5.365,0,0,0-5.323,4.919,1.33,1.33,0,0,1-2.142.946l-3.413-2.661a1.325,1.325,0,0,1-.162-.148,1.339,1.339,0,0,0-1.341-.463,1.894,1.894,0,0,0-1.347,1.215,1.306,1.306,0,0,0,.344,1.32l5.25,4.619a6.388,6.388,0,0,0,6.954.836l4.871-2.551a1.329,1.329,0,1,1,1.232,2.355l-4.87,2.551a9.012,9.012,0,0,1-9.942-1.195l-5.308-4.669c-.036-.032-.069-.065-.1-.1a3.991,3.991,0,0,1-.967-3.962,4.546,4.546,0,0,1,3.3-3.016,3.969,3.969,0,0,1,3.8,1.17l1.7,1.322a8.047,8.047,0,0,1,7.468-5.149h3.972a8,8,0,0,1,8,8v16.481a1.328,1.328,0,0,1-1.329,1.33Z" transform="translate(-204.075 -175.589)" fill-rule="evenodd"/>
        <path id="Trazado_1275597" data-name="Trazado 1275597" d="M139.492,150.572a5.165,5.165,0,1,0,5.166,5.166A5.172,5.172,0,0,0,139.492,150.572Zm0,12.99a7.825,7.825,0,1,1,7.826-7.824A7.833,7.833,0,0,1,139.492,163.562Z" transform="translate(-109.055 -122.127)" fill-rule="evenodd"/>
        <path id="Trazado_1275598" data-name="Trazado 1275598" d="M129.6,240.172H119.48a1.329,1.329,0,0,1-1.33-1.329V222.362a8.006,8.006,0,0,1,8-8h3.974a8.044,8.044,0,0,1,7.466,5.149l1.7-1.322a3.971,3.971,0,0,1,3.8-1.17,4.537,4.537,0,0,1,3.3,3.016,3.986,3.986,0,0,1-.967,3.962c-.03.034-.065.066-.1.1l-5.308,4.669a9.389,9.389,0,0,1-9.944,1.195l-4.87-2.551a1.329,1.329,0,1,1,1.232-2.355l4.872,2.551a6.756,6.756,0,0,0,6.951-.836l5.252-4.619a1.307,1.307,0,0,0,.342-1.32,1.891,1.891,0,0,0-1.345-1.215,1.333,1.333,0,0,0-1.341.463,1.607,1.607,0,0,1-.161.148l-3.415,2.661a1.33,1.33,0,0,1-2.143-.946,5.363,5.363,0,0,0-5.32-4.919h-3.974a5.345,5.345,0,0,0-5.337,5.337v15.152h8.79a1.33,1.33,0,0,1,0,2.659Z" transform="translate(-98.181 -175.589)" fill-rule="evenodd"/>
        <path id="Trazado_1275599" data-name="Trazado 1275599" d="M177.688,300.189a5.165,5.165,0,1,0,5.166,5.166,5.172,5.172,0,0,0-5.166-5.166Zm0,12.99a7.825,7.825,0,1,1,7.825-7.824,7.834,7.834,0,0,1-7.825,7.824Z" transform="translate(-139.784 -242.496)" fill-rule="evenodd"/>
        <path id="Trazado_1275600" data-name="Trazado 1275600" d="M145.158,389.788H127.85a1.33,1.33,0,0,1-1.33-1.329v-8.787a9.111,9.111,0,0,1-1.892-1.288l-5.309-4.669c-.034-.03-.068-.065-.1-.1a4.035,4.035,0,0,1,.27-5.884,4.123,4.123,0,0,1,5.864.078l1.7,1.32a8.047,8.047,0,0,1,7.469-5.149h3.974a8.006,8.006,0,0,1,8,8,1.33,1.33,0,1,1-2.659,0,5.344,5.344,0,0,0-5.337-5.337h-3.973a5.364,5.364,0,0,0-5.321,4.919,1.33,1.33,0,0,1-2.142.946l-3.414-2.661a1.289,1.289,0,0,1-.162-.148,1.5,1.5,0,0,0-2.188-.008,1.4,1.4,0,0,0-.156,2.082l5.252,4.617a6.281,6.281,0,0,0,1.937,1.176,1.331,1.331,0,0,1,.857,1.244v8.321h15.978a1.33,1.33,0,0,1,0,2.659Z" transform="translate(-98.116 -295.958)" fill-rule="evenodd"/>
        <path id="Trazado_1275601" data-name="Trazado 1275601" d="M167.214,423.987a8.58,8.58,0,0,1-2.481-.367,1.329,1.329,0,1,1,.767-2.545,6.1,6.1,0,0,0,4.618-.477l4.872-2.551a1.329,1.329,0,0,1,1.232,2.356l-4.869,2.551a8.912,8.912,0,0,1-4.14,1.033Z" transform="translate(-134.897 -339.332)" fill-rule="evenodd"/>
        <path id="Trazado_1275602" data-name="Trazado 1275602" d="M410.255,300.189a5.165,5.165,0,1,0,5.164,5.166,5.172,5.172,0,0,0-5.164-5.166Zm0,12.99a7.825,7.825,0,1,1,7.823-7.824A7.834,7.834,0,0,1,410.255,313.179Z" transform="translate(-326.889 -242.496)" fill-rule="evenodd"/>
        <path id="Trazado_1275603" data-name="Trazado 1275603" d="M361.743,387.129h14.646V371.977a5.343,5.343,0,0,0-5.338-5.337H367.08a5.365,5.365,0,0,0-5.323,4.919,1.33,1.33,0,0,1-2.143.946l-3.413-2.661a1.221,1.221,0,0,1-.161-.148,1.5,1.5,0,0,0-2.188-.008,1.4,1.4,0,0,0-.156,2.082l5.25,4.617a6.336,6.336,0,0,0,1.937,1.176,1.33,1.33,0,0,1,.859,1.244v8.321Zm15.976,2.659H360.413a1.329,1.329,0,0,1-1.33-1.329v-8.787a9.045,9.045,0,0,1-1.893-1.288l-5.309-4.669a1.249,1.249,0,0,1-.1-.1,4.035,4.035,0,0,1,.268-5.884,4.126,4.126,0,0,1,5.866.078l1.7,1.32a8.045,8.045,0,0,1,7.468-5.149h3.972a8,8,0,0,1,8,8v16.481a1.328,1.328,0,0,1-1.329,1.329Z" transform="translate(-285.216 -295.958)" fill-rule="evenodd"/>
        <path id="Trazado_1275604" data-name="Trazado 1275604" d="M398.741,423.992a8.567,8.567,0,0,1-2.785-.465,1.33,1.33,0,0,1,.859-2.517,6.081,6.081,0,0,0,4.826-.408l4.871-2.551a1.33,1.33,0,0,1,1.234,2.356l-4.872,2.551a8.889,8.889,0,0,1-4.133,1.035Z" transform="translate(-320.958 -339.336)" fill-rule="evenodd"/>
        <path id="Trazado_1275605" data-name="Trazado 1275605" d="M37.342,300.189a5.165,5.165,0,1,0,5.166,5.166A5.172,5.172,0,0,0,37.342,300.189Zm0,12.99a7.825,7.825,0,1,1,7.825-7.824,7.834,7.834,0,0,1-7.825,7.824Z" transform="translate(-26.873 -242.496)" fill-rule="evenodd"/>
        <path id="Trazado_1275606" data-name="Trazado 1275606" d="M34.637,389.788H17.329A1.33,1.33,0,0,1,16,388.459V371.978a8.007,8.007,0,0,1,8-8H27.97a8.044,8.044,0,0,1,7.487,5.2l1.837-1.353a1.328,1.328,0,0,1,1.576,2.139L35.4,372.526a1.33,1.33,0,0,1-2.115-.967,5.363,5.363,0,0,0-5.32-4.92H24a5.345,5.345,0,0,0-5.338,5.337v15.152H33.307v-8.321a1.329,1.329,0,0,1,.856-1.244,6.322,6.322,0,0,0,1.937-1.176l3.206-2.819a1.329,1.329,0,0,1,1.755,2l-3.2,2.819a9.1,9.1,0,0,1-1.892,1.288v8.787a1.33,1.33,0,0,1-1.33,1.33Z" transform="translate(-15.999 -295.958)" fill-rule="evenodd"/>
        <path id="Trazado_1275607" data-name="Trazado 1275607" d="M58.1,424a8.894,8.894,0,0,1-4.13-1.039L49.1,420.405a1.329,1.329,0,1,1,1.232-2.355l4.872,2.551a6.046,6.046,0,0,0,5.035.333,1.33,1.33,0,1,1,.953,2.483A8.59,8.59,0,0,1,58.1,424Z" transform="translate(-42.056 -339.335)" fill-rule="evenodd"/>
        <path id="Trazado_1275608" data-name="Trazado 1275608" d="M271.179,300.189a5.165,5.165,0,1,0,5.166,5.166,5.172,5.172,0,0,0-5.166-5.166Zm0,12.99A7.825,7.825,0,1,1,279,305.355,7.833,7.833,0,0,1,271.179,313.179Z" transform="translate(-215.001 -242.496)" fill-rule="evenodd"/>
        <path id="Trazado_1275609" data-name="Trazado 1275609" d="M268.476,389.788H251.17a1.329,1.329,0,0,1-1.33-1.329V371.978a8,8,0,0,1,8-8h3.972a8.047,8.047,0,0,1,7.454,5.113l2-1.618a1.33,1.33,0,0,1,1.671,2.069l-3.646,2.946a1.33,1.33,0,0,1-2.162-.931,5.361,5.361,0,0,0-5.32-4.919h-3.971a5.344,5.344,0,0,0-5.338,5.337v15.152h14.646v-8.321a1.33,1.33,0,0,1,.858-1.244,6.322,6.322,0,0,0,1.937-1.176l3.081-2.709a1.329,1.329,0,0,1,1.754,2l-3.08,2.709a9.131,9.131,0,0,1-1.892,1.288v8.787a1.328,1.328,0,0,1-1.329,1.329Z" transform="translate(-204.128 -295.958)" fill-rule="evenodd"/>
        <path id="Trazado_1275610" data-name="Trazado 1275610" d="M291.942,423.992a8.887,8.887,0,0,1-4.132-1.035l-4.871-2.551a1.329,1.329,0,1,1,1.234-2.355l4.871,2.551a6.075,6.075,0,0,0,4.845.4,1.33,1.33,0,1,1,.87,2.513,8.607,8.607,0,0,1-2.816.475Z" transform="translate(-230.184 -339.336)" fill-rule="evenodd"/>
        <path id="Trazado_1275611" data-name="Trazado 1275611" d="M400.879,147.647a7.645,7.645,0,0,0-.977,15.228,1.331,1.331,0,0,1,.874.492l2.049,2.575.857-3.02a1.32,1.32,0,0,1,.672-.819,7.646,7.646,0,0,0-3.475-14.456Zm2.516,22.478a1.327,1.327,0,0,1-1.039-.5l-3.339-4.2a10.3,10.3,0,1,1,7.069-1.244l-1.411,4.976a1.32,1.32,0,0,1-1.28.965Z" transform="translate(-317.352 -119.773)" fill-rule="evenodd"/>
        <path id="Trazado_1275612" data-name="Trazado 1275612" d="M188.983,18.66a11.059,11.059,0,0,0-1.412,22.028,1.323,1.323,0,0,1,.872.492l3.442,4.325,1.451-5.113a1.328,1.328,0,0,1,.674-.82,11.061,11.061,0,0,0-5.027-20.911Zm3.474,31.029a1.33,1.33,0,0,1-1.041-.5l-4.725-5.941a13.713,13.713,0,1,1,9.05-1.586l-2.005,7.064a1.329,1.329,0,0,1-1.019.94,1.343,1.343,0,0,1-.26.027Z" transform="translate(-144.131 -16.001)" fill-rule="evenodd"/>
        <path id="Trazado_1275613" data-name="Trazado 1275613" d="M26.3,147.647a7.645,7.645,0,0,0-.977,15.228,1.331,1.331,0,0,1,.874.492l2.05,2.575.856-3.02a1.321,1.321,0,0,1,.672-.819A7.646,7.646,0,0,0,26.3,147.647Zm2.516,22.478a1.327,1.327,0,0,1-1.039-.5l-3.339-4.2a10.3,10.3,0,1,1,7.069-1.244L30.1,169.16a1.334,1.334,0,0,1-1.018.94,1.349,1.349,0,0,1-.262.024Z" transform="translate(-15.998 -119.773)" fill-rule="evenodd"/>
        <path id="Trazado_1275614" data-name="Trazado 1275614" d="M450.514,184.816a2.126,2.126,0,1,1-2.126,2.126A2.126,2.126,0,0,1,450.514,184.816Z" transform="translate(-363.864 -151.816)" fill-rule="evenodd"/>
        <path id="Trazado_1275615" data-name="Trazado 1275615" d="M420.2,184.816a2.126,2.126,0,1,1-2.126,2.126A2.125,2.125,0,0,1,420.2,184.816Z" transform="translate(-339.474 -151.816)" fill-rule="evenodd"/>
        <path id="Trazado_1275616" data-name="Trazado 1275616" d="M73.695,184.816a2.126,2.126,0,1,1-2.126,2.126A2.126,2.126,0,0,1,73.695,184.816Z" transform="translate(-60.706 -151.816)" fill-rule="evenodd"/>
        <path id="Trazado_1275617" data-name="Trazado 1275617" d="M43.379,184.816a2.126,2.126,0,1,1-2.126,2.126A2.125,2.125,0,0,1,43.379,184.816Z" transform="translate(-36.316 -151.816)" fill-rule="evenodd"/>
        <path id="Trazado_1275618" data-name="Trazado 1275618" d="M208.367,73.862a2.126,2.126,0,1,1-2.126,2.127A2.127,2.127,0,0,1,208.367,73.862Z" transform="translate(-169.052 -62.551)" fill-rule="evenodd"/>
        <path id="Trazado_1275619" data-name="Trazado 1275619" d="M239.556,73.862a2.126,2.126,0,1,1-2.125,2.127A2.127,2.127,0,0,1,239.556,73.862Z" transform="translate(-194.145 -62.551)" fill-rule="evenodd"/>
        <path id="Trazado_1275620" data-name="Trazado 1275620" d="M270.747,73.862a2.126,2.126,0,1,1-2.126,2.127A2.127,2.127,0,0,1,270.747,73.862Z" transform="translate(-219.238 -62.551)" fill-rule="evenodd"/>
      </g>
    </g>
  </g>
</svg>
