<svg id="Grupo_1202294" data-name="Grupo 1202294" xmlns="http://www.w3.org/2000/svg" width="82.001" height="82.001" viewBox="0 0 82.001 82.001">
  <g id="Grupo_1187152" data-name="Grupo 1187152" transform="translate(0)">
    <g id="Grupo_1185946" data-name="Grupo 1185946" transform="translate(0)">
      <g id="Grupo_1184280" data-name="Grupo 1184280" transform="translate(0)">
        <g id="Grupo_1182168" data-name="Grupo 1182168" transform="translate(0)">
          <g id="Grupo_1178877" data-name="Grupo 1178877" transform="translate(0)">
            <g id="Grupo_1111311" data-name="Grupo 1111311" transform="translate(0)">
              <g id="Grupo_1098742" data-name="Grupo 1098742" transform="translate(0)">
                <g id="Rect치ngulo_400898" data-name="Rect치ngulo 400898" transform="translate(0)" fill="#fff" stroke="#31532b" stroke-width="1" opacity="0.859">
                  <rect width="82.001" height="82.001" rx="41" stroke="none"/>
                  <rect x="0.5" y="0.5" width="81.001" height="81.001" rx="40.5" fill="none"/>
                </g>
                <g id="Rect치ngulo_400907" data-name="Rect치ngulo 400907" transform="translate(0)" fill="none" stroke="#31532b" stroke-width="1">
                  <rect width="82.001" height="82.001" rx="41" stroke="none"/>
                  <rect x="0.5" y="0.5" width="81.001" height="81.001" rx="40.5" fill="none"/>
                </g>
              </g>
            </g>
          </g>
        </g>
      </g>
    </g>
  </g>
  <g id="gestion-de-fincas" transform="translate(-44.329 -21.127)">
    <path id="Trazado_1276948" data-name="Trazado 1276948" d="M92.432,220.715a22.2,22.2,0,0,0-8.867,1.837l1.317,9.514,16.9,14.27h12.671a22.281,22.281,0,0,0-22.023-25.621Z" transform="translate(-20.925 -164.174)" fill="#19cfba" fill-rule="evenodd"/>
    <path id="Trazado_1276949" data-name="Trazado 1276949" d="M97.682,262.8a16.459,16.459,0,0,0-8.039,2.083l.489,3.53,16.9,14.27h6.845a16.545,16.545,0,0,0-16.2-19.883Z" transform="translate(-26.174 -200.523)" fill="#60b7fe" fill-rule="evenodd"/>
    <path id="Trazado_1276950" data-name="Trazado 1276950" d="M210.265,220.715a22.2,22.2,0,0,1,8.867,1.837l-1.317,9.514-16.9,14.27H188.242A22.281,22.281,0,0,1,210.265,220.715Z" transform="translate(-111.112 -164.174)" fill="#19cfba" fill-rule="evenodd"/>
    <path id="Trazado_1276951" data-name="Trazado 1276951" d="M246.6,262.8a16.46,16.46,0,0,1,8.039,2.083l-.489,3.53-16.9,14.27h-6.845A16.545,16.545,0,0,1,246.6,262.8Z" transform="translate(-147.452 -200.523)" fill="#60b7fe" fill-rule="evenodd"/>
    <path id="Trazado_1276952" data-name="Trazado 1276952" d="M271.395,187.351,268.783,197.8a7.662,7.662,0,0,1-2.167,3.777l-3.147,3.077a2.11,2.11,0,0,0-2.959-.311l-7.752,6.275A7.211,7.211,0,0,0,250,216.4v7.3h10.272a1.658,1.658,0,0,0,1.656-1.63c.05-3.165.424-4.529,3.215-7.562,2.535-2.755,5.089-3.923,6.979-7.3,2.613-4.672,2.5-13.759,2.956-19.26a1.817,1.817,0,0,0-1.817-1.975h-.1A1.8,1.8,0,0,0,271.395,187.351Z" transform="translate(-164.672 -134.166)" fill="#f0b16e" fill-rule="evenodd"/>
    <path id="Trazado_1276953" data-name="Trazado 1276953" d="M69.681,187.351,72.293,197.8a7.662,7.662,0,0,0,2.167,3.777l3.147,3.077a2.11,2.11,0,0,1,2.959-.311l7.752,6.275a7.211,7.211,0,0,1,2.756,5.778v7.3H80.8a1.658,1.658,0,0,1-1.656-1.63c-.05-3.165-.425-4.529-3.215-7.562-2.535-2.755-5.089-3.923-6.979-7.3-2.613-4.672-2.5-13.759-2.956-19.26a1.817,1.817,0,0,1,1.817-1.975h.1A1.8,1.8,0,0,1,69.681,187.351Z" transform="translate(-5.744 -134.166)" fill="#f0b16e" fill-rule="evenodd"/>
    <path id="Trazado_1276954" data-name="Trazado 1276954" d="M259.552,122.335A6.946,6.946,0,0,1,250,127.85a6.946,6.946,0,0,1,9.552-5.515Z" transform="translate(-164.67 -78.746)" fill="#19cfba" fill-rule="evenodd"/>
    <path id="Trazado_1276955" data-name="Trazado 1276955" d="M179.936,122.335a6.946,6.946,0,0,0,9.552,5.515,6.946,6.946,0,0,0-9.552-5.515Z" transform="translate(-104.158 -78.746)" fill="#19cfba" fill-rule="evenodd"/>
    <path id="Trazado_1276956" data-name="Trazado 1276956" d="M110.6,51.777a2.739,2.739,0,0,0-2.012-.879h-.1a2.728,2.728,0,0,0-2.649,2.067l-.852,3.413a23.231,23.231,0,0,0-5.838-.742,22.957,22.957,0,0,0-12.915,3.929V50.342a7.853,7.853,0,0,0,9.543-6.634.909.909,0,0,0-.551-.958,7.862,7.862,0,0,0-9.9,3.477,7.863,7.863,0,0,0-9.9-3.477.908.908,0,0,0-.552.958,7.834,7.834,0,0,0,9.545,6.634v9.226a23.167,23.167,0,0,0-18.755-3.189l-.852-3.415A2.727,2.727,0,0,0,62.168,50.9h-.1a2.724,2.724,0,0,0-2.72,2.956c.093,1.119.164,2.4.237,3.756.291,5.338.653,11.978,2.831,15.871a17.448,17.448,0,0,0,4.424,4.979,29.359,29.359,0,0,1,2.679,2.495c2.69,2.923,2.93,4.1,2.976,6.964a2.574,2.574,0,0,0,2.562,2.522H95.6a2.576,2.576,0,0,0,2.563-2.522c.044-2.867.286-4.041,2.976-6.964a29.622,29.622,0,0,1,2.678-2.495,17.432,17.432,0,0,0,4.424-4.979c2.179-3.893,2.542-10.533,2.831-15.871.075-1.356.145-2.637.238-3.756a2.739,2.739,0,0,0-.709-2.076Zm-6.053,6.359-.954,3.811a17.45,17.45,0,0,0-21.454,12.99l-3.328-2.694a21.4,21.4,0,0,1,25.736-14.107ZM98.757,69.258a3.026,3.026,0,0,0-3.489.214l-7.752,6.276a8.313,8.313,0,0,0-2.186,2.647,8.177,8.177,0,0,0-1.6-2.126A15.638,15.638,0,0,1,103.153,63.7a6.67,6.67,0,0,1-1.842,3.058Zm-26.855,0-2.552-2.5A6.678,6.678,0,0,1,67.506,63.7a15.657,15.657,0,0,1,12.529,2.013,23.188,23.188,0,0,0-2.721,5.312l-1.923-1.556a3.028,3.028,0,0,0-3.49-.214ZM89.2,44.774a5.991,5.991,0,0,1,4.649-.587,6.041,6.041,0,0,1-7.48,4.318A5.987,5.987,0,0,1,89.2,44.774Zm-9.55,3.145a6,6,0,0,1-2.833-3.733A6.043,6.043,0,0,1,84.293,48.5,5.982,5.982,0,0,1,79.647,47.919ZM83.87,61.387a23.392,23.392,0,0,0-2.751,2.872,17.484,17.484,0,0,0-14.058-2.314l-.952-3.808a21.365,21.365,0,0,1,17.761,3.25Zm-9.563,26.5c-.054-3.419-.538-4.991-3.455-8.161a30.929,30.929,0,0,0-2.834-2.646A15.779,15.779,0,0,1,64,72.6c-1.973-3.527-2.324-9.936-2.6-15.084-.075-1.369-.145-2.663-.24-3.809a.909.909,0,0,1,.913-.993h.1a.894.894,0,0,1,.89.695L65.67,63.853a8.536,8.536,0,0,0,2.411,4.205l2.643,2.585A3.015,3.015,0,0,0,71.6,74.15l6.787,5.5a.915.915,0,0,0,.57.2.906.906,0,0,0,.571-1.609l-6.788-5.5a1.2,1.2,0,0,1-.177-1.684h0a1.178,1.178,0,0,1,.8-.434,1.191,1.191,0,0,1,.879.258L82,77.156a6.338,6.338,0,0,1,2.42,5.074v6.4H75.057A.754.754,0,0,1,74.307,87.889Zm35.2-34.186c-.1,1.146-.166,2.44-.24,3.809-.282,5.148-.631,11.558-2.6,15.084a15.793,15.793,0,0,1-4.021,4.486,31.035,31.035,0,0,0-2.834,2.646c-2.917,3.169-3.4,4.741-3.455,8.161a.754.754,0,0,1-.75.739H86.237v-6.4a6.334,6.334,0,0,1,2.42-5.074l7.751-6.275a1.194,1.194,0,0,1,1.942,1.054,1.181,1.181,0,0,1-.435.806l-6.788,5.5a.906.906,0,0,0,1.141,1.409l6.787-5.5a3.013,3.013,0,0,0,.88-3.507l2.642-2.585a8.537,8.537,0,0,0,2.412-4.205L107.6,53.4a.894.894,0,0,1,.889-.695h.1a.911.911,0,0,1,.915.993ZM95.6,36.5l1.226-2.124a.906.906,0,1,1,1.57.9L97.172,37.4A.906.906,0,0,1,95.6,36.5Zm8.093,9a.906.906,0,0,1,.333-1.238l2.125-1.228a.906.906,0,0,1,.906,1.57l-2.125,1.228A.909.909,0,0,1,103.7,45.5ZM72.261,35.278a.906.906,0,1,1,1.57-.9L75.058,36.5a.907.907,0,0,1-1.57.906Zm12.163-1.29V31.534a.906.906,0,1,1,1.813,0v2.454a.906.906,0,1,1-1.813,0ZM63.269,43.365a.906.906,0,0,1,1.238-.333l2.125,1.228a.906.906,0,0,1-.906,1.57L63.6,44.6A.9.9,0,0,1,63.269,43.365Z" transform="translate(0 0)" fill="#1e2f3f" fill-rule="evenodd"/>
  </g>
</svg>
