<svg id="Grupo_1202295" data-name="Grupo 1202295" xmlns="http://www.w3.org/2000/svg" width="82.001" height="82.001" viewBox="0 0 82.001 82.001">
  <g id="Grupo_1187152" data-name="Grupo 1187152" transform="translate(0)">
    <g id="Grupo_1185946" data-name="Grupo 1185946" transform="translate(0)">
      <g id="Grupo_1184280" data-name="Grupo 1184280" transform="translate(0)">
        <g id="Grupo_1182168" data-name="Grupo 1182168" transform="translate(0)">
          <g id="Grupo_1178877" data-name="Grupo 1178877" transform="translate(0)">
            <g id="Grupo_1111311" data-name="Grupo 1111311" transform="translate(0)">
              <g id="Grupo_1098742" data-name="Grupo 1098742" transform="translate(0)">
                <g id="Rectángulo_400898" data-name="Rectángulo 400898" transform="translate(0)" fill="#fff" stroke="#31532b" stroke-width="1" opacity="0.859">
                  <rect width="82.001" height="82.001" rx="41" stroke="none"/>
                  <rect x="0.5" y="0.5" width="81.001" height="81.001" rx="40.5" fill="none"/>
                </g>
                <g id="Rectángulo_400907" data-name="Rectángulo 400907" transform="translate(0)" fill="none" stroke="#31532b" stroke-width="1">
                  <rect width="82.001" height="82.001" rx="41" stroke="none"/>
                  <rect x="0.5" y="0.5" width="81.001" height="81.001" rx="40.5" fill="none"/>
                </g>
              </g>
            </g>
          </g>
        </g>
      </g>
    </g>
  </g>
  <g id="conocimiento" transform="translate(-2.643 -27.288)">
    <path id="Trazado_1276957" data-name="Trazado 1276957" d="M287.886,104.505a8.3,8.3,0,1,0-16.586.017,8.559,8.559,0,0,0,3.563,6.971,1.418,1.418,0,0,1,.583,1.156l0,3.622h8.293l0-3.623a1.42,1.42,0,0,1,.585-1.158A8.56,8.56,0,0,0,287.886,104.505Z" transform="translate(-225.895 -49.55)" fill="#f7b030"/>
    <rect id="Rectángulo_412602" data-name="Rectángulo 412602" width="11.057" height="3.686" rx="1.843" transform="translate(48.169 64.879)" fill="#c3c6c7"/>
    <path id="Trazado_1276958" data-name="Trazado 1276958" d="M311.3,288h7.371v1.843a1.843,1.843,0,0,1-1.843,1.843h-3.686a1.843,1.843,0,0,1-1.843-1.843Z" transform="translate(-261.288 -219.436)" fill="#dadcde"/>
    <path id="Trazado_1276959" data-name="Trazado 1276959" d="M105.172,326.743h12.9a1.843,1.843,0,0,1,1.843,1.843v1.843a1.843,1.843,0,0,1-1.843,1.843H94.824c-.469,0-18.67-3.686-19.139-3.686H72V312h8.293c4.607,0,13.822,8.293,13.822,8.293l9.214,2.764s1.843.921,1.843,1.843v1.843a1.843,1.843,0,0,1-1.843,1.843l-9.214-1.843-6.45-3.686" transform="translate(-49.55 -240.671)" fill="#f7cca9"/>
    <path id="Trazado_1276960" data-name="Trazado 1276960" d="M24,296h5.529v20.272H24Z" transform="translate(-7.079 -226.514)" fill="#2d85cc"/>
    <path id="Trazado_1276961" data-name="Trazado 1276961" d="M277.778,105.161A9.565,9.565,0,0,0,278.9,90.635,9.044,9.044,0,0,0,272.379,88a9.359,9.359,0,0,0-9.083,9.445,9.507,9.507,0,0,0,3.95,7.719.5.5,0,0,1,.2.406v1.23a2.763,2.763,0,0,0,.461,5v1.079a2.767,2.767,0,0,0,2.764,2.764h3.686a2.768,2.768,0,0,0,2.764-2.764V111.8a2.763,2.763,0,0,0,.461-5v-1.23A.5.5,0,0,1,277.778,105.161ZM265.139,97.44a7.51,7.51,0,0,1,7.266-7.6h.105a7.221,7.221,0,0,1,5.1,2.108,7.722,7.722,0,0,1-.9,11.712,2.343,2.343,0,0,0-.971,1.908v.858h-6.45v-.858a2.34,2.34,0,0,0-.97-1.906,7.66,7.66,0,0,1-3.177-6.222Zm9.214,16.358h-3.686a.922.922,0,0,1-.921-.921v-.921h5.529v.921A.922.922,0,0,1,274.354,113.8Zm1.843-3.686h-7.371a.921.921,0,0,1,0-1.843H276.2a.921.921,0,0,1,0,1.843Z" transform="translate(-218.813 -42.469)"/>
    <path id="Trazado_1276962" data-name="Trazado 1276962" d="M351.867,124.91a4.165,4.165,0,0,1,2.4,2.721.921.921,0,1,0,1.774-.5,6.022,6.022,0,0,0-3.477-3.928.921.921,0,1,0-.7,1.706Z" transform="translate(-296.675 -73.56)"/>
    <path id="Trazado_1276963" data-name="Trazado 1276963" d="M337.143,42.764V40.921a.921.921,0,1,0-1.843,0v1.843a.921.921,0,0,0,1.843,0Z" transform="translate(-282.523 0)"/>
    <path id="Trazado_1276964" data-name="Trazado 1276964" d="M284.9,54.591a.922.922,0,0,0,.841-1.3l-.75-1.684a.921.921,0,0,0-1.684.75l.75,1.684A.921.921,0,0,0,284.9,54.591Z" transform="translate(-236.451 -9.79)"/>
    <path id="Trazado_1276965" data-name="Trazado 1276965" d="M242.465,85.428a.921.921,0,0,0,.617-1.606l-1.369-1.233a.922.922,0,1,0-1.233,1.37l1.369,1.232A.918.918,0,0,0,242.465,85.428Z" transform="translate(-198.354 -37.474)"/>
    <path id="Trazado_1276966" data-name="Trazado 1276966" d="M217.112,130.22a.921.921,0,0,0-.592-1.161l-1.753-.569a.921.921,0,1,0-.569,1.753l1.753.57a.92.92,0,0,0,1.161-.592Z" transform="translate(-174.806 -78.257)"/>
    <path id="Trazado_1276967" data-name="Trazado 1276967" d="M210.657,179.712l-1.833.193a.921.921,0,1,0,.193,1.833l1.833-.193a.921.921,0,1,0-.193-1.833Z" transform="translate(-169.885 -123.615)"/>
    <path id="Trazado_1276968" data-name="Trazado 1276968" d="M447.51,181.544l1.833.193a.921.921,0,0,0,.193-1.833l-1.833-.193a.921.921,0,1,0-.193,1.833Z" transform="translate(-381.079 -123.615)"/>
    <path id="Trazado_1276969" data-name="Trazado 1276969" d="M442.732,130.857a.919.919,0,0,0,.285-.045l1.753-.569a.921.921,0,0,0-.569-1.753l-1.753.569a.921.921,0,0,0,.284,1.8Z" transform="translate(-376.765 -78.257)"/>
    <path id="Trazado_1276970" data-name="Trazado 1276970" d="M420.07,85.193l1.369-1.232a.921.921,0,1,0-1.233-1.37l-1.369,1.233a.921.921,0,1,0,1.233,1.369Z" transform="translate(-356.168 -37.476)"/>
    <path id="Trazado_1276971" data-name="Trazado 1276971" d="M381.776,54.591a.921.921,0,0,0,.842-.547l.75-1.684a.921.921,0,0,0-1.684-.75l-.75,1.684a.922.922,0,0,0,.841,1.3Z" transform="translate(-322.831 -9.79)"/>
    <path id="Trazado_1276972" data-name="Trazado 1276972" d="M68.522,296.586H56.543v-.921c0-1.383-1.8-2.391-2.352-2.667a.932.932,0,0,0-.147-.059l-9.019-2.706c-.571-.5-2.611-2.274-5.1-4.07-3.982-2.867-7.07-4.32-9.177-4.32H23.371v-.921A.921.921,0,0,0,22.45,280H16.921a.921.921,0,0,0-.921.921v20.272a.921.921,0,0,0,.921.921H22.45a.921.921,0,0,0,.921-.921v-.921h2.721c.575.077,5.277,1,9.434,1.826,8.314,1.641,9.488,1.86,9.748,1.86H68.522a2.767,2.767,0,0,0,2.764-2.764V299.35a2.768,2.768,0,0,0-2.764-2.764Zm-46.993,3.686H17.843V281.843h3.686Zm47.915.921a.922.922,0,0,1-.921.921h-23.2c-.575-.076-5.277-1-9.433-1.825-8.315-1.641-9.489-1.86-9.748-1.86H23.371V283.686h7.371c3.487,0,10.714,5.816,13.205,8.056a.922.922,0,0,0,.352.2l9.134,2.74a3.437,3.437,0,0,1,1.266,1.012v1.815a.923.923,0,0,1-.846.918l-8.962-1.793-6.32-3.612a.921.921,0,0,0-.914,1.6l6.45,3.686a.922.922,0,0,0,.276.1l9.214,1.843a.924.924,0,0,0,.181.018,2.769,2.769,0,0,0,2.606-1.843H68.522a.922.922,0,0,1,.921.921Z" transform="translate(0 -212.357)"/>
  </g>
</svg>
