<svg xmlns="http://www.w3.org/2000/svg" xmlns:xlink="http://www.w3.org/1999/xlink" width="129.063" height="84.015" viewBox="0 0 129.063 84.015">
  <defs>
    <clipPath id="clip-path">
      <path id="path9222" d="M0-682.665H84.015v84.015H0Z" transform="translate(0 682.665)"/>
    </clipPath>
  </defs>
  <g id="Grupo_1201415" data-name="Grupo 1201415" transform="translate(-788.103 -1981.698)">
    <g id="Rectángulo_410589" data-name="Rectángulo 410589" transform="translate(788.103 2007.607)" fill="#ffc94a" stroke="#dfab32" stroke-width="1">
      <rect width="129.063" height="43.021" rx="8" stroke="none"/>
      <rect x="0.5" y="0.5" width="128.063" height="42.021" rx="7.5" fill="none"/>
    </g>
    <g id="g9216" transform="translate(814.248 2664.363)">
      <g id="g9218" transform="translate(0 -682.665)">
        <g id="g9220" clip-path="url(#clip-path)">
          <g id="g9226" transform="translate(23.629 1.313)">
            <path id="path9228" d="M-261.91-130.955a18.378,18.378,0,0,1-18.378,18.378,18.378,18.378,0,0,1-18.378-18.378,18.378,18.378,0,0,1,18.378-18.378,18.378,18.378,0,0,1,18.378,18.378" transform="translate(298.666 149.333)" fill="#fff"/>
          </g>
          <g id="g9230" transform="translate(23.629 1.313)">
            <path id="path9232" d="M-261.91-130.955a18.378,18.378,0,0,1-18.378,18.378,18.378,18.378,0,0,1-18.378-18.378,18.378,18.378,0,0,1,18.378-18.378A18.378,18.378,0,0,1-261.91-130.955Z" transform="translate(298.666 149.333)" fill="none" stroke="#000" stroke-miterlimit="10" stroke-width="2"/>
          </g>
          <path id="path9234" d="M92.056-48.082H10.667v-5.251H92.056Z" transform="translate(-9.354 130.784)" fill="#d29380"/>
          <path id="path9236" d="M643.937-48.082H640v-5.251h3.938Z" transform="translate(-561.235 130.784)" fill="#498790"/>
          <g id="g9238" transform="translate(1.313 77.451)">
            <path id="path9240" d="M-392.864,0h26.255V5.251H-448V0h52.509" transform="translate(447.999)" fill="none" stroke="#000" stroke-miterlimit="10" stroke-width="2"/>
          </g>
          <g id="g9242" transform="translate(35.444 44.633)">
            <path id="path9244" d="M-93.539-159.017h-13.127v-15.753a6.564,6.564,0,0,1,6.564-6.564,6.564,6.564,0,0,1,6.564,6.564Z" transform="translate(106.666 181.333)" fill="#e2fc85"/>
          </g>
          <g id="g9246" transform="translate(44.633 45.181)">
            <path id="path9248" d="M-28.062-42.864v15.753H-32V-48.88A6.56,6.56,0,0,1-29.985-47.5a6.543,6.543,0,0,1,1.923,4.64" transform="translate(32 48.88)" fill="#8edf78"/>
          </g>
          <g id="g9250" transform="translate(35.444 44.633)">
            <path id="path9252" d="M0-121.6v-10.5a6.564,6.564,0,0,1,6.564-6.564,6.564,6.564,0,0,1,6.564,6.564v10.5" transform="translate(0 138.666)" fill="none" stroke="#000" stroke-miterlimit="10" stroke-width="2"/>
          </g>
          <g id="g9254" transform="translate(42.007 60.385)">
            <path id="path9256" d="M0-74.831H0a10.5,10.5,0,0,1,10.5-10.5h0A10.5,10.5,0,0,1,0-74.831" transform="translate(0 85.333)" fill="#52cd8d"/>
          </g>
          <g id="g9258" transform="translate(42.007 60.385)">
            <path id="path9260" d="M0-74.831H0a10.5,10.5,0,0,1,10.5-10.5h0A10.5,10.5,0,0,1,0-74.831Z" transform="translate(0 85.333)" fill="none" stroke="#000" stroke-miterlimit="10" stroke-width="2"/>
          </g>
          <g id="g9262" transform="translate(31.505 60.385)">
            <path id="path9264" d="M-74.831-74.831h0a10.5,10.5,0,0,0-10.5-10.5h0a10.5,10.5,0,0,0,10.5,10.5" transform="translate(85.333 85.333)" fill="#8edf78"/>
          </g>
          <g id="g9266" transform="translate(31.505 60.385)">
            <path id="path9268" d="M-74.831-74.831h0a10.5,10.5,0,0,0-10.5-10.5h0A10.5,10.5,0,0,0-74.831-74.831Z" transform="translate(85.333 85.333)" fill="none" stroke="#000" stroke-miterlimit="10" stroke-width="2"/>
          </g>
          <g id="g9270" transform="translate(42.007 44.633)">
            <path id="path9272" d="M0,0V32.818" fill="none" stroke="#000" stroke-miterlimit="10" stroke-width="2"/>
          </g>
          <g id="g9274" transform="translate(35.444 51.196)">
            <path id="path9276" d="M0,0H13.127" fill="none" stroke="#000" stroke-miterlimit="10" stroke-width="2"/>
          </g>
          <g id="g9278" transform="translate(35.444 57.76)">
            <path id="path9280" d="M0,0H13.127" fill="none" stroke="#000" stroke-miterlimit="10" stroke-width="2"/>
          </g>
          <g id="g9282" transform="translate(9.189 44.633)">
            <path id="path9284" d="M-93.539-159.017h-13.127v-15.753a6.564,6.564,0,0,1,6.564-6.564,6.564,6.564,0,0,1,6.564,6.564Z" transform="translate(106.666 181.333)" fill="#e2fc85"/>
          </g>
          <g id="g9286" transform="translate(18.378 45.181)">
            <path id="path9288" d="M-28.062-42.864v15.753H-32V-48.88A6.56,6.56,0,0,1-29.985-47.5a6.543,6.543,0,0,1,1.923,4.64" transform="translate(32 48.88)" fill="#8edf78"/>
          </g>
          <g id="g9290" transform="translate(9.189 44.633)">
            <path id="path9292" d="M0-121.6v-10.5a6.564,6.564,0,0,1,6.564-6.564,6.564,6.564,0,0,1,6.564,6.564v10.5" transform="translate(0 138.666)" fill="none" stroke="#000" stroke-miterlimit="10" stroke-width="2"/>
          </g>
          <g id="g9294" transform="translate(15.753 60.385)">
            <path id="path9296" d="M0-74.831H0a10.5,10.5,0,0,1,10.5-10.5h0A10.5,10.5,0,0,1,0-74.831" transform="translate(0 85.333)" fill="#52cd8d"/>
          </g>
          <g id="g9298" transform="translate(15.753 60.385)">
            <path id="path9300" d="M0-74.831H0a10.5,10.5,0,0,1,10.5-10.5h0A10.5,10.5,0,0,1,0-74.831Z" transform="translate(0 85.333)" fill="none" stroke="#000" stroke-miterlimit="10" stroke-width="2"/>
          </g>
          <g id="g9302" transform="translate(5.251 60.385)">
            <path id="path9304" d="M-74.831-74.831h0a10.5,10.5,0,0,0-10.5-10.5h0a10.5,10.5,0,0,0,10.5,10.5" transform="translate(85.333 85.333)" fill="#8edf78"/>
          </g>
          <g id="g9306" transform="translate(5.251 60.385)">
            <path id="path9308" d="M-74.831-74.831h0a10.5,10.5,0,0,0-10.5-10.5h0A10.5,10.5,0,0,0-74.831-74.831Z" transform="translate(85.333 85.333)" fill="none" stroke="#000" stroke-miterlimit="10" stroke-width="2"/>
          </g>
          <g id="g9310" transform="translate(15.753 44.633)">
            <path id="path9312" d="M0,0V32.818" fill="none" stroke="#000" stroke-miterlimit="10" stroke-width="2"/>
          </g>
          <g id="g9314" transform="translate(9.189 51.196)">
            <path id="path9316" d="M0,0H13.127" fill="none" stroke="#000" stroke-miterlimit="10" stroke-width="2"/>
          </g>
          <g id="g9318" transform="translate(9.189 57.76)">
            <path id="path9320" d="M0,0H13.127" fill="none" stroke="#000" stroke-miterlimit="10" stroke-width="2"/>
          </g>
          <g id="g9322" transform="translate(61.698 51.196)">
            <path id="path9324" d="M-46.77-46.77h6.564v9.189H-53.333V-53.333h6.564Z" transform="translate(53.333 53.333)" fill="#e2fc85"/>
          </g>
          <g id="g9326" transform="translate(68.262 44.633)">
            <path id="path9328" d="M-46.77-46.77h-6.564v-6.564A6.564,6.564,0,0,1-46.77-46.77" transform="translate(53.333 53.333)" fill="#e2fc85"/>
          </g>
          <g id="g9330" transform="translate(61.698 51.196)">
            <path id="path9332" d="M-46.77-46.77h6.564v9.189H-53.333V-53.333h6.564Z" transform="translate(53.333 53.333)" fill="#e2fc85"/>
          </g>
          <g id="g9334" transform="translate(68.262 44.633)">
            <path id="path9336" d="M-46.77-46.77h-6.564v-6.564A6.564,6.564,0,0,1-46.77-46.77" transform="translate(53.333 53.333)" fill="#e2fc85"/>
          </g>
          <g id="g9338" transform="translate(70.887 45.181)">
            <path id="path9340" d="M-28.062-42.864H-32V-48.88A6.56,6.56,0,0,1-29.985-47.5a6.543,6.543,0,0,1,1.923,4.64" transform="translate(32 48.88)" fill="#8edf78"/>
          </g>
          <path id="path9342" d="M576-213.333h3.938v9.189H576Z" transform="translate(-505.111 271.093)" fill="#8edf78"/>
          <g id="g9344" transform="translate(68.262 60.385)">
            <path id="path9346" d="M0-74.831H0a10.5,10.5,0,0,1,10.5-10.5h0A10.5,10.5,0,0,1,0-74.831" transform="translate(0 85.333)" fill="#52cd8d"/>
          </g>
          <g id="g9348" transform="translate(68.262 60.385)">
            <path id="path9350" d="M0-74.831H0a10.5,10.5,0,0,1,10.5-10.5h0A10.5,10.5,0,0,1,0-74.831Z" transform="translate(0 85.333)" fill="none" stroke="#000" stroke-miterlimit="10" stroke-width="2"/>
          </g>
          <g id="g9352" transform="translate(57.76 60.385)">
            <path id="path9354" d="M-74.831-74.831h0a10.5,10.5,0,0,0-10.5-10.5h0a10.5,10.5,0,0,0,10.5,10.5" transform="translate(85.333 85.333)" fill="#8edf78"/>
          </g>
          <g id="g9356" transform="translate(57.76 60.385)">
            <path id="path9358" d="M-74.831-74.831h0a10.5,10.5,0,0,0-10.5-10.5h0A10.5,10.5,0,0,0-74.831-74.831Z" transform="translate(85.333 85.333)" fill="none" stroke="#000" stroke-miterlimit="10" stroke-width="2"/>
          </g>
          <g id="g9360" transform="translate(61.698 44.633)">
            <path id="path9362" d="M-46.77-233.848v-32.818a6.564,6.564,0,0,1,6.564,6.564H-53.333v10.5" transform="translate(53.333 266.666)" fill="none" stroke="#000" stroke-miterlimit="10" stroke-width="2"/>
          </g>
          <g id="g9364" transform="translate(61.698 57.76)">
            <path id="path9366" d="M0,0H13.127V3.938" fill="none" stroke="#000" stroke-miterlimit="10" stroke-width="2"/>
          </g>
          <g id="g9368" transform="translate(38.069 10.502)">
            <path id="path9370" d="M-56.123-37.416H-64v-1.313a3.938,3.938,0,0,1,3.938-3.938,3.938,3.938,0,0,1,3.938,3.938Z" transform="translate(64 42.667)" fill="#e2fc85"/>
          </g>
          <g id="g9372" transform="translate(35.444 15.753)">
            <path id="path9374" d="M-46.77-112.247h0a6.564,6.564,0,0,1-6.564-6.564V-128h13.127v9.189a6.564,6.564,0,0,1-6.564,6.564" transform="translate(53.333 128)" fill="#d29380"/>
          </g>
          <g id="g9376" transform="translate(35.444 21.004)">
            <path id="path9378" d="M-46.77-46.77h0a6.564,6.564,0,0,1-6.564-6.564V-49.4a6.564,6.564,0,0,0,6.564,6.564A6.564,6.564,0,0,0-40.206-49.4v-3.938A6.564,6.564,0,0,1-46.77-46.77" transform="translate(53.333 53.333)" fill="#498790"/>
          </g>
          <g id="g9380" transform="translate(35.444 15.753)">
            <path id="path9382" d="M-46.77-112.247h0a6.564,6.564,0,0,1-6.564-6.564V-128h13.127v9.189A6.564,6.564,0,0,1-46.77-112.247Z" transform="translate(53.333 128)" fill="none" stroke="#000" stroke-miterlimit="10" stroke-width="2"/>
          </g>
          <g id="g9384" transform="translate(38.069 10.502)">
            <path id="path9386" d="M0-37.416v-1.313a3.938,3.938,0,0,1,3.938-3.938,3.938,3.938,0,0,1,3.938,3.938v1.313" transform="translate(0 42.667)" fill="none" stroke="#000" stroke-miterlimit="10" stroke-width="2"/>
          </g>
          <g id="g9388" transform="translate(42.007 15.753)">
            <path id="path9390" d="M0,0V15.753" fill="none" stroke="#000" stroke-miterlimit="10" stroke-width="2"/>
          </g>
          <g id="g9392" transform="translate(36.756 5.251)">
            <path id="path9394" d="M-74.831,0a5.251,5.251,0,0,1-5.251,5.251A5.251,5.251,0,0,1-85.333,0" transform="translate(85.333)" fill="none" stroke="#000" stroke-miterlimit="10" stroke-width="2"/>
          </g>
          <g id="g9396" transform="translate(48.571 15.753)">
            <path id="path9398" d="M0-18.708H2.625l2.625-2.625" transform="translate(0 21.333)" fill="none" stroke="#000" stroke-miterlimit="10" stroke-width="2"/>
          </g>
          <g id="g9400" transform="translate(30.193 15.753)">
            <path id="path9402" d="M-37.416-18.708h-2.625l-2.625-2.625" transform="translate(42.667 21.333)" fill="none" stroke="#000" stroke-miterlimit="10" stroke-width="2"/>
          </g>
          <g id="g9404" transform="translate(30.193 26.255)">
            <path id="path9406" d="M-37.416,0h-2.625l-2.625,2.625" transform="translate(42.667)" fill="none" stroke="#000" stroke-miterlimit="10" stroke-width="2"/>
          </g>
          <g id="g9408" transform="translate(48.571 26.255)">
            <path id="path9410" d="M0,0H2.625L5.251,2.625" fill="none" stroke="#000" stroke-miterlimit="10" stroke-width="2"/>
          </g>
          <g id="g9412" transform="translate(30.193 22.316)">
            <path id="path9414" d="M-37.416,0h-5.251" transform="translate(42.667)" fill="none" stroke="#000" stroke-miterlimit="10" stroke-width="2"/>
          </g>
          <g id="g9416" transform="translate(48.571 22.316)">
            <path id="path9418" d="M-37.416,0h-5.251" transform="translate(42.667)" fill="none" stroke="#000" stroke-miterlimit="10" stroke-width="2"/>
          </g>
          <g id="g9420" transform="translate(52.509 35.444)">
            <path id="path9422" d="M0,0,10.5,10.5" fill="none" stroke="#000" stroke-miterlimit="10" stroke-width="2"/>
          </g>
        </g>
      </g>
    </g>
  </g>
</svg>
