<svg xmlns="http://www.w3.org/2000/svg" xmlns:xlink="http://www.w3.org/1999/xlink" width="129.063" height="84.691" viewBox="0 0 129.063 84.691">
  <defs>
    <clipPath id="clip-path">
      <rect id="Rectángulo_412555" data-name="Rectángulo 412555" width="85.154" height="69.518" fill="none"/>
    </clipPath>
  </defs>
  <g id="Grupo_1201006" data-name="Grupo 1201006" transform="translate(-785.675 -2548.442)">
    <rect id="Rectángulo_410589" data-name="Rectángulo 410589" width="84.691" height="84.691" transform="translate(807.861 2548.442)" fill="none"/>
    <g id="Rectángulo_410589-2" data-name="Rectángulo 410589" transform="translate(785.675 2569.278)" fill="#a1c6f1" stroke="#6f89a8" stroke-width="1">
      <rect width="129.063" height="43.021" rx="8" stroke="none"/>
      <rect x="0.5" y="0.5" width="128.063" height="42.021" rx="7.5" fill="none"/>
    </g>
    <g id="Grupo_1202123" data-name="Grupo 1202123" transform="translate(807.552 2556.029)">
      <g id="Grupo_1202122" data-name="Grupo 1202122" clip-path="url(#clip-path)">
        <path id="Trazado_1275621" data-name="Trazado 1275621" d="M106.514,227.33a17.512,17.512,0,0,0-3.74-2.994c-.012-.008-.025-.015-.037-.023a20.65,20.65,0,0,0-4.727-2.069,13.139,13.139,0,0,0,1.444,6.9,21.2,21.2,0,0,1,7.06,4.043Z" transform="translate(-80.613 -182.841)" fill="#ffdc7a"/>
        <path id="Trazado_1275622" data-name="Trazado 1275622" d="M98.641,268.8l-.018-.006q-.3-.1-.611-.192a13.138,13.138,0,0,0,1.444,6.9,21.2,21.2,0,0,1,7.059,4.043V273.69a18.981,18.981,0,0,0-7.875-4.888" transform="translate(-80.614 -220.982)" fill="#ffdc7a"/>
        <path id="Trazado_1275623" data-name="Trazado 1275623" d="M163.823,226.4a13.429,13.429,0,0,0,.391-4.152,21.28,21.28,0,0,0-2.091.745,18.6,18.6,0,0,0-6.413,4.34v5.857a21.2,21.2,0,0,1,7.06-4.043,12.52,12.52,0,0,0,1.053-2.747" transform="translate(-128.103 -182.844)" fill="#ffdc7a"/>
        <path id="Trazado_1275624" data-name="Trazado 1275624" d="M252.928,129.987q-.27.081-.535.17h0a17.946,17.946,0,0,0-7.433,4.606V140.2a20.161,20.161,0,0,1,6.613-3.766,12.4,12.4,0,0,0,1.358-6.443" transform="translate(-201.527 -106.941)" fill="#ffdc7a"/>
        <path id="Trazado_1275625" data-name="Trazado 1275625" d="M190.822,130.158h0c-.177-.059-.356-.116-.535-.17a12.4,12.4,0,0,0,1.358,6.443,20.156,20.156,0,0,1,6.613,3.766v-5.432a17.946,17.946,0,0,0-7.433-4.606" transform="translate(-156.531 -106.941)" fill="#ffdc7a"/>
        <path id="Trazado_1275626" data-name="Trazado 1275626" d="M155.71,320.053v6.867a8.228,8.228,0,0,0,5.5-2.8,12.556,12.556,0,0,0,3.008-9.153q-.308.092-.612.192l-.016.005a18.979,18.979,0,0,0-7.875,4.888" transform="translate(-128.103 -259.125)" fill="#ffdc7a"/>
        <path id="Trazado_1275627" data-name="Trazado 1275627" d="M98.009,314.967a12.556,12.556,0,0,0,3.008,9.152,8.228,8.228,0,0,0,5.5,2.8v-6.867a18.976,18.976,0,0,0-7.874-4.888l-.019-.006q-.3-.1-.611-.192" transform="translate(-80.612 -259.125)" fill="#ffdc7a"/>
        <path id="Trazado_1275628" data-name="Trazado 1275628" d="M252.929,173.915c-.18.054-.359.111-.537.17h0a17.948,17.948,0,0,0-7.434,4.606v6.441a7.427,7.427,0,0,0,4.034-1.613,15.465,15.465,0,0,1,.129-2.235.851.851,0,0,1,1.049-.715c.362.09.719.191,1.074.3a21.937,21.937,0,0,0,.971-1.972,12.658,12.658,0,0,0,.715-4.982" transform="translate(-201.528 -143.081)" fill="#ffdc7a"/>
        <path id="Trazado_1275629" data-name="Trazado 1275629" d="M9.617,173.915a11.841,11.841,0,0,0,2.842,8.583,7.759,7.759,0,0,0,5.129,2.635v-6.441a17.947,17.947,0,0,0-7.433-4.607h0c-.178-.059-.356-.116-.536-.17" transform="translate(-7.895 -143.081)" fill="#ffdc7a"/>
        <path id="Trazado_1275630" data-name="Trazado 1275630" d="M155.71,273.69v5.857a21.192,21.192,0,0,1,7.059-4.043,13.136,13.136,0,0,0,1.445-6.9q-.307.091-.611.192l-.019.006a18.979,18.979,0,0,0-7.874,4.888" transform="translate(-128.103 -220.982)" fill="#ffdc7a"/>
        <path id="Trazado_1275631" data-name="Trazado 1275631" d="M135.769,147.786l-.151-.3-.151.3c-2.142,4.255-3.14,7.711-3.14,10.877v2.973a19.249,19.249,0,0,1,3.292,2.626,19.3,19.3,0,0,1,3.29-2.62v-2.979c0-3.166-1-6.623-3.14-10.877" transform="translate(-108.866 -121.337)" fill="#ffdc7a"/>
        <path id="Trazado_1275632" data-name="Trazado 1275632" d="M277.942,268.8l-.019-.006q-.3-.1-.611-.192a13.138,13.138,0,0,0,1.444,6.9,21.2,21.2,0,0,1,7.059,4.043V273.69a18.978,18.978,0,0,0-7.874-4.888" transform="translate(-228.126 -220.982)" fill="#ffdc7a"/>
        <path id="Trazado_1275633" data-name="Trazado 1275633" d="M198.255,90.837a16.558,16.558,0,0,0-3.521-2.816c-.013-.008-.027-.016-.04-.025a19.5,19.5,0,0,0-4.411-1.937,12.4,12.4,0,0,0,1.358,6.442,20.158,20.158,0,0,1,6.613,3.766Z" transform="translate(-156.531 -70.802)" fill="#ffdc7a"/>
        <path id="Trazado_1275634" data-name="Trazado 1275634" d="M277.31,314.967a12.556,12.556,0,0,0,3.008,9.152,8.229,8.229,0,0,0,5.5,2.8v-6.867a18.976,18.976,0,0,0-7.874-4.888l-.019-.006q-.3-.1-.611-.192" transform="translate(-228.124 -259.125)" fill="#ffdc7a"/>
        <path id="Trazado_1275635" data-name="Trazado 1275635" d="M343.516,222.244a19.156,19.156,0,0,0-8.5,5.086v5.857a21.19,21.19,0,0,1,7.059-4.043,13.139,13.139,0,0,0,1.444-6.9" transform="translate(-275.616 -182.841)" fill="#ffdc7a"/>
        <path id="Trazado_1275636" data-name="Trazado 1275636" d="M285.816,227.33a17.511,17.511,0,0,0-3.74-2.994l-.038-.023a20.5,20.5,0,0,0-4.062-1.858l-.011,0q-.324-.108-.654-.206a13.136,13.136,0,0,0,1.444,6.9,21.2,21.2,0,0,1,7.059,4.043Z" transform="translate(-228.126 -182.841)" fill="#ffdc7a"/>
        <path id="Trazado_1275637" data-name="Trazado 1275637" d="M335.012,320.053v6.867a8.228,8.228,0,0,0,5.5-2.8,12.556,12.556,0,0,0,3.008-9.153q-.308.092-.612.192l-.017.005a18.976,18.976,0,0,0-7.875,4.888" transform="translate(-275.616 -259.125)" fill="#ffdc7a"/>
        <path id="Trazado_1275638" data-name="Trazado 1275638" d="M228.949,28.741v-2.8c0-2.993-.944-6.261-2.97-10.286l-.1-.205-.1.205c-2.026,4.025-2.97,7.294-2.97,10.286v2.793a18.312,18.312,0,0,1,3.075,2.451,18.3,18.3,0,0,1,3.072-2.449" transform="translate(-183.3 -12.714)" fill="#ffdc7a"/>
        <path id="Trazado_1275639" data-name="Trazado 1275639" d="M244.958,90.837v5.431a20.158,20.158,0,0,1,6.613-3.766,12.4,12.4,0,0,0,1.358-6.442,19.5,19.5,0,0,0-4.425,1.945h0a16.566,16.566,0,0,0-3.544,2.83" transform="translate(-201.528 -70.802)" fill="#ffdc7a"/>
        <path id="Trazado_1275640" data-name="Trazado 1275640" d="M190.286,173.915a12.648,12.648,0,0,0,.73,5.024c.176.406.572,1.32.922,1.985.415-.128.831-.249,1.25-.352a.851.851,0,0,1,1.049.714,15.455,15.455,0,0,1,.128,2.344,7.41,7.41,0,0,0,3.892,1.5v-6.441a17.944,17.944,0,0,0-7.432-4.606h0c-.177-.059-.355-.116-.534-.17" transform="translate(-156.532 -143.081)" fill="#ffdc7a"/>
        <path id="Trazado_1275641" data-name="Trazado 1275641" d="M335.012,273.69v5.857a21.2,21.2,0,0,1,7.059-4.043,13.134,13.134,0,0,0,1.445-6.9q-.307.091-.61.192l-.019.006a18.979,18.979,0,0,0-7.874,4.888" transform="translate(-275.616 -220.982)" fill="#ffdc7a"/>
        <path id="Trazado_1275642" data-name="Trazado 1275642" d="M315.07,147.786l-.151-.3-.151.3c-2.142,4.255-3.14,7.711-3.14,10.877v2.973a19.259,19.259,0,0,1,3.293,2.627,19.261,19.261,0,0,1,3.289-2.625v-2.976c0-3.166-1-6.623-3.14-10.877" transform="translate(-256.378 -121.337)" fill="#ffdc7a"/>
        <path id="Trazado_1275643" data-name="Trazado 1275643" d="M371.488,130.157h0q-.266-.088-.535-.17a12.4,12.4,0,0,0,1.358,6.443,20.159,20.159,0,0,1,6.613,3.766v-5.432a17.945,17.945,0,0,0-7.433-4.606" transform="translate(-305.165 -106.94)" fill="#ffdc7a"/>
        <path id="Trazado_1275644" data-name="Trazado 1275644" d="M71.582,178.806a12.682,12.682,0,0,0,.682-4.89c-.18.054-.358.111-.535.169h0a17.945,17.945,0,0,0-7.433,4.607v6.441a7.474,7.474,0,0,0,4.275-1.81,15.472,15.472,0,0,1,.13-2.038.851.851,0,0,1,1.049-.715c.3.074.595.155.889.241.344-.632.713-1.475.937-1.984Z" transform="translate(-52.894 -143.081)" fill="#ffdc7a"/>
        <path id="Trazado_1275645" data-name="Trazado 1275645" d="M72.264,129.987c-.18.054-.358.111-.536.17h0a17.946,17.946,0,0,0-7.433,4.607V140.2a20.156,20.156,0,0,1,6.613-3.766,12.4,12.4,0,0,0,1.358-6.443" transform="translate(-52.894 -106.941)" fill="#ffdc7a"/>
        <path id="Trazado_1275646" data-name="Trazado 1275646" d="M17.589,90.837a16.558,16.558,0,0,0-3.521-2.816c-.013-.008-.027-.016-.04-.025A19.5,19.5,0,0,0,9.618,86.06,12.4,12.4,0,0,0,10.976,92.5a20.155,20.155,0,0,1,6.613,3.766Z" transform="translate(-7.896 -70.802)" fill="#ffdc7a"/>
        <path id="Trazado_1275647" data-name="Trazado 1275647" d="M10.156,130.158h0c-.177-.059-.356-.116-.536-.17a12.4,12.4,0,0,0,1.358,6.443,20.159,20.159,0,0,1,6.613,3.766v-5.432a17.947,17.947,0,0,0-7.433-4.606" transform="translate(-7.896 -106.941)" fill="#ffdc7a"/>
        <path id="Trazado_1275648" data-name="Trazado 1275648" d="M48.283,28.741v-2.8c0-2.993-.944-6.261-2.97-10.286l-.1-.205-.1.205c-2.026,4.025-2.97,7.294-2.97,10.286v2.793a18.3,18.3,0,0,1,3.076,2.451,18.3,18.3,0,0,1,3.072-2.449" transform="translate(-34.665 -12.714)" fill="#ffdc7a"/>
        <path id="Trazado_1275649" data-name="Trazado 1275649" d="M64.293,90.837v5.431A20.159,20.159,0,0,1,70.906,92.5a12.4,12.4,0,0,0,1.358-6.442,19.5,19.5,0,0,0-4.425,1.946h0a16.573,16.573,0,0,0-3.545,2.831" transform="translate(-52.894 -70.802)" fill="#ffdc7a"/>
        <path id="Trazado_1275650" data-name="Trazado 1275650" d="M378.92,90.837a16.555,16.555,0,0,0-3.52-2.815c-.013-.008-.027-.016-.04-.025a19.5,19.5,0,0,0-4.411-1.937,12.4,12.4,0,0,0,1.358,6.442,20.158,20.158,0,0,1,6.613,3.766Z" transform="translate(-305.165 -70.802)" fill="#ffdc7a"/>
        <path id="Trazado_1275651" data-name="Trazado 1275651" d="M370.951,173.915a12.661,12.661,0,0,0,.7,4.954,17.417,17.417,0,0,0,.963,1.975c.328-.1.658-.19.992-.273a.851.851,0,0,1,1.049.715,15.487,15.487,0,0,1,.129,2.156,7.44,7.44,0,0,0,4.133,1.692v-6.442a17.948,17.948,0,0,0-7.433-4.606h0c-.177-.059-.356-.116-.536-.17" transform="translate(-305.167 -143.081)" fill="#ffdc7a"/>
        <path id="Trazado_1275652" data-name="Trazado 1275652" d="M425.623,90.837v5.431a20.155,20.155,0,0,1,6.613-3.766,12.4,12.4,0,0,0,1.358-6.442,19.494,19.494,0,0,0-4.425,1.945h0a16.572,16.572,0,0,0-3.544,2.831" transform="translate(-350.162 -70.802)" fill="#ffdc7a"/>
        <path id="Trazado_1275653" data-name="Trazado 1275653" d="M425.623,178.692v6.441a7.759,7.759,0,0,0,5.129-2.635,11.841,11.841,0,0,0,2.842-8.583c-.18.054-.358.111-.536.17h0a17.944,17.944,0,0,0-7.433,4.606" transform="translate(-350.162 -143.081)" fill="#ffdc7a"/>
        <path id="Trazado_1275654" data-name="Trazado 1275654" d="M409.614,28.742v-2.8c0-2.993-.944-6.261-2.97-10.286l-.1-.205-.1.205c-2.026,4.025-2.97,7.293-2.97,10.286v2.793a18.3,18.3,0,0,1,3.075,2.451,18.3,18.3,0,0,1,3.072-2.449" transform="translate(-331.934 -12.715)" fill="#ffdc7a"/>
        <path id="Trazado_1275655" data-name="Trazado 1275655" d="M425.623,134.764V140.2a20.159,20.159,0,0,1,6.613-3.766,12.4,12.4,0,0,0,1.358-6.443q-.27.081-.535.17h0a17.947,17.947,0,0,0-7.433,4.607" transform="translate(-350.162 -106.941)" fill="#ffdc7a"/>
        <path id="Trazado_1275656" data-name="Trazado 1275656" d="M154.833,134.113a.858.858,0,0,1,.051.081.862.862,0,0,0-.051-.081" transform="translate(-127.382 -110.335)" fill="#444"/>
        <path id="Trazado_1275657" data-name="Trazado 1275657" d="M150.894,132.032c.027,0,.055,0,.082,0-.027,0-.054,0-.082,0" transform="translate(-124.141 -108.623)" fill="#444"/>
        <path id="Trazado_1275658" data-name="Trazado 1275658" d="M149.967,132.06c.027-.005.054-.011.081-.013-.027,0-.054.008-.081.013" transform="translate(-123.379 -108.636)" fill="#444"/>
        <path id="Trazado_1275659" data-name="Trazado 1275659" d="M124.429,148.038c0-3.166,1-6.623,3.14-10.877l.151-.3-.76-1.51a.848.848,0,0,1,.01-.78c0,.005-.007.01-.01.015l-.911,1.81c-2.266,4.5-3.322,8.2-3.322,11.643v2q.88.452,1.7.972Z" transform="translate(-100.968 -110.711)" fill="#444"/>
        <path id="Trazado_1275660" data-name="Trazado 1275660" d="M153.593,132.872c.02.014.041.026.06.041-.019-.015-.04-.028-.06-.041" transform="translate(-126.362 -109.314)" fill="#444"/>
        <path id="Trazado_1275661" data-name="Trazado 1275661" d="M124.787,233.912l.037.023-.037-.023" transform="translate(-102.663 -192.44)" fill="#444"/>
        <path id="Trazado_1275662" data-name="Trazado 1275662" d="M148.2,132.633a.846.846,0,0,1,.079-.051.833.833,0,0,0-.079.051" transform="translate(-121.921 -109.076)" fill="#444"/>
        <path id="Trazado_1275663" data-name="Trazado 1275663" d="M147.516,133.163c.02-.019.038-.04.059-.057a.824.824,0,0,0-.059.057" transform="translate(-121.362 -109.507)" fill="#444"/>
        <path id="Trazado_1275664" data-name="Trazado 1275664" d="M149.034,132.259a.869.869,0,0,1,.085-.033.848.848,0,0,0-.085.033" transform="translate(-122.611 -108.783)" fill="#444"/>
        <path id="Trazado_1275665" data-name="Trazado 1275665" d="M152.807,132.433c-.017-.009-.035-.013-.052-.02.023.01.046.018.067.03l-.015-.01" transform="translate(-125.672 -108.937)" fill="#444"/>
        <path id="Trazado_1275666" data-name="Trazado 1275666" d="M151.821,132.124c.026.005.053.01.079.018-.026-.008-.052-.013-.079-.018" transform="translate(-124.904 -108.699)" fill="#444"/>
        <path id="Trazado_1275667" data-name="Trazado 1275667" d="M146.95,133.834c.014-.02.026-.04.041-.059-.015.018-.027.039-.041.059" transform="translate(-120.896 -110.057)" fill="#444"/>
        <path id="Trazado_1275668" data-name="Trazado 1275668" d="M154.271,133.435c.02.02.04.038.058.06-.018-.021-.038-.04-.058-.06" transform="translate(-126.919 -109.778)" fill="#444"/>
        <path id="Trazado_1275669" data-name="Trazado 1275669" d="M101.572,269.687l.018.006-.018-.006" transform="translate(-83.564 -221.873)" fill="#444"/>
        <path id="Trazado_1275670" data-name="Trazado 1275670" d="M91.571,220.155a13.137,13.137,0,0,1-1.444-6.9,20.649,20.649,0,0,1,4.727,2.069.849.849,0,0,1-.365-.7v-1.447a22.352,22.352,0,0,0-2.381-1.051,8.642,8.642,0,0,1-.555.95.851.851,0,0,1-1.4-.975,5.656,5.656,0,0,0,.313-.52c-.294-.086-.59-.167-.889-.241a.851.851,0,0,0-1.049.714,15.443,15.443,0,0,0-.13,2.038c.042-.036.085-.07.126-.107a.851.851,0,0,1,1.124,1.278,10.142,10.142,0,0,1-1.115.852,14.734,14.734,0,0,0,.883,3.422.845.845,0,0,1,.161.022c.676.168,1.339.368,1.989.593" transform="translate(-72.729 -173.852)" fill="#444"/>
        <path id="Trazado_1275671" data-name="Trazado 1275671" d="M126.294,227.775a.848.848,0,0,1-1.3.72,17.518,17.518,0,0,1,3.74,2.994v5.857l0,0v-6.192a.851.851,0,0,1,.218-.569c.2-.225.414-.445.63-.662a19.261,19.261,0,0,0-3.292-2.627Z" transform="translate(-102.833 -187.001)" fill="#444"/>
        <path id="Trazado_1275672" data-name="Trazado 1275672" d="M123.093,223.961l.037.023a.847.847,0,0,0,1.3-.72v-.475q-.82-.522-1.7-.972v1.447a.849.849,0,0,0,.365.7" transform="translate(-100.969 -182.49)" fill="#444"/>
        <path id="Trazado_1275673" data-name="Trazado 1275673" d="M91.56,266.523a13.14,13.14,0,0,1-1.445-6.9q.308.091.611.192a.847.847,0,0,1-.5-.4,13.822,13.822,0,0,1-.817-1.729.848.848,0,0,0-.888.737,15.138,15.138,0,0,0,.888,7.483.859.859,0,0,1,.161.022c.676.168,1.339.368,1.99.593" transform="translate(-72.718 -212)" fill="#444"/>
        <path id="Trazado_1275674" data-name="Trazado 1275674" d="M101.59,316.055l-.019-.006.019.006" transform="translate(-83.563 -260.015)" fill="#444"/>
        <path id="Trazado_1275675" data-name="Trazado 1275675" d="M109.554,267.236c0-.021,0-.041.006-.062a.84.84,0,0,1-.009-.093V265.2a21.194,21.194,0,0,0-7.06-4.043c.049.094.1.187.15.28a.85.85,0,0,1-.965,1.238,18.982,18.982,0,0,1,7.875,4.888v5.858l0,0Z" transform="translate(-83.649 -214.859)" fill="#444"/>
        <path id="Trazado_1275676" data-name="Trazado 1275676" d="M95.462,259.819l.018.006a.85.85,0,0,0,.965-1.238c-.052-.092-.1-.186-.15-.279-.65-.225-1.313-.425-1.989-.593a.846.846,0,0,0-.161-.022,13.843,13.843,0,0,0,.817,1.729.847.847,0,0,0,.5.4" transform="translate(-77.453 -212.005)" fill="#444"/>
        <path id="Trazado_1275677" data-name="Trazado 1275677" d="M146.1,285.933c0-.006,0-.013,0-.019,0-.025-.007-.048-.007-.074v-1.873l0,0v1.877a.838.838,0,0,0,.009.093" transform="translate(-120.189 -233.618)" fill="#444"/>
        <path id="Trazado_1275678" data-name="Trazado 1275678" d="M98.622,318.8v-8.065c0-.021,0-.041.006-.062a.838.838,0,0,1-.009-.093v-1.876a21.194,21.194,0,0,0-7.059-4.043c.049.094.1.187.15.279a.85.85,0,0,1-.965,1.238,18.978,18.978,0,0,1,7.874,4.888v6.867a8.228,8.228,0,0,1-5.5-2.8,12.556,12.556,0,0,1-3.008-9.152q.308.091.611.192a.846.846,0,0,1-.5-.4,13.837,13.837,0,0,1-.817-1.729.848.848,0,0,0-.888.737,14.424,14.424,0,0,0,3.341,11.494,9.82,9.82,0,0,0,7.315,3.379c.1,0,.2,0,.294,0h-.027a.851.851,0,0,1-.822-.85" transform="translate(-72.717 -250.143)" fill="#444"/>
        <path id="Trazado_1275679" data-name="Trazado 1275679" d="M95.462,306.182l.019.006a.851.851,0,0,0,.965-1.238c-.052-.092-.1-.186-.15-.279-.65-.225-1.313-.425-1.99-.593a.854.854,0,0,0-.161-.022,13.841,13.841,0,0,0,.817,1.729.847.847,0,0,0,.5.4" transform="translate(-77.454 -250.148)" fill="#444"/>
        <path id="Trazado_1275680" data-name="Trazado 1275680" d="M146.095,332.2v-1.873l0,0V332.2a.842.842,0,0,0,.009.093l0-.019c0-.025-.007-.048-.007-.074" transform="translate(-120.19 -271.761)" fill="#444"/>
        <path id="Trazado_1275681" data-name="Trazado 1275681" d="M160.455,214.259a.851.851,0,0,1,1.2-.111c.106.088.213.171.322.253a15.475,15.475,0,0,0-.128-2.343.851.851,0,0,0-1.049-.715c-.419.1-.836.224-1.25.353a5.659,5.659,0,0,0,.313.535.851.851,0,0,1-1.4.964,8.47,8.47,0,0,1-.532-.931c-.14.055-.28.107-.418.165q-.831.346-1.62.752v1.445a.851.851,0,0,1-1.7,0v-.469a19.3,19.3,0,0,0-3.29,2.62c.217.217.429.436.632.662a.851.851,0,0,1,.218.569V224.2l0,0v-5.857a18.6,18.6,0,0,1,6.413-4.34,21.278,21.278,0,0,1,2.091-.745,13.43,13.43,0,0,1-.391,4.152,12.518,12.518,0,0,1-1.053,2.747c.65-.225,1.313-.425,1.989-.593a.855.855,0,0,1,.162-.022,14.527,14.527,0,0,0,.552-1.712,15.066,15.066,0,0,0,.3-1.489,9.917,9.917,0,0,1-1.246-.882.851.851,0,0,1-.111-1.2" transform="translate(-124.143 -173.852)" fill="#444"/>
        <path id="Trazado_1275682" data-name="Trazado 1275682" d="M200.125,269.693l.019-.006-.019.006" transform="translate(-164.644 -221.873)" fill="#444"/>
        <path id="Trazado_1275683" data-name="Trazado 1275683" d="M146.111,243.347v6.192q.44.387.849.8.409-.41.849-.8v-6.192a.852.852,0,0,0-.218-.569c-.2-.225-.415-.445-.632-.662-.217.217-.428.437-.63.662a.852.852,0,0,0-.218.569" transform="translate(-120.206 -199.19)" fill="#444"/>
        <path id="Trazado_1275684" data-name="Trazado 1275684" d="M146.118,285.93a.848.848,0,0,1,.211-.488c.2-.225.415-.445.631-.661q-.41-.41-.849-.8v1.873c0,.025.005.049.007.074" transform="translate(-120.206 -233.634)" fill="#444"/>
        <path id="Trazado_1275685" data-name="Trazado 1275685" d="M196.361,259.813q.3-.1.61-.192a13.138,13.138,0,0,1-1.444,6.9c.65-.225,1.313-.425,1.99-.593a.856.856,0,0,1,.161-.022,15.138,15.138,0,0,0,.888-7.483.848.848,0,0,0-.887-.737,13.806,13.806,0,0,1-.818,1.729.847.847,0,0,1-.5.4" transform="translate(-160.861 -211.999)" fill="#444"/>
        <path id="Trazado_1275686" data-name="Trazado 1275686" d="M200.128,316.057l.017-.005-.017.005" transform="translate(-164.646 -260.017)" fill="#444"/>
        <path id="Trazado_1275687" data-name="Trazado 1275687" d="M155.658,267.173c0,.021.006.041.006.062v6.192l0,0v-5.857a18.977,18.977,0,0,1,7.874-4.888.85.85,0,0,1-.965-1.238c.052-.092.1-.186.151-.28a21.194,21.194,0,0,0-7.06,4.043v1.877a.838.838,0,0,1-.009.093" transform="translate(-128.061 -214.858)" fill="#444"/>
        <path id="Trazado_1275688" data-name="Trazado 1275688" d="M146.962,295.829h0a.848.848,0,0,1-.842-.758c0,.021-.006.041-.006.062v6.192q.44.387.849.8.409-.41.849-.8v-6.192c0-.021,0-.041-.006-.062a.848.848,0,0,1-.842.758" transform="translate(-120.206 -242.756)" fill="#444"/>
        <path id="Trazado_1275689" data-name="Trazado 1275689" d="M146.985,295.742h0a.848.848,0,0,1-.842-.777c0,.006,0,.012,0,.019a.848.848,0,0,0,.842.758" transform="translate(-120.232 -242.669)" fill="#444"/>
        <path id="Trazado_1275690" data-name="Trazado 1275690" d="M146.111,332.218c0,.025.005.049.007.074a.849.849,0,0,1,.211-.488c.2-.225.415-.445.631-.661q-.41-.41-.849-.8Z" transform="translate(-120.206 -271.776)" fill="#444"/>
        <path id="Trazado_1275691" data-name="Trazado 1275691" d="M155.648,285.914l0,.019a.839.839,0,0,0,.009-.092v-1.877l0,0v1.874c0,.025-.005.049-.007.074" transform="translate(-128.052 -233.618)" fill="#444"/>
        <path id="Trazado_1275692" data-name="Trazado 1275692" d="M194.324,258.308c-.049.094-.1.188-.151.28a.85.85,0,0,0,.965,1.238l.019-.006a.847.847,0,0,0,.5-.4,13.792,13.792,0,0,0,.818-1.729.839.839,0,0,0-.162.022c-.676.168-1.339.368-1.989.593" transform="translate(-159.657 -212.005)" fill="#444"/>
        <path id="Trazado_1275693" data-name="Trazado 1275693" d="M151.531,285.442a.847.847,0,0,1,.211.488c0-.025.007-.048.007-.074v-1.873q-.44.387-.849.8c.216.216.428.436.631.661" transform="translate(-124.146 -233.634)" fill="#444"/>
        <path id="Trazado_1275694" data-name="Trazado 1275694" d="M150.9,295.742h0a.848.848,0,0,0,.842-.758l0-.019a.848.848,0,0,1-.842.777" transform="translate(-124.146 -242.669)" fill="#444"/>
        <path id="Trazado_1275695" data-name="Trazado 1275695" d="M146.363,289.141a.845.845,0,1,0,1.262,0c-.2-.226-.415-.445-.631-.661-.216.216-.428.436-.631.661" transform="translate(-120.24 -237.334)" fill="#444"/>
        <path id="Trazado_1275696" data-name="Trazado 1275696" d="M159.645,306.178q.3-.1.612-.192a12.556,12.556,0,0,1-3.008,9.152,8.227,8.227,0,0,1-5.5,2.8v-6.867a18.976,18.976,0,0,1,7.875-4.888.85.85,0,0,1-.966-1.238c.052-.092.1-.186.15-.279a21.193,21.193,0,0,0-7.059,4.043v1.876a.846.846,0,0,1-.009.093c0,.021.006.041.006.062v8.065a.851.851,0,0,1-.822.85H150.9q.147,0,.294,0a9.821,9.821,0,0,0,7.315-3.379,14.424,14.424,0,0,0,3.341-11.494.847.847,0,0,0-.888-.737,13.835,13.835,0,0,1-.817,1.729.848.848,0,0,1-.5.4" transform="translate(-124.146 -250.144)" fill="#444"/>
        <path id="Trazado_1275697" data-name="Trazado 1275697" d="M147.809,349.559v-8.065c0-.021,0-.041-.006-.062a.848.848,0,0,1-.842.758h0a.848.848,0,0,1-.842-.758c0,.021-.006.041-.006.062v8.065a.851.851,0,0,0,.822.85h.054a.851.851,0,0,0,.822-.85m-.851,0h0Z" transform="translate(-120.206 -280.898)" fill="#444"/>
        <path id="Trazado_1275698" data-name="Trazado 1275698" d="M146.145,341.326l0,.019a.848.848,0,0,0,.842.758h0a.848.848,0,0,1-.842-.777" transform="translate(-120.232 -280.81)" fill="#444"/>
        <path id="Trazado_1275699" data-name="Trazado 1275699" d="M155.655,332.2c0,.025-.005.049-.007.074l0,.019a.842.842,0,0,0,.009-.093v-1.877l0,0Z" transform="translate(-128.052 -271.761)" fill="#444"/>
        <path id="Trazado_1275700" data-name="Trazado 1275700" d="M194.322,304.672c-.049.094-.1.187-.15.279a.85.85,0,0,0,.966,1.237l.017-.005a.848.848,0,0,0,.5-.4,13.837,13.837,0,0,0,.817-1.729.859.859,0,0,0-.161.022c-.676.168-1.339.368-1.99.593" transform="translate(-159.656 -250.149)" fill="#444"/>
        <path id="Trazado_1275701" data-name="Trazado 1275701" d="M151.531,331.8a.847.847,0,0,1,.211.488c0-.025.007-.049.007-.074v-1.873q-.44.387-.849.8c.216.216.428.436.631.661" transform="translate(-124.146 -271.776)" fill="#444"/>
        <path id="Trazado_1275702" data-name="Trazado 1275702" d="M150.9,342.1h0a.848.848,0,0,0,.842-.758c0-.006,0-.012,0-.019a.848.848,0,0,1-.842.777" transform="translate(-124.146 -280.81)" fill="#444"/>
        <path id="Trazado_1275703" data-name="Trazado 1275703" d="M147.836,335.992a.848.848,0,0,0-.211-.488c-.2-.225-.415-.445-.631-.661-.216.216-.428.436-.631.661a.808.808,0,1,0,1.473.488" transform="translate(-120.241 -275.476)" fill="#444"/>
        <path id="Trazado_1275704" data-name="Trazado 1275704" d="M146.657,134.191a.849.849,0,0,1,.052-.082.86.86,0,0,0-.052.082" transform="translate(-120.655 -110.332)" fill="#444"/>
        <path id="Trazado_1275705" data-name="Trazado 1275705" d="M147.182,133.49c.018-.022.039-.041.059-.061a.843.843,0,0,0-.059.061" transform="translate(-121.087 -109.773)" fill="#444"/>
        <path id="Trazado_1275706" data-name="Trazado 1275706" d="M147.85,132.91c.019-.016.041-.029.061-.043-.021.014-.042.027-.061.043" transform="translate(-121.637 -109.31)" fill="#444"/>
        <path id="Trazado_1275707" data-name="Trazado 1275707" d="M154.6,133.774c.016.019.028.04.042.06-.014-.02-.026-.041-.042-.06" transform="translate(-127.188 -110.056)" fill="#444"/>
        <path id="Trazado_1275708" data-name="Trazado 1275708" d="M148.66,132.431l-.015.01c.022-.012.046-.021.069-.031-.018.007-.036.012-.054.021" transform="translate(-122.291 -108.934)" fill="#444"/>
        <path id="Trazado_1275709" data-name="Trazado 1275709" d="M153.134,132.58a.867.867,0,0,1,.081.052.871.871,0,0,0-.081-.052" transform="translate(-125.984 -109.074)" fill="#444"/>
        <path id="Trazado_1275710" data-name="Trazado 1275710" d="M150.423,132.035c.028,0,.055,0,.083,0-.028,0-.055,0-.083,0" transform="translate(-123.754 -108.623)" fill="#444"/>
        <path id="Trazado_1275711" data-name="Trazado 1275711" d="M149.513,132.141a.823.823,0,0,1,.08-.018c-.027.005-.054.01-.08.018" transform="translate(-123.005 -108.698)" fill="#444"/>
        <path id="Trazado_1275712" data-name="Trazado 1275712" d="M151.355,132.047a.828.828,0,0,1,.083.014c-.027-.005-.055-.011-.083-.014" transform="translate(-124.52 -108.636)" fill="#444"/>
        <path id="Trazado_1275713" data-name="Trazado 1275713" d="M153.928,133.1c.022.018.041.039.061.059a.817.817,0,0,0-.061-.059" transform="translate(-126.637 -109.506)" fill="#444"/>
        <path id="Trazado_1275714" data-name="Trazado 1275714" d="M152.265,132.225a.86.86,0,0,1,.087.033.8.8,0,0,0-.087-.033" transform="translate(-125.269 -108.782)" fill="#444"/>
        <path id="Trazado_1275715" data-name="Trazado 1275715" d="M151.65,135.35l-.76,1.51.151.3c2.142,4.255,3.14,7.711,3.14,10.877v2.979q.82-.521,1.7-.976v-2c0-3.442-1.056-7.141-3.322-11.643l-.911-1.81-.01-.015a.849.849,0,0,1,.01.781" transform="translate(-124.138 -110.711)" fill="#444"/>
        <path id="Trazado_1275716" data-name="Trazado 1275716" d="M146.183,133.263l.76,1.51.76-1.51a.848.848,0,0,0-.01-.781.83.83,0,0,0-.051-.081c-.014-.02-.026-.041-.042-.06s-.038-.04-.058-.06-.039-.041-.061-.059-.04-.028-.059-.041a.95.95,0,0,0-.081-.052c-.022-.011-.045-.02-.067-.029a.884.884,0,0,0-.087-.033c-.026-.008-.052-.013-.079-.018a.823.823,0,0,0-.083-.014c-.027,0-.054,0-.082,0s-.056,0-.084,0-.054.008-.081.014-.054.01-.08.018a.787.787,0,0,0-.085.032c-.023.01-.047.019-.069.031a.788.788,0,0,0-.079.051c-.021.014-.042.027-.061.043a.784.784,0,0,0-.059.057.8.8,0,0,0-.059.061c-.015.019-.027.039-.041.059a.877.877,0,0,0-.052.082.848.848,0,0,0-.01.78" transform="translate(-120.191 -108.624)" fill="#444"/>
        <path id="Trazado_1275717" data-name="Trazado 1275717" d="M169.453,223.275a.851.851,0,1,0,1.7,0V221.83q-.882.453-1.7.976Z" transform="translate(-139.41 -182.5)" fill="#444"/>
        <path id="Trazado_1275718" data-name="Trazado 1275718" d="M333.574,133.438c.019.02.04.038.057.06-.017-.021-.038-.04-.057-.06" transform="translate(-274.433 -109.78)" fill="#444"/>
        <path id="Trazado_1275719" data-name="Trazado 1275719" d="M334.135,134.114a.824.824,0,0,1,.051.081.846.846,0,0,0-.051-.081" transform="translate(-274.894 -110.336)" fill="#444"/>
        <path id="Trazado_1275720" data-name="Trazado 1275720" d="M332.9,132.874c.02.013.04.026.059.041-.018-.015-.039-.027-.059-.041" transform="translate(-273.876 -109.316)" fill="#444"/>
        <path id="Trazado_1275721" data-name="Trazado 1275721" d="M303.73,148.038c0-3.166,1-6.622,3.14-10.877l.151-.3-.76-1.51a.848.848,0,0,1,.01-.78c0,.005-.007.01-.01.015l-.911,1.81c-2.266,4.5-3.322,8.2-3.322,11.643v2q.88.452,1.7.972Z" transform="translate(-248.48 -110.711)" fill="#444"/>
        <path id="Trazado_1275722" data-name="Trazado 1275722" d="M304.086,233.91l.038.023-.038-.023" transform="translate(-250.173 -192.439)" fill="#444"/>
        <path id="Trazado_1275723" data-name="Trazado 1275723" d="M331.123,132.125c.026.005.053.01.079.018-.026-.008-.052-.013-.079-.018" transform="translate(-272.416 -108.7)" fill="#444"/>
        <path id="Trazado_1275724" data-name="Trazado 1275724" d="M330.2,132.032c.027,0,.055,0,.082,0-.027,0-.054,0-.082,0" transform="translate(-271.653 -108.623)" fill="#444"/>
        <path id="Trazado_1275725" data-name="Trazado 1275725" d="M327.495,132.632a.8.8,0,0,1,.08-.051.88.88,0,0,0-.08.051" transform="translate(-269.432 -109.075)" fill="#444"/>
        <path id="Trazado_1275726" data-name="Trazado 1275726" d="M329.267,132.06c.027-.005.054-.011.081-.013-.028,0-.054.008-.081.013" transform="translate(-270.889 -108.636)" fill="#444"/>
        <path id="Trazado_1275727" data-name="Trazado 1275727" d="M328.333,132.259a.873.873,0,0,1,.085-.032.825.825,0,0,0-.085.032" transform="translate(-270.121 -108.784)" fill="#444"/>
        <path id="Trazado_1275728" data-name="Trazado 1275728" d="M326.816,133.163c.02-.019.038-.04.06-.057-.021.017-.04.038-.06.057" transform="translate(-268.873 -109.507)" fill="#444"/>
        <path id="Trazado_1275729" data-name="Trazado 1275729" d="M332.109,132.434c-.017-.008-.035-.013-.052-.02.023.01.045.018.067.029l-.015-.01" transform="translate(-273.185 -108.938)" fill="#444"/>
        <path id="Trazado_1275730" data-name="Trazado 1275730" d="M326.25,133.834c.014-.02.026-.041.041-.059-.015.019-.028.04-.041.059" transform="translate(-268.407 -110.057)" fill="#444"/>
        <path id="Trazado_1275731" data-name="Trazado 1275731" d="M305.6,227.775a.848.848,0,0,1-1.3.721,17.507,17.507,0,0,1,3.74,2.994v5.857l0,0v-6.192a.85.85,0,0,1,.218-.569c.2-.226.415-.445.631-.661A19.254,19.254,0,0,0,305.6,227.3Z" transform="translate(-250.348 -187.001)" fill="#444"/>
        <path id="Trazado_1275732" data-name="Trazado 1275732" d="M281.175,217.551a20.5,20.5,0,0,1,4.062,1.858.849.849,0,0,1-.365-.7v-1.447a22.3,22.3,0,0,0-2.2-.981,7.29,7.29,0,0,1-.606.982.851.851,0,0,1-.894.285" transform="translate(-231.324 -177.938)" fill="#444"/>
        <path id="Trazado_1275733" data-name="Trazado 1275733" d="M280.872,269.687l.019.006-.019-.006" transform="translate(-231.075 -221.873)" fill="#444"/>
        <path id="Trazado_1275734" data-name="Trazado 1275734" d="M270.87,220.155a13.136,13.136,0,0,1-1.444-6.9q.329.1.654.206a.849.849,0,0,1-.421-1.349,4.127,4.127,0,0,0,.3-.472c-.355-.106-.712-.208-1.074-.3a.851.851,0,0,0-1.049.714,15.462,15.462,0,0,0-.129,2.235c.1-.077.2-.157.293-.24a.851.851,0,0,1,1.11,1.29,9.992,9.992,0,0,1-1.251.918,14.707,14.707,0,0,0,.865,3.279.845.845,0,0,1,.161.022c.676.168,1.339.368,1.989.593" transform="translate(-220.239 -173.852)" fill="#444"/>
        <path id="Trazado_1275735" data-name="Trazado 1275735" d="M302.393,223.96l.038.023a.848.848,0,0,0,1.3-.721v-.475q-.82-.522-1.7-.972v1.447a.849.849,0,0,0,.365.7" transform="translate(-248.48 -182.489)" fill="#444"/>
        <path id="Trazado_1275736" data-name="Trazado 1275736" d="M288.855,267.236c0-.021,0-.041.006-.061a.842.842,0,0,1-.009-.093V265.2a21.194,21.194,0,0,0-7.059-4.043c.049.094.1.187.15.279a.85.85,0,0,1-.965,1.238,18.979,18.979,0,0,1,7.874,4.888v5.858l0,0Z" transform="translate(-231.161 -214.859)" fill="#444"/>
        <path id="Trazado_1275737" data-name="Trazado 1275737" d="M270.861,266.523a13.138,13.138,0,0,1-1.444-6.9q.307.091.611.192a.848.848,0,0,1-.5-.4,13.837,13.837,0,0,1-.817-1.729.848.848,0,0,0-.888.737,15.14,15.14,0,0,0,.888,7.483.857.857,0,0,1,.161.022c.677.168,1.34.368,1.99.593" transform="translate(-220.23 -212)" fill="#444"/>
        <path id="Trazado_1275738" data-name="Trazado 1275738" d="M280.891,316.055l-.019-.006.019.006" transform="translate(-231.075 -260.015)" fill="#444"/>
        <path id="Trazado_1275739" data-name="Trazado 1275739" d="M274.763,259.819l.019.006a.85.85,0,0,0,.965-1.238c-.052-.092-.1-.186-.15-.279-.65-.225-1.313-.425-1.989-.593a.845.845,0,0,0-.161-.022,13.842,13.842,0,0,0,.817,1.729.847.847,0,0,0,.5.4" transform="translate(-224.965 -212.005)" fill="#444"/>
        <path id="Trazado_1275740" data-name="Trazado 1275740" d="M325.4,285.933l0-.019c0-.025-.007-.048-.007-.074v-1.873l0,0v1.877a.849.849,0,0,0,.009.093" transform="translate(-267.701 -233.618)" fill="#444"/>
        <path id="Trazado_1275741" data-name="Trazado 1275741" d="M277.923,318.8v-8.065c0-.021,0-.041.006-.061a.855.855,0,0,1-.009-.093v-1.876a21.2,21.2,0,0,0-7.059-4.043c.049.094.1.187.15.279a.851.851,0,0,1-.965,1.238,18.976,18.976,0,0,1,7.874,4.888v6.867a8.228,8.228,0,0,1-5.5-2.8,12.556,12.556,0,0,1-3.008-9.152q.308.091.611.192a.848.848,0,0,1-.5-.4,13.845,13.845,0,0,1-.817-1.729.848.848,0,0,0-.888.737,14.424,14.424,0,0,0,3.341,11.494,9.82,9.82,0,0,0,7.315,3.379c.1,0,.2,0,.294,0h-.027a.851.851,0,0,1-.822-.85" transform="translate(-220.229 -250.143)" fill="#444"/>
        <path id="Trazado_1275742" data-name="Trazado 1275742" d="M325.395,332.2v-1.873l0,0V332.2a.852.852,0,0,0,.009.093c0-.007,0-.013,0-.019,0-.025-.007-.048-.007-.074" transform="translate(-267.701 -271.761)" fill="#444"/>
        <path id="Trazado_1275743" data-name="Trazado 1275743" d="M274.763,306.182l.019.006a.85.85,0,0,0,.965-1.238c-.052-.092-.1-.186-.15-.279-.65-.225-1.313-.425-1.989-.593a.841.841,0,0,0-.161-.022,13.877,13.877,0,0,0,.817,1.729.847.847,0,0,0,.5.4" transform="translate(-224.966 -250.148)" fill="#444"/>
        <path id="Trazado_1275744" data-name="Trazado 1275744" d="M339.787,214.038a.851.851,0,0,1,1.2-.072c.1.085.194.167.293.247a15.461,15.461,0,0,0-.129-2.156.851.851,0,0,0-1.049-.715c-.334.083-.664.176-.992.273a4.506,4.506,0,0,0,.312.476.851.851,0,0,1-1.339,1.05,7.467,7.467,0,0,1-.614-.972,22.352,22.352,0,0,0-2.277,1.012v1.445a.851.851,0,1,1-1.7,0v-.472a19.261,19.261,0,0,0-3.289,2.625c.216.216.428.436.631.661a.85.85,0,0,1,.218.569V224.2l0,0V218.34a19.156,19.156,0,0,1,8.5-5.086,13.139,13.139,0,0,1-1.444,6.9c.65-.225,1.313-.425,1.989-.593a.828.828,0,0,1,.161-.022,14.716,14.716,0,0,0,.872-3.337,10.111,10.111,0,0,1-1.277-.963.851.851,0,0,1-.072-1.2" transform="translate(-271.658 -173.852)" fill="#444"/>
        <path id="Trazado_1275745" data-name="Trazado 1275745" d="M379.425,269.692l.019-.006-.019.006" transform="translate(-312.155 -221.872)" fill="#444"/>
        <path id="Trazado_1275746" data-name="Trazado 1275746" d="M325.631,242.781a.851.851,0,0,0-.218.569v6.192q.44.387.849.8.409-.41.849-.8V243.35a.851.851,0,0,0-.218-.569c-.2-.225-.415-.445-.631-.661-.216.216-.428.436-.631.661" transform="translate(-267.719 -199.193)" fill="#444"/>
        <path id="Trazado_1275747" data-name="Trazado 1275747" d="M325.419,285.93a.849.849,0,0,1,.211-.488c.2-.225.415-.445.631-.661q-.409-.41-.849-.8v1.873c0,.025.005.049.007.074" transform="translate(-267.718 -233.634)" fill="#444"/>
        <path id="Trazado_1275748" data-name="Trazado 1275748" d="M334.959,267.174c0,.021.006.041.006.061v6.192l0,0v-5.858a18.979,18.979,0,0,1,7.874-4.888.85.85,0,0,1-.965-1.238c.052-.092.1-.186.15-.28a21.191,21.191,0,0,0-7.059,4.043v1.877a.848.848,0,0,1-.009.093" transform="translate(-275.572 -214.859)" fill="#444"/>
        <path id="Trazado_1275749" data-name="Trazado 1275749" d="M375.661,259.814q.3-.1.61-.192a13.136,13.136,0,0,1-1.445,6.9c.65-.225,1.313-.425,1.99-.593a.854.854,0,0,1,.161-.022,15.139,15.139,0,0,0,.888-7.483.848.848,0,0,0-.888-.737,13.835,13.835,0,0,1-.817,1.729.847.847,0,0,1-.5.4" transform="translate(-308.372 -212)" fill="#444"/>
        <path id="Trazado_1275750" data-name="Trazado 1275750" d="M379.428,316.056l.017-.005-.017.005" transform="translate(-312.157 -260.017)" fill="#444"/>
        <path id="Trazado_1275751" data-name="Trazado 1275751" d="M326.263,295.831h0a.848.848,0,0,1-.842-.758c0,.021-.006.041-.006.061v6.192q.44.387.849.8.41-.41.849-.8v-6.192c0-.021,0-.041-.006-.061a.848.848,0,0,1-.842.758" transform="translate(-267.718 -242.758)" fill="#444"/>
        <path id="Trazado_1275752" data-name="Trazado 1275752" d="M326.286,295.742h0a.848.848,0,0,1-.842-.777l0,.019a.848.848,0,0,0,.842.758" transform="translate(-267.744 -242.669)" fill="#444"/>
        <path id="Trazado_1275753" data-name="Trazado 1275753" d="M325.412,332.218c0,.025.005.049.007.074a.849.849,0,0,1,.211-.488c.2-.225.415-.445.631-.661q-.409-.41-.849-.8Z" transform="translate(-267.718 -271.776)" fill="#444"/>
        <path id="Trazado_1275754" data-name="Trazado 1275754" d="M334.949,285.914c0,.006,0,.013,0,.019a.846.846,0,0,0,.009-.093v-1.877l0,0v1.874c0,.025-.005.049-.007.074" transform="translate(-275.564 -233.618)" fill="#444"/>
        <path id="Trazado_1275755" data-name="Trazado 1275755" d="M373.624,258.309c-.049.094-.1.187-.15.279a.851.851,0,0,0,.965,1.238l.019-.006a.847.847,0,0,0,.5-.4,13.882,13.882,0,0,0,.817-1.729.854.854,0,0,0-.161.022c-.676.168-1.339.368-1.989.593" transform="translate(-307.169 -212.006)" fill="#444"/>
        <path id="Trazado_1275756" data-name="Trazado 1275756" d="M330.832,285.442a.848.848,0,0,1,.211.488c0-.025.007-.048.007-.074v-1.873q-.44.387-.849.8c.216.216.428.436.631.661" transform="translate(-271.658 -233.634)" fill="#444"/>
        <path id="Trazado_1275757" data-name="Trazado 1275757" d="M330.2,295.742h0a.848.848,0,0,0,.842-.758c0-.006,0-.013,0-.019a.848.848,0,0,1-.842.777" transform="translate(-271.659 -242.669)" fill="#444"/>
        <path id="Trazado_1275758" data-name="Trazado 1275758" d="M325.666,289.141a.845.845,0,1,0,1.262,0c-.2-.225-.415-.445-.631-.661-.216.216-.428.436-.631.661" transform="translate(-267.753 -237.334)" fill="#444"/>
        <path id="Trazado_1275759" data-name="Trazado 1275759" d="M338.946,306.177q.3-.1.612-.192a12.554,12.554,0,0,1-3.008,9.152,8.225,8.225,0,0,1-5.5,2.8V311.07a18.977,18.977,0,0,1,7.875-4.888.851.851,0,0,1-.966-1.238c.052-.092.1-.186.15-.279a21.193,21.193,0,0,0-7.059,4.043v1.876a.766.766,0,0,1-.01.093c0,.021.006.041.006.062V318.8a.851.851,0,0,1-.822.85H330.2c.1,0,.2,0,.294,0a9.822,9.822,0,0,0,7.316-3.379,14.424,14.424,0,0,0,3.341-11.494.847.847,0,0,0-.888-.737,13.88,13.88,0,0,1-.817,1.729.849.849,0,0,1-.5.4" transform="translate(-271.659 -250.143)" fill="#444"/>
        <path id="Trazado_1275760" data-name="Trazado 1275760" d="M327.11,349.562V341.5c0-.021,0-.041-.006-.061a.848.848,0,0,1-.842.758h0a.848.848,0,0,1-.842-.758c0,.021-.006.041-.006.061v8.065a.851.851,0,0,0,.822.85h.054a.851.851,0,0,0,.822-.85m-.851,0h0Z" transform="translate(-267.718 -280.9)" fill="#444"/>
        <path id="Trazado_1275761" data-name="Trazado 1275761" d="M325.446,341.326l0,.019a.848.848,0,0,0,.842.758h0a.848.848,0,0,1-.842-.777" transform="translate(-267.744 -280.81)" fill="#444"/>
        <path id="Trazado_1275762" data-name="Trazado 1275762" d="M334.956,332.2c0,.025-.005.049-.007.074,0,.006,0,.013,0,.019a.844.844,0,0,0,.009-.093v-1.877l0,0Z" transform="translate(-275.564 -271.761)" fill="#444"/>
        <path id="Trazado_1275763" data-name="Trazado 1275763" d="M373.623,304.672c-.049.093-.1.187-.15.279a.851.851,0,0,0,.966,1.238l.017-.005a.848.848,0,0,0,.5-.4,13.829,13.829,0,0,0,.817-1.729.854.854,0,0,0-.16.022c-.677.168-1.34.368-1.99.593" transform="translate(-307.167 -250.149)" fill="#444"/>
        <path id="Trazado_1275764" data-name="Trazado 1275764" d="M330.832,331.8a.848.848,0,0,1,.211.488c0-.025.007-.049.007-.074v-1.873q-.44.387-.849.8c.216.216.428.436.631.661" transform="translate(-271.658 -271.776)" fill="#444"/>
        <path id="Trazado_1275765" data-name="Trazado 1275765" d="M330.2,342.1h0a.848.848,0,0,0,.841-.758c0-.006,0-.013,0-.019a.848.848,0,0,1-.842.777" transform="translate(-271.659 -280.81)" fill="#444"/>
        <path id="Trazado_1275766" data-name="Trazado 1275766" d="M327.137,335.992a.848.848,0,0,0-.211-.488c-.2-.225-.415-.445-.631-.661-.216.216-.428.436-.631.661a.808.808,0,1,0,1.473.488" transform="translate(-267.752 -275.476)" fill="#444"/>
        <path id="Trazado_1275767" data-name="Trazado 1275767" d="M328.815,132.141a.815.815,0,0,1,.08-.018c-.027.005-.054.01-.08.018" transform="translate(-270.518 -108.698)" fill="#444"/>
        <path id="Trazado_1275768" data-name="Trazado 1275768" d="M327.96,132.431l-.015.01c.022-.012.046-.021.069-.03-.018.007-.036.012-.053.02" transform="translate(-269.802 -108.935)" fill="#444"/>
        <path id="Trazado_1275769" data-name="Trazado 1275769" d="M330.951,135.35l-.76,1.51.151.3c2.142,4.255,3.14,7.711,3.14,10.877v2.976q.82-.522,1.7-.973v-2c0-3.442-1.055-7.141-3.322-11.643l-.911-1.81-.01-.015a.849.849,0,0,1,.01.781" transform="translate(-271.65 -110.711)" fill="#444"/>
        <path id="Trazado_1275770" data-name="Trazado 1275770" d="M325.958,134.191a.879.879,0,0,1,.052-.082.86.86,0,0,0-.052.082" transform="translate(-268.167 -110.332)" fill="#444"/>
        <path id="Trazado_1275771" data-name="Trazado 1275771" d="M326.483,133.491a.835.835,0,0,1,.059-.061.844.844,0,0,0-.059.061" transform="translate(-268.599 -109.773)" fill="#444"/>
        <path id="Trazado_1275772" data-name="Trazado 1275772" d="M329.724,132.035c.027,0,.056,0,.083,0-.028,0-.055,0-.083,0" transform="translate(-271.265 -108.623)" fill="#444"/>
        <path id="Trazado_1275773" data-name="Trazado 1275773" d="M327.151,132.909c.019-.016.04-.028.061-.042-.021.014-.042.027-.061.042" transform="translate(-269.149 -109.31)" fill="#444"/>
        <path id="Trazado_1275774" data-name="Trazado 1275774" d="M333.229,133.1a.834.834,0,0,1,.061.059.837.837,0,0,0-.061-.059" transform="translate(-274.149 -109.506)" fill="#444"/>
        <path id="Trazado_1275775" data-name="Trazado 1275775" d="M333.9,133.773c.016.019.028.04.042.061-.014-.02-.027-.042-.042-.061" transform="translate(-274.699 -110.056)" fill="#444"/>
        <path id="Trazado_1275776" data-name="Trazado 1275776" d="M330.655,132.047a.832.832,0,0,1,.083.014c-.027-.005-.055-.011-.083-.014" transform="translate(-272.031 -108.636)" fill="#444"/>
        <path id="Trazado_1275777" data-name="Trazado 1275777" d="M331.565,132.225a.853.853,0,0,1,.087.033.887.887,0,0,0-.087-.033" transform="translate(-272.78 -108.782)" fill="#444"/>
        <path id="Trazado_1275778" data-name="Trazado 1275778" d="M332.434,132.58a.845.845,0,0,1,.082.052.808.808,0,0,0-.082-.052" transform="translate(-273.495 -109.074)" fill="#444"/>
        <path id="Trazado_1275779" data-name="Trazado 1275779" d="M325.484,133.263l.76,1.51.76-1.51a.848.848,0,0,0-.01-.781.883.883,0,0,0-.051-.08c-.014-.02-.026-.041-.042-.061a.821.821,0,0,0-.057-.059.839.839,0,0,0-.061-.059c-.019-.015-.039-.027-.059-.041a.882.882,0,0,0-.082-.052c-.021-.011-.044-.02-.067-.029a.872.872,0,0,0-.087-.033c-.026-.008-.052-.013-.079-.018a.828.828,0,0,0-.083-.014c-.027,0-.054,0-.082,0s-.056,0-.083,0-.054.008-.081.014a.821.821,0,0,0-.08.018.837.837,0,0,0-.085.033c-.023.01-.046.018-.069.03a.792.792,0,0,0-.08.051c-.02.014-.042.027-.061.042s-.04.038-.059.057a.8.8,0,0,0-.059.061c-.015.019-.028.039-.041.059a.9.9,0,0,0-.052.082.848.848,0,0,0-.01.78" transform="translate(-267.703 -108.624)" fill="#444"/>
        <path id="Trazado_1275780" data-name="Trazado 1275780" d="M348.754,223.272a.851.851,0,1,0,1.7,0v-1.445q-.88.452-1.7.973Z" transform="translate(-286.921 -182.498)" fill="#444"/>
        <path id="Trazado_1275781" data-name="Trazado 1275781" d="M56.777.6a.8.8,0,0,1,.08-.051.876.876,0,0,0-.08.051" transform="translate(-46.711 -0.452)" fill="#444"/>
        <path id="Trazado_1275782" data-name="Trazado 1275782" d="M34.59,96.984c.013.009.027.016.04.025l-.04-.025" transform="translate(-28.457 -79.789)" fill="#444"/>
        <path id="Trazado_1275783" data-name="Trazado 1275783" d="M55.531,1.8c.014-.02.026-.041.041-.06-.015.019-.028.04-.041.06" transform="translate(-45.686 -1.434)" fill="#444"/>
        <path id="Trazado_1275784" data-name="Trazado 1275784" d="M34.238,15.319c0-2.993.944-6.261,2.97-10.286l.1-.205-.76-1.51a.848.848,0,0,1,.01-.781c0,.005-.007.01-.01.015l-.863,1.715c-2.151,4.272-3.152,7.783-3.152,11.052v1.823c.587.3,1.156.622,1.7.97Z" transform="translate(-26.768 -2.087)" fill="#444"/>
        <path id="Trazado_1275785" data-name="Trazado 1275785" d="M58.559.029c.026-.005.052-.01.078-.013-.026,0-.052.008-.078.013" transform="translate(-48.177 -0.013)" fill="#444"/>
        <path id="Trazado_1275786" data-name="Trazado 1275786" d="M56.1,1.132c.02-.02.038-.04.06-.058-.021.018-.04.038-.06.058" transform="translate(-46.15 -0.884)" fill="#444"/>
        <path id="Trazado_1275787" data-name="Trazado 1275787" d="M57.619.227A.9.9,0,0,1,57.7.195a.843.843,0,0,0-.084.032" transform="translate(-47.403 -0.16)" fill="#444"/>
        <path id="Trazado_1275788" data-name="Trazado 1275788" d="M63.415,2.08a.827.827,0,0,1,.052.081.88.88,0,0,0-.052-.081" transform="translate(-52.172 -1.711)" fill="#444"/>
        <path id="Trazado_1275789" data-name="Trazado 1275789" d="M62.854,1.4a.8.8,0,0,1,.058.06c-.018-.021-.038-.04-.058-.06" transform="translate(-51.71 -1.155)" fill="#444"/>
        <path id="Trazado_1275790" data-name="Trazado 1275790" d="M62.178.842c.02.013.04.026.059.041C62.219.868,62.2.855,62.178.842" transform="translate(-51.154 -0.693)" fill="#444"/>
        <path id="Trazado_1275791" data-name="Trazado 1275791" d="M59.489,0c.026,0,.052,0,.078,0a.77.77,0,0,0-.078,0" transform="translate(-48.942 -0.001)" fill="#444"/>
        <path id="Trazado_1275792" data-name="Trazado 1275792" d="M60.416.095c.025.005.051.01.076.017C60.467.1,60.441.1,60.416.095" transform="translate(-49.705 -0.078)" fill="#444"/>
        <path id="Trazado_1275793" data-name="Trazado 1275793" d="M61.395.4c-.017-.008-.034-.012-.051-.02.022.009.045.018.066.029L61.395.4" transform="translate(-50.468 -0.316)" fill="#444"/>
        <path id="Trazado_1275794" data-name="Trazado 1275794" d="M38.337,94.393v5.431l0,0V94.061a.85.85,0,0,1,.218-.569c.2-.225.415-.444.631-.659a18.305,18.305,0,0,0-3.076-2.451v.474a.847.847,0,0,1-1.3.721,16.558,16.558,0,0,1,3.521,2.816" transform="translate(-28.643 -74.358)" fill="#444"/>
        <path id="Trazado_1275795" data-name="Trazado 1275795" d="M1.181,83.851c.648.161,1.283.353,1.905.569a12.4,12.4,0,0,1-1.358-6.442,19.5,19.5,0,0,1,4.411,1.937.849.849,0,0,1-.364-.7V77.773a21.548,21.548,0,0,0-3.948-1.538v.654a.851.851,0,1,1-1.7,0v-.046A14.39,14.39,0,0,0,.954,83.83a.851.851,0,0,1,.227.021" transform="translate(-0.006 -62.719)" fill="#444"/>
        <path id="Trazado_1275796" data-name="Trazado 1275796" d="M12.734,130.945h0" transform="translate(-10.476 -107.729)" fill="#444"/>
        <path id="Trazado_1275797" data-name="Trazado 1275797" d="M32.9,87.051l.04.025a.847.847,0,0,0,1.3-.721v-.474q-.819-.522-1.7-.97v1.444a.849.849,0,0,0,.364.7" transform="translate(-26.768 -69.857)" fill="#444"/>
        <path id="Trazado_1275798" data-name="Trazado 1275798" d="M1.043,33.016a.848.848,0,0,1,.684-.123c.217.054.432.112.646.172V24.613a.851.851,0,0,0-1.7,0v9.059c0-.022,0-.043.007-.065a.852.852,0,0,1,.365-.592" transform="translate(-0.552 -19.549)" fill="#444"/>
        <path id="Trazado_1275799" data-name="Trazado 1275799" d="M1.522,76.823a.851.851,0,0,0,.851-.851v-.654c-.214-.06-.429-.118-.646-.172a.851.851,0,0,0-1.049.715c0,.022,0,.043-.007.065v.046a.851.851,0,0,0,.851.851" transform="translate(-0.552 -61.802)" fill="#444"/>
        <path id="Trazado_1275800" data-name="Trazado 1275800" d="M1.177,126.88c.648.161,1.283.353,1.905.569a12.4,12.4,0,0,1-1.358-6.443c.18.054.358.111.536.17a.849.849,0,0,1-.511-.4,13.146,13.146,0,0,1-.8-1.7.842.842,0,0,0-.821.736,14.393,14.393,0,0,0,.821,7.052.85.85,0,0,1,.227.021" transform="translate(-0.002 -97.96)" fill="#444"/>
        <path id="Trazado_1275801" data-name="Trazado 1275801" d="M20.185,128.187c0-.02,0-.039.005-.058a.852.852,0,0,1-.009-.088v-1.879a20.159,20.159,0,0,0-6.613-3.766c.049.094.1.187.15.28a.851.851,0,0,1-.97,1.237,17.945,17.945,0,0,1,7.433,4.607v5.432l0,0Z" transform="translate(-10.488 -100.696)" fill="#444"/>
        <path id="Trazado_1275802" data-name="Trazado 1275802" d="M12.738,174.874h0" transform="translate(-10.478 -143.869)" fill="#444"/>
        <path id="Trazado_1275803" data-name="Trazado 1275803" d="M54.677,145.519v-1.876l0,0v1.879a.852.852,0,0,0,.009.088l0-.018c0-.023-.007-.046-.007-.07" transform="translate(-44.98 -118.173)" fill="#444"/>
        <path id="Trazado_1275804" data-name="Trazado 1275804" d="M6.654,121.175h0a.851.851,0,0,0,.97-1.237c-.052-.092-.1-.186-.15-.279-.622-.216-1.257-.408-1.905-.569a.843.843,0,0,0-.227-.021,13.154,13.154,0,0,0,.8,1.7.848.848,0,0,0,.511.4" transform="translate(-4.397 -97.959)" fill="#444"/>
        <path id="Trazado_1275805" data-name="Trazado 1275805" d="M9.7,169.38c0-.02,0-.039.005-.058a.85.85,0,0,1-.009-.088v-1.878a20.157,20.157,0,0,0-6.613-3.766c.049.094.1.187.15.279A.851.851,0,0,1,2.26,165.1a17.945,17.945,0,0,1,7.433,4.607v6.441a7.759,7.759,0,0,1-5.129-2.635,11.841,11.841,0,0,1-2.842-8.583c.18.054.359.111.536.17a.848.848,0,0,1-.511-.4,13.146,13.146,0,0,1-.8-1.7.842.842,0,0,0-.821.736A13.712,13.712,0,0,0,3.3,174.661a9.411,9.411,0,0,0,6.393,3.2V169.38Z" transform="translate(0 -134.1)" fill="#444"/>
        <path id="Trazado_1275806" data-name="Trazado 1275806" d="M54.677,189.446v-1.875l0,0v1.878a.85.85,0,0,0,.009.088l0-.018c0-.023-.007-.046-.007-.07" transform="translate(-44.98 -154.313)" fill="#444"/>
        <path id="Trazado_1275807" data-name="Trazado 1275807" d="M6.655,165.1h0a.851.851,0,0,0,.971-1.237c-.052-.092-.1-.186-.15-.28-.623-.216-1.258-.408-1.906-.569A.851.851,0,0,0,5.344,163a13.239,13.239,0,0,0,.8,1.7.849.849,0,0,0,.511.4" transform="translate(-4.397 -134.099)" fill="#444"/>
        <path id="Trazado_1275808" data-name="Trazado 1275808" d="M60.114,93.5a.851.851,0,0,1,.218.569v5.766l0,0V94.4a16.572,16.572,0,0,1,3.545-2.831.851.851,0,0,1-1.326-.706V90.4a18.3,18.3,0,0,0-3.072,2.449c.216.216.429.434.631.659" transform="translate(-48.937 -74.369)" fill="#444"/>
        <path id="Trazado_1275809" data-name="Trazado 1275809" d="M84.294,79.922a19.5,19.5,0,0,1,4.425-1.946,12.4,12.4,0,0,1-1.358,6.442c.622-.216,1.257-.408,1.905-.568a.843.843,0,0,1,.227-.021,14.388,14.388,0,0,0,.828-6.987v.046a.851.851,0,1,1-1.7,0v-.654a21.549,21.549,0,0,0-3.951,1.54v1.442a.85.85,0,0,1-.375.705" transform="translate(-69.349 -62.718)" fill="#444"/>
        <path id="Trazado_1275810" data-name="Trazado 1275810" d="M106.217,130.946h0" transform="translate(-87.385 -107.729)" fill="#444"/>
        <path id="Trazado_1275811" data-name="Trazado 1275811" d="M56.39,111.2v-5.766a.851.851,0,0,0-.218-.569c-.2-.225-.415-.444-.631-.659-.216.216-.429.434-.631.659a.85.85,0,0,0-.218.569V111.2c.294.256.576.522.849.793.273-.272.555-.537.849-.793" transform="translate(-44.995 -85.732)" fill="#444"/>
        <path id="Trazado_1275812" data-name="Trazado 1275812" d="M54.7,145.6a.847.847,0,0,1,.211-.493c.2-.225.415-.444.631-.659-.273-.272-.555-.537-.849-.793v1.876c0,.024.005.046.007.07" transform="translate(-44.996 -118.188)" fill="#444"/>
        <path id="Trazado_1275813" data-name="Trazado 1275813" d="M110.025,33.016a.852.852,0,0,1,.365.592c0,.022,0,.043.007.065V24.613a.851.851,0,1,0-1.7,0v8.452c.214-.06.429-.118.646-.172a.851.851,0,0,1,.684.123" transform="translate(-89.424 -19.549)" fill="#444"/>
        <path id="Trazado_1275814" data-name="Trazado 1275814" d="M109.546,76.824a.851.851,0,0,0,.851-.851v-.046c0-.022,0-.043-.007-.065a.851.851,0,0,0-1.049-.715c-.217.054-.432.112-.646.172v.654a.851.851,0,0,0,.851.851" transform="translate(-89.424 -61.803)" fill="#444"/>
        <path id="Trazado_1275815" data-name="Trazado 1275815" d="M71.684,123.912a.851.851,0,0,1-.97-1.237c.052-.092.1-.186.15-.28a20.158,20.158,0,0,0-6.613,3.766v1.879a.852.852,0,0,1-.009.088c0,.019.005.038.005.058v5.767l0,0v-5.432a17.947,17.947,0,0,1,7.433-4.606" transform="translate(-52.852 -100.696)" fill="#444"/>
        <path id="Trazado_1275816" data-name="Trazado 1275816" d="M102.413,121.176c.177-.059.356-.116.536-.17a12.4,12.4,0,0,1-1.358,6.443c.622-.216,1.258-.408,1.905-.569a.842.842,0,0,1,.227-.021,14.4,14.4,0,0,0,.821-7.053.842.842,0,0,0-.821-.736,13.17,13.17,0,0,1-.8,1.7.849.849,0,0,1-.511.4" transform="translate(-83.579 -97.96)" fill="#444"/>
        <path id="Trazado_1275817" data-name="Trazado 1275817" d="M106.216,174.873h0" transform="translate(-87.384 -143.868)" fill="#444"/>
        <path id="Trazado_1275818" data-name="Trazado 1275818" d="M55.544,155.5h0a.848.848,0,0,1-.842-.763c0,.02-.005.038-.005.058v5.767c.294.256.576.522.849.793.273-.272.555-.537.849-.794v-5.766c0-.02,0-.038-.005-.058a.848.848,0,0,1-.842.763" transform="translate(-44.996 -127.3)" fill="#444"/>
        <path id="Trazado_1275819" data-name="Trazado 1275819" d="M55.565,155.411h0a.848.848,0,0,1-.842-.781l0,.018a.848.848,0,0,0,.842.763" transform="translate(-45.021 -127.215)" fill="#444"/>
        <path id="Trazado_1275820" data-name="Trazado 1275820" d="M55.542,188.38c-.273-.272-.555-.537-.849-.793v1.875c0,.024.005.046.007.07a.848.848,0,0,1,.211-.493c.2-.225.415-.444.631-.659" transform="translate(-44.996 -154.329)" fill="#444"/>
        <path id="Trazado_1275821" data-name="Trazado 1275821" d="M102.292,119.091c-.648.161-1.283.353-1.905.569-.049.094-.1.187-.15.279a.851.851,0,0,0,.97,1.237h0a.848.848,0,0,0,.511-.4,13.177,13.177,0,0,0,.8-1.7.842.842,0,0,0-.227.021" transform="translate(-82.375 -97.959)" fill="#444"/>
        <path id="Trazado_1275822" data-name="Trazado 1275822" d="M64.239,145.519c0,.024-.005.046-.007.07,0,.006,0,.012,0,.018,0-.029.009-.058.009-.088V143.64l0,0Z" transform="translate(-52.844 -118.173)" fill="#444"/>
        <path id="Trazado_1275823" data-name="Trazado 1275823" d="M60.114,145.111a.848.848,0,0,1,.211.493c0-.023.007-.046.007-.07v-1.875c-.294.256-.576.522-.849.793.216.216.429.434.631.659" transform="translate(-48.937 -118.188)" fill="#444"/>
        <path id="Trazado_1275824" data-name="Trazado 1275824" d="M59.483,155.412h0a.848.848,0,0,0,.842-.763l0-.018a.848.848,0,0,1-.842.781" transform="translate(-48.937 -127.216)" fill="#444"/>
        <path id="Trazado_1275825" data-name="Trazado 1275825" d="M55.575,148.133c-.216.216-.429.434-.631.659a.845.845,0,1,0,1.262,0c-.2-.225-.415-.444-.631-.659" transform="translate(-45.029 -121.87)" fill="#444"/>
        <path id="Trazado_1275826" data-name="Trazado 1275826" d="M101.159,165.1q.266-.088.535-.17a12.682,12.682,0,0,1-.682,4.891l-.01.022c-.224.51-.593,1.352-.937,1.984q.833.242,1.637.544c.329-.637.641-1.348.859-1.845l.022-.051c.008-.019.016-.038.023-.058a14.458,14.458,0,0,0,.684-6.687.842.842,0,0,0-.821-.736,13.169,13.169,0,0,1-.8,1.7.847.847,0,0,1-.51.4" transform="translate(-82.324 -134.1)" fill="#444"/>
        <path id="Trazado_1275827" data-name="Trazado 1275827" d="M64.252,178.889v-6.442a17.944,17.944,0,0,1,7.433-4.606.851.851,0,0,1-.97-1.237c.052-.092.1-.186.15-.28a20.159,20.159,0,0,0-6.613,3.766v1.878a.851.851,0,0,1-.009.088c0,.02.005.038.005.058v7.607c0,.012,0,.023,0,.035v.836a8.969,8.969,0,0,0,4.41-1.492,15.321,15.321,0,0,1-.135-2.023,7.474,7.474,0,0,1-4.275,1.81" transform="translate(-52.853 -136.835)" fill="#444"/>
        <path id="Trazado_1275828" data-name="Trazado 1275828" d="M97.587,213.338a.851.851,0,1,0,1.4.975,8.631,8.631,0,0,0,.555-.95q-.8-.3-1.637-.544a5.633,5.633,0,0,1-.313.52" transform="translate(-80.159 -175.086)" fill="#444"/>
        <path id="Trazado_1275829" data-name="Trazado 1275829" d="M89.729,225.471a.851.851,0,0,0-1.2-.077c-.042.037-.084.071-.126.107a15.319,15.319,0,0,0,.135,2.023,10.124,10.124,0,0,0,1.115-.852.851.851,0,0,0,.077-1.2" transform="translate(-72.729 -185.258)" fill="#444"/>
        <path id="Trazado_1275830" data-name="Trazado 1275830" d="M55.544,199.424h0a.848.848,0,0,1-.842-.763c0,.02-.005.038-.005.058v7.642a.85.85,0,0,1,1.7-.035v-7.607c0-.02,0-.039-.005-.058a.848.848,0,0,1-.842.763" transform="translate(-44.996 -163.439)" fill="#444"/>
        <path id="Trazado_1275831" data-name="Trazado 1275831" d="M55.566,199.338h0a.848.848,0,0,1-.842-.781c0,.006,0,.012,0,.018a.848.848,0,0,0,.842.763" transform="translate(-45.022 -163.354)" fill="#444"/>
        <path id="Trazado_1275832" data-name="Trazado 1275832" d="M102.292,163.019c-.648.161-1.283.353-1.905.569-.049.094-.1.187-.15.279a.851.851,0,0,0,.97,1.237h0a.848.848,0,0,0,.51-.4,13.177,13.177,0,0,0,.8-1.7.841.841,0,0,0-.227.021" transform="translate(-82.375 -134.099)" fill="#444"/>
        <path id="Trazado_1275833" data-name="Trazado 1275833" d="M64.239,189.446c0,.024-.005.046-.007.07,0,.006,0,.012,0,.018,0-.029.009-.058.009-.088v-1.878l0,0Z" transform="translate(-52.844 -154.313)" fill="#444"/>
        <path id="Trazado_1275834" data-name="Trazado 1275834" d="M60.114,189.039a.849.849,0,0,1,.211.493c0-.023.007-.046.007-.07v-1.875c-.294.256-.576.522-.849.794.216.216.429.434.631.659" transform="translate(-48.937 -154.328)" fill="#444"/>
        <path id="Trazado_1275835" data-name="Trazado 1275835" d="M59.483,199.338h0a.848.848,0,0,0,.842-.763l0-.018a.848.848,0,0,1-.842.781" transform="translate(-48.937 -163.354)" fill="#444"/>
        <path id="Trazado_1275836" data-name="Trazado 1275836" d="M55.575,192.062c-.216.216-.429.434-.631.659a.845.845,0,1,0,1.262,0c-.2-.225-.415-.444-.631-.659" transform="translate(-45.029 -158.01)" fill="#444"/>
        <path id="Trazado_1275837" data-name="Trazado 1275837" d="M59.93.014a.856.856,0,0,1,.086.014A.832.832,0,0,0,59.93.014" transform="translate(-49.305 -0.012)" fill="#444"/>
        <path id="Trazado_1275838" data-name="Trazado 1275838" d="M59,0c.029,0,.058,0,.087,0A.835.835,0,0,0,59,0" transform="translate(-48.54 -0.001)" fill="#444"/>
        <path id="Trazado_1275839" data-name="Trazado 1275839" d="M55.24,2.16a.829.829,0,0,1,.052-.081.849.849,0,0,0-.052.081" transform="translate(-45.446 -1.71)" fill="#444"/>
        <path id="Trazado_1275840" data-name="Trazado 1275840" d="M60.842.192a.85.85,0,0,1,.089.034.83.83,0,0,0-.089-.034" transform="translate(-50.055 -0.158)" fill="#444"/>
        <path id="Trazado_1275841" data-name="Trazado 1275841" d="M55.765,1.461c.018-.022.039-.041.059-.061-.02.02-.041.039-.059.061" transform="translate(-45.878 -1.152)" fill="#444"/>
        <path id="Trazado_1275842" data-name="Trazado 1275842" d="M57.242.4l-.015.01A.758.758,0,0,1,57.3.377c-.018.007-.037.012-.054.021" transform="translate(-47.081 -0.31)" fill="#444"/>
        <path id="Trazado_1275843" data-name="Trazado 1275843" d="M56.433.878c.019-.016.04-.028.061-.042-.02.014-.042.027-.061.042" transform="translate(-46.428 -0.688)" fill="#444"/>
        <path id="Trazado_1275844" data-name="Trazado 1275844" d="M84.288,97.035h0" transform="translate(-69.344 -79.83)" fill="#444"/>
        <path id="Trazado_1275845" data-name="Trazado 1275845" d="M61.715.547A.826.826,0,0,1,61.8.6a.867.867,0,0,0-.082-.052" transform="translate(-50.773 -0.45)" fill="#444"/>
        <path id="Trazado_1275846" data-name="Trazado 1275846" d="M63.18,1.742c.015.019.028.04.042.06-.014-.02-.026-.041-.042-.06" transform="translate(-51.978 -1.433)" fill="#444"/>
        <path id="Trazado_1275847" data-name="Trazado 1275847" d="M62.51,1.073a.828.828,0,0,1,.061.059.826.826,0,0,0-.061-.059" transform="translate(-51.427 -0.883)" fill="#444"/>
        <path id="Trazado_1275848" data-name="Trazado 1275848" d="M60.233,3.318l-.76,1.51.1.205c2.027,4.025,2.97,7.293,2.97,10.286v2.8q.819-.522,1.7-.971V15.319c0-3.269-1-6.78-3.152-11.052l-.863-1.715-.01-.015a.848.848,0,0,1,.01.781" transform="translate(-48.929 -2.087)" fill="#444"/>
        <path id="Trazado_1275849" data-name="Trazado 1275849" d="M58.093.108c.027-.008.055-.013.083-.019-.028.005-.055.01-.083.019" transform="translate(-47.793 -0.073)" fill="#444"/>
        <path id="Trazado_1275850" data-name="Trazado 1275850" d="M54.766,1.231l.76,1.51.76-1.51a.848.848,0,0,0-.01-.781A.824.824,0,0,0,56.225.37C56.212.35,56.2.329,56.184.31s-.038-.04-.058-.06-.039-.041-.061-.059S56.026.164,56.006.15A.887.887,0,0,0,55.924.1C55.9.087,55.88.078,55.858.069a.908.908,0,0,0-.089-.034c-.025-.007-.05-.012-.076-.017S55.636.006,55.608,0s-.052,0-.078,0-.058,0-.087,0-.052.008-.078.013A.616.616,0,0,0,55.2.068c-.024.01-.047.019-.07.031a.834.834,0,0,0-.08.051c-.02.014-.042.027-.061.042s-.04.038-.06.058-.041.039-.059.061-.028.04-.041.06a.853.853,0,0,0-.052.081.849.849,0,0,0-.01.781" transform="translate(-44.982 -0.001)" fill="#444"/>
        <path id="Trazado_1275851" data-name="Trazado 1275851" d="M76.809,86.364a.851.851,0,0,0,1.326.706h0a.85.85,0,0,0,.375-.705V84.922q-.881.449-1.7.971Z" transform="translate(-63.191 -69.866)" fill="#444"/>
        <path id="Trazado_1275852" data-name="Trazado 1275852" d="M55.542,246.82c-.093,0-.186,0-.279,0-.191,0-.381-.008-.571-.02v21.7a.851.851,0,1,0,1.7,0v-21.7c-.189.012-.378.02-.568.02-.095,0-.189,0-.284,0" transform="translate(-44.996 -203.048)" fill="#444"/>
        <path id="Trazado_1275853" data-name="Trazado 1275853" d="M55.542,242.943h-.027a.851.851,0,0,1-.822-.85v.836c.189.012.379.02.571.02.093,0,.185,0,.279,0" transform="translate(-44.996 -199.17)" fill="#444"/>
        <path id="Trazado_1275854" data-name="Trazado 1275854" d="M60.331,241.893v.035a.851.851,0,0,1-.822.85h-.027c.1,0,.19,0,.284,0,.191,0,.38-.008.568-.02v-.836c0-.012,0-.023,0-.035" transform="translate(-48.936 -199.006)" fill="#444"/>
        <path id="Trazado_1275855" data-name="Trazado 1275855" d="M55.544,237.292a.851.851,0,0,0-.029,1.7h.054a.851.851,0,0,0,.822-.851v-.035a.849.849,0,0,0-.847-.816m0,.851h0Z" transform="translate(-44.996 -195.221)" fill="#444"/>
        <path id="Trazado_1275856" data-name="Trazado 1275856" d="M240.154,0c.026,0,.052,0,.078,0a.771.771,0,0,0-.078,0" transform="translate(-197.576 -0.001)" fill="#444"/>
        <path id="Trazado_1275857" data-name="Trazado 1275857" d="M215.256,96.984l.04.025-.04-.025" transform="translate(-177.092 -79.789)" fill="#444"/>
        <path id="Trazado_1275858" data-name="Trazado 1275858" d="M238.286.227a.84.84,0,0,1,.083-.032.88.88,0,0,0-.083.032" transform="translate(-196.039 -0.16)" fill="#444"/>
        <path id="Trazado_1275859" data-name="Trazado 1275859" d="M214.9,15.319c0-2.993.944-6.261,2.97-10.286l.1-.205-.76-1.51a.849.849,0,0,1,.01-.781c0,.005-.007.01-.01.015l-.863,1.715C214.2,8.538,213.2,12.05,213.2,15.319v1.823c.587.3,1.156.622,1.7.97Z" transform="translate(-175.402 -2.087)" fill="#444"/>
        <path id="Trazado_1275860" data-name="Trazado 1275860" d="M236.76,1.132c.02-.02.038-.04.06-.058-.021.018-.04.038-.06.058" transform="translate(-194.783 -0.884)" fill="#444"/>
        <path id="Trazado_1275861" data-name="Trazado 1275861" d="M239.226.029c.026,0,.052-.01.078-.013-.026,0-.052.008-.078.013" transform="translate(-196.812 -0.013)" fill="#444"/>
        <path id="Trazado_1275862" data-name="Trazado 1275862" d="M237.442.6a.817.817,0,0,1,.08-.051.851.851,0,0,0-.08.051" transform="translate(-195.345 -0.452)" fill="#444"/>
        <path id="Trazado_1275863" data-name="Trazado 1275863" d="M241.079.095c.026.005.051.01.076.017C241.13.1,241.1.1,241.079.095" transform="translate(-198.337 -0.078)" fill="#444"/>
        <path id="Trazado_1275864" data-name="Trazado 1275864" d="M244.08,2.08a.862.862,0,0,1,.052.081.883.883,0,0,0-.052-.081" transform="translate(-200.806 -1.711)" fill="#444"/>
        <path id="Trazado_1275865" data-name="Trazado 1275865" d="M242.058.4c-.017-.009-.034-.012-.051-.02.022.009.045.018.066.029L242.058.4" transform="translate(-199.1 -0.315)" fill="#444"/>
        <path id="Trazado_1275866" data-name="Trazado 1275866" d="M242.841.84c.02.014.041.026.059.041-.018-.015-.039-.028-.059-.041" transform="translate(-199.786 -0.691)" fill="#444"/>
        <path id="Trazado_1275867" data-name="Trazado 1275867" d="M243.518,1.4a.807.807,0,0,1,.058.06c-.018-.021-.038-.04-.058-.06" transform="translate(-200.343 -1.154)" fill="#444"/>
        <path id="Trazado_1275868" data-name="Trazado 1275868" d="M236.2,1.8c.014-.02.026-.041.041-.06-.015.019-.028.04-.041.06" transform="translate(-194.319 -1.434)" fill="#444"/>
        <path id="Trazado_1275869" data-name="Trazado 1275869" d="M219,94.394v5.431l0,0V94.062a.851.851,0,0,1,.218-.569c.2-.225.415-.444.631-.659a18.3,18.3,0,0,0-3.076-2.451v.474a.847.847,0,0,1-1.3.721A16.558,16.558,0,0,1,219,94.394" transform="translate(-177.277 -74.358)" fill="#444"/>
        <path id="Trazado_1275870" data-name="Trazado 1275870" d="M193.4,130.944h0" transform="translate(-159.109 -107.728)" fill="#444"/>
        <path id="Trazado_1275871" data-name="Trazado 1275871" d="M181.846,83.851c.648.161,1.283.353,1.905.569a12.4,12.4,0,0,1-1.358-6.442,19.5,19.5,0,0,1,4.411,1.937.849.849,0,0,1-.364-.7V77.773a21.536,21.536,0,0,0-3.948-1.538v.654a.851.851,0,1,1-1.7,0v-.046a14.388,14.388,0,0,0,.828,6.987.85.85,0,0,1,.227.021" transform="translate(-148.64 -62.719)" fill="#444"/>
        <path id="Trazado_1275872" data-name="Trazado 1275872" d="M213.567,87.051l.04.025a.848.848,0,0,0,1.3-.721v-.474q-.819-.522-1.7-.97v1.444a.849.849,0,0,0,.364.7" transform="translate(-175.403 -69.857)" fill="#444"/>
        <path id="Trazado_1275873" data-name="Trazado 1275873" d="M181.708,33.016a.849.849,0,0,1,.684-.123c.217.054.432.112.646.172V24.613a.851.851,0,0,0-1.7,0v9.059c0-.022,0-.043.007-.065a.852.852,0,0,1,.365-.592" transform="translate(-149.186 -19.549)" fill="#444"/>
        <path id="Trazado_1275874" data-name="Trazado 1275874" d="M182.187,76.823a.851.851,0,0,0,.851-.851v-.654c-.214-.06-.429-.118-.646-.172a.851.851,0,0,0-1.049.715c0,.022,0,.043-.007.065v.046a.851.851,0,0,0,.851.851" transform="translate(-149.186 -61.802)" fill="#444"/>
        <path id="Trazado_1275875" data-name="Trazado 1275875" d="M181.842,126.88c.648.161,1.283.353,1.905.569a12.4,12.4,0,0,1-1.358-6.443c.18.054.358.111.535.17a.847.847,0,0,1-.51-.4,13.168,13.168,0,0,1-.8-1.7.842.842,0,0,0-.821.736,14.393,14.393,0,0,0,.821,7.052.85.85,0,0,1,.227.021" transform="translate(-148.636 -97.96)" fill="#444"/>
        <path id="Trazado_1275876" data-name="Trazado 1275876" d="M200.85,128.187c0-.02,0-.039.005-.059a.835.835,0,0,1-.009-.088v-1.879a20.158,20.158,0,0,0-6.613-3.766c.049.094.1.187.15.28a.851.851,0,0,1-.97,1.237,17.943,17.943,0,0,1,7.433,4.607v5.432l0,0Z" transform="translate(-159.123 -100.696)" fill="#444"/>
        <path id="Trazado_1275877" data-name="Trazado 1275877" d="M193.4,174.871h0" transform="translate(-159.105 -143.866)" fill="#444"/>
        <path id="Trazado_1275878" data-name="Trazado 1275878" d="M187.319,121.174h0a.851.851,0,0,0,.97-1.237c-.052-.092-.1-.186-.151-.28-.622-.216-1.257-.408-1.905-.568a.843.843,0,0,0-.227-.021,13.19,13.19,0,0,0,.8,1.7.847.847,0,0,0,.51.4" transform="translate(-153.03 -97.958)" fill="#444"/>
        <path id="Trazado_1275879" data-name="Trazado 1275879" d="M235.342,145.519v-1.876l0,0v1.879a.844.844,0,0,0,.009.088l0-.018c0-.023-.007-.046-.007-.07" transform="translate(-193.614 -118.173)" fill="#444"/>
        <path id="Trazado_1275880" data-name="Trazado 1275880" d="M200.853,172.116c0-.02,0-.039.005-.059a.841.841,0,0,1-.009-.088v-1.878a20.155,20.155,0,0,0-6.613-3.766c.049.094.1.187.15.279a.851.851,0,0,1-.97,1.237,17.944,17.944,0,0,1,7.432,4.606v6.441a7.41,7.41,0,0,1-3.892-1.5,15.107,15.107,0,0,1-.164,1.939,8.953,8.953,0,0,0,4.059,1.27v-8.478Z" transform="translate(-159.125 -136.836)" fill="#444"/>
        <path id="Trazado_1275881" data-name="Trazado 1275881" d="M183.118,169.959a12.649,12.649,0,0,1-.73-5.024c.179.054.357.111.534.169a.849.849,0,0,1-.51-.4,13.166,13.166,0,0,1-.8-1.7.842.842,0,0,0-.821.736,14.429,14.429,0,0,0,.736,6.833c.005.015.012.03.018.045l.01.022c.275.635.574,1.308.863,1.877q.8-.314,1.622-.569c-.35-.664-.746-1.579-.922-1.985" transform="translate(-148.635 -134.1)" fill="#444"/>
        <path id="Trazado_1275882" data-name="Trazado 1275882" d="M192.266,215.167a.851.851,0,0,0,.219-1.183,5.656,5.656,0,0,1-.313-.535q-.822.254-1.622.569a8.47,8.47,0,0,0,.532.931.851.851,0,0,0,1.183.219" transform="translate(-156.767 -175.605)" fill="#444"/>
        <path id="Trazado_1275883" data-name="Trazado 1275883" d="M205.1,226.37a.851.851,0,0,0-1.088,1.309,9.937,9.937,0,0,0,1.246.882,15.074,15.074,0,0,0,.163-1.939c-.108-.082-.216-.165-.322-.253" transform="translate(-167.588 -186.074)" fill="#444"/>
        <path id="Trazado_1275884" data-name="Trazado 1275884" d="M187.319,165.1h0a.851.851,0,0,0,.97-1.237c-.052-.092-.1-.186-.15-.28-.622-.216-1.258-.408-1.905-.568a.843.843,0,0,0-.227-.021,13.156,13.156,0,0,0,.8,1.7.848.848,0,0,0,.509.4" transform="translate(-153.031 -134.098)" fill="#444"/>
        <path id="Trazado_1275885" data-name="Trazado 1275885" d="M235.342,189.446v-1.875l0,0v1.878a.839.839,0,0,0,.009.088l0-.018c0-.023-.007-.046-.007-.07" transform="translate(-193.614 -154.313)" fill="#444"/>
        <path id="Trazado_1275886" data-name="Trazado 1275886" d="M240.779,93.5a.851.851,0,0,1,.218.569v5.766l0,0V94.4a16.566,16.566,0,0,1,3.544-2.83.851.851,0,0,1-1.325-.707V90.4a18.3,18.3,0,0,0-3.072,2.449c.217.216.429.434.631.659" transform="translate(-197.571 -74.369)" fill="#444"/>
        <path id="Trazado_1275887" data-name="Trazado 1275887" d="M264.962,79.922a19.5,19.5,0,0,1,4.425-1.945,12.4,12.4,0,0,1-1.358,6.442c.622-.216,1.257-.408,1.905-.569a.842.842,0,0,1,.227-.021,14.388,14.388,0,0,0,.829-6.987v.046a.851.851,0,0,1-1.7,0v-.654a21.547,21.547,0,0,0-3.951,1.54v1.442a.85.85,0,0,1-.374.705" transform="translate(-217.985 -62.719)" fill="#444"/>
        <path id="Trazado_1275888" data-name="Trazado 1275888" d="M286.882,130.945h0" transform="translate(-236.019 -107.728)" fill="#444"/>
        <path id="Trazado_1275889" data-name="Trazado 1275889" d="M237.056,111.2v-5.766a.852.852,0,0,0-.218-.569c-.2-.225-.415-.443-.631-.659-.216.216-.429.434-.631.659a.852.852,0,0,0-.218.569V111.2c.294.256.576.522.849.793.273-.272.555-.537.849-.793" transform="translate(-193.63 -85.732)" fill="#444"/>
        <path id="Trazado_1275890" data-name="Trazado 1275890" d="M235.365,145.6a.848.848,0,0,1,.211-.493c.2-.225.415-.444.631-.659-.273-.272-.555-.537-.849-.794v1.876c0,.024.005.046.007.07" transform="translate(-193.63 -118.187)" fill="#444"/>
        <path id="Trazado_1275891" data-name="Trazado 1275891" d="M290.69,33.016a.852.852,0,0,1,.365.592c0,.022,0,.043.007.065V24.613a.851.851,0,1,0-1.7,0v8.452c.214-.06.429-.118.646-.172a.851.851,0,0,1,.684.123" transform="translate(-238.058 -19.549)" fill="#444"/>
        <path id="Trazado_1275892" data-name="Trazado 1275892" d="M290.211,76.824a.851.851,0,0,0,.851-.851v-.046c0-.022,0-.043-.007-.065a.851.851,0,0,0-1.049-.715c-.217.054-.432.112-.646.172v.654a.851.851,0,0,0,.851.851" transform="translate(-238.058 -61.803)" fill="#444"/>
        <path id="Trazado_1275893" data-name="Trazado 1275893" d="M286.884,174.875h0" transform="translate(-236.021 -143.871)" fill="#444"/>
        <path id="Trazado_1275894" data-name="Trazado 1275894" d="M252.35,123.912a.851.851,0,0,1-.97-1.237c.052-.092.1-.186.15-.28a20.158,20.158,0,0,0-6.613,3.766v1.879a.838.838,0,0,1-.009.088c0,.02.005.039.005.059v5.766l0,0v-5.432a17.945,17.945,0,0,1,7.433-4.606" transform="translate(-201.487 -100.696)" fill="#444"/>
        <path id="Trazado_1275895" data-name="Trazado 1275895" d="M283.08,121.177q.266-.088.535-.17a12.4,12.4,0,0,1-1.358,6.443c.622-.216,1.257-.408,1.905-.569a.842.842,0,0,1,.227-.021,14.4,14.4,0,0,0,.821-7.053.842.842,0,0,0-.821-.736,13.148,13.148,0,0,1-.8,1.7.848.848,0,0,1-.51.4" transform="translate(-232.214 -97.961)" fill="#444"/>
        <path id="Trazado_1275896" data-name="Trazado 1275896" d="M236.209,155.5h0a.848.848,0,0,1-.842-.763c0,.019-.005.038-.005.058v5.766c.294.256.576.522.849.794.273-.272.555-.538.849-.794V154.79c0-.02,0-.039-.005-.058a.848.848,0,0,1-.842.763" transform="translate(-193.63 -127.299)" fill="#444"/>
        <path id="Trazado_1275897" data-name="Trazado 1275897" d="M236.23,155.411h0a.848.848,0,0,1-.842-.781c0,.006,0,.012,0,.018a.848.848,0,0,0,.842.763" transform="translate(-193.655 -127.215)" fill="#444"/>
        <path id="Trazado_1275898" data-name="Trazado 1275898" d="M236.207,188.38c-.273-.272-.555-.538-.849-.794v1.875c0,.024.005.046.007.07a.848.848,0,0,1,.211-.493c.2-.225.415-.444.631-.659" transform="translate(-193.63 -154.328)" fill="#444"/>
        <path id="Trazado_1275899" data-name="Trazado 1275899" d="M244.906,145.519c0,.024-.005.046-.007.07,0,.006,0,.012,0,.018a.848.848,0,0,0,.009-.088V143.64l0,0Z" transform="translate(-201.479 -118.173)" fill="#444"/>
        <path id="Trazado_1275900" data-name="Trazado 1275900" d="M282.958,119.091c-.648.161-1.283.353-1.905.568-.049.094-.1.187-.15.28a.851.851,0,0,0,.97,1.237h0a.848.848,0,0,0,.51-.4,13.156,13.156,0,0,0,.8-1.7.842.842,0,0,0-.227.021" transform="translate(-231.009 -97.959)" fill="#444"/>
        <path id="Trazado_1275901" data-name="Trazado 1275901" d="M240.779,145.11a.848.848,0,0,1,.211.493c0-.023.007-.046.007-.07v-1.876c-.294.256-.576.522-.849.794.217.216.429.434.631.659" transform="translate(-197.571 -118.187)" fill="#444"/>
        <path id="Trazado_1275902" data-name="Trazado 1275902" d="M240.148,155.412h0a.848.848,0,0,0,.842-.763c0-.006,0-.012,0-.018a.848.848,0,0,1-.842.781" transform="translate(-197.571 -127.216)" fill="#444"/>
        <path id="Trazado_1275903" data-name="Trazado 1275903" d="M236.239,148.133c-.216.216-.429.434-.631.659a.845.845,0,1,0,1.262,0c-.2-.225-.415-.444-.631-.659" transform="translate(-193.662 -121.87)" fill="#444"/>
        <path id="Trazado_1275904" data-name="Trazado 1275904" d="M281.114,223.407l.011,0-.011,0" transform="translate(-231.274 -183.798)" fill="#444"/>
        <path id="Trazado_1275905" data-name="Trazado 1275905" d="M244.917,178.889v-6.442a17.947,17.947,0,0,1,7.433-4.607.851.851,0,0,1-.971-1.237c.052-.092.1-.186.15-.279a20.157,20.157,0,0,0-6.613,3.766v1.879a.843.843,0,0,1-.009.088c0,.02.005.039.005.059v7.608c0,.012,0,.023,0,.034v.836a8.957,8.957,0,0,0,4.186-1.349,15.3,15.3,0,0,1-.152-1.968,7.428,7.428,0,0,1-4.034,1.613" transform="translate(-201.487 -136.836)" fill="#444"/>
        <path id="Trazado_1275906" data-name="Trazado 1275906" d="M281.56,165.1q.267-.088.537-.17a12.663,12.663,0,0,1-.715,4.982,21.9,21.9,0,0,1-.971,1.972q.833.25,1.635.558c.376-.7.76-1.518.917-1.9l.013-.034a14.439,14.439,0,0,0,.716-6.778.842.842,0,0,0-.821-.736,13.172,13.172,0,0,1-.8,1.7.849.849,0,0,1-.512.4" transform="translate(-230.695 -134.1)" fill="#444"/>
        <path id="Trazado_1275907" data-name="Trazado 1275907" d="M277.868,213.608a.85.85,0,0,0,.421,1.349l.011,0a.851.851,0,0,0,.894-.285,7.26,7.26,0,0,0,.606-.981q-.8-.308-1.636-.558a4.066,4.066,0,0,1-.3.472" transform="translate(-228.448 -175.348)" fill="#444"/>
        <path id="Trazado_1275908" data-name="Trazado 1275908" d="M269.2,225.879a.851.851,0,0,0-1.2-.09c-.1.083-.194.162-.293.24a15.338,15.338,0,0,0,.152,1.968,10.016,10.016,0,0,0,1.251-.918.851.851,0,0,0,.09-1.2" transform="translate(-220.246 -185.588)" fill="#444"/>
        <path id="Trazado_1275909" data-name="Trazado 1275909" d="M236.209,199.422h0a.848.848,0,0,1-.842-.763c0,.02-.005.039-.005.059v7.642a.85.85,0,0,1,1.7-.034v-7.608c0-.02,0-.039-.005-.059a.848.848,0,0,1-.842.763" transform="translate(-193.63 -163.438)" fill="#444"/>
        <path id="Trazado_1275910" data-name="Trazado 1275910" d="M236.23,199.338h0a.848.848,0,0,1-.842-.781c0,.006,0,.012,0,.018a.848.848,0,0,0,.842.763" transform="translate(-193.655 -163.354)" fill="#444"/>
        <path id="Trazado_1275911" data-name="Trazado 1275911" d="M282.957,163.018c-.648.161-1.283.353-1.905.569-.049.094-.1.187-.15.279a.851.851,0,0,0,.971,1.237h0a.849.849,0,0,0,.512-.4,13.148,13.148,0,0,0,.8-1.7.85.85,0,0,0-.227.021" transform="translate(-231.008 -134.098)" fill="#444"/>
        <path id="Trazado_1275912" data-name="Trazado 1275912" d="M244.905,189.446c0,.024-.005.046-.007.07l0,.018a.839.839,0,0,0,.009-.088v-1.878l0,0Z" transform="translate(-201.479 -154.313)" fill="#444"/>
        <path id="Trazado_1275913" data-name="Trazado 1275913" d="M240.779,189.039a.849.849,0,0,1,.211.493c0-.023.007-.046.007-.07v-1.875c-.294.256-.576.522-.849.794.217.216.429.434.631.659" transform="translate(-197.571 -154.328)" fill="#444"/>
        <path id="Trazado_1275914" data-name="Trazado 1275914" d="M240.148,199.338h0a.848.848,0,0,0,.842-.763l0-.018a.848.848,0,0,1-.842.781" transform="translate(-197.571 -163.354)" fill="#444"/>
        <path id="Trazado_1275915" data-name="Trazado 1275915" d="M236.24,192.062c-.216.216-.429.434-.631.659a.845.845,0,1,0,1.262,0c-.2-.225-.415-.444-.631-.659" transform="translate(-193.663 -158.01)" fill="#444"/>
        <path id="Trazado_1275916" data-name="Trazado 1275916" d="M238.757.108c.027-.008.055-.013.083-.019-.028.005-.055.011-.083.019" transform="translate(-196.426 -0.073)" fill="#444"/>
        <path id="Trazado_1275917" data-name="Trazado 1275917" d="M242.381.548a.87.87,0,0,1,.082.052.853.853,0,0,0-.082-.052" transform="translate(-199.408 -0.451)" fill="#444"/>
        <path id="Trazado_1275918" data-name="Trazado 1275918" d="M240.6.014a.8.8,0,0,1,.086.014A.822.822,0,0,0,240.6.014" transform="translate(-197.939 -0.012)" fill="#444"/>
        <path id="Trazado_1275919" data-name="Trazado 1275919" d="M239.665,0c.029,0,.058,0,.087,0a.837.837,0,0,0-.087,0" transform="translate(-197.173 -0.001)" fill="#444"/>
        <path id="Trazado_1275920" data-name="Trazado 1275920" d="M264.948,97.034h0" transform="translate(-217.974 -79.829)" fill="#444"/>
        <path id="Trazado_1275921" data-name="Trazado 1275921" d="M241.509.193a.849.849,0,0,1,.088.034.843.843,0,0,0-.088-.034" transform="translate(-198.69 -0.159)" fill="#444"/>
        <path id="Trazado_1275922" data-name="Trazado 1275922" d="M236.43,1.462c.018-.022.039-.041.059-.061-.02.02-.041.039-.059.061" transform="translate(-194.512 -1.153)" fill="#444"/>
        <path id="Trazado_1275923" data-name="Trazado 1275923" d="M237.908.4l-.016.01c.023-.012.046-.021.07-.031-.018.008-.037.012-.054.021" transform="translate(-195.715 -0.309)" fill="#444"/>
        <path id="Trazado_1275924" data-name="Trazado 1275924" d="M235.9,2.161a.826.826,0,0,1,.052-.081.876.876,0,0,0-.052.081" transform="translate(-194.08 -1.711)" fill="#444"/>
        <path id="Trazado_1275925" data-name="Trazado 1275925" d="M240.9,3.318l-.76,1.51.1.205c2.027,4.025,2.97,7.294,2.97,10.286v2.8q.819-.522,1.7-.97V15.319c0-3.268-1-6.78-3.152-11.052L240.9,2.552l-.01-.015a.849.849,0,0,1,.01.781" transform="translate(-197.563 -2.087)" fill="#444"/>
        <path id="Trazado_1275926" data-name="Trazado 1275926" d="M237.1.878c.019-.016.04-.028.061-.042-.021.014-.042.027-.061.042" transform="translate(-195.062 -0.688)" fill="#444"/>
        <path id="Trazado_1275927" data-name="Trazado 1275927" d="M243.176,1.073c.022.018.041.039.061.059a.82.82,0,0,0-.061-.059" transform="translate(-200.062 -0.883)" fill="#444"/>
        <path id="Trazado_1275928" data-name="Trazado 1275928" d="M243.846,1.742c.016.019.028.04.042.06-.014-.02-.026-.041-.042-.06" transform="translate(-200.613 -1.433)" fill="#444"/>
        <path id="Trazado_1275929" data-name="Trazado 1275929" d="M235.431,1.231l.76,1.51.76-1.51a.849.849,0,0,0-.01-.781A.826.826,0,0,0,236.89.37c-.014-.02-.026-.041-.042-.06a.813.813,0,0,0-.058-.06c-.02-.02-.039-.04-.061-.059s-.04-.028-.059-.041A.806.806,0,0,0,236.589.1c-.021-.011-.044-.02-.066-.029a.85.85,0,0,0-.088-.034c-.025-.008-.051-.012-.076-.017S236.3.006,236.273,0s-.052,0-.078,0-.058,0-.087,0-.052.008-.078.013-.056.011-.083.019a.888.888,0,0,0-.084.032c-.023.01-.047.019-.07.031a.835.835,0,0,0-.08.051c-.02.014-.041.027-.061.042s-.04.038-.06.058-.04.039-.059.061-.028.04-.041.06a.882.882,0,0,0-.052.081.848.848,0,0,0-.01.781" transform="translate(-193.616 -0.001)" fill="#444"/>
        <path id="Trazado_1275930" data-name="Trazado 1275930" d="M257.475,86.364a.851.851,0,0,0,1.325.706h0a.85.85,0,0,0,.375-.705V84.922c-.587.3-1.156.622-1.7.971Z" transform="translate(-211.826 -69.866)" fill="#444"/>
        <path id="Trazado_1275931" data-name="Trazado 1275931" d="M236.207,246.821c-.094,0-.189,0-.282,0-.19,0-.379-.008-.567-.02v21.7a.851.851,0,1,0,1.7,0v-21.7c-.189.012-.378.02-.569.02-.094,0-.189,0-.283,0" transform="translate(-193.63 -203.048)" fill="#444"/>
        <path id="Trazado_1275932" data-name="Trazado 1275932" d="M236.207,242.943h-.027a.851.851,0,0,1-.822-.85v.836c.188.012.377.02.567.02.094,0,.188,0,.282,0" transform="translate(-193.63 -199.17)" fill="#444"/>
        <path id="Trazado_1275933" data-name="Trazado 1275933" d="M241,241.9v.034a.851.851,0,0,1-.822.85h-.027c.095,0,.189,0,.284,0,.191,0,.38-.008.569-.02v-.836c0-.012,0-.023,0-.034" transform="translate(-197.571 -199.011)" fill="#444"/>
        <path id="Trazado_1275934" data-name="Trazado 1275934" d="M236.209,237.292a.851.851,0,0,0-.029,1.7h.054a.851.851,0,0,0,.822-.851v-.034a.849.849,0,0,0-.847-.817" transform="translate(-193.63 -195.221)" fill="#444"/>
        <path id="Trazado_1275935" data-name="Trazado 1275935" d="M422.722.4c-.017-.009-.035-.013-.052-.02.023.01.045.018.067.029L422.722.4" transform="translate(-347.732 -0.314)" fill="#444"/>
        <path id="Trazado_1275936" data-name="Trazado 1275936" d="M421.741.094c.026.005.052.01.077.018-.026-.008-.051-.012-.077-.018" transform="translate(-346.968 -0.077)" fill="#444"/>
        <path id="Trazado_1275937" data-name="Trazado 1275937" d="M418.1.6a.858.858,0,0,1,.081-.051A.819.819,0,0,0,418.1.6" transform="translate(-343.976 -0.452)" fill="#444"/>
        <path id="Trazado_1275938" data-name="Trazado 1275938" d="M423.505.84c.02.014.041.026.06.041-.019-.015-.04-.028-.06-.041" transform="translate(-348.419 -0.691)" fill="#444"/>
        <path id="Trazado_1275939" data-name="Trazado 1275939" d="M395.921,96.984l.04.025-.04-.025" transform="translate(-325.726 -79.789)" fill="#444"/>
        <path id="Trazado_1275940" data-name="Trazado 1275940" d="M424.745,2.078a.873.873,0,0,1,.052.082.916.916,0,0,0-.052-.082" transform="translate(-349.44 -1.71)" fill="#444"/>
        <path id="Trazado_1275941" data-name="Trazado 1275941" d="M424.183,1.4a.812.812,0,0,1,.058.06c-.018-.021-.038-.04-.058-.06" transform="translate(-348.977 -1.154)" fill="#444"/>
        <path id="Trazado_1275942" data-name="Trazado 1275942" d="M420.814,0c.027,0,.054,0,.08,0-.027,0-.053,0-.08,0" transform="translate(-346.206 -0.001)" fill="#444"/>
        <path id="Trazado_1275943" data-name="Trazado 1275943" d="M419.884.029c.027-.005.053-.011.08-.013a.809.809,0,0,0-.08.013" transform="translate(-345.44 -0.013)" fill="#444"/>
        <path id="Trazado_1275944" data-name="Trazado 1275944" d="M395.569,15.319c0-2.993.944-6.261,2.97-10.286l.1-.205-.76-1.51a.849.849,0,0,1,.01-.78c0,.005-.007.01-.01.015l-.863,1.715c-2.151,4.271-3.152,7.783-3.152,11.052v1.823c.587.3,1.156.622,1.7.97Z" transform="translate(-324.036 -2.087)" fill="#444"/>
        <path id="Trazado_1275945" data-name="Trazado 1275945" d="M418.945.228a.861.861,0,0,1,.085-.033.827.827,0,0,0-.085.033" transform="translate(-344.668 -0.16)" fill="#444"/>
        <path id="Trazado_1275946" data-name="Trazado 1275946" d="M417.424,1.132a.781.781,0,0,1,.06-.058c-.022.018-.041.038-.06.058" transform="translate(-343.417 -0.884)" fill="#444"/>
        <path id="Trazado_1275947" data-name="Trazado 1275947" d="M416.861,1.8c.014-.02.026-.041.042-.06-.015.019-.028.04-.042.06" transform="translate(-342.953 -1.434)" fill="#444"/>
        <path id="Trazado_1275948" data-name="Trazado 1275948" d="M399.668,94.394v5.431l0,0V94.062a.85.85,0,0,1,.218-.569c.2-.225.415-.444.631-.659a18.289,18.289,0,0,0-3.075-2.451v.474a.847.847,0,0,1-1.3.721,16.556,16.556,0,0,1,3.52,2.815" transform="translate(-325.913 -74.358)" fill="#444"/>
        <path id="Trazado_1275949" data-name="Trazado 1275949" d="M374.061,130.944h0" transform="translate(-307.742 -107.728)" fill="#444"/>
        <path id="Trazado_1275950" data-name="Trazado 1275950" d="M362.512,83.851c.648.161,1.283.353,1.905.568a12.4,12.4,0,0,1-1.358-6.442,19.5,19.5,0,0,1,4.411,1.937.849.849,0,0,1-.364-.7V77.773a21.53,21.53,0,0,0-3.948-1.538v.654a.851.851,0,1,1-1.7,0v-.046a14.389,14.389,0,0,0,.829,6.987.85.85,0,0,1,.227.021" transform="translate(-297.275 -62.719)" fill="#444"/>
        <path id="Trazado_1275951" data-name="Trazado 1275951" d="M394.232,87.052l.04.025a.847.847,0,0,0,1.3-.721v-.474q-.819-.522-1.7-.97v1.444a.849.849,0,0,0,.364.7" transform="translate(-324.037 -69.857)" fill="#444"/>
        <path id="Trazado_1275952" data-name="Trazado 1275952" d="M362.373,33.016a.849.849,0,0,1,.684-.123c.217.054.432.112.646.172V24.613a.851.851,0,0,0-1.7,0v9.059c0-.022,0-.043.007-.065a.852.852,0,0,1,.365-.592" transform="translate(-297.82 -19.549)" fill="#444"/>
        <path id="Trazado_1275953" data-name="Trazado 1275953" d="M362.852,76.823a.851.851,0,0,0,.851-.851v-.654c-.214-.06-.429-.118-.646-.172a.851.851,0,0,0-1.049.715c0,.022,0,.043-.007.065v.046a.851.851,0,0,0,.851.851" transform="translate(-297.82 -61.802)" fill="#444"/>
        <path id="Trazado_1275954" data-name="Trazado 1275954" d="M374.069,174.874h0" transform="translate(-307.747 -143.869)" fill="#444"/>
        <path id="Trazado_1275955" data-name="Trazado 1275955" d="M362.508,126.88c.648.161,1.283.353,1.905.569a12.4,12.4,0,0,1-1.358-6.443c.18.054.358.111.535.17a.848.848,0,0,1-.51-.4,13.169,13.169,0,0,1-.8-1.7.842.842,0,0,0-.821.736,14.4,14.4,0,0,0,.821,7.052.849.849,0,0,1,.227.021" transform="translate(-297.27 -97.96)" fill="#444"/>
        <path id="Trazado_1275956" data-name="Trazado 1275956" d="M381.516,128.187c0-.02,0-.039.005-.059a.835.835,0,0,1-.009-.088v-1.879A20.159,20.159,0,0,0,374.9,122.4c.049.094.1.187.151.28a.851.851,0,0,1-.97,1.237,17.945,17.945,0,0,1,7.433,4.607v5.432l0,0Z" transform="translate(-307.756 -100.696)" fill="#444"/>
        <path id="Trazado_1275957" data-name="Trazado 1275957" d="M367.984,121.175h0a.851.851,0,0,0,.97-1.237c-.052-.092-.1-.186-.15-.279-.622-.216-1.257-.408-1.905-.569a.842.842,0,0,0-.227-.021,13.172,13.172,0,0,0,.8,1.7.848.848,0,0,0,.51.4" transform="translate(-301.665 -97.959)" fill="#444"/>
        <path id="Trazado_1275958" data-name="Trazado 1275958" d="M416.007,145.519v-1.876l0,0v1.879a.852.852,0,0,0,.009.088l0-.018c0-.023-.007-.046-.007-.07" transform="translate(-342.248 -118.173)" fill="#444"/>
        <path id="Trazado_1275959" data-name="Trazado 1275959" d="M363.759,169.889a12.668,12.668,0,0,1-.7-4.954c.18.054.358.111.536.17a.848.848,0,0,1-.511-.4,13.169,13.169,0,0,1-.8-1.7.842.842,0,0,0-.821.736,14.451,14.451,0,0,0,.7,6.741l.009.024a19.54,19.54,0,0,0,.911,1.918q.806-.306,1.642-.554a17.413,17.413,0,0,1-.963-1.975" transform="translate(-297.27 -134.1)" fill="#444"/>
        <path id="Trazado_1275960" data-name="Trazado 1275960" d="M381.515,172.116c0-.02,0-.039.005-.059a.841.841,0,0,1-.009-.088v-1.878a20.156,20.156,0,0,0-6.613-3.766c.049.094.1.187.15.279a.851.851,0,0,1-.971,1.237,17.947,17.947,0,0,1,7.433,4.607v6.442a7.441,7.441,0,0,1-4.133-1.692,15.2,15.2,0,0,1-.145,1.99,8.951,8.951,0,0,0,4.281,1.407v-8.478Z" transform="translate(-307.756 -136.836)" fill="#444"/>
        <path id="Trazado_1275961" data-name="Trazado 1275961" d="M373,214.666a.851.851,0,0,0,.144-1.195,4.424,4.424,0,0,1-.312-.476q-.836.247-1.642.554a7.5,7.5,0,0,0,.614.972.851.851,0,0,0,1.195.144" transform="translate(-305.383 -175.233)" fill="#444"/>
        <path id="Trazado_1275962" data-name="Trazado 1275962" d="M384.474,225.262a.851.851,0,0,0-1.129,1.274,10.114,10.114,0,0,0,1.277.963,15.307,15.307,0,0,0,.145-1.99c-.1-.08-.2-.162-.293-.247" transform="translate(-315.144 -185.148)" fill="#444"/>
        <path id="Trazado_1275963" data-name="Trazado 1275963" d="M416.007,189.446v-1.875l0,0v1.878a.847.847,0,0,0,.009.088l0-.018c0-.023-.007-.046-.007-.07" transform="translate(-342.248 -154.313)" fill="#444"/>
        <path id="Trazado_1275964" data-name="Trazado 1275964" d="M367.986,165.1h0a.851.851,0,0,0,.971-1.237c-.052-.092-.1-.186-.15-.28-.622-.216-1.258-.408-1.905-.569a.841.841,0,0,0-.227-.021,13.194,13.194,0,0,0,.8,1.7.849.849,0,0,0,.511.4" transform="translate(-301.666 -134.099)" fill="#444"/>
        <path id="Trazado_1275965" data-name="Trazado 1275965" d="M421.444,93.5a.85.85,0,0,1,.218.569v5.766l0,0V94.4a16.578,16.578,0,0,1,3.544-2.831.851.851,0,0,1-1.325-.706v-.472a18.305,18.305,0,0,0-3.072,2.449c.217.216.429.434.631.659" transform="translate(-346.205 -74.368)" fill="#444"/>
        <path id="Trazado_1275966" data-name="Trazado 1275966" d="M445.627,79.922a19.5,19.5,0,0,1,4.425-1.945,12.4,12.4,0,0,1-1.358,6.442c.622-.216,1.257-.408,1.905-.568a.843.843,0,0,1,.227-.021,14.39,14.39,0,0,0,.829-6.986v.045a.851.851,0,0,1-1.7,0v-.654A21.535,21.535,0,0,0,446,77.775v1.442a.85.85,0,0,1-.375.705" transform="translate(-366.619 -62.719)" fill="#444"/>
        <path id="Trazado_1275967" data-name="Trazado 1275967" d="M467.547,130.945h0" transform="translate(-384.653 -107.728)" fill="#444"/>
        <path id="Trazado_1275968" data-name="Trazado 1275968" d="M417.722,111.2v-5.766a.852.852,0,0,0-.218-.569c-.2-.225-.415-.444-.631-.659-.216.216-.429.434-.631.659a.852.852,0,0,0-.218.569V111.2c.294.256.576.522.849.794.273-.272.555-.538.849-.794" transform="translate(-342.265 -85.731)" fill="#444"/>
        <path id="Trazado_1275969" data-name="Trazado 1275969" d="M416.031,145.6a.848.848,0,0,1,.211-.493c.2-.225.415-.444.631-.659-.273-.272-.555-.538-.849-.794v1.876c0,.024,0,.046.007.07" transform="translate(-342.265 -118.187)" fill="#444"/>
        <path id="Trazado_1275970" data-name="Trazado 1275970" d="M471.355,33.016a.851.851,0,0,1,.365.592c0,.022,0,.045.007.067V24.613a.851.851,0,0,0-1.7,0v8.452c.214-.06.429-.118.646-.172a.85.85,0,0,1,.684.123" transform="translate(-386.692 -19.549)" fill="#444"/>
        <path id="Trazado_1275971" data-name="Trazado 1275971" d="M470.876,76.824a.851.851,0,0,0,.851-.851v-.045c0-.022,0-.044-.007-.066a.851.851,0,0,0-1.049-.715c-.217.054-.432.112-.646.172v.654a.851.851,0,0,0,.851.851" transform="translate(-386.692 -61.803)" fill="#444"/>
        <path id="Trazado_1275972" data-name="Trazado 1275972" d="M425.582,128.042a.851.851,0,0,1-.009.088c0,.02.005.039.005.058v5.767l0,0V128.52a17.946,17.946,0,0,1,7.433-4.607.851.851,0,0,1-.97-1.237c.052-.092.1-.186.15-.279a20.158,20.158,0,0,0-6.613,3.766Z" transform="translate(-350.121 -100.697)" fill="#444"/>
        <path id="Trazado_1275973" data-name="Trazado 1275973" d="M467.547,174.874h0" transform="translate(-384.653 -143.869)" fill="#444"/>
        <path id="Trazado_1275974" data-name="Trazado 1275974" d="M463.745,121.176c.177-.059.356-.116.536-.17a12.4,12.4,0,0,1-1.358,6.443c.623-.216,1.258-.408,1.905-.568a.849.849,0,0,1,.227-.021,14.393,14.393,0,0,0,.821-7.053.842.842,0,0,0-.821-.736,13.2,13.2,0,0,1-.8,1.7.847.847,0,0,1-.51.4" transform="translate(-380.848 -97.96)" fill="#444"/>
        <path id="Trazado_1275975" data-name="Trazado 1275975" d="M417.722,160.557V154.79c0-.02,0-.039-.005-.058a.848.848,0,0,1-.842.763h0a.848.848,0,0,1-.842-.763c0,.02-.005.039-.005.058v5.767c.294.256.576.522.849.794.273-.272.555-.538.849-.794" transform="translate(-342.265 -127.299)" fill="#444"/>
        <path id="Trazado_1275976" data-name="Trazado 1275976" d="M416.9,155.411h0a.848.848,0,0,1-.842-.781c0,.006,0,.012,0,.018a.848.848,0,0,0,.842.763" transform="translate(-342.289 -127.215)" fill="#444"/>
        <path id="Trazado_1275977" data-name="Trazado 1275977" d="M416.872,188.38c-.273-.272-.555-.538-.849-.794v1.875c0,.024.005.046.007.07a.846.846,0,0,1,.211-.493c.2-.225.414-.444.631-.659" transform="translate(-342.264 -154.328)" fill="#444"/>
        <path id="Trazado_1275978" data-name="Trazado 1275978" d="M463.623,119.091c-.648.161-1.283.353-1.905.569-.049.094-.1.187-.15.279a.851.851,0,0,0,.97,1.237h0a.848.848,0,0,0,.51-.4,13.173,13.173,0,0,0,.8-1.7.842.842,0,0,0-.227.021" transform="translate(-379.643 -97.959)" fill="#444"/>
        <path id="Trazado_1275979" data-name="Trazado 1275979" d="M425.564,145.588c0,.006,0,.012,0,.018a.848.848,0,0,0,.009-.088V143.64l0,0v1.876c0,.024-.005.046-.007.07" transform="translate(-350.113 -118.173)" fill="#444"/>
        <path id="Trazado_1275980" data-name="Trazado 1275980" d="M421.444,145.11a.848.848,0,0,1,.211.493c0-.023.007-.046.007-.07v-1.876c-.294.256-.576.522-.849.794.217.216.429.434.631.659" transform="translate(-346.205 -118.187)" fill="#444"/>
        <path id="Trazado_1275981" data-name="Trazado 1275981" d="M420.814,155.412h0a.848.848,0,0,0,.842-.763c0-.006,0-.012,0-.018a.848.848,0,0,1-.842.781" transform="translate(-346.206 -127.216)" fill="#444"/>
        <path id="Trazado_1275982" data-name="Trazado 1275982" d="M417.747,149.285a.848.848,0,0,0-.211-.493c-.2-.225-.415-.444-.631-.659-.216.216-.429.434-.631.659a.81.81,0,1,0,1.473.493" transform="translate(-342.297 -121.87)" fill="#444"/>
        <path id="Trazado_1275983" data-name="Trazado 1275983" d="M433.017,165.105c.177-.059.356-.116.536-.17a11.841,11.841,0,0,1-2.842,8.583,7.759,7.759,0,0,1-5.129,2.635v-6.441a17.944,17.944,0,0,1,7.433-4.607.851.851,0,0,1-.97-1.237c.052-.092.1-.186.15-.279a20.157,20.157,0,0,0-6.613,3.766v1.879a.851.851,0,0,1-.009.088c0,.02.005.039.005.059v7.608c0,.012,0,.023,0,.034v.835a9.411,9.411,0,0,0,6.39-3.2,13.711,13.711,0,0,0,3.177-10.926.842.842,0,0,0-.821-.736,13.194,13.194,0,0,1-.8,1.7.849.849,0,0,1-.511.4" transform="translate(-350.121 -134.101)" fill="#444"/>
        <path id="Trazado_1275984" data-name="Trazado 1275984" d="M416.874,205.508a.849.849,0,0,1,.847.817v-7.608c0-.02,0-.039-.005-.059a.848.848,0,0,1-.842.763h0a.848.848,0,0,1-.842-.763c0,.02-.005.039-.005.059v7.642a.851.851,0,0,1,.851-.851" transform="translate(-342.264 -163.438)" fill="#444"/>
        <path id="Trazado_1275985" data-name="Trazado 1275985" d="M416.9,199.338h0a.848.848,0,0,1-.842-.781c0,.006,0,.012,0,.018a.848.848,0,0,0,.842.763" transform="translate(-342.289 -163.354)" fill="#444"/>
        <path id="Trazado_1275986" data-name="Trazado 1275986" d="M463.623,163.019c-.648.161-1.283.353-1.905.569-.049.094-.1.187-.15.279a.851.851,0,0,0,.97,1.237h0a.849.849,0,0,0,.511-.4,13.173,13.173,0,0,0,.8-1.7.841.841,0,0,0-.227.021" transform="translate(-379.643 -134.099)" fill="#444"/>
        <path id="Trazado_1275987" data-name="Trazado 1275987" d="M425.571,189.446c0,.024-.005.046-.007.07l0,.018a.831.831,0,0,0,.009-.088v-1.878l0,0Z" transform="translate(-350.113 -154.313)" fill="#444"/>
        <path id="Trazado_1275988" data-name="Trazado 1275988" d="M421.444,189.039a.849.849,0,0,1,.211.493c0-.023.007-.046.007-.07v-1.875c-.294.256-.576.522-.849.794.217.216.429.434.631.659" transform="translate(-346.205 -154.328)" fill="#444"/>
        <path id="Trazado_1275989" data-name="Trazado 1275989" d="M420.814,199.338h0a.848.848,0,0,0,.842-.763c0-.006,0-.012,0-.018a.848.848,0,0,1-.842.781" transform="translate(-346.206 -163.354)" fill="#444"/>
        <path id="Trazado_1275990" data-name="Trazado 1275990" d="M417.748,193.214a.848.848,0,0,0-.211-.493c-.2-.225-.415-.444-.631-.659-.216.216-.429.434-.631.659a.81.81,0,1,0,1.473.493" transform="translate(-342.298 -158.01)" fill="#444"/>
        <path id="Trazado_1275991" data-name="Trazado 1275991" d="M421.264.015c.028,0,.056.009.085.014-.028-.005-.056-.011-.085-.014" transform="translate(-346.576 -0.012)" fill="#444"/>
        <path id="Trazado_1275992" data-name="Trazado 1275992" d="M422.176.193a.864.864,0,0,1,.088.034.856.856,0,0,0-.088-.034" transform="translate(-347.326 -0.159)" fill="#444"/>
        <path id="Trazado_1275993" data-name="Trazado 1275993" d="M420.334,0a.848.848,0,0,1,.085,0c-.028,0-.056,0-.085,0" transform="translate(-345.811 -0.001)" fill="#444"/>
        <path id="Trazado_1275994" data-name="Trazado 1275994" d="M419.426.109c.027-.008.054-.013.081-.018a.816.816,0,0,0-.081.018" transform="translate(-345.064 -0.075)" fill="#444"/>
        <path id="Trazado_1275995" data-name="Trazado 1275995" d="M423.048.548a.861.861,0,0,1,.081.052.88.88,0,0,0-.081-.052" transform="translate(-348.043 -0.451)" fill="#444"/>
        <path id="Trazado_1275996" data-name="Trazado 1275996" d="M416.571,2.162a.863.863,0,0,1,.051-.081.838.838,0,0,0-.051.081" transform="translate(-342.715 -1.712)" fill="#444"/>
        <path id="Trazado_1275997" data-name="Trazado 1275997" d="M418.574.4l-.015.01c.022-.012.046-.02.069-.03-.018.007-.036.012-.053.02" transform="translate(-344.35 -0.312)" fill="#444"/>
        <path id="Trazado_1275998" data-name="Trazado 1275998" d="M417.1,1.462c.018-.022.038-.041.058-.06-.02.02-.041.039-.058.06" transform="translate(-343.147 -1.153)" fill="#444"/>
        <path id="Trazado_1275999" data-name="Trazado 1275999" d="M417.765.881c.019-.015.04-.028.06-.042-.02.014-.041.026-.06.042" transform="translate(-343.697 -0.69)" fill="#444"/>
        <path id="Trazado_1276000" data-name="Trazado 1276000" d="M445.616,97.034h0" transform="translate(-366.61 -79.829)" fill="#444"/>
        <path id="Trazado_1276001" data-name="Trazado 1276001" d="M423.842,1.074a.834.834,0,0,1,.06.058c-.02-.02-.039-.041-.06-.058" transform="translate(-348.697 -0.884)" fill="#444"/>
        <path id="Trazado_1276002" data-name="Trazado 1276002" d="M421.564,3.319l-.76,1.51.1.205c2.027,4.025,2.97,7.293,2.97,10.286v2.8q.819-.522,1.7-.971V15.32c0-3.269-1-6.78-3.152-11.052l-.863-1.715c0-.005-.007-.01-.01-.015a.848.848,0,0,1,.01.78" transform="translate(-346.197 -2.089)" fill="#444"/>
        <path id="Trazado_1276003" data-name="Trazado 1276003" d="M424.512,1.743c.015.019.028.04.041.059-.014-.02-.026-.041-.041-.059" transform="translate(-349.248 -1.434)" fill="#444"/>
        <path id="Trazado_1276004" data-name="Trazado 1276004" d="M416.1,1.23l.76,1.51.76-1.51a.849.849,0,0,0-.009-.78.873.873,0,0,0-.052-.082c-.014-.02-.026-.041-.041-.059s-.038-.041-.058-.06-.039-.04-.06-.058-.04-.028-.06-.041A.868.868,0,0,0,417.255.1c-.022-.011-.045-.02-.067-.029A.88.88,0,0,0,417.1.034c-.025-.008-.051-.012-.077-.018A.814.814,0,0,0,416.939,0c-.026,0-.053,0-.08,0s-.057,0-.085,0-.053.008-.08.013-.055.01-.081.018-.057.021-.085.033-.046.018-.069.03a.838.838,0,0,0-.081.051c-.02.014-.041.026-.06.041s-.041.039-.06.058-.04.038-.058.06-.028.04-.042.06a.846.846,0,0,0-.051.081.848.848,0,0,0-.01.78" transform="translate(-342.251)" fill="#444"/>
        <path id="Trazado_1276005" data-name="Trazado 1276005" d="M438.14,86.364a.851.851,0,0,0,1.325.706h0a.85.85,0,0,0,.375-.705V84.922c-.587.3-1.156.622-1.7.971Z" transform="translate(-360.46 -69.866)" fill="#444"/>
        <path id="Trazado_1276006" data-name="Trazado 1276006" d="M416.874,269.356a.851.851,0,0,0,.851-.851V246.8c-.191.012-.382.02-.574.02-.093,0-.185,0-.278,0s-.19,0-.285,0c-.189,0-.377-.008-.565-.02v21.7a.851.851,0,0,0,.851.851" transform="translate(-342.264 -203.046)" fill="#444"/>
        <path id="Trazado_1276007" data-name="Trazado 1276007" d="M416.873,242.943h-.027a.851.851,0,0,1-.822-.85v.836c.187.012.375.02.565.02.094,0,.19,0,.285,0" transform="translate(-342.265 -199.17)" fill="#444"/>
        <path id="Trazado_1276008" data-name="Trazado 1276008" d="M421.664,241.9v.034a.851.851,0,0,1-.822.85h-.027c.093,0,.186,0,.278,0,.192,0,.384-.008.574-.02v-.835c0-.012,0-.023,0-.034" transform="translate(-346.206 -199.011)" fill="#444"/>
        <path id="Trazado_1276009" data-name="Trazado 1276009" d="M417.722,238.143v-.034a.85.85,0,1,0-.876.885h.054a.851.851,0,0,0,.822-.851" transform="translate(-342.265 -195.221)" fill="#444"/>
      </g>
    </g>
  </g>
</svg>
