<svg xmlns="http://www.w3.org/2000/svg" xmlns:xlink="http://www.w3.org/1999/xlink" width="129.063" height="84.691" viewBox="0 0 129.063 84.691">
  <defs>
    <clipPath id="clip-path">
      <rect id="Rectángulo_412520" data-name="Rectángulo 412520" width="76.518" height="67.702" fill="none"/>
    </clipPath>
  </defs>
  <g id="Grupo_1202004" data-name="Grupo 1202004" transform="translate(-781.182 -2548.442)">
    <rect id="Rectángulo_410589" data-name="Rectángulo 410589" width="84.691" height="84.691" transform="translate(807.861 2548.442)" fill="none"/>
    <g id="Rectángulo_412551" data-name="Rectángulo 412551" transform="translate(781.182 2569.278)" fill="#a1c6f1" stroke="#6f89a8" stroke-width="1">
      <rect width="129.063" height="43.021" rx="8" stroke="none"/>
      <rect x="0.5" y="0.5" width="128.063" height="42.021" rx="7.5" fill="none"/>
    </g>
    <g id="Grupo_1202009" data-name="Grupo 1202009" transform="translate(811.948 2551.937)">
      <g id="Grupo_1202008" data-name="Grupo 1202008" clip-path="url(#clip-path)">
        <path id="Trazado_1274862" data-name="Trazado 1274862" d="M26.858,20.979a27.955,27.955,0,0,0,5.854-3.957l10.658-8.6c1.119-.9,2.747-1.822,3.863-.915,1.158.941.494,2.792-.253,4.084L41.82,20.513l20.762.731c1.7.06,3.542.169,4.856,1.254s1.569,3.528.062,4.323a3.31,3.31,0,0,1,5.008,2.094,3.31,3.31,0,0,1-4.29,3.327,2.341,2.341,0,0,1,1.72,2.941,3.812,3.812,0,0,1-2.785,2.437,11.243,11.243,0,0,1-3.851.109,2.642,2.642,0,0,1,1.144,3.026,4.543,4.543,0,0,1-2.23,2.584c-2.283,1.3-22.259,1.537-24.884,1.441-13.4-.492-9.584-1.73-22.916-3.155-1.126-.12-2.262.329-3.193-.316-1.8-1.245-1.486-14.638.286-17.656,1.57-2.675,6.091-1.128,8.614-1.225a17.939,17.939,0,0,0,6.735-1.45" transform="translate(-8.507 -6.055)" fill="#ffdbb3"/>
        <path id="Trazado_1274863" data-name="Trazado 1274863" d="M70.195,349.249H6.322A6.323,6.323,0,0,1,0,342.926v-.938c0-3.492,11.168-10.4,17.054-10.4a16.117,16.117,0,0,1,11.47,4.528s3.595,11.564,10.866,10.112c4.315-.862,10.715-12.828,10.715-12.828l11.319-1.66c3.492,0,15.092,6.755,15.092,10.247v.938a6.323,6.323,0,0,1-6.323,6.323" transform="translate(0 -281.547)" fill="#b08658"/>
        <path id="Trazado_1274864" data-name="Trazado 1274864" d="M264.113,335.239a1.083,1.083,0,0,0-.546.143,1.18,1.18,0,0,0-.55.837,1.9,1.9,0,0,0,.247,1.281,1.36,1.36,0,1,0,2.289-1.321,1.754,1.754,0,0,0-1.44-.939" transform="translate(-223.299 -284.644)" fill="#ffdc7a"/>
        <path id="Trazado_1274865" data-name="Trazado 1274865" d="M202.052,284.315a1.369,1.369,0,0,0-.458-.083,1.077,1.077,0,0,0-.541.141,1.181,1.181,0,0,0-.55.837,1.9,1.9,0,0,0,.247,1.28,1.536,1.536,0,0,0,1.985.8,1.18,1.18,0,0,0,.55-.837,1.993,1.993,0,0,0-1.232-2.134" transform="translate(-170.219 -241.335)" fill="#ffdc7a"/>
        <path id="Trazado_1274866" data-name="Trazado 1274866" d="M64.232,20.765a.725.725,0,0,1,.724-.7h.021l6.421.179c.065-.083.128-.168.186-.259a3.1,3.1,0,0,0,.193-3.084,3.356,3.356,0,0,0-3.058-1.713c-.995-.046-3.294-.2-6.2-.392-5.606-.372-13.009-.862-17.03-.994A42.864,42.864,0,0,0,50.5,5.555c1.535-3.511.325-4.8-.267-5.188C48.99-.455,47.028.136,45.465,1.8c-2.673,2.848-8.916,7.874-13.583,11.336a11.026,11.026,0,0,1-7.29,2.449h-.036c-3.224.141-10.5.024-10.576.023a.724.724,0,1,0-.024,1.449c.3.005,7.37.118,10.645-.023h.082A12.464,12.464,0,0,0,32.742,14.3c4.72-3.5,11.046-8.6,13.78-11.511,1.124-1.2,2.388-1.564,2.916-1.217.438.289.631,1.352-.263,3.4a37.262,37.262,0,0,1-5.756,8.97.724.724,0,0,0,.474,1.27c3.26.012,12.084.6,18.527,1.024,2.919.193,5.224.346,6.233.394a2.041,2.041,0,0,1,1.838.931,1.649,1.649,0,0,1-.126,1.636,2.182,2.182,0,0,1-2.022.921h-.018l-15.177-.326a.724.724,0,0,0-.031,1.448l11.694.252a.723.723,0,0,1-.577-.728" transform="translate(-11.245 0)" fill="#444"/>
        <path id="Trazado_1274867" data-name="Trazado 1274867" d="M288.505,139.763a.727.727,0,0,1,.758-.69,4.137,4.137,0,0,1,3.063,1.418,3.4,3.4,0,0,0,3.6-3.153c.07-1.452-.941-3.069-3.329-3.188h-.016l-1.416-.04a3.59,3.59,0,0,1-2.906,1.332c-.069,0-.138,0-.208,0l-3.475-.075a.75.75,0,0,0,.127.016l7.828.218c1.491.077,1.983.913,1.946,1.671a1.987,1.987,0,0,1-2.3,1.771h-.038l-19.346.1a.724.724,0,0,0,0,1.449h0l16.269-.085a.723.723,0,0,1-.572-.74" transform="translate(-231.017 -113.869)" fill="#444"/>
        <path id="Trazado_1274868" data-name="Trazado 1274868" d="M355.347,134.433a3.59,3.59,0,0,0,2.906-1.332l-6.421-.179h-.021a.724.724,0,0,0-.147,1.432l3.475.075q.105,0,.208,0" transform="translate(-298.1 -112.86)" fill="#444"/>
        <path id="Trazado_1274869" data-name="Trazado 1274869" d="M282.933,206.573a.724.724,0,0,1-.208-1.425l-10.69.488a.724.724,0,0,0,.032,1.448h.034l11.21-.512c-.122,0-.247,0-.378,0" transform="translate(-230.392 -174.187)" fill="#444"/>
        <path id="Trazado_1274870" data-name="Trazado 1274870" d="M353.747,181.985l2.081-.095c2.66-.134,3.848-1.788,3.845-3.368a3.4,3.4,0,0,0-.813-2.152c-.062,0-.125,0-.189,0l-3.059.016a.741.741,0,0,0,.118.018,2.331,2.331,0,0,1,2.495,2.125c0,.827-.644,1.825-2.466,1.917l-5.317.243a4.5,4.5,0,0,1,3.306,1.3" transform="translate(-297.552 -149.749)" fill="#444"/>
        <path id="Trazado_1274871" data-name="Trazado 1274871" d="M384.73,168.413A4.137,4.137,0,0,0,381.667,167a.723.723,0,0,0-.186,1.43l3.059-.016c.064,0,.127,0,.189,0" transform="translate(-323.421 -141.791)" fill="#444"/>
        <path id="Trazado_1274872" data-name="Trazado 1274872" d="M346.91,204.971a.731.731,0,0,0-.155.023l.556-.025c-.131,0-.264,0-.4,0" transform="translate(-294.422 -174.033)" fill="#444"/>
        <path id="Trazado_1274873" data-name="Trazado 1274873" d="M13.968,218.128h.16c5.583,0,12.009.137,17.877,1.647a37.11,37.11,0,0,0,9.2.966c2.332,0,4.7-.119,7.025-.235,4.349-.218,16.326-1.288,16.447-1.3l.041-.005c2.662-.394,3.723-2.216,3.583-3.743a3.181,3.181,0,0,0-.858-1.869l-3.277.15c1.742.053,2.608.941,2.692,1.852.082.895-.607,1.912-2.332,2.174-.576.051-12.134,1.081-16.369,1.293-5.647.283-10.981.551-15.788-.686-6.031-1.552-12.565-1.692-18.238-1.692h-.161a.724.724,0,0,0,0,1.449" transform="translate(-11.245 -181.354)" fill="#444"/>
        <path id="Trazado_1274874" data-name="Trazado 1274874" d="M344.255,204.98l-.556.025a.724.724,0,0,0,.208,1.425c.131,0,.256,0,.378,0l3.277-.15a4.5,4.5,0,0,0-3.306-1.3" transform="translate(-291.366 -174.044)" fill="#444"/>
        <path id="Trazado_1274875" data-name="Trazado 1274875" d="M115.215,152.517c4.005,0,8.347-2.276,9.58-5.392a.724.724,0,1,0-1.347-.533c-1.114,2.814-6.344,5.351-10.374,4.192a.724.724,0,1,0-.4,1.392,9.2,9.2,0,0,0,2.541.341" transform="translate(-95.224 -124.078)" fill="#444"/>
        <path id="Trazado_1274876" data-name="Trazado 1274876" d="M85.157,332.885c-.013,0-.026,0-.039,0a7.353,7.353,0,0,1-4.978-1.9l-.027-.023c-1.94-1.542-5.633-2.5-9.64-2.5-4.979,0-9.258,1.437-10.647,3.576l-.017.028-4.565,7.771-.013.023c-.826,1.53-3.1,2.558-5.669,2.558s-4.843-1.028-5.67-2.558l-.013-.023-4.565-7.771-.017-.028c-1.389-2.139-5.668-3.576-10.647-3.576-4.006,0-7.7.958-9.64,2.5l-.027.023a7.352,7.352,0,0,1-4.978,1.9h-.039a.724.724,0,0,0,0,1.449,8.759,8.759,0,0,0,5.962-2.253c1.675-1.321,5.1-2.174,8.725-2.174,4.934,0,8.47,1.459,9.423,2.9l4.55,7.745c1.093,2.009,3.814,3.306,6.938,3.306s5.845-1.3,6.938-3.306l4.55-7.745c.953-1.445,4.489-2.9,9.423-2.9,3.629,0,7.05.853,8.725,2.174a8.758,8.758,0,0,0,5.919,2.253h.043a.724.724,0,0,0,0-1.449" transform="translate(-11.245 -278.886)" fill="#444"/>
        <path id="Trazado_1274877" data-name="Trazado 1274877" d="M194.389,274.789a2.56,2.56,0,0,0-3.462,2,3.343,3.343,0,0,0,.417,2.266,3.2,3.2,0,0,0,2.706,1.659,2.5,2.5,0,0,0,1.258-.333,2.6,2.6,0,0,0,1.251-1.831,3.439,3.439,0,0,0-2.171-3.76m.746,3.5a1.18,1.18,0,0,1-.55.837,1.536,1.536,0,0,1-1.985-.8,1.9,1.9,0,0,1-.247-1.28,1.181,1.181,0,0,1,.55-.837,1.075,1.075,0,0,1,.541-.141,1.367,1.367,0,0,1,.458.083,1.993,1.993,0,0,1,1.232,2.134" transform="translate(-162.069 -233.174)" fill="#444"/>
        <path id="Trazado_1274878" data-name="Trazado 1274878" d="M254.693,326a2.6,2.6,0,0,0-1.251,1.831,3.344,3.344,0,0,0,.417,2.266,3.2,3.2,0,0,0,2.706,1.659,2.5,2.5,0,0,0,1.258-.333A3.154,3.154,0,0,0,254.693,326m2.406,4.168a1.536,1.536,0,0,1-1.985-.8,1.9,1.9,0,0,1-.247-1.281,1.181,1.181,0,0,1,.55-.837,1.082,1.082,0,0,1,.546-.143,1.754,1.754,0,0,1,1.44.939,1.536,1.536,0,0,1-.3,2.117" transform="translate(-215.149 -276.516)" fill="#444"/>
        <path id="Trazado_1274879" data-name="Trazado 1274879" d="M119.308,363.573a.724.724,0,0,0,0-1.449h-2.717a.724.724,0,0,0,0,1.449Z" transform="translate(-98.38 -307.471)" fill="#444"/>
        <path id="Trazado_1274880" data-name="Trazado 1274880" d="M66.975,409.907a.724.724,0,0,0,0-1.449H64.258a.724.724,0,0,0,0,1.449Z" transform="translate(-53.945 -346.813)" fill="#444"/>
        <path id="Trazado_1274881" data-name="Trazado 1274881" d="M152.641,425.573a.724.724,0,1,0,0-1.449h-2.717a.724.724,0,1,0,0,1.449Z" transform="translate(-126.682 -360.114)" fill="#444"/>
        <path id="Trazado_1274882" data-name="Trazado 1274882" d="M399.641,361.907a.724.724,0,0,0,0-1.449h-2.717a.724.724,0,0,0,0,1.449Z" transform="translate(-336.405 -306.057)" fill="#444"/>
        <path id="Trazado_1274883" data-name="Trazado 1274883" d="M347.308,408.24a.724.724,0,0,0,0-1.449h-2.717a.724.724,0,1,0,0,1.449Z" transform="translate(-291.97 -345.397)" fill="#444"/>
        <path id="Trazado_1274884" data-name="Trazado 1274884" d="M432.975,423.907a.724.724,0,0,0,0-1.449h-2.717a.724.724,0,0,0,0,1.449Z" transform="translate(-364.708 -358.7)" fill="#444"/>
      </g>
    </g>
  </g>
</svg>
