<svg xmlns="http://www.w3.org/2000/svg" width="129.063" height="83.995" viewBox="0 0 129.063 83.995">
  <g id="Grupo_1202229" data-name="Grupo 1202229" transform="translate(-787.781 -2546.617)">
    <g id="Rectángulo_410589" data-name="Rectángulo 410589" transform="translate(787.781 2575.623)" fill="#ffc94a" stroke="#dfab32" stroke-width="1">
      <rect width="129.063" height="43.021" rx="8" stroke="none"/>
      <rect x="0.5" y="0.5" width="128.063" height="42.021" rx="7.5" fill="none"/>
    </g>
    <g id="family_10880489" transform="translate(802.889 2534.631)">
      <g id="Grupo_1202061" data-name="Grupo 1202061" transform="translate(7.5 12.986)">
        <g id="Grupo_1202054" data-name="Grupo 1202054" transform="translate(31.107 29.936)">
          <g id="Grupo_1202053" data-name="Grupo 1202053" transform="translate(0 18.043)">
            <path id="Trazado_1275366" data-name="Trazado 1275366" d="M195.658,297.38a3.774,3.774,0,0,0-3.774,3.774V313a2.5,2.5,0,0,0,2.5,2.5h0a2.5,2.5,0,0,0,2.5-2.5V297.38h-1.22Z" transform="translate(-191.884 -297.38)" fill="#a2e62e"/>
            <path id="Trazado_1275367" data-name="Trazado 1275367" d="M191.884,374v2.7a2.5,2.5,0,0,0,2.5,2.5h0a2.5,2.5,0,0,0,2.5-2.5V374Z" transform="translate(-191.884 -361.074)" fill="#f89580"/>
            <path id="Trazado_1275368" data-name="Trazado 1275368" d="M291.29,297.381h-.776v15.625a2.5,2.5,0,0,0,2.5,2.5h0a2.5,2.5,0,0,0,2.5-2.5V301.6A4.218,4.218,0,0,0,291.29,297.381Z" transform="translate(-273.875 -297.381)" fill="#a2e62e"/>
            <path id="Trazado_1275369" data-name="Trazado 1275369" d="M290.514,374v2.7a2.5,2.5,0,0,0,2.5,2.5h0a2.5,2.5,0,0,0,2.5-2.5V374Z" transform="translate(-273.875 -361.074)" fill="#f89580"/>
          </g>
          <rect id="Rectángulo_412527" data-name="Rectángulo 412527" width="11.645" height="16.064" transform="translate(4.994 35.995)" fill="#918291"/>
          <rect id="Rectángulo_412528" data-name="Rectángulo 412528" width="2.873" height="15.895" transform="translate(13.767 36.164)" fill="#7a6d79"/>
          <rect id="Rectángulo_412529" data-name="Rectángulo 412529" width="2.873" height="15.895" transform="translate(7.944 36.164)" fill="#7a6d79"/>
          <circle id="Elipse_12366" data-name="Elipse 12366" cx="6.861" cy="6.861" r="6.861" transform="translate(3.955)" fill="#f89580"/>
          <path id="Trazado_1275370" data-name="Trazado 1275370" d="M230.145,191.329a6.862,6.862,0,0,1-6.971,10.76,6.861,6.861,0,1,0,6.971-10.76Z" transform="translate(-217.895 -191.178)" fill="#ec806b"/>
          <rect id="Rectángulo_412530" data-name="Rectángulo 412530" width="11.645" height="18.122" transform="translate(4.994 18.043)" fill="#97d729"/>
          <path id="Trazado_1275371" data-name="Trazado 1275371" d="M229.671,297.381v12.083a2.531,2.531,0,0,1-2.531,2.531h-5.654V315.5h11.645V297.381Z" transform="translate(-216.492 -279.338)" fill="#8bc727"/>
        </g>
        <g id="Grupo_1202055" data-name="Grupo 1202055" transform="translate(0 3.864)">
          <path id="Trazado_1275372" data-name="Trazado 1275372" d="M12.624,164.931h0A5.124,5.124,0,0,0,7.5,170.055v18.572a2.562,2.562,0,0,0,2.562,2.562h0a2.562,2.562,0,0,0,2.562-2.562v-23.7Z" transform="translate(-7.5 -143.161)" fill="#fe646f"/>
          <path id="Trazado_1275373" data-name="Trazado 1275373" d="M7.5,242v10.694a2.562,2.562,0,0,0,2.562,2.562h0a2.562,2.562,0,0,0,2.562-2.562V242Z" transform="translate(-7.5 -207.228)" fill="#f89580"/>
          <path id="Trazado_1275374" data-name="Trazado 1275374" d="M138.41,164.931h0v23.7a2.562,2.562,0,0,0,2.562,2.562h0a2.562,2.562,0,0,0,2.562-2.562V170.055A5.124,5.124,0,0,0,138.41,164.931Z" transform="translate(-116.325 -143.161)" fill="#fe646f"/>
          <path id="Trazado_1275375" data-name="Trazado 1275375" d="M138.41,242v10.694a2.562,2.562,0,0,0,5.124,0V242Z" transform="translate(-116.325 -207.228)" fill="#f89580"/>
          <rect id="Rectángulo_412531" data-name="Rectángulo 412531" width="12.99" height="10.032" transform="translate(7.109 68.1)" fill="#ffb09e"/>
          <rect id="Rectángulo_412532" data-name="Rectángulo 412532" width="2.976" height="10.032" transform="translate(17.124 68.1)" fill="#f89580"/>
          <rect id="Rectángulo_412533" data-name="Rectángulo 412533" width="2.976" height="10.032" transform="translate(10.628 68.1)" fill="#f89580"/>
          <circle id="Elipse_12367" data-name="Elipse 12367" cx="8.576" cy="8.576" r="8.576" transform="translate(5.028)" fill="#f89580"/>
          <rect id="Rectángulo_412534" data-name="Rectángulo 412534" width="16.961" height="22.996" transform="translate(5.124 21.77)" fill="#fb2b3a"/>
          <rect id="Rectángulo_412535" data-name="Rectángulo 412535" width="16.961" height="22.996" transform="translate(5.124 21.77)" fill="#fb2b3a"/>
          <path id="Trazado_1275376" data-name="Trazado 1275376" d="M50.515,181.939a2.531,2.531,0,0,1-2.531,2.531H37.871v3.458H54.832v-23H50.515v17.008Z" transform="translate(-32.747 -143.161)" fill="#e41f2d"/>
          <path id="Trazado_1275377" data-name="Trazado 1275377" d="M53.975,323.912H38.729a.858.858,0,0,1-.858-.858V300.241H54.832v22.813A.858.858,0,0,1,53.975,323.912Z" transform="translate(-32.747 -255.643)" fill="#918291"/>
          <path id="Trazado_1275378" data-name="Trazado 1275378" d="M50.515,317.924a2.531,2.531,0,0,1-2.531,2.531H37.871v2.6a.858.858,0,0,0,.858.858H53.975a.858.858,0,0,0,.858-.858V300.241H50.515Z" transform="translate(-32.747 -255.643)" fill="#7a6d79"/>
        </g>
        <g id="Grupo_1202057" data-name="Grupo 1202057" transform="translate(6.974 2.029)">
          <rect id="Rectángulo_412536" data-name="Rectángulo 412536" width="8.481" height="30.03" transform="translate(54.787 49.937)" fill="#918291"/>
          <rect id="Rectángulo_412537" data-name="Rectángulo 412537" width="16.961" height="30.198" transform="translate(54.787 49.768)" fill="#918291"/>
          <rect id="Rectángulo_412538" data-name="Rectángulo 412538" width="4.317" height="30.198" transform="translate(67.431 49.768)" fill="#7a6d79"/>
          <rect id="Rectángulo_412539" data-name="Rectángulo 412539" width="4.317" height="30.198" transform="translate(58.951 49.768)" fill="#7a6d79"/>
          <circle id="Elipse_12368" data-name="Elipse 12368" cx="8.576" cy="8.576" r="8.576" transform="translate(54.691)" fill="#f89580"/>
          <path id="Trazado_1275379" data-name="Trazado 1275379" d="M393.316,26.59a8.579,8.579,0,0,1-8.756,13.751,8.577,8.577,0,1,0,8.756-13.751Z" transform="translate(-327.922 -26.324)" fill="#ec806b"/>
          <path id="Trazado_1275380" data-name="Trazado 1275380" d="M57.6,37.466a8.579,8.579,0,0,1-8.756,13.751A8.577,8.577,0,1,0,57.6,37.466Z" transform="translate(-48.841 -35.365)" fill="#ec806b"/>
          <rect id="Rectángulo_412540" data-name="Rectángulo 412540" width="16.961" height="28.092" transform="translate(54.787 21.844)" fill="#26a6fe"/>
          <path id="Trazado_1275381" data-name="Trazado 1275381" d="M386.234,154.495v22.1a2.531,2.531,0,0,1-2.531,2.531H373.59v3.458h16.961V154.495Z" transform="translate(-318.803 -132.651)" fill="#0593fc"/>
          <g id="Grupo_1202056" data-name="Grupo 1202056" transform="translate(49.663 21.844)">
            <path id="Trazado_1275382" data-name="Trazado 1275382" d="M348.343,154.495a5.124,5.124,0,0,0-5.124,5.124v20.407a2.562,2.562,0,0,0,2.562,2.562h0a2.562,2.562,0,0,0,2.562-2.562V154.495Z" transform="translate(-343.219 -154.495)" fill="#8ac9fe"/>
            <path id="Trazado_1275383" data-name="Trazado 1275383" d="M343.219,232v12.455a2.562,2.562,0,1,0,5.124,0V232Z" transform="translate(-343.219 -218.924)" fill="#f89580"/>
            <path id="Trazado_1275384" data-name="Trazado 1275384" d="M474.129,154.495h0v25.531a2.562,2.562,0,0,0,2.562,2.562h0a2.562,2.562,0,0,0,2.562-2.562V159.619A5.124,5.124,0,0,0,474.129,154.495Z" transform="translate(-452.044 -154.495)" fill="#8ac9fe"/>
            <path id="Trazado_1275385" data-name="Trazado 1275385" d="M474.129,232v12.455a2.562,2.562,0,0,0,2.562,2.562h0a2.562,2.562,0,0,0,2.562-2.562V232Z" transform="translate(-452.044 -218.924)" fill="#f89580"/>
          </g>
        </g>
        <g id="Grupo_1202060" data-name="Grupo 1202060" transform="translate(30.405)">
          <g id="Grupo_1202058" data-name="Grupo 1202058" transform="translate(17.592)">
            <path id="Trazado_1275386" data-name="Trazado 1275386" d="M297.833,17.2H292V13.492a.506.506,0,0,1,.506-.506h5.327a.506.506,0,0,1,.506.506V16.7A.506.506,0,0,1,297.833,17.2Z" transform="translate(-292 -12.986)" fill="#fb2b3a"/>
          </g>
          <g id="Grupo_1202059" data-name="Grupo 1202059" transform="translate(0 4.357)">
            <path id="Trazado_1275387" data-name="Trazado 1275387" d="M198.717,39,188.55,47.108a2.193,2.193,0,0,0-.825,1.714v8.411a.844.844,0,0,0,.844.844h21.35a.844.844,0,0,0,.844-.844V48.823a2.193,2.193,0,0,0-.825-1.714L199.77,39A.844.844,0,0,0,198.717,39Z" transform="translate(-187.725 -38.811)" fill="#cdbfba"/>
            <path id="Trazado_1275388" data-name="Trazado 1275388" d="M250.8,47.108,240.632,39a.843.843,0,0,0-1.052,0l-2.7,2.154,9.368,7.475a2.193,2.193,0,0,1,.825,1.714v7.739h3.708a.844.844,0,0,0,.844-.844V48.823A2.193,2.193,0,0,0,250.8,47.108Z" transform="translate(-228.587 -38.811)" fill="#b9acac"/>
            <path id="Trazado_1275389" data-name="Trazado 1275389" d="M237.258,120.949l-4.772-6.507-4.772,6.507Z" transform="translate(-220.968 -101.683)" fill="#a79ba7"/>
          </g>
        </g>
      </g>
      <g id="Grupo_1202062" data-name="Grupo 1202062" transform="translate(7.5 12.986)">
        <line id="Línea_572" data-name="Línea 572" x2="83.847" transform="translate(0 81.996)" fill="none" stroke="#000" stroke-linecap="round" stroke-linejoin="round" stroke-miterlimit="10" stroke-width="2"/>
        <line id="Línea_573" data-name="Línea 573" x1="4.994" transform="translate(31.107 60.905)" fill="none" stroke="#000" stroke-linecap="round" stroke-linejoin="round" stroke-miterlimit="10" stroke-width="2"/>
        <path id="Trazado_1275390" data-name="Trazado 1275390" d="M191.884,307.776V313a2.5,2.5,0,0,0,2.5,2.5h0a2.5,2.5,0,0,0,2.5-2.5V297.38h-1.22a3.774,3.774,0,0,0-3.774,3.774v.717" transform="translate(-160.777 -249.401)" fill="none" stroke="#000" stroke-linecap="round" stroke-linejoin="round" stroke-miterlimit="10" stroke-width="2"/>
        <line id="Línea_574" data-name="Línea 574" x1="4.994" transform="translate(47.746 60.905)" fill="none" stroke="#000" stroke-linecap="round" stroke-linejoin="round" stroke-miterlimit="10" stroke-width="2"/>
        <path id="Trazado_1275391" data-name="Trazado 1275391" d="M291.29,297.381h-.776v15.625a2.5,2.5,0,0,0,2.5,2.5h0a2.5,2.5,0,0,0,2.5-2.5V301.6A4.218,4.218,0,0,0,291.29,297.381Z" transform="translate(-242.768 -249.402)" fill="none" stroke="#000" stroke-linecap="round" stroke-linejoin="round" stroke-miterlimit="10" stroke-width="2"/>
        <rect id="Rectángulo_412541" data-name="Rectángulo 412541" width="11.645" height="15.895" transform="translate(36.101 66.101)" fill="none" stroke="#000" stroke-linecap="round" stroke-linejoin="round" stroke-miterlimit="10" stroke-width="2"/>
        <rect id="Rectángulo_412542" data-name="Rectángulo 412542" width="5.823" height="15.895" transform="translate(36.101 66.101)" fill="none" stroke="#000" stroke-linecap="round" stroke-linejoin="round" stroke-miterlimit="10" stroke-width="2"/>
        <circle id="Elipse_12369" data-name="Elipse 12369" cx="6.861" cy="6.861" r="6.861" transform="translate(35.062 29.936)" fill="none" stroke="#000" stroke-linecap="round" stroke-linejoin="round" stroke-miterlimit="10" stroke-width="2"/>
        <rect id="Rectángulo_412543" data-name="Rectángulo 412543" width="11.645" height="18.122" transform="translate(36.101 47.979)" fill="none" stroke="#000" stroke-linecap="round" stroke-linejoin="round" stroke-miterlimit="10" stroke-width="2"/>
        <line id="Línea_575" data-name="Línea 575" x1="5.124" transform="translate(0 38.636)" fill="none" stroke="#000" stroke-linecap="round" stroke-linejoin="round" stroke-miterlimit="10" stroke-width="2"/>
        <path id="Trazado_1275392" data-name="Trazado 1275392" d="M12.624,164.931h0A5.124,5.124,0,0,0,7.5,170.055v18.572a2.562,2.562,0,0,0,2.562,2.562h0a2.562,2.562,0,0,0,2.562-2.562v-23.7Z" transform="translate(-7.5 -139.297)" fill="none" stroke="#000" stroke-linecap="round" stroke-linejoin="round" stroke-miterlimit="10" stroke-width="2"/>
        <line id="Línea_576" data-name="Línea 576" x1="5.124" transform="translate(22.085 38.636)" fill="none" stroke="#000" stroke-linecap="round" stroke-linejoin="round" stroke-miterlimit="10" stroke-width="2"/>
        <path id="Trazado_1275393" data-name="Trazado 1275393" d="M138.41,164.931h0v23.7a2.562,2.562,0,0,0,2.562,2.562h0a2.562,2.562,0,0,0,2.562-2.562V170.055A5.124,5.124,0,0,0,138.41,164.931Z" transform="translate(-116.325 -139.297)" fill="none" stroke="#000" stroke-linecap="round" stroke-linejoin="round" stroke-miterlimit="10" stroke-width="2"/>
        <rect id="Rectángulo_412544" data-name="Rectángulo 412544" width="12.99" height="10.032" transform="translate(7.109 71.964)" fill="none" stroke="#000" stroke-linecap="round" stroke-linejoin="round" stroke-miterlimit="10" stroke-width="2"/>
        <rect id="Rectángulo_412545" data-name="Rectángulo 412545" width="6.495" height="10.032" transform="translate(7.109 71.964)" fill="none" stroke="#000" stroke-linecap="round" stroke-linejoin="round" stroke-miterlimit="10" stroke-width="2"/>
        <rect id="Rectángulo_412546" data-name="Rectángulo 412546" width="16.961" height="22.996" transform="translate(5.124 25.634)" fill="none" stroke="#000" stroke-linecap="round" stroke-linejoin="round" stroke-miterlimit="10" stroke-width="2"/>
        <path id="Trazado_1275394" data-name="Trazado 1275394" d="M37.871,323.886a.858.858,0,0,0,.858.858H53.975a.858.858,0,0,0,.858-.858V301.241H37.871Z" transform="translate(-32.747 -252.611)" fill="none" stroke="#000" stroke-linecap="round" stroke-linejoin="round" stroke-miterlimit="10" stroke-width="2"/>
        <rect id="Rectángulo_412547" data-name="Rectángulo 412547" width="16.961" height="30.03" transform="translate(61.761 51.966)" fill="none" stroke="#000" stroke-linecap="round" stroke-linejoin="round" stroke-miterlimit="10" stroke-width="2"/>
        <rect id="Rectángulo_412548" data-name="Rectángulo 412548" width="8.481" height="30.03" transform="translate(61.761 51.966)" fill="none" stroke="#000" stroke-linecap="round" stroke-linejoin="round" stroke-miterlimit="10" stroke-width="2"/>
        <circle id="Elipse_12370" data-name="Elipse 12370" cx="8.576" cy="8.576" r="8.576" transform="translate(61.666 2.029)" fill="none" stroke="#000" stroke-linecap="round" stroke-linejoin="round" stroke-miterlimit="10" stroke-width="2"/>
        <path id="Trazado_1275395" data-name="Trazado 1275395" d="M37.973,41.14A8.584,8.584,0,1,0,42,36.818" transform="translate(-32.276 -32.025)" fill="none" stroke="#000" stroke-linecap="round" stroke-linejoin="round" stroke-miterlimit="10" stroke-width="2"/>
        <rect id="Rectángulo_412549" data-name="Rectángulo 412549" width="16.961" height="28.092" transform="translate(61.761 23.873)" fill="none" stroke="#000" stroke-linecap="round" stroke-linejoin="round" stroke-miterlimit="10" stroke-width="2"/>
        <path id="Trazado_1275396" data-name="Trazado 1275396" d="M343.219,232v12.455a2.562,2.562,0,1,0,5.124,0V232Z" transform="translate(-286.581 -195.051)" fill="none" stroke="#000" stroke-linecap="round" stroke-linejoin="round" stroke-miterlimit="10" stroke-width="2"/>
        <path id="Trazado_1275397" data-name="Trazado 1275397" d="M343.219,165.715v14.311a2.562,2.562,0,1,0,5.124,0V154.495h0a5.124,5.124,0,0,0-5.124,5.124v.191" transform="translate(-286.581 -130.622)" fill="none" stroke="#000" stroke-linecap="round" stroke-linejoin="round" stroke-miterlimit="10" stroke-width="2"/>
        <path id="Trazado_1275398" data-name="Trazado 1275398" d="M474.129,232v12.455a2.562,2.562,0,0,0,2.562,2.562h0a2.562,2.562,0,0,0,2.562-2.562V232Z" transform="translate(-395.406 -195.051)" fill="none" stroke="#000" stroke-linecap="round" stroke-linejoin="round" stroke-miterlimit="10" stroke-width="2"/>
        <path id="Trazado_1275399" data-name="Trazado 1275399" d="M474.129,154.495h0v25.531a2.562,2.562,0,0,0,2.562,2.562h0a2.562,2.562,0,0,0,2.562-2.562V159.619A5.124,5.124,0,0,0,474.129,154.495Z" transform="translate(-395.406 -130.622)" fill="none" stroke="#000" stroke-linecap="round" stroke-linejoin="round" stroke-miterlimit="10" stroke-width="2"/>
        <line id="Línea_577" data-name="Línea 577" y1="7.276" transform="translate(47.997 1.692)" fill="none" stroke="#000" stroke-linecap="round" stroke-linejoin="round" stroke-miterlimit="10" stroke-width="2"/>
        <path id="Trazado_1275400" data-name="Trazado 1275400" d="M297.833,17.2H292V13.492a.506.506,0,0,1,.506-.506h5.327a.506.506,0,0,1,.506.506V16.7A.506.506,0,0,1,297.833,17.2Z" transform="translate(-244.003 -12.986)" fill="none" stroke="#000" stroke-linecap="round" stroke-linejoin="round" stroke-miterlimit="10" stroke-width="2"/>
        <path id="Trazado_1275401" data-name="Trazado 1275401" d="M198.717,39,188.55,47.108a2.193,2.193,0,0,0-.825,1.714v8.411a.844.844,0,0,0,.844.844h21.35a.844.844,0,0,0,.844-.844V48.823a2.193,2.193,0,0,0-.825-1.714L199.77,39A.844.844,0,0,0,198.717,39Z" transform="translate(-157.32 -34.454)" fill="none" stroke="#000" stroke-linecap="round" stroke-linejoin="round" stroke-miterlimit="10" stroke-width="2"/>
        <path id="Trazado_1275402" data-name="Trazado 1275402" d="M237.258,120.949l-4.772-6.507-4.772,6.507Z" transform="translate(-190.563 -97.326)" fill="none" stroke="#000" stroke-linecap="round" stroke-linejoin="round" stroke-miterlimit="10" stroke-width="2"/>
        <line id="Línea_578" data-name="Línea 578" y1="4.754" transform="translate(41.923 12.362)" fill="none" stroke="#000" stroke-linecap="round" stroke-linejoin="round" stroke-miterlimit="10" stroke-width="2"/>
      </g>
    </g>
  </g>
</svg>
