<svg xmlns="http://www.w3.org/2000/svg" width="129.063" height="76.776" viewBox="0 0 129.063 76.776">
  <g id="Grupo_1202231" data-name="Grupo 1202231" transform="translate(-787.781 -2553.746)">
    <g id="Rectángulo_410589" data-name="Rectángulo 410589" transform="translate(787.781 2575.623)" fill="#ffc94a" stroke="#dfab32" stroke-width="1">
      <rect width="129.063" height="43.021" rx="8" stroke="none"/>
      <rect x="0.5" y="0.5" width="128.063" height="42.021" rx="7.5" fill="none"/>
    </g>
    <g id="reed_6795473" transform="translate(801.551 2513.505)">
      <path id="Trazado_1275427" data-name="Trazado 1275427" d="M202.18,74.07H173.431V48.737a7.5,7.5,0,0,1,7.5-7.5h13.758a7.5,7.5,0,0,1,7.5,7.5V74.07Z" transform="translate(-137.044)" fill="#ffe177"/>
      <path id="Trazado_1275428" data-name="Trazado 1275428" d="M278.087,41.241h-3.673a7.5,7.5,0,0,1,7.5,7.5V74.07h3.673V48.737A7.5,7.5,0,0,0,278.087,41.241Z" transform="translate(-220.447 0)" fill="#ffd15b"/>
      <path id="Trazado_1275429" data-name="Trazado 1275429" d="M185.281,41.241h-4.354a7.5,7.5,0,0,0-7.5,7.5V74.07H202.18V48.737a7.5,7.5,0,0,0-7.5-7.5H190.33" transform="translate(-137.044)" fill="none" stroke="#000" stroke-linecap="round" stroke-linejoin="round" stroke-miterlimit="10" stroke-width="2"/>
      <path id="Trazado_1275430" data-name="Trazado 1275430" d="M82.293,113.623h0a10.347,10.347,0,0,1,5.973,7.155l4.558,19.612,12.268-3.274-2.615-17.928a22.286,22.286,0,0,0-15.589-18.111h0a6.691,6.691,0,0,0-8.3,4.325h0A6.691,6.691,0,0,0,82.293,113.623Z" transform="translate(-58.438 -49.18)" fill="#6fd7a3"/>
      <path id="Trazado_1275431" data-name="Trazado 1275431" d="M82.293,113.623h0a10.347,10.347,0,0,1,5.973,7.155l4.558,19.612,12.268-3.274-2.615-17.928a22.286,22.286,0,0,0-15.589-18.111h0a6.691,6.691,0,0,0-8.3,4.325h0A6.691,6.691,0,0,0,82.293,113.623Z" transform="translate(-58.438 -49.18)" fill="none" stroke="#000" stroke-linecap="round" stroke-linejoin="round" stroke-miterlimit="10" stroke-width="2"/>
      <path id="Trazado_1275432" data-name="Trazado 1275432" d="M117.549,134.479a21.718,21.718,0,0,1,9.327,9.714" transform="translate(-90.891 -77.006)" fill="none" stroke="#000" stroke-linecap="round" stroke-linejoin="round" stroke-miterlimit="10" stroke-width="2"/>
      <path id="Trazado_1275433" data-name="Trazado 1275433" d="M302.388,113.623h0a10.347,10.347,0,0,0-5.973,7.155l-4.558,19.612-12.268-3.274,2.615-17.928a22.286,22.286,0,0,1,15.589-18.111h0a6.691,6.691,0,0,1,8.3,4.325h0A6.691,6.691,0,0,1,302.388,113.623Z" transform="translate(-224.72 -49.18)" fill="#6fd7a3"/>
      <path id="Trazado_1275434" data-name="Trazado 1275434" d="M302.388,113.623h0a10.347,10.347,0,0,0-5.973,7.155l-4.558,19.612-12.268-3.274,2.615-17.928a22.286,22.286,0,0,1,15.589-18.111h0a6.691,6.691,0,0,1,8.3,4.325h0A6.691,6.691,0,0,1,302.388,113.623Z" transform="translate(-224.72 -49.18)" fill="none" stroke="#000" stroke-linecap="round" stroke-linejoin="round" stroke-miterlimit="10" stroke-width="2"/>
      <path id="Trazado_1275435" data-name="Trazado 1275435" d="M350.2,134.479a21.717,21.717,0,0,0-9.327,9.714" transform="translate(-275.338 -77.006)" fill="none" stroke="#000" stroke-linecap="round" stroke-linejoin="round" stroke-miterlimit="10" stroke-width="2"/>
      <path id="Trazado_1275436" data-name="Trazado 1275436" d="M13.408,211.539h0a10.059,10.059,0,0,1,7.681,4.808l10.137,16.747,10.348-6.732-7.832-15.778a21.667,21.667,0,0,0-19.877-12.028h0a6.506,6.506,0,0,0-6.365,6.5h0A6.505,6.505,0,0,0,13.408,211.539Z" transform="translate(-0.001 -129.924)" fill="#6fd7a3"/>
      <path id="Trazado_1275437" data-name="Trazado 1275437" d="M13.408,211.539h0a10.059,10.059,0,0,1,7.681,4.808l10.137,16.747,10.348-6.732-7.832-15.778a21.667,21.667,0,0,0-19.877-12.028h0a6.506,6.506,0,0,0-6.365,6.5h0A6.505,6.505,0,0,0,13.408,211.539Z" transform="translate(-0.001 -129.924)" fill="none" stroke="#000" stroke-linecap="round" stroke-linejoin="round" stroke-miterlimit="10" stroke-width="2"/>
      <path id="Trazado_1275438" data-name="Trazado 1275438" d="M43.578,232.551a14.988,14.988,0,0,1,8.36,4.061" transform="translate(-29.798 -158.004)" fill="none" stroke="#000" stroke-linecap="round" stroke-linejoin="round" stroke-miterlimit="10" stroke-width="2"/>
      <path id="Trazado_1275439" data-name="Trazado 1275439" d="M336.944,211.539h0a10.059,10.059,0,0,0-7.681,4.808l-10.137,16.747-10.348-6.732,7.832-15.778a21.667,21.667,0,0,1,19.877-12.028h0a6.506,6.506,0,0,1,6.365,6.5h0A6.505,6.505,0,0,1,336.944,211.539Z" transform="translate(-248.828 -129.924)" fill="#6fd7a3"/>
      <path id="Trazado_1275440" data-name="Trazado 1275440" d="M337.189,211.51a6.5,6.5,0,0,0,5.662-6.45h0a6.506,6.506,0,0,0-6.365-6.5h0a21.667,21.667,0,0,0-19.877,12.028l-7.832,15.778,10.348,6.732,10.137-16.747a10.053,10.053,0,0,1,3.13-3.225" transform="translate(-248.828 -129.923)" fill="none" stroke="#000" stroke-linecap="round" stroke-linejoin="round" stroke-miterlimit="10" stroke-width="2"/>
      <path id="Trazado_1275441" data-name="Trazado 1275441" d="M428.761,232.551a14.989,14.989,0,0,0-8.36,4.061" transform="translate(-341.019 -158.004)" fill="none" stroke="#000" stroke-linecap="round" stroke-linejoin="round" stroke-miterlimit="10" stroke-width="2"/>
      <path id="Trazado_1275442" data-name="Trazado 1275442" d="M143.656,342.938H87.235l-1.054-4.454a13.29,13.29,0,0,1,12.933-16.35h32.662a13.29,13.29,0,0,1,12.933,16.35Z" transform="translate(-64.684 -231.992)" fill="#fea95c"/>
      <path id="Trazado_1275443" data-name="Trazado 1275443" d="M143.656,342.938H87.235l-1.054-4.454a13.29,13.29,0,0,1,12.933-16.35h32.662a13.29,13.29,0,0,1,12.933,16.35Z" transform="translate(-64.684 -231.992)" fill="none" stroke="#000" stroke-linecap="round" stroke-linejoin="round" stroke-miterlimit="10" stroke-width="2"/>
      <g id="Grupo_1202083" data-name="Grupo 1202083" transform="translate(25.612 73.385)">
        <path id="Trazado_1275444" data-name="Trazado 1275444" d="M138.34,244.543l-8.132,8.132-13.5-11.668a14.906,14.906,0,0,1-4.969-13.663h0a1.54,1.54,0,0,1,1.274-1.274h0a14.906,14.906,0,0,1,13.663,4.969Z" transform="translate(-111.543 -225.877)" fill="#9be69d"/>
        <path id="Trazado_1275445" data-name="Trazado 1275445" d="M138.34,244.543l-8.132,8.132-13.5-11.668a14.906,14.906,0,0,1-4.969-13.663h0a1.54,1.54,0,0,1,1.274-1.274h0a14.906,14.906,0,0,1,13.663,4.969Z" transform="translate(-111.543 -225.877)" fill="none" stroke="#000" stroke-linecap="round" stroke-linejoin="round" stroke-miterlimit="10" stroke-width="2"/>
        <line id="Línea_579" data-name="Línea 579" x2="7.836" y2="7.836" transform="translate(6.358 6.357)" fill="none" stroke="#000" stroke-linecap="round" stroke-linejoin="round" stroke-miterlimit="10" stroke-width="2"/>
      </g>
      <g id="Grupo_1202084" data-name="Grupo 1202084" transform="translate(49.113 73.385)">
        <path id="Trazado_1275446" data-name="Trazado 1275446" d="M254.664,252.673l-8.132-8.132,11.668-13.5a14.906,14.906,0,0,1,13.663-4.969h0a1.54,1.54,0,0,1,1.274,1.274h0a14.906,14.906,0,0,1-4.969,13.663Z" transform="translate(-246.532 -225.876)" fill="#9be69d"/>
        <path id="Trazado_1275447" data-name="Trazado 1275447" d="M254.664,252.673l-8.132-8.132,11.668-13.5a14.906,14.906,0,0,1,13.663-4.969h0a1.54,1.54,0,0,1,1.274,1.274h0a14.906,14.906,0,0,1-4.969,13.663Z" transform="translate(-246.532 -225.876)" fill="none" stroke="#000" stroke-linecap="round" stroke-linejoin="round" stroke-miterlimit="10" stroke-width="2"/>
        <line id="Línea_580" data-name="Línea 580" x1="7.836" y2="7.836" transform="translate(12.604 6.358)" fill="none" stroke="#000" stroke-linecap="round" stroke-linejoin="round" stroke-miterlimit="10" stroke-width="2"/>
      </g>
      <g id="Grupo_1202085" data-name="Grupo 1202085" transform="translate(43.673 63.849)">
        <path id="Trazado_1275448" data-name="Trazado 1275448" d="M228.124,202.369h-11.5l-1.3-17.8a14.906,14.906,0,0,1,6.148-13.175h0a1.54,1.54,0,0,1,1.8,0h0a14.906,14.906,0,0,1,6.148,13.175Z" transform="translate(-215.285 -171.103)" fill="#d7f8c4"/>
        <path id="Trazado_1275449" data-name="Trazado 1275449" d="M248.717,171.395h0a1.54,1.54,0,0,0-1.8,0h0q-.425.307-.824.641a14.906,14.906,0,0,1,5.324,12.534l-1.3,17.8h3.45l1.3-17.8A14.905,14.905,0,0,0,248.717,171.395Z" transform="translate(-240.728 -171.104)" fill="#c9f6b0"/>
        <path id="Trazado_1275450" data-name="Trazado 1275450" d="M228.124,202.369h-11.5l-1.3-17.8a14.906,14.906,0,0,1,6.148-13.175h0a1.54,1.54,0,0,1,1.8,0h0a14.906,14.906,0,0,1,6.148,13.175Z" transform="translate(-215.285 -171.103)" fill="none" stroke="#000" stroke-linecap="round" stroke-linejoin="round" stroke-miterlimit="10" stroke-width="2"/>
        <line id="Línea_581" data-name="Línea 581" y2="11.081" transform="translate(7.088 8.11)" fill="none" stroke="#000" stroke-linecap="round" stroke-linejoin="round" stroke-miterlimit="10" stroke-width="2"/>
      </g>
      <circle id="Elipse_12371" data-name="Elipse 12371" cx="8.337" cy="8.337" r="8.337" transform="translate(42.424 89.383)" fill="#ffe177"/>
      <circle id="Elipse_12372" data-name="Elipse 12372" cx="8.337" cy="8.337" r="8.337" transform="translate(42.424 89.383)" fill="none" stroke="#000" stroke-linecap="round" stroke-linejoin="round" stroke-miterlimit="10" stroke-width="2"/>
      <path id="Trazado_1275451" data-name="Trazado 1275451" d="M228.131,342.642a4.852,4.852,0,1,1,9.7,0" transform="translate(-182.221 -244.922)" fill="none" stroke="#000" stroke-linecap="round" stroke-linejoin="round" stroke-miterlimit="10" stroke-width="2"/>
      <path id="Trazado_1275452" data-name="Trazado 1275452" d="M175.271,404.633H132.147v-1.785a6.289,6.289,0,0,1,6.289-6.289h30.545a6.289,6.289,0,0,1,6.289,6.289Z" transform="translate(-102.948 -293.459)" fill="#eb5569"/>
      <path id="Trazado_1275453" data-name="Trazado 1275453" d="M326.709,396.558h-3.587a6.289,6.289,0,0,1,6.289,6.289v1.785H333v-1.785A6.289,6.289,0,0,0,326.709,396.558Z" transform="translate(-260.675 -293.459)" fill="#e53950"/>
      <path id="Trazado_1275454" data-name="Trazado 1275454" d="M175.271,404.633H132.147v-1.785a6.289,6.289,0,0,1,6.289-6.289h30.545a6.289,6.289,0,0,1,6.289,6.289Z" transform="translate(-102.948 -293.459)" fill="none" stroke="#000" stroke-linecap="round" stroke-linejoin="round" stroke-miterlimit="10" stroke-width="2"/>
      <g id="Grupo_1202086" data-name="Grupo 1202086" transform="translate(7.499 94.35)">
        <path id="Trazado_1275455" data-name="Trazado 1275455" d="M72.705,367.97H28.817a11.965,11.965,0,0,1-11.693-9.424l-1.072-4.931a1.222,1.222,0,0,0-1.811-.795l-1.961,1.148a3.176,3.176,0,1,1-3.21-5.482l1.961-1.148a7.574,7.574,0,0,1,11.228,4.927l1.072,4.931a5.646,5.646,0,0,0,5.485,4.421H72.705a5.645,5.645,0,0,0,5.485-4.421l1.072-4.931a7.574,7.574,0,0,1,11.228-4.927l1.961,1.148a3.176,3.176,0,1,1-3.21,5.482l-1.961-1.148a1.222,1.222,0,0,0-1.811.795L84.4,358.546a11.965,11.965,0,0,1-11.692,9.424Z" transform="translate(-7.499 -346.303)" fill="#ffe177"/>
      </g>
      <g id="Grupo_1202087" data-name="Grupo 1202087" transform="translate(73.475 94.35)">
        <path id="Trazado_1275456" data-name="Trazado 1275456" d="M452.929,348.486l-1.961-1.148a7.6,7.6,0,0,0-6.87-.4c-.046.02-.091.044-.136.065a7.578,7.578,0,0,1,3.689,1.031l1.961,1.148a3.168,3.168,0,0,1,.605,5.018,3.174,3.174,0,0,0,2.712-5.715Z" transform="translate(-433.953 -346.303)" fill="#ffd15b"/>
        <path id="Trazado_1275457" data-name="Trazado 1275457" d="M396.958,386.928a1.222,1.222,0,0,0-1.811.795l-1.072,4.931a11.94,11.94,0,0,1-7.605,8.7,11.958,11.958,0,0,0,10.923-9.4l.921-4.236Z" transform="translate(-386.469 -379.715)" fill="#ffd15b"/>
      </g>
      <path id="Trazado_1275458" data-name="Trazado 1275458" d="M37.019,367.969H72.705A11.965,11.965,0,0,0,84.4,358.545l1.072-4.931a1.222,1.222,0,0,1,1.811-.795l1.961,1.148a3.176,3.176,0,1,0,3.21-5.482l-1.961-1.148a7.574,7.574,0,0,0-11.228,4.927L78.191,357.2a5.645,5.645,0,0,1-5.485,4.421H28.817a5.646,5.646,0,0,1-5.485-4.421l-1.072-4.931a7.574,7.574,0,0,0-11.228-4.927l-1.961,1.148a3.176,3.176,0,1,0,3.21,5.482l1.961-1.148a1.222,1.222,0,0,1,1.811.795l1.072,4.931a11.965,11.965,0,0,0,11.693,9.424H31.97" transform="translate(0 -251.952)" fill="none" stroke="#000" stroke-linecap="round" stroke-linejoin="round" stroke-miterlimit="10" stroke-width="2"/>
      <line id="Línea_582" data-name="Línea 582" y2="1.628" transform="translate(50.761 96.906)" fill="none" stroke="#000" stroke-linecap="round" stroke-linejoin="round" stroke-miterlimit="10" stroke-width="2"/>
      <g id="Grupo_1202088" data-name="Grupo 1202088" transform="translate(42.424 46.011)">
        <line id="Línea_583" data-name="Línea 583" x2="9.587" transform="translate(3.544 0)" fill="none" stroke="#000" stroke-linecap="round" stroke-linejoin="round" stroke-miterlimit="10" stroke-width="2"/>
        <line id="Línea_584" data-name="Línea 584" x2="16.675" transform="translate(0 4.27)" fill="none" stroke="#000" stroke-linecap="round" stroke-linejoin="round" stroke-miterlimit="10" stroke-width="2"/>
        <line id="Línea_585" data-name="Línea 585" x2="16.675" transform="translate(0 8.54)" fill="none" stroke="#000" stroke-linecap="round" stroke-linejoin="round" stroke-miterlimit="10" stroke-width="2"/>
        <line id="Línea_586" data-name="Línea 586" x2="9.587" transform="translate(3.544 12.81)" fill="none" stroke="#000" stroke-linecap="round" stroke-linejoin="round" stroke-miterlimit="10" stroke-width="2"/>
      </g>
      <g id="Grupo_1202089" data-name="Grupo 1202089" transform="translate(26.135 95.525)">
        <path id="Trazado_1275459" data-name="Trazado 1275459" d="M143.534,353.052a5.954,5.954,0,0,1,2.893,2.762" transform="translate(-138.487 -353.052)" fill="none" stroke="#000" stroke-linecap="round" stroke-linejoin="round" stroke-miterlimit="10" stroke-width="2"/>
        <path id="Trazado_1275460" data-name="Trazado 1275460" d="M119.73,377.084a4.591,4.591,0,0,0-5.187-.362" transform="translate(-114.543 -372.065)" fill="none" stroke="#000" stroke-linecap="round" stroke-linejoin="round" stroke-miterlimit="10" stroke-width="2"/>
      </g>
      <g id="Grupo_1202090" data-name="Grupo 1202090" transform="translate(67.448 95.525)">
        <path id="Trazado_1275461" data-name="Trazado 1275461" d="M354.74,353.052a5.954,5.954,0,0,0-2.893,2.762" transform="translate(-351.847 -353.052)" fill="none" stroke="#000" stroke-linecap="round" stroke-linejoin="round" stroke-miterlimit="10" stroke-width="2"/>
        <path id="Trazado_1275462" data-name="Trazado 1275462" d="M367.663,377.084a4.591,4.591,0,0,1,5.187-.362" transform="translate(-364.91 -372.065)" fill="none" stroke="#000" stroke-linecap="round" stroke-linejoin="round" stroke-miterlimit="10" stroke-width="2"/>
      </g>
    </g>
  </g>
</svg>
