<svg xmlns="http://www.w3.org/2000/svg" width="108.618" height="65.357" viewBox="0 0 108.618 65.357">
  <g id="Grupo_1201382" data-name="Grupo 1201382" transform="translate(-322.185 -4467.85)">
    <g id="Rectángulo_410589" data-name="Rectángulo 410589" transform="translate(322.185 4479.425)" fill="#ffc94a" stroke="#dfab32" stroke-width="1">
      <rect width="108.618" height="42.206" rx="8" stroke="none"/>
      <rect x="0.5" y="0.5" width="107.618" height="41.206" rx="7.5" fill="none"/>
    </g>
    <g id="location-pin_5333650" transform="translate(335.63 4467.85)">
      <path id="Trazado_1243602" data-name="Trazado 1243602" d="M47.933,29h17.7L81.973,64.4H3L19.339,29h17.7" transform="translate(-1.622 -0.407)" fill="#ebcc90"/>
      <path id="Trazado_1243603" data-name="Trazado 1243603" d="M53.616,60.062H68.594L59.8,41H40v8.17H53.616Z" transform="translate(11.757 3.932)" fill="#866042"/>
      <path id="Trazado_1243604" data-name="Trazado 1243604" d="M67,61.509V50.616h-35.4V37H14.315L3,61.509Z" transform="translate(-1.622 2.486)" fill="#c0935b"/>
      <path id="Trazado_1243605" data-name="Trazado 1243605" d="M34.9,9a11.043,11.043,0,0,0-10.1,15.168l10.1,25.68L45,24.168A11.043,11.043,0,0,0,34.9,9Z" transform="translate(5.969 -7.639)" fill="#737373"/>
      <circle id="Elipse_12339" data-name="Elipse 12339" cx="5.446" cy="5.446" r="5.446" transform="translate(35.418 6.807)" fill="#f0efec"/>
      <path id="Trazado_1243606" data-name="Trazado 1243606" d="M67.239,36.022A1.362,1.362,0,0,0,66,35.232H50.2l4.085-10.2a12.568,12.568,0,0,0-1.362-11.669,12.145,12.145,0,0,0-20.152,0,12.568,12.568,0,0,0-1.362,11.669l4.085,10.2H19.705a1.362,1.362,0,0,0-1.239.79L2.127,71.423a1.334,1.334,0,0,0,1.239,1.933H82.339a1.392,1.392,0,0,0,1.239-1.988ZM34.016,24.039a9.817,9.817,0,0,1,1.021-9.15,9.409,9.409,0,0,1,15.631,0,9.817,9.817,0,0,1,1.021,9.15L42.852,46.492ZM68.723,70.633V67.91H66v2.723H5.49L15.62,48.848h5.446V46.125H16.8l3.772-8.17H36.562l5.024,12.758a1.362,1.362,0,0,0,2.533,0l5.024-12.758H65.128l6.318,13.616H67.361v2.723h5.31l7.543,16.339Z" transform="translate(-1.988 -8.001)"/>
      <path id="Trazado_1243607" data-name="Trazado 1243607" d="M61.571,49.616H49.317V44.17h9.531V41.446H47.955a1.362,1.362,0,0,0-1.362,1.362v6.808H27.531V37.362A1.362,1.362,0,0,0,26.17,36H18v2.723h6.808V50.978a1.362,1.362,0,0,0,1.362,1.362H60.21v2.723h2.723V50.978A1.362,1.362,0,0,0,61.571,49.616Z" transform="translate(3.802 2.124)"/>
      <path id="Trazado_1243608" data-name="Trazado 1243608" d="M40.616,18.808a6.808,6.808,0,1,0-6.808,6.808A6.808,6.808,0,0,0,40.616,18.808Zm-10.893,0a4.085,4.085,0,1,1,4.085,4.085A4.085,4.085,0,0,1,29.723,18.808Z" transform="translate(7.056 -6.554)"/>
    </g>
  </g>
</svg>
